<svg xmlns="http://www.w3.org/2000/svg" xmlns:xlink="http://www.w3.org/1999/xlink" width="500" zoomAndPan="magnify" viewBox="0 0 375 374.999991" height="500" preserveAspectRatio="xMidYMid meet" version="1.2"><g id="d19ada7fcd"><path style=" stroke:none;fill-rule:nonzero;fill:#f0816a;fill-opacity:1;" d="M 290.628906 162.535156 C 286.714844 153.035156 279.628906 144.5 269.734375 141.097656 C 269.753906 140.835938 269.726562 140.554688 269.640625 140.246094 C 268.097656 134.945312 263.984375 130.449219 260.007812 126.636719 C 263.878906 116.714844 259.429688 104.183594 252.304688 96.839844 C 244.496094 88.78125 232.714844 86.109375 222.007812 89.105469 C 216.628906 90.617188 211.609375 93.492188 207.96875 97.742188 C 205.753906 97.382812 203.511719 97.140625 201.226562 97.058594 C 195.714844 96.863281 190.339844 97.453125 185.109375 98.679688 C 182.605469 92.289062 177.835938 86.097656 173.042969 81.390625 C 169.277344 77.695312 164.8125 74.566406 159.75 72.976562 C 147.398438 69.101562 133.246094 76.582031 125.472656 85.988281 C 121.699219 90.550781 118.921875 96.351562 119.378906 102.136719 C 119.390625 102.453125 119.410156 102.769531 119.4375 103.082031 C 119.472656 103.488281 119.566406 103.886719 119.707031 104.277344 C 119.84375 104.898438 120.019531 105.515625 120.246094 106.125 C 113.617188 110.710938 107.625 116.210938 102.96875 122.632812 C 102.835938 122.8125 102.753906 122.996094 102.691406 123.175781 C 96.9375 125.679688 91.074219 128.566406 86.6875 133.113281 C 82.046875 137.914062 78.605469 144.972656 80.488281 151.699219 C 80.804688 152.835938 81.796875 153.378906 82.789062 153.394531 C 82.507812 157.539062 83.003906 161.75 84.101562 165.839844 C 82.242188 169.304688 81.074219 173.046875 80.898438 176.851562 C 80.636719 182.53125 82.0625 189.089844 85.144531 193.902344 C 87.695312 197.890625 91.386719 200.589844 95.734375 201.933594 C 95.796875 206.363281 96.175781 210.773438 96.832031 215.089844 C 98.933594 228.84375 104.257812 243.410156 113.894531 253.722656 C 118.921875 259.109375 125.535156 263.035156 132.816406 264.34375 C 133.765625 264.515625 134.46875 263.957031 134.761719 263.253906 C 135.152344 263.402344 135.546875 263.535156 135.949219 263.660156 C 136.722656 263.898438 137.527344 264.085938 138.324219 264.21875 C 138.816406 264.304688 139.304688 264.34375 139.796875 264.367188 C 140.246094 264.390625 140.675781 264.304688 141.117188 264.339844 C 141.71875 264.386719 142.136719 264.089844 142.386719 263.671875 C 142.40625 263.671875 142.429688 263.675781 142.449219 263.675781 C 142.472656 263.675781 142.496094 263.671875 142.519531 263.671875 C 142.515625 264.015625 142.667969 264.367188 143.03125 264.667969 C 148.378906 269.089844 154.933594 271.851562 161.734375 273.164062 C 165.128906 273.816406 168.597656 274.175781 172.054688 274.160156 C 175.371094 274.152344 178.917969 273.988281 182.066406 272.820312 C 182.074219 273.429688 182.410156 274.003906 183.144531 274.105469 C 185.902344 274.480469 188.511719 274.511719 191.242188 273.925781 C 193.878906 273.367188 196.445312 272.28125 198.730469 270.855469 C 201 269.449219 203.066406 267.699219 204.742188 265.613281 C 205.980469 264.070312 207.511719 262.007812 208.167969 259.96875 C 211.140625 259.792969 214.101562 259.398438 216.972656 258.660156 C 217.28125 258.582031 217.535156 258.457031 217.757812 258.308594 C 227.054688 256.972656 237.246094 254.320312 243.238281 246.566406 C 248.171875 240.179688 249.554688 230.4375 243.921875 224.175781 C 243.929688 224.15625 243.949219 224.144531 243.960938 224.121094 C 244.894531 222.371094 245.730469 220.554688 246.519531 218.703125 C 249.585938 230.90625 250.21875 244.035156 248.644531 256.503906 C 247.296875 267.160156 244.316406 277.390625 236.300781 284.949219 C 234.433594 286.710938 236.859375 289.914062 239.058594 288.523438 C 241.410156 287.039062 243.351562 285.164062 244.984375 283.035156 C 269.074219 271.105469 283.039062 242.519531 276.925781 216.199219 C 276.242188 213.25 275.25 210.171875 273.878906 207.273438 C 275.128906 207.746094 276.382812 208.210938 277.652344 208.640625 C 279.097656 209.132812 280.546875 209.628906 282 210.109375 C 282.71875 210.34375 283.417969 210.605469 284.183594 210.640625 C 285.324219 210.6875 286.488281 210.015625 287.050781 209.027344 C 287.441406 208.339844 287.523438 207.539062 287.664062 206.777344 C 287.808594 206.023438 287.945312 205.269531 288.089844 204.511719 C 288.371094 203 288.648438 201.492188 288.902344 199.972656 C 288.941406 199.742188 288.964844 199.515625 289 199.285156 C 289.128906 198.808594 289.253906 198.324219 289.378906 197.847656 C 289.871094 197.691406 290.308594 197.355469 290.605469 196.789062 C 296.113281 186.363281 295.023438 173.191406 290.628906 162.535156 Z M 141.515625 243.4375 C 140.925781 244.960938 140.496094 246.4375 140.355469 248.070312 C 140.328125 248.417969 140.320312 248.769531 140.3125 249.117188 C 139.828125 249.378906 139.378906 249.707031 139.023438 250.148438 C 138.816406 250.40625 138.605469 250.667969 138.429688 250.953125 C 138.292969 251.179688 138.195312 251.417969 138.09375 251.65625 C 137.9375 252.023438 137.820312 252.410156 137.765625 252.808594 C 132.664062 245.28125 128.855469 236.859375 126.453125 228.050781 C 130.8125 233.75 136.160156 238.539062 142.09375 242.535156 C 141.851562 242.777344 141.65625 243.082031 141.515625 243.4375 Z M 141.515625 243.4375 "/><path style=" stroke:none;fill-rule:nonzero;fill:#2d371e;fill-opacity:1;" d="M 254.527344 152.429688 C 254.730469 152.390625 254.921875 152.367188 255.117188 152.351562 C 255.117188 152.351562 255.113281 152.351562 255.113281 152.351562 C 254.917969 152.375 254.722656 152.398438 254.527344 152.429688 Z M 119.433594 103.078125 C 119.464844 103.484375 119.5625 103.882812 119.699219 104.273438 C 119.542969 103.5625 119.433594 102.851562 119.375 102.136719 C 119.390625 102.449219 119.410156 102.765625 119.433594 103.078125 Z M 105.390625 152.164062 C 105.351562 152.179688 105.328125 152.207031 105.285156 152.222656 C 105.226562 152.242188 105.164062 152.265625 105.109375 152.289062 C 105.183594 152.328125 105.261719 152.363281 105.335938 152.410156 C 105.355469 152.328125 105.371094 152.246094 105.390625 152.164062 Z M 242.804688 95.648438 C 233.515625 90.105469 222.351562 91.585938 213.75 97.28125 C 213.15625 97.671875 212.574219 98.089844 212.003906 98.519531 C 212.488281 98.632812 212.9375 98.742188 212.917969 98.746094 C 223.15625 101.3125 232.691406 106.441406 241.546875 112.203125 C 246.335938 115.320312 250.992188 118.710938 255.347656 122.425781 C 255.648438 117.816406 255.472656 113.410156 253.722656 108.855469 C 251.667969 103.476562 247.78125 98.617188 242.804688 95.648438 Z M 250.558594 197.800781 C 250.574219 197.769531 250.585938 197.738281 250.597656 197.710938 C 250.578125 197.71875 250.554688 197.726562 250.535156 197.738281 C 250.542969 197.757812 250.550781 197.777344 250.558594 197.800781 Z M 289.363281 197.863281 C 289.242188 198.339844 289.117188 198.820312 288.988281 199.300781 C 288.949219 199.527344 288.925781 199.757812 288.886719 199.988281 C 288.628906 201.503906 288.355469 203.015625 288.074219 204.527344 C 287.933594 205.28125 287.792969 206.035156 287.652344 206.792969 C 287.507812 207.554688 287.425781 208.347656 287.035156 209.039062 C 286.476562 210.027344 285.3125 210.703125 284.167969 210.652344 C 283.40625 210.621094 282.703125 210.363281 281.988281 210.125 C 280.535156 209.648438 279.089844 209.144531 277.636719 208.652344 C 276.371094 208.222656 275.117188 207.761719 273.863281 207.289062 C 271.601562 202.492188 268.300781 198.1875 263.65625 195.785156 C 261.535156 194.691406 259.238281 197.390625 261.042969 199.171875 C 279.417969 217.3125 273.949219 248.554688 258.972656 266.988281 C 255.945312 270.714844 252.496094 273.980469 248.648438 276.75 C 251.203125 270.984375 252.410156 264.414062 253.15625 258.503906 C 254.289062 249.523438 254.117188 240.640625 252.832031 231.855469 C 252.796875 231.335938 252.71875 230.976562 252.636719 230.613281 C 252.492188 229.722656 252.339844 228.828125 252.175781 227.933594 C 252.121094 227.496094 252.0625 227.066406 251.960938 226.765625 C 251.351562 223.660156 250.617188 220.566406 249.738281 217.488281 C 249.527344 216.757812 249.011719 216.394531 248.441406 216.316406 C 248.113281 216.269531 247.769531 216.316406 247.453125 216.445312 C 247.640625 215.984375 247.816406 215.519531 248 215.050781 C 248.386719 214.054688 248.769531 213.054688 249.144531 212.054688 C 249.199219 211.980469 249.269531 211.925781 249.3125 211.847656 C 249.46875 211.550781 249.53125 211.25 249.550781 210.957031 C 250.304688 208.917969 251.054688 206.882812 251.84375 204.890625 C 254.410156 198.398438 256.863281 191.859375 259.511719 185.394531 C 260.203125 183.703125 257.253906 182.445312 256.535156 184.140625 C 255.117188 187.503906 253.644531 190.84375 252.164062 194.179688 C 251.957031 193.566406 251.546875 193.023438 250.949219 192.71875 C 248.414062 191.414062 245.769531 190.265625 243.082031 189.210938 C 246.171875 184.734375 248.390625 179.722656 249.425781 174.332031 C 250.058594 171.042969 250.320312 167.683594 250.085938 164.34375 C 249.855469 161.066406 249.621094 156.46875 247.300781 153.941406 C 245.683594 152.183594 243.082031 153.679688 242.917969 155.757812 C 242.800781 157.292969 243.449219 158.746094 243.824219 160.210938 C 244.199219 161.660156 244.488281 163.128906 244.652344 164.613281 C 244.980469 167.601562 244.972656 170.691406 244.574219 173.675781 C 243.910156 178.699219 242.183594 183.585938 239.476562 187.863281 C 237.382812 187.117188 235.285156 186.421875 233.195312 185.757812 C 231.949219 185.359375 230.699219 184.988281 229.445312 184.636719 C 229.289062 184.5 228.875 184.433594 228.457031 184.363281 C 228.121094 184.273438 227.78125 184.175781 227.449219 184.085938 C 227.8125 184.011719 228.167969 183.925781 228.523438 183.828125 C 229.457031 183.570312 230.375 183.242188 231.269531 182.8125 C 232.4375 182.246094 232.804688 180.652344 232.335938 179.546875 C 231.855469 178.398438 230.5 177.625 229.253906 178.03125 C 227.265625 178.675781 225.308594 179.398438 223.242188 179.753906 C 222.757812 179.839844 222.285156 179.945312 221.804688 180.027344 C 221.742188 180.039062 221.167969 180.117188 221.1875 180.125 C 220.988281 180.148438 220.792969 180.171875 220.589844 180.183594 C 219.503906 180.285156 218.777344 180.449219 217.722656 180.371094 C 217.621094 180.363281 217.519531 180.355469 217.410156 180.34375 C 217.171875 180.3125 216.9375 180.375 216.726562 180.480469 C 216.824219 180.191406 217.21875 179.785156 217.070312 179.570312 C 218.484375 177.191406 219.816406 174.765625 221.066406 172.296875 C 221.726562 171 222.359375 169.683594 222.972656 168.367188 C 223.546875 168.332031 224.121094 168.046875 224.527344 167.402344 C 227.285156 163.015625 229.445312 158.355469 230.925781 153.382812 C 231.660156 150.910156 232.246094 148.382812 232.675781 145.839844 C 233.078125 143.464844 233.503906 141.019531 233.183594 138.613281 C 232.570312 134.050781 228.902344 131.238281 224.488281 130.734375 C 219.992188 130.226562 215.96875 132.421875 212.3125 134.789062 C 213.160156 131.117188 213.335938 127.058594 210.945312 124.011719 C 206.695312 118.601562 199.816406 121.644531 195.042969 124.503906 C 191.902344 126.285156 188.242188 128.492188 185.265625 131.050781 C 184.011719 132.128906 170.582031 143.828125 169.53125 150.5625 C 168.84375 151.941406 169.417969 153.203125 170.390625 153.828125 C 166.539062 153.742188 162.679688 153.765625 158.832031 153.835938 C 154.632812 153.914062 150.4375 154.082031 146.246094 154.328125 C 142.300781 154.5625 137.894531 154.566406 134.101562 155.714844 C 134.09375 155.71875 134.085938 155.722656 134.078125 155.722656 C 133.902344 155.761719 133.734375 155.828125 133.582031 155.929688 C 132.964844 155.722656 132.269531 155.851562 131.953125 156.574219 C 129.058594 163.089844 126.648438 169.921875 124.925781 176.925781 C 124.027344 177.027344 123.152344 177.5625 122.734375 178.632812 C 118.433594 189.558594 117.542969 202.09375 118.777344 213.691406 C 120.039062 225.5 123.578125 236.964844 129.503906 247.273438 C 129.605469 247.449219 129.714844 247.617188 129.8125 247.792969 C 129.9375 248.15625 130.058594 248.523438 130.179688 248.886719 C 130.609375 249.4375 131.050781 249.976562 131.496094 250.507812 C 134.40625 254.984375 137.832031 259.171875 141.542969 262.992188 C 141.855469 263.316406 142.203125 263.460938 142.542969 263.488281 C 142.535156 263.550781 142.53125 263.613281 142.53125 263.675781 C 142.503906 263.675781 142.480469 263.679688 142.457031 263.679688 C 142.4375 263.679688 142.414062 263.675781 142.394531 263.675781 C 142.148438 264.097656 141.726562 264.398438 141.125 264.34375 C 140.6875 264.304688 140.257812 264.398438 139.808594 264.371094 C 139.3125 264.347656 138.820312 264.304688 138.332031 264.226562 C 137.535156 264.089844 136.734375 263.90625 135.960938 263.667969 C 135.5625 263.542969 135.167969 263.40625 134.769531 263.261719 C 135.113281 262.425781 134.867188 261.382812 133.714844 261.136719 C 121.578125 258.476562 113.378906 246.972656 108.53125 236.277344 C 103.652344 225.515625 101.257812 213.71875 101.269531 201.921875 C 102.039062 201.054688 102.175781 199.714844 101.332031 198.941406 C 101.371094 197.824219 101.398438 196.703125 101.480469 195.585938 C 102.0625 187.75 103.9375 180.105469 106.144531 172.582031 C 106.746094 170.535156 104.3125 168.941406 102.707031 169.652344 C 103.1875 167.757812 103.683594 165.863281 104.207031 163.980469 C 104.449219 163.105469 104.691406 162.230469 104.941406 161.359375 C 106.121094 162.511719 108.703125 161.960938 108.871094 159.777344 C 109.738281 148.449219 115.296875 137.34375 124.546875 130.535156 C 126.113281 129.378906 124.699219 126.765625 122.984375 127.859375 C 114.988281 132.96875 108.878906 140.820312 106.0625 149.800781 C 105.746094 149.351562 105.203125 149.085938 104.488281 149.277344 C 96.3125 151.488281 88.375 157.917969 84.113281 165.839844 C 83.015625 161.75 82.519531 157.53125 82.800781 153.394531 C 84.046875 153.410156 85.292969 152.601562 85.226562 151.058594 C 84.960938 145.183594 87.03125 140.132812 90.90625 135.789062 C 94.730469 131.496094 99.917969 128.664062 104.90625 125.890625 C 105.445312 125.90625 105.992188 125.742188 106.445312 125.3125 C 108.285156 123.550781 110.125 121.8125 111.992188 120.109375 C 111.085938 121.945312 111.886719 124.609375 114.4375 124.375 C 119.054688 123.949219 123.609375 123.09375 128.222656 122.664062 C 132.988281 122.222656 137.777344 122.007812 142.5625 122.105469 C 145.226562 122.164062 147.898438 122.304688 150.554688 122.542969 C 145.242188 124.53125 141.097656 129.15625 137.816406 133.640625 C 134.34375 138.386719 131.875 143.914062 130.714844 149.679688 C 130.414062 151.167969 131.144531 152.71875 132.683594 153.140625 C 134.085938 153.527344 135.824219 152.667969 136.144531 151.171875 C 137.269531 145.992188 139.3125 141.105469 142.273438 136.710938 C 145.265625 132.261719 149.429688 129.09375 153.050781 125.234375 C 153.71875 124.523438 153.621094 123.457031 153.085938 122.792969 C 154.203125 122.921875 155.320312 123.066406 156.433594 123.234375 C 158.671875 123.566406 160.910156 123.9375 163.128906 124.375 C 165.535156 124.851562 167.980469 125.535156 170.453125 125.441406 C 172.632812 125.359375 173.304688 122.628906 171.539062 121.445312 C 167.667969 118.859375 162.140625 118.167969 157.632812 117.394531 C 152.78125 116.5625 147.871094 116.007812 142.953125 115.765625 C 133.367188 115.296875 122.820312 115.503906 113.652344 118.613281 C 113.640625 118.617188 113.632812 118.621094 113.621094 118.621094 C 120.375 112.613281 127.472656 107.167969 135.652344 102.949219 C 141.277344 100.050781 147.484375 97.199219 153.804688 96.328125 C 159.324219 95.566406 166.390625 97.277344 168.5625 103.070312 C 169.292969 105.019531 172.367188 104.257812 171.742188 102.195312 C 169.894531 96.121094 164.269531 92.535156 158.164062 91.894531 C 150.757812 91.117188 143.320312 94.125 136.660156 97.035156 C 132.03125 99.054688 127.445312 101.460938 123.082031 104.238281 C 121.707031 98.710938 124.882812 92.574219 128.476562 88.515625 C 132.917969 83.496094 138.753906 79.539062 145.1875 77.605469 C 147.773438 76.824219 150.394531 76.351562 153.011719 76.386719 C 154.683594 76.410156 156.347656 76.636719 158.011719 77.132812 C 160.101562 77.757812 162.070312 78.710938 163.902344 79.882812 C 165.726562 81.046875 167.421875 82.425781 168.972656 83.914062 C 171.28125 86.113281 173.34375 88.566406 175.179688 91.175781 C 177.09375 93.890625 178.632812 96.84375 180.386719 99.652344 C 180.390625 99.75 180.394531 99.855469 180.398438 99.960938 C 177.8125 100.773438 175.253906 101.726562 172.726562 102.84375 C 171.070312 103.582031 172.273438 106.503906 173.972656 105.800781 C 177.207031 104.472656 180.582031 103.46875 184.039062 102.753906 C 184.148438 102.738281 184.257812 102.714844 184.363281 102.6875 C 196.476562 100.253906 209.527344 101.542969 220.699219 106.480469 C 232.324219 111.613281 243.433594 118.925781 252.875 127.414062 C 257.738281 131.785156 261.78125 136.589844 265.34375 142.058594 C 265.5625 142.394531 265.839844 142.640625 266.144531 142.816406 C 266.296875 143.285156 266.632812 143.703125 267.234375 143.914062 C 276.40625 147.085938 282.730469 155.847656 285.914062 164.695312 C 286.441406 166.164062 286.878906 167.652344 287.246094 169.140625 C 286.753906 168.804688 286.226562 168.5625 285.703125 168.296875 C 285.1875 168.03125 284.675781 167.917969 284.097656 167.996094 C 283.566406 168.066406 283.023438 168.28125 282.652344 168.6875 C 282.355469 169.007812 282.140625 169.382812 282 169.800781 C 281.796875 170.429688 281.953125 171.175781 282.253906 171.738281 C 282.527344 172.246094 282.773438 172.746094 283.105469 173.21875 C 283.582031 173.902344 284.152344 174.507812 284.703125 175.125 C 285.097656 175.5625 285.492188 176.003906 285.882812 176.441406 C 286.074219 176.65625 286.292969 176.84375 286.5 177.042969 C 286.785156 177.316406 287.085938 177.574219 287.410156 177.796875 C 287.480469 177.84375 287.546875 177.886719 287.617188 177.929688 C 287.855469 178.066406 288.234375 178.246094 288.511719 178.292969 C 288.515625 178.292969 288.515625 178.292969 288.519531 178.292969 C 288.726562 183.871094 287.921875 189.472656 286.242188 194.964844 C 285.628906 196.925781 287.765625 198.371094 289.363281 197.863281 Z M 260.894531 157.441406 C 260.871094 157.328125 260.84375 157.207031 260.816406 157.09375 C 260.699219 156.671875 260.496094 156.265625 260.304688 155.871094 C 260.117188 155.484375 259.789062 155.121094 259.53125 154.796875 C 259.382812 154.609375 259.210938 154.4375 259.035156 154.277344 C 258.550781 153.832031 258.027344 153.410156 257.464844 153.078125 C 257.101562 152.863281 256.675781 152.710938 256.289062 152.550781 C 256.179688 152.507812 256.070312 152.464844 255.960938 152.429688 C 255.671875 152.332031 255.40625 152.324219 255.136719 152.34375 C 254.925781 152.3125 254.722656 152.277344 254.511719 152.25 C 254.332031 152.277344 254.144531 152.300781 253.964844 152.324219 C 253.695312 152.386719 253.460938 152.507812 253.261719 152.691406 C 252.921875 152.953125 252.621094 153.332031 252.519531 153.765625 C 252.441406 154.128906 252.441406 154.5 252.519531 154.863281 C 252.640625 155.382812 253.023438 155.769531 253.433594 156.070312 C 253.441406 156.078125 253.449219 156.085938 253.457031 156.089844 C 253.515625 156.164062 253.570312 156.238281 253.628906 156.308594 C 253.644531 156.324219 253.664062 156.335938 253.675781 156.347656 C 254.144531 156.714844 254.574219 157.144531 254.960938 157.605469 C 255.160156 157.898438 255.355469 158.203125 255.558594 158.503906 C 255.921875 159.035156 256.242188 159.679688 256.742188 160.097656 C 257.046875 160.402344 257.410156 160.613281 257.832031 160.730469 C 258.265625 160.851562 258.703125 160.851562 259.140625 160.730469 C 259.917969 160.515625 260.699219 159.835938 260.859375 159.011719 C 260.867188 158.964844 260.878906 158.917969 260.886719 158.871094 C 261 158.230469 261.03125 158.082031 260.894531 157.441406 Z M 274.910156 162.3125 C 274.910156 161.890625 274.804688 161.5 274.589844 161.136719 C 274.492188 160.945312 274.394531 160.753906 274.296875 160.566406 C 274.195312 160.378906 274.054688 160.207031 273.9375 160.03125 C 273.816406 159.863281 273.703125 159.695312 273.582031 159.527344 C 273.46875 159.367188 273.347656 159.203125 273.230469 159.046875 C 273.035156 158.792969 273 158.753906 272.847656 158.636719 C 272.71875 158.515625 272.613281 158.359375 272.507812 158.21875 C 272.390625 158.074219 272.273438 157.925781 272.15625 157.777344 C 271.96875 157.574219 271.746094 157.433594 271.492188 157.351562 C 271.242188 157.222656 270.980469 157.164062 270.695312 157.175781 C 270.511719 157.199219 270.328125 157.222656 270.144531 157.246094 C 269.878906 157.308594 269.644531 157.433594 269.445312 157.613281 C 269.289062 157.703125 269.167969 157.828125 269.070312 157.984375 C 268.890625 158.1875 268.765625 158.421875 268.703125 158.6875 C 268.679688 158.871094 268.65625 159.054688 268.632812 159.238281 C 268.632812 159.609375 268.726562 159.957031 268.914062 160.277344 C 269 160.464844 269.085938 160.65625 269.171875 160.839844 C 269.1875 160.910156 269.195312 160.976562 269.21875 161.042969 C 269.304688 161.328125 269.445312 161.578125 269.578125 161.835938 C 269.675781 162.027344 269.777344 162.210938 269.878906 162.402344 C 269.972656 162.578125 270.058594 162.769531 270.167969 162.9375 C 270.292969 163.125 270.433594 163.304688 270.566406 163.488281 C 270.714844 163.757812 270.914062 163.972656 271.167969 164.140625 C 271.390625 164.347656 271.65625 164.484375 271.960938 164.558594 C 272.269531 164.652344 272.582031 164.667969 272.890625 164.601562 C 273.203125 164.585938 273.488281 164.496094 273.753906 164.324219 C 274.253906 164.003906 274.691406 163.523438 274.824219 162.929688 C 274.855469 162.726562 274.882812 162.523438 274.910156 162.3125 Z M 274.910156 162.3125 "/><path style=" stroke:none;fill-rule:nonzero;fill:#f7b9ac;fill-opacity:1;" d="M 104.34375 159.777344 C 104.324219 160.472656 104.558594 160.996094 104.925781 161.359375 C 104.679688 162.230469 104.433594 163.105469 104.191406 163.980469 C 103.671875 165.863281 103.175781 167.757812 102.691406 169.652344 C 102.277344 169.835938 101.914062 170.175781 101.675781 170.707031 C 98.171875 178.519531 96.371094 187.027344 95.875 195.628906 C 95.847656 196.035156 95.824219 196.445312 95.804688 196.851562 C 95.449219 196.671875 95.101562 196.488281 94.757812 196.292969 C 92.53125 195.011719 90.621094 193.257812 89.21875 190.9375 C 86.753906 186.859375 85.574219 181.597656 85.742188 176.851562 C 86.097656 166.492188 95.566406 155.683594 105.113281 152.289062 C 105.1875 152.328125 105.265625 152.363281 105.34375 152.410156 C 104.769531 154.804688 104.421875 157.269531 104.34375 159.777344 Z M 218.796875 222.953125 C 218.796875 222.917969 218.804688 222.878906 218.804688 222.839844 C 218.796875 222.839844 218.78125 222.84375 218.761719 222.847656 C 218.773438 222.882812 218.785156 222.921875 218.796875 222.953125 Z M 218.710938 222.859375 C 218.625 222.882812 218.503906 222.917969 218.429688 222.984375 C 218.496094 222.925781 218.652344 222.945312 218.710938 222.859375 Z M 218.054688 135.71875 C 217.78125 135.84375 217.511719 135.972656 217.242188 136.113281 C 217.46875 136.117188 217.992188 135.855469 218.054688 135.71875 Z M 186.90625 161.882812 C 186.914062 161.882812 186.914062 161.882812 186.90625 161.882812 C 186.988281 161.984375 186.988281 161.984375 186.90625 161.882812 Z M 124.914062 176.929688 C 126.636719 169.933594 129.046875 163.09375 131.945312 156.578125 C 132.261719 155.863281 132.960938 155.726562 133.570312 155.933594 C 133.730469 155.835938 133.890625 155.765625 134.066406 155.726562 C 134.078125 155.722656 134.082031 155.71875 134.09375 155.71875 C 137.882812 154.570312 142.289062 154.566406 146.234375 154.332031 C 150.425781 154.085938 154.621094 153.917969 158.820312 153.839844 C 162.671875 153.769531 166.527344 153.746094 170.382812 153.832031 C 171.414062 154.496094 172.898438 154.449219 173.800781 153.0625 C 178.765625 145.457031 184.238281 138.527344 191.300781 132.890625 C 191.5 132.9375 191.707031 132.957031 191.921875 132.925781 C 192.925781 132.808594 193.039062 132.761719 193.953125 132.6875 C 194.628906 132.636719 195.3125 132.605469 195.996094 132.617188 C 196.628906 132.621094 197.265625 132.65625 197.898438 132.710938 C 198.15625 132.734375 198.410156 132.761719 198.667969 132.792969 C 198.683594 132.796875 199.324219 132.902344 199.414062 132.917969 C 200.664062 133.148438 201.902344 133.472656 203.101562 133.898438 C 204.488281 134.386719 205.484375 134.890625 206.894531 135.285156 C 207.746094 135.523438 208.511719 135.171875 208.984375 134.578125 C 208.855469 135.253906 208.707031 135.882812 208.558594 136.425781 C 208.097656 138.140625 210.25 138.972656 211.25 137.929688 C 211.742188 138.585938 212.597656 138.917969 213.5 138.34375 C 213.609375 138.269531 213.722656 138.199219 213.839844 138.128906 C 213.914062 138.414062 214.074219 138.65625 214.289062 138.84375 C 214.472656 139.363281 214.882812 139.773438 215.460938 139.988281 C 215.28125 139.921875 215.457031 140.007812 215.53125 140.046875 C 215.738281 140.175781 216.035156 140.265625 216.285156 140.34375 C 216.566406 140.429688 216.851562 140.5 217.132812 140.585938 C 217.667969 140.753906 218.199219 140.945312 218.722656 141.144531 C 218.828125 141.183594 218.933594 141.226562 219.039062 141.269531 C 218.953125 141.234375 219.472656 141.449219 219.554688 141.484375 C 219.617188 141.507812 219.675781 141.53125 219.734375 141.554688 C 219.753906 141.566406 219.933594 141.640625 219.988281 141.671875 C 220.527344 141.917969 221.054688 142.1875 221.570312 142.480469 C 222.058594 142.757812 222.53125 143.058594 222.992188 143.378906 C 223.125 143.476562 223.265625 143.570312 223.398438 143.667969 C 223.402344 143.671875 223.425781 143.683594 223.445312 143.699219 C 223.46875 143.722656 223.910156 144.058594 223.9375 144.082031 C 223.992188 144.125 224.039062 144.164062 224.058594 144.175781 C 224.492188 144.53125 224.90625 144.90625 225.308594 145.300781 C 225.859375 145.839844 226.335938 146.511719 227.023438 146.871094 C 227.324219 147.027344 227.640625 147.125 227.957031 147.167969 C 226.558594 153.507812 224.015625 159.71875 221.011719 165.34375 C 220.132812 166.988281 221.570312 168.449219 222.976562 168.363281 C 222.363281 169.679688 221.730469 170.992188 221.074219 172.292969 C 219.820312 174.761719 218.484375 177.1875 217.078125 179.5625 C 216.851562 179.941406 216.621094 180.320312 216.394531 180.695312 C 216.0625 180.976562 215.835938 181.382812 215.789062 181.773438 C 215.695312 182.535156 216.15625 183.4375 216.976562 183.59375 C 218.195312 183.828125 219.367188 184.214844 220.59375 184.371094 C 221.679688 184.511719 222.800781 184.628906 223.894531 184.558594 C 225.101562 184.476562 226.289062 184.328125 227.449219 184.085938 C 227.785156 184.175781 228.121094 184.273438 228.457031 184.363281 C 228.785156 184.453125 229.113281 184.539062 229.445312 184.636719 C 230.699219 184.992188 231.949219 185.367188 233.195312 185.757812 C 235.285156 186.417969 237.382812 187.113281 239.476562 187.863281 C 238.964844 188.671875 238.421875 189.457031 237.839844 190.222656 C 236.609375 191.832031 239.355469 193.964844 240.660156 192.398438 C 241.515625 191.371094 242.320312 190.308594 243.082031 189.214844 C 245.769531 190.269531 248.414062 191.421875 250.949219 192.722656 C 251.546875 193.03125 251.957031 193.570312 252.164062 194.183594 C 251.640625 195.359375 251.121094 196.53125 250.601562 197.703125 C 250.582031 197.714844 250.558594 197.722656 250.539062 197.734375 C 250.550781 197.753906 250.554688 197.777344 250.5625 197.796875 C 249.746094 199.632812 248.929688 201.476562 248.125 203.324219 C 247.535156 204.667969 246.925781 206.007812 246.300781 207.359375 C 246.292969 207.355469 246.289062 207.355469 246.285156 207.351562 C 245.492188 206.882812 244.699219 206.417969 243.910156 205.949219 C 243.113281 205.484375 242.292969 205.085938 241.476562 204.660156 C 241.261719 204.546875 241.054688 204.417969 240.847656 204.296875 C 240.441406 203.636719 239.699219 203.242188 238.941406 203.210938 C 238.9375 203.207031 238.929688 203.207031 238.925781 203.199219 C 238.214844 202.78125 237.164062 203.015625 236.769531 203.769531 C 236.542969 204.1875 236.515625 204.605469 236.628906 204.980469 C 235.09375 209.265625 229.585938 210.410156 225.632812 209.199219 C 219.746094 207.394531 216.113281 201.136719 213.148438 196.199219 C 212.082031 194.425781 209.359375 196.007812 210.371094 197.824219 C 213.839844 204.058594 218.070312 211.476562 225.496094 213.457031 C 230.777344 214.867188 237.675781 213.234375 240.277344 208.222656 C 240.792969 208.652344 241.304688 209.089844 241.84375 209.488281 C 242.585938 210.042969 243.324219 210.59375 244.070312 211.144531 C 244.195312 211.238281 244.3125 211.328125 244.433594 211.417969 C 242.769531 215.050781 241.183594 218.722656 240.035156 222.476562 C 239.839844 223.113281 239.96875 223.679688 240.269531 224.128906 C 240.226562 224.316406 240.222656 224.511719 240.25 224.710938 C 239.476562 224.171875 238.644531 223.703125 237.828125 223.265625 C 235.789062 222.152344 233.664062 221.199219 231.496094 220.355469 C 229.34375 219.519531 227.128906 218.839844 224.875 218.316406 C 222.886719 217.859375 220.710938 217.3125 218.65625 217.46875 C 216.347656 217.644531 214.183594 218.875 213.519531 221.234375 C 212.960938 223.21875 213.679688 225.238281 214.726562 226.945312 C 214.726562 227.28125 214.785156 227.605469 214.964844 227.847656 C 215.996094 229.238281 217.175781 230.394531 218.464844 231.390625 C 223.097656 235.65625 229.460938 238.121094 235.769531 237.523438 C 236.414062 237.496094 237.054688 237.425781 237.679688 237.289062 C 240.222656 236.714844 242.441406 234.6875 243.273438 232.269531 C 243.40625 236.585938 241.355469 241.203125 238.519531 244.125 C 236.875 245.820312 234.96875 247.164062 232.914062 248.273438 C 232.691406 248.371094 232.460938 248.476562 232.238281 248.566406 C 232.21875 248.597656 232.199219 248.625 232.179688 248.652344 C 227.351562 251.082031 221.78125 252.320312 216.664062 253.71875 C 216.347656 253.667969 215.996094 253.671875 215.621094 253.757812 C 206.09375 255.96875 194.945312 255.070312 185.011719 253.460938 C 183.804688 252.570312 182.320312 252.355469 180.902344 252.726562 C 167.546875 250.179688 154.355469 245.621094 142.917969 238.21875 C 136.101562 233.8125 129.929688 228.117188 125.539062 221.257812 C 125.339844 220.949219 125.078125 220.777344 124.800781 220.667969 C 123.480469 213.351562 123.101562 205.878906 123.753906 198.535156 C 124.316406 192.203125 125.835938 186.074219 127.617188 179.984375 C 128.214844 177.929688 126.519531 176.738281 124.914062 176.929688 Z M 165.078125 199.671875 C 165.109375 196.664062 163.167969 194.6875 160.890625 193.035156 C 158.519531 191.316406 156.082031 189.695312 153.589844 188.167969 C 151.148438 186.667969 148.664062 185.101562 145.980469 184.0625 C 141.070312 182.152344 134.3125 183.824219 133.773438 189.910156 C 133.515625 192.839844 134.941406 195.433594 136.980469 197.546875 C 139.21875 201.382812 143.027344 204.421875 147.027344 206.164062 C 151.671875 208.191406 157.910156 209.371094 162.144531 205.804688 C 163.917969 204.324219 165.054688 201.976562 165.078125 199.671875 Z M 194.933594 208.804688 C 189.769531 206.507812 183.570312 206.546875 178.933594 210.070312 C 178.246094 210.59375 177.902344 211.433594 178.367188 212.246094 C 178.765625 212.949219 179.832031 213.292969 180.539062 212.8125 C 184.234375 210.292969 189.09375 210.652344 192.875 212.582031 C 194.785156 213.558594 196.621094 215.015625 197.722656 216.578125 C 198.34375 217.464844 198.855469 218.421875 199.109375 219.160156 C 199.585938 220.546875 199.636719 221.878906 200.597656 223.070312 C 201.460938 224.144531 203.421875 223.777344 204.015625 222.628906 C 205.492188 219.796875 203.164062 215.960938 201.398438 213.738281 C 199.710938 211.613281 197.421875 209.914062 194.933594 208.804688 Z M 181.832031 160.589844 C 182.433594 161.695312 183.09375 162.765625 183.765625 163.832031 C 184.433594 164.890625 185.078125 165.957031 185.828125 166.964844 C 186.636719 168.042969 187.515625 169.078125 188.460938 170.039062 C 189.460938 171.050781 190.589844 171.875 191.773438 172.664062 C 192.632812 173.238281 193.847656 172.902344 194.4375 172.132812 C 195.054688 171.335938 195.015625 170.144531 194.277344 169.421875 C 193.421875 168.585938 192.605469 167.722656 191.730469 166.902344 C 190.839844 166.054688 189.976562 165.1875 189.117188 164.308594 C 188.703125 163.882812 188.300781 163.4375 187.890625 163.007812 C 187.695312 162.808594 187.5 162.605469 187.3125 162.394531 C 187.210938 162.273438 187.113281 162.15625 187.019531 162.03125 C 186.980469 161.984375 186.941406 161.933594 186.902344 161.882812 C 186.160156 160.910156 185.5 159.867188 184.878906 158.808594 C 184.410156 158.011719 183.265625 157.65625 182.460938 158.171875 C 181.640625 158.703125 181.359375 159.71875 181.832031 160.589844 Z M 133.476562 165.613281 C 136.4375 167.277344 139.488281 168.75 142.578125 170.152344 C 143.191406 170.433594 143.761719 170.542969 144.425781 170.394531 C 144.515625 170.378906 144.59375 170.335938 144.679688 170.300781 C 147.34375 177.355469 152.714844 183.035156 159.753906 185.851562 C 166.652344 188.617188 174.683594 188.277344 180.964844 184.152344 C 183.417969 182.539062 181.234375 178.710938 178.644531 180.183594 C 167.179688 186.71875 152.59375 180.179688 147.601562 168.554688 C 147.324219 167.902344 146.730469 167.671875 146.132812 167.722656 C 146.105469 167.535156 146.058594 167.351562 145.976562 167.160156 C 145.660156 166.417969 145.144531 166.070312 144.425781 165.769531 C 141.296875 164.460938 138.144531 163.230469 134.914062 162.199219 C 134.023438 161.917969 133.054688 162.460938 132.710938 163.277344 C 132.359375 164.117188 132.660156 165.152344 133.476562 165.613281 Z M 209.277344 132.445312 C 209.296875 132.195312 209.3125 131.949219 209.320312 131.699219 C 209.230469 131.816406 209.207031 132.296875 209.277344 132.445312 Z M 209.277344 132.445312 "/><path style=" stroke:none;fill-rule:nonzero;fill:#f0816a;fill-opacity:1;" d="M 159.921875 251.699219 C 165.210938 253.765625 170.671875 255.453125 176.234375 256.761719 C 175.8125 257.363281 175.367188 257.941406 174.792969 258.394531 C 173.902344 259.101562 172.765625 259.496094 171.640625 259.617188 C 166.28125 260.160156 162.613281 255.945312 159.921875 251.699219 Z M 209.320312 131.699219 C 209.394531 129.457031 208.945312 127.234375 207.230469 126.070312 C 205.019531 124.566406 202.171875 125.8125 200.101562 126.949219 C 197.914062 128.152344 195.8125 129.546875 193.789062 131 C 192.933594 131.609375 192.109375 132.246094 191.296875 132.894531 C 191.496094 132.941406 191.703125 132.960938 191.917969 132.933594 C 192.917969 132.8125 193.035156 132.765625 193.945312 132.691406 C 194.625 132.640625 195.308594 132.613281 195.988281 132.621094 C 196.625 132.625 197.261719 132.660156 197.894531 132.71875 C 198.152344 132.742188 198.40625 132.765625 198.664062 132.796875 C 198.679688 132.804688 199.316406 132.90625 199.410156 132.921875 C 200.660156 133.152344 201.898438 133.476562 203.09375 133.902344 C 204.484375 134.394531 205.476562 134.894531 206.890625 135.289062 C 207.742188 135.53125 208.503906 135.175781 208.976562 134.585938 C 209.105469 133.90625 209.21875 133.179688 209.273438 132.441406 C 209.207031 132.296875 209.230469 131.816406 209.320312 131.699219 Z M 227.914062 136.683594 C 226.964844 135.511719 225.410156 134.898438 223.953125 134.675781 C 221.875 134.359375 219.914062 134.871094 218.058594 135.71875 C 217.992188 135.855469 217.46875 136.117188 217.25 136.113281 C 216.070312 136.71875 214.933594 137.433594 213.84375 138.132812 C 213.921875 138.417969 214.078125 138.660156 214.292969 138.847656 C 214.480469 139.367188 214.890625 139.78125 215.46875 139.996094 C 215.285156 139.925781 215.460938 140.011719 215.535156 140.050781 C 215.746094 140.179688 216.039062 140.269531 216.289062 140.347656 C 216.570312 140.433594 216.855469 140.503906 217.136719 140.589844 C 217.671875 140.757812 218.203125 140.949219 218.730469 141.148438 C 218.832031 141.1875 218.9375 141.230469 219.042969 141.273438 C 218.957031 141.242188 219.476562 141.457031 219.558594 141.488281 C 219.621094 141.511719 219.679688 141.535156 219.742188 141.558594 C 219.761719 141.570312 219.9375 141.644531 219.992188 141.675781 C 220.535156 141.921875 221.058594 142.191406 221.574219 142.488281 C 222.0625 142.765625 222.535156 143.066406 222.996094 143.382812 C 223.132812 143.480469 223.269531 143.574219 223.402344 143.671875 C 223.40625 143.675781 223.433594 143.691406 223.449219 143.703125 C 223.476562 143.726562 223.914062 144.0625 223.941406 144.085938 C 223.996094 144.128906 224.042969 144.167969 224.0625 144.183594 C 224.496094 144.535156 224.914062 144.914062 225.3125 145.304688 C 225.863281 145.84375 226.339844 146.515625 227.027344 146.875 C 227.328125 147.03125 227.644531 147.128906 227.964844 147.171875 C 228.355469 145.398438 228.660156 143.617188 228.851562 141.835938 C 229.03125 140.082031 229.089844 138.136719 227.914062 136.683594 Z M 160.894531 193.035156 C 158.527344 191.316406 156.085938 189.695312 153.59375 188.167969 C 151.152344 186.667969 148.671875 185.101562 145.988281 184.0625 C 141.074219 182.152344 134.316406 183.824219 133.777344 189.910156 C 133.519531 192.839844 134.945312 195.433594 136.984375 197.546875 C 139.226562 201.382812 143.03125 204.421875 147.03125 206.164062 C 151.679688 208.191406 157.914062 209.371094 162.148438 205.804688 C 163.910156 204.324219 165.046875 201.976562 165.070312 199.671875 C 165.109375 196.664062 163.167969 194.6875 160.894531 193.035156 Z M 237.828125 223.265625 C 238.640625 223.710938 239.472656 224.175781 240.25 224.710938 C 240.292969 225.003906 240.421875 225.292969 240.675781 225.566406 C 242.417969 227.453125 243.195312 229.8125 243.273438 232.265625 C 242.441406 234.683594 240.226562 236.710938 237.679688 237.285156 C 237.054688 237.421875 236.414062 237.488281 235.769531 237.519531 C 229.460938 238.113281 223.097656 235.652344 218.464844 231.386719 C 217.175781 230.390625 215.996094 229.234375 214.964844 227.84375 C 214.785156 227.601562 214.726562 227.269531 214.726562 226.941406 C 213.6875 225.230469 212.960938 223.210938 213.519531 221.230469 C 214.183594 218.875 216.351562 217.644531 218.65625 217.464844 C 220.707031 217.304688 222.882812 217.855469 224.875 218.3125 C 227.128906 218.828125 229.339844 219.515625 231.496094 220.351562 C 233.660156 221.199219 235.785156 222.152344 237.828125 223.265625 Z M 218.710938 222.859375 C 218.625 222.882812 218.503906 222.917969 218.429688 222.984375 C 218.496094 222.925781 218.652344 222.945312 218.710938 222.859375 Z M 218.804688 222.839844 C 218.796875 222.839844 218.78125 222.84375 218.761719 222.847656 C 218.773438 222.886719 218.785156 222.921875 218.796875 222.953125 C 218.796875 222.917969 218.800781 222.878906 218.804688 222.839844 Z M 218.804688 222.839844 "/><path style=" stroke:none;fill-rule:nonzero;fill:#f794c6;fill-opacity:1;" d="M 182.0625 272.828125 C 178.914062 273.996094 175.371094 274.15625 172.046875 274.171875 C 168.589844 274.183594 165.125 273.828125 161.730469 273.171875 C 154.929688 271.859375 148.378906 269.101562 143.027344 264.679688 C 142.660156 264.378906 142.511719 264.023438 142.515625 263.679688 C 142.515625 263.617188 142.519531 263.554688 142.53125 263.492188 C 143.800781 263.589844 144.960938 261.910156 143.855469 260.667969 C 141.65625 258.183594 139.621094 255.554688 137.757812 252.804688 C 137.816406 252.410156 137.929688 252.023438 138.089844 251.652344 C 138.1875 251.410156 138.289062 251.175781 138.421875 250.949219 C 138.59375 250.664062 138.808594 250.402344 139.019531 250.144531 C 139.375 249.707031 139.820312 249.378906 140.308594 249.113281 C 140.3125 248.761719 140.324219 248.414062 140.351562 248.066406 C 140.492188 246.433594 140.921875 244.957031 141.511719 243.433594 C 141.652344 243.078125 141.847656 242.769531 142.089844 242.53125 C 144.492188 244.152344 146.996094 245.640625 149.5625 247.007812 C 149.617188 247.074219 149.667969 247.144531 149.71875 247.210938 C 149.757812 247.1875 149.804688 247.171875 149.847656 247.148438 C 151.664062 248.105469 153.511719 249.003906 155.386719 249.835938 C 155.394531 249.847656 155.402344 249.851562 155.40625 249.863281 C 155.4375 249.996094 155.460938 250.125 155.53125 250.261719 C 158.527344 255.746094 162.039062 262 168.671875 263.414062 C 171.507812 264.015625 174.738281 263.792969 177.15625 262.058594 C 178.53125 261.070312 179.402344 259.769531 180.429688 258.453125 C 180.601562 258.230469 180.78125 257.992188 180.976562 257.777344 C 184.765625 258.515625 188.585938 259.082031 192.410156 259.476562 C 192.546875 259.511719 192.679688 259.546875 192.820312 259.582031 C 192.863281 259.5625 192.910156 259.550781 192.953125 259.535156 C 195.257812 259.761719 197.566406 259.925781 199.871094 260.019531 C 200.695312 260.050781 201.523438 260.074219 202.355469 260.089844 C 201.933594 260.859375 201.484375 261.613281 200.976562 262.324219 C 200.195312 263.40625 199.273438 264.441406 198.269531 265.371094 C 198.164062 265.414062 198.054688 265.460938 197.941406 265.496094 C 197.808594 265.5625 197.675781 265.628906 197.527344 265.675781 C 196.753906 266.296875 195.960938 266.898438 195.121094 267.414062 C 193.257812 268.554688 191.277344 269.492188 189.222656 270.242188 C 188.632812 270.457031 188.035156 270.648438 187.4375 270.828125 C 186.144531 271.070312 184.835938 271.1875 183.53125 271.152344 C 182.601562 271.125 182.046875 272.015625 182.0625 272.828125 Z M 114.425781 124.375 C 119.042969 123.949219 123.597656 123.09375 128.210938 122.664062 C 132.976562 122.222656 137.765625 122.007812 142.546875 122.105469 C 145.214844 122.164062 147.882812 122.304688 150.542969 122.542969 C 150.796875 122.445312 151.054688 122.351562 151.3125 122.269531 C 152.054688 122.03125 152.6875 122.308594 153.082031 122.800781 C 154.199219 122.929688 155.316406 123.070312 156.429688 123.238281 C 158.667969 123.574219 160.902344 123.941406 163.125 124.378906 C 165.53125 124.859375 167.976562 125.539062 170.449219 125.445312 C 172.625 125.363281 173.300781 122.632812 171.53125 121.449219 C 167.664062 118.863281 162.136719 118.171875 157.628906 117.398438 C 152.777344 116.566406 147.867188 116.015625 142.949219 115.769531 C 133.363281 115.304688 122.8125 115.507812 113.644531 118.617188 C 113.636719 118.621094 113.625 118.625 113.617188 118.625 C 113.066406 119.113281 112.519531 119.609375 111.972656 120.101562 C 111.070312 121.941406 111.875 124.609375 114.425781 124.375 Z M 260.894531 157.441406 C 261.03125 158.082031 261 158.226562 260.890625 158.863281 C 260.882812 158.914062 260.871094 158.960938 260.863281 159.007812 C 260.707031 159.835938 259.921875 160.511719 259.144531 160.726562 C 258.710938 160.847656 258.269531 160.847656 257.835938 160.726562 C 257.421875 160.609375 257.058594 160.398438 256.746094 160.09375 C 256.246094 159.679688 255.925781 159.03125 255.5625 158.496094 C 255.363281 158.203125 255.171875 157.894531 254.964844 157.597656 C 254.578125 157.140625 254.144531 156.710938 253.679688 156.34375 C 253.667969 156.328125 253.648438 156.320312 253.632812 156.304688 C 253.578125 156.234375 253.519531 156.15625 253.460938 156.085938 C 253.453125 156.082031 253.449219 156.070312 253.4375 156.066406 C 253.023438 155.769531 252.640625 155.378906 252.527344 154.859375 C 252.445312 154.496094 252.445312 154.125 252.527344 153.761719 C 252.625 153.332031 252.921875 152.953125 253.265625 152.6875 C 253.464844 152.503906 253.699219 152.378906 253.96875 152.320312 C 254.148438 152.292969 254.335938 152.269531 254.515625 152.246094 C 254.726562 152.269531 254.933594 152.308594 255.140625 152.335938 C 255.410156 152.320312 255.675781 152.328125 255.964844 152.421875 C 256.074219 152.460938 256.183594 152.503906 256.292969 152.546875 C 256.679688 152.707031 257.105469 152.859375 257.46875 153.074219 C 258.03125 153.40625 258.554688 153.828125 259.039062 154.269531 C 259.214844 154.433594 259.382812 154.605469 259.535156 154.792969 C 259.789062 155.113281 260.117188 155.480469 260.308594 155.867188 C 260.5 156.261719 260.707031 156.664062 260.820312 157.089844 C 260.84375 157.207031 260.871094 157.328125 260.894531 157.441406 Z M 255.117188 152.347656 C 255.117188 152.347656 255.113281 152.347656 255.113281 152.347656 C 254.917969 152.371094 254.726562 152.398438 254.53125 152.421875 C 254.738281 152.386719 254.925781 152.363281 255.117188 152.347656 Z M 274.300781 160.566406 C 274.199219 160.378906 274.0625 160.207031 273.941406 160.03125 C 273.820312 159.863281 273.707031 159.695312 273.589844 159.527344 C 273.472656 159.367188 273.355469 159.203125 273.234375 159.046875 C 273.039062 158.792969 273.003906 158.753906 272.851562 158.636719 C 272.722656 158.515625 272.617188 158.359375 272.515625 158.21875 C 272.394531 158.074219 272.28125 157.925781 272.160156 157.777344 C 271.972656 157.574219 271.75 157.433594 271.496094 157.351562 C 271.25 157.222656 270.984375 157.164062 270.699219 157.175781 C 270.519531 157.199219 270.332031 157.222656 270.148438 157.246094 C 269.882812 157.308594 269.648438 157.433594 269.449219 157.613281 C 269.296875 157.703125 269.171875 157.828125 269.074219 157.988281 C 268.894531 158.1875 268.769531 158.421875 268.707031 158.6875 C 268.683594 158.871094 268.660156 159.054688 268.636719 159.238281 C 268.636719 159.609375 268.730469 159.957031 268.917969 160.277344 C 269.003906 160.464844 269.089844 160.65625 269.175781 160.839844 C 269.191406 160.910156 269.199219 160.976562 269.222656 161.042969 C 269.308594 161.328125 269.449219 161.578125 269.582031 161.835938 C 269.683594 162.027344 269.78125 162.210938 269.882812 162.402344 C 269.976562 162.578125 270.0625 162.769531 270.175781 162.9375 C 270.296875 163.125 270.4375 163.304688 270.570312 163.488281 C 270.71875 163.757812 270.917969 163.972656 271.171875 164.140625 C 271.398438 164.347656 271.660156 164.484375 271.964844 164.558594 C 272.273438 164.652344 272.585938 164.667969 272.894531 164.601562 C 273.207031 164.585938 273.492188 164.496094 273.761719 164.324219 C 274.257812 164.003906 274.695312 163.523438 274.828125 162.929688 C 274.859375 162.722656 274.886719 162.519531 274.910156 162.308594 C 274.910156 161.886719 274.804688 161.496094 274.589844 161.132812 C 274.496094 160.945312 274.398438 160.753906 274.300781 160.566406 Z M 284.082031 168 C 283.554688 168.070312 283.007812 168.285156 282.636719 168.691406 C 282.339844 169.011719 282.125 169.390625 281.988281 169.804688 C 281.78125 170.433594 281.941406 171.179688 282.242188 171.742188 C 282.511719 172.25 282.761719 172.75 283.089844 173.222656 C 283.566406 173.90625 284.136719 174.511719 284.691406 175.128906 C 285.082031 175.566406 285.476562 176.007812 285.871094 176.445312 C 286.058594 176.660156 286.28125 176.847656 286.484375 177.046875 C 286.773438 177.320312 287.074219 177.578125 287.398438 177.800781 C 287.464844 177.851562 287.53125 177.894531 287.601562 177.9375 C 287.839844 178.070312 288.21875 178.25 288.496094 178.300781 C 288.5 178.300781 288.5 178.300781 288.503906 178.300781 C 288.394531 175.234375 287.96875 172.175781 287.226562 169.148438 C 286.734375 168.816406 286.207031 168.574219 285.683594 168.304688 C 285.171875 168.039062 284.660156 167.917969 284.082031 168 Z M 284.082031 168 "/><path style=" stroke:none;fill-rule:nonzero;fill:#020201;fill-opacity:1;" d="M 170.382812 153.835938 C 169.414062 153.210938 169.285156 152.09375 169.523438 150.570312 C 170.578125 143.839844 184 132.140625 185.257812 131.058594 C 188.230469 128.5 191.894531 126.292969 195.035156 124.515625 C 199.878906 121.773438 206.691406 118.613281 210.9375 124.023438 C 213.328125 127.070312 213.152344 131.128906 212.300781 134.800781 C 215.960938 132.433594 219.984375 130.238281 224.476562 130.746094 C 228.898438 131.246094 232.566406 134.058594 233.171875 138.625 C 233.492188 141.03125 233.066406 143.476562 232.667969 145.847656 C 232.238281 148.394531 231.65625 150.914062 230.914062 153.394531 C 229.433594 158.363281 227.277344 163.023438 224.515625 167.414062 C 224.109375 168.058594 223.542969 168.34375 222.964844 168.375 C 221.554688 168.460938 220.117188 167 220.996094 165.359375 C 224 159.734375 226.546875 153.523438 227.945312 147.179688 C 228.335938 145.410156 228.640625 143.628906 228.832031 141.847656 C 229.023438 140.089844 229.082031 138.144531 227.90625 136.695312 C 226.957031 135.519531 225.398438 134.910156 223.941406 134.683594 C 221.867188 134.371094 219.902344 134.878906 218.050781 135.730469 C 217.777344 135.855469 217.507812 135.984375 217.238281 136.121094 C 216.058594 136.726562 214.921875 137.445312 213.835938 138.140625 C 213.71875 138.214844 213.605469 138.285156 213.496094 138.355469 C 212.59375 138.933594 211.738281 138.59375 211.246094 137.945312 C 210.242188 138.988281 208.09375 138.15625 208.554688 136.441406 C 208.699219 135.898438 208.847656 135.265625 208.976562 134.59375 C 209.105469 133.914062 209.21875 133.191406 209.273438 132.449219 C 209.292969 132.203125 209.308594 131.953125 209.316406 131.703125 C 209.390625 129.460938 208.941406 127.242188 207.226562 126.074219 C 205.015625 124.570312 202.167969 125.816406 200.097656 126.953125 C 197.910156 128.15625 195.808594 129.550781 193.785156 131.003906 C 192.929688 131.613281 192.101562 132.25 191.292969 132.898438 C 184.222656 138.539062 178.753906 145.464844 173.792969 153.074219 C 172.894531 154.453125 171.414062 154.5 170.382812 153.835938 Z M 290.597656 196.800781 C 290.300781 197.367188 289.855469 197.703125 289.371094 197.863281 C 287.765625 198.371094 285.636719 196.925781 286.238281 194.964844 C 287.917969 189.472656 288.71875 183.867188 288.515625 178.292969 C 288.40625 175.230469 287.980469 172.171875 287.234375 169.144531 C 286.867188 167.65625 286.433594 166.171875 285.902344 164.699219 C 282.722656 155.855469 276.402344 147.089844 267.222656 143.917969 C 266.621094 143.714844 266.292969 143.292969 266.132812 142.820312 C 265.828125 142.644531 265.550781 142.402344 265.332031 142.0625 C 261.769531 136.59375 257.730469 131.789062 252.863281 127.417969 C 243.425781 118.933594 232.3125 111.617188 220.691406 106.484375 C 209.519531 101.550781 196.460938 100.257812 184.355469 102.691406 C 184.25 102.722656 184.140625 102.746094 184.027344 102.757812 C 180.578125 103.476562 177.195312 104.472656 173.964844 105.804688 C 172.261719 106.503906 171.058594 103.585938 172.71875 102.851562 C 175.238281 101.730469 177.800781 100.777344 180.390625 99.964844 C 180.4375 99.953125 180.484375 99.933594 180.539062 99.917969 C 180.484375 99.832031 180.433594 99.746094 180.375 99.660156 C 178.625 96.847656 177.085938 93.898438 175.171875 91.183594 C 173.332031 88.578125 171.269531 86.121094 168.964844 83.921875 C 167.40625 82.4375 165.710938 81.058594 163.894531 79.890625 C 162.058594 78.722656 160.09375 77.765625 158 77.140625 C 156.339844 76.644531 154.671875 76.414062 153 76.394531 C 150.378906 76.363281 147.761719 76.839844 145.179688 77.613281 C 138.742188 79.546875 132.90625 83.507812 128.46875 88.523438 C 124.875 92.589844 121.695312 98.71875 123.070312 104.25 C 127.4375 101.46875 132.019531 99.0625 136.652344 97.042969 C 143.3125 94.136719 150.746094 91.128906 158.152344 91.90625 C 164.265625 92.546875 169.890625 96.136719 171.734375 102.207031 C 172.359375 104.269531 169.289062 105.03125 168.554688 103.078125 C 166.390625 97.292969 159.324219 95.578125 153.804688 96.339844 C 147.484375 97.214844 141.277344 100.066406 135.652344 102.964844 C 127.472656 107.179688 120.375 112.625 113.621094 118.636719 C 113.074219 119.121094 112.523438 119.621094 111.980469 120.109375 C 110.113281 121.8125 108.269531 123.542969 106.429688 125.3125 C 105.980469 125.742188 105.433594 125.90625 104.894531 125.890625 C 99.902344 128.664062 94.71875 131.496094 90.894531 135.789062 C 87.019531 140.136719 84.949219 145.183594 85.210938 151.058594 C 85.28125 152.601562 84.03125 153.410156 82.785156 153.394531 C 81.792969 153.378906 80.796875 152.835938 80.484375 151.699219 C 78.605469 144.972656 82.039062 137.914062 86.679688 133.113281 C 91.070312 128.574219 96.929688 125.683594 102.6875 123.175781 C 102.75 122.996094 102.835938 122.8125 102.964844 122.632812 C 107.621094 116.210938 113.609375 110.710938 120.238281 106.125 C 120.015625 105.507812 119.839844 104.894531 119.699219 104.277344 C 119.542969 103.566406 119.433594 102.855469 119.375 102.144531 C 118.921875 96.351562 121.699219 90.550781 125.472656 85.984375 C 133.246094 76.578125 147.398438 69.09375 159.75 72.972656 C 164.8125 74.5625 169.277344 77.691406 173.042969 81.386719 C 177.835938 86.09375 182.605469 92.28125 185.109375 98.675781 C 190.347656 97.449219 195.714844 96.855469 201.226562 97.054688 C 203.511719 97.132812 205.753906 97.378906 207.96875 97.734375 C 211.609375 93.484375 216.628906 90.613281 222.007812 89.101562 C 232.714844 86.105469 244.496094 88.777344 252.304688 96.828125 C 259.429688 104.171875 263.878906 116.707031 260.007812 126.628906 C 263.984375 130.441406 268.097656 134.9375 269.640625 140.238281 C 269.726562 140.539062 269.75 140.820312 269.734375 141.085938 C 279.628906 144.492188 286.71875 153.023438 290.628906 162.527344 C 295.023438 173.191406 296.113281 186.363281 290.597656 196.800781 Z M 253.734375 108.867188 C 251.667969 103.476562 247.78125 98.617188 242.808594 95.652344 C 233.519531 90.109375 222.359375 91.589844 213.753906 97.285156 C 213.160156 97.679688 212.578125 98.09375 212.011719 98.523438 C 212.316406 98.59375 212.621094 98.675781 212.925781 98.753906 C 223.164062 101.316406 232.699219 106.445312 241.558594 112.207031 C 246.347656 115.328125 251.003906 118.71875 255.355469 122.433594 C 255.652344 117.820312 255.480469 113.421875 253.734375 108.867188 Z M 273.871094 207.289062 C 275.242188 210.191406 276.234375 213.269531 276.917969 216.210938 C 283.027344 242.53125 269.066406 271.121094 244.976562 283.046875 C 243.34375 285.175781 241.40625 287.054688 239.050781 288.539062 C 236.851562 289.929688 234.425781 286.722656 236.289062 284.960938 C 244.3125 277.398438 247.289062 267.175781 248.632812 256.519531 C 250.210938 244.050781 249.574219 230.917969 246.507812 218.71875 C 245.722656 220.566406 244.886719 222.382812 243.949219 224.132812 C 243.941406 224.152344 243.925781 224.171875 243.910156 224.191406 C 249.546875 230.453125 248.160156 240.191406 243.230469 246.582031 C 237.242188 254.332031 227.050781 256.984375 217.75 258.324219 C 217.523438 258.472656 217.273438 258.59375 216.960938 258.675781 C 214.097656 259.417969 211.136719 259.808594 208.15625 259.984375 C 207.503906 262.027344 205.96875 264.085938 204.734375 265.628906 C 203.058594 267.710938 200.988281 269.460938 198.722656 270.871094 C 196.433594 272.292969 193.871094 273.382812 191.234375 273.941406 C 188.503906 274.519531 185.886719 274.496094 183.136719 274.117188 C 182.402344 274.019531 182.066406 273.449219 182.058594 272.832031 C 182.042969 272.023438 182.589844 271.128906 183.535156 271.15625 C 184.835938 271.195312 186.148438 271.078125 187.441406 270.832031 C 190.675781 270.226562 193.804688 268.824219 196.410156 266.914062 C 197.050781 266.445312 197.675781 265.929688 198.273438 265.375 C 199.277344 264.445312 200.195312 263.40625 200.980469 262.328125 C 201.492188 261.617188 201.941406 260.867188 202.359375 260.09375 C 201.527344 260.078125 200.703125 260.054688 199.878906 260.023438 C 197.570312 259.925781 195.265625 259.765625 192.957031 259.539062 C 192.777344 259.519531 192.59375 259.503906 192.414062 259.484375 C 188.589844 259.089844 184.769531 258.519531 180.984375 257.785156 C 180.78125 258.003906 180.605469 258.238281 180.433594 258.457031 C 179.40625 259.773438 178.539062 261.074219 177.164062 262.0625 C 174.742188 263.800781 171.515625 264.019531 168.675781 263.417969 C 162.046875 262.003906 158.53125 255.75 155.535156 250.265625 C 155.460938 250.128906 155.441406 250 155.414062 249.867188 C 155.414062 249.863281 155.414062 249.855469 155.40625 249.851562 C 155.402344 249.847656 155.398438 249.847656 155.386719 249.84375 C 153.511719 249.007812 151.664062 248.109375 149.851562 247.152344 C 149.753906 247.105469 149.660156 247.058594 149.566406 247.007812 C 147 245.644531 144.5 244.152344 142.09375 242.53125 C 136.160156 238.535156 130.8125 233.742188 126.453125 228.042969 C 128.855469 236.855469 132.664062 245.277344 137.765625 252.804688 C 139.625 255.554688 141.65625 258.183594 143.863281 260.667969 C 144.964844 261.910156 143.804688 263.585938 142.535156 263.492188 C 142.195312 263.46875 141.847656 263.320312 141.53125 262.996094 C 137.820312 259.183594 134.402344 254.996094 131.484375 250.511719 C 130.902344 249.617188 130.339844 248.710938 129.804688 247.792969 C 129.703125 247.617188 129.59375 247.449219 129.492188 247.273438 C 123.566406 236.960938 120.03125 225.5 118.769531 213.691406 C 117.53125 202.097656 118.425781 189.558594 122.722656 178.632812 C 123.144531 177.570312 124.011719 177.027344 124.914062 176.925781 C 126.519531 176.738281 128.21875 177.929688 127.617188 179.980469 C 125.835938 186.066406 124.316406 192.199219 123.753906 198.53125 C 123.101562 205.878906 123.480469 213.347656 124.800781 220.664062 C 125.078125 220.773438 125.339844 220.941406 125.539062 221.253906 C 129.929688 228.113281 136.101562 233.808594 142.917969 238.214844 C 154.363281 245.617188 167.546875 250.175781 180.902344 252.722656 C 182.320312 252.355469 183.804688 252.5625 185.011719 253.457031 C 194.945312 255.066406 206.097656 255.964844 215.621094 253.753906 C 215.996094 253.667969 216.347656 253.664062 216.664062 253.714844 C 221.78125 252.316406 227.351562 251.078125 232.179688 248.648438 C 232.429688 248.523438 232.671875 248.394531 232.914062 248.261719 C 234.96875 247.152344 236.875 245.816406 238.519531 244.117188 C 241.363281 241.195312 243.40625 236.578125 243.273438 232.261719 C 243.195312 229.808594 242.417969 227.449219 240.675781 225.5625 C 240.421875 225.289062 240.292969 224.992188 240.25 224.707031 C 240.222656 224.511719 240.230469 224.316406 240.269531 224.125 C 239.96875 223.671875 239.839844 223.101562 240.035156 222.472656 C 241.183594 218.714844 242.769531 215.046875 244.433594 211.414062 C 244.3125 211.324219 244.1875 211.230469 244.070312 211.140625 C 243.328125 210.585938 242.589844 210.039062 241.84375 209.484375 C 241.304688 209.078125 240.792969 208.644531 240.277344 208.21875 C 237.675781 213.226562 230.769531 214.859375 225.496094 213.453125 C 218.070312 211.476562 213.839844 204.054688 210.371094 197.820312 C 209.363281 196.003906 212.082031 194.417969 213.148438 196.195312 C 216.113281 201.132812 219.746094 207.386719 225.632812 209.191406 C 229.585938 210.40625 235.09375 209.261719 236.628906 204.976562 C 236.515625 204.601562 236.542969 204.183594 236.769531 203.765625 C 237.164062 203.015625 238.214844 202.777344 238.925781 203.195312 C 238.929688 203.199219 238.9375 203.199219 238.941406 203.207031 C 239.699219 203.242188 240.441406 203.636719 240.847656 204.292969 C 241.054688 204.414062 241.261719 204.542969 241.476562 204.65625 C 242.292969 205.082031 243.121094 205.476562 243.910156 205.945312 C 244.703125 206.414062 245.496094 206.878906 246.285156 207.34375 C 246.289062 207.351562 246.292969 207.351562 246.300781 207.355469 C 246.921875 206.007812 247.535156 204.667969 248.125 203.320312 C 248.929688 201.472656 249.746094 199.632812 250.5625 197.789062 C 250.578125 197.761719 250.59375 197.726562 250.601562 197.699219 C 251.121094 196.523438 251.640625 195.355469 252.164062 194.179688 C 253.644531 190.84375 255.117188 187.503906 256.535156 184.140625 C 257.253906 182.4375 260.203125 183.703125 259.511719 185.394531 C 256.863281 191.855469 254.410156 198.398438 251.84375 204.890625 C 251.054688 206.882812 250.304688 208.917969 249.550781 210.957031 C 249.53125 211.25 249.46875 211.546875 249.3125 211.847656 C 249.269531 211.925781 249.199219 211.980469 249.144531 212.054688 C 248.773438 213.054688 248.390625 214.054688 248 215.050781 C 247.816406 215.515625 247.640625 215.984375 247.453125 216.445312 C 247.765625 216.316406 248.113281 216.273438 248.441406 216.316406 C 249.011719 216.398438 249.53125 216.757812 249.738281 217.488281 C 250.617188 220.566406 251.351562 223.660156 251.960938 226.765625 C 252.039062 227.152344 252.105469 227.542969 252.175781 227.933594 C 252.34375 228.828125 252.496094 229.722656 252.636719 230.613281 C 252.703125 231.027344 252.773438 231.441406 252.832031 231.855469 C 254.121094 240.640625 254.289062 249.527344 253.15625 258.503906 C 252.410156 264.414062 251.203125 270.984375 248.648438 276.75 C 252.496094 273.980469 255.949219 270.714844 258.972656 266.988281 C 273.949219 248.554688 279.417969 217.3125 261.042969 199.171875 C 259.238281 197.390625 261.539062 194.6875 263.65625 195.785156 C 268.3125 198.1875 271.605469 202.492188 273.871094 207.289062 Z M 176.234375 256.761719 C 170.671875 255.453125 165.210938 253.761719 159.921875 251.699219 C 162.613281 255.949219 166.277344 260.164062 171.644531 259.617188 C 172.769531 259.503906 173.902344 259.105469 174.792969 258.394531 C 175.367188 257.941406 175.8125 257.363281 176.234375 256.761719 Z M 240.660156 192.40625 C 241.515625 191.378906 242.320312 190.3125 243.082031 189.21875 C 246.171875 184.746094 248.390625 179.730469 249.425781 174.339844 C 250.058594 171.050781 250.320312 167.695312 250.085938 164.351562 C 249.855469 161.074219 249.621094 156.476562 247.300781 153.953125 C 245.683594 152.195312 243.082031 153.6875 242.917969 155.765625 C 242.800781 157.304688 243.449219 158.753906 243.824219 160.222656 C 244.199219 161.667969 244.488281 163.136719 244.652344 164.625 C 244.980469 167.613281 244.972656 170.703125 244.574219 173.6875 C 243.910156 178.710938 242.183594 183.59375 239.476562 187.871094 C 238.964844 188.679688 238.421875 189.46875 237.839844 190.230469 C 236.605469 191.835938 239.351562 193.96875 240.660156 192.40625 Z M 133.476562 165.613281 C 136.4375 167.277344 139.488281 168.75 142.578125 170.152344 C 143.191406 170.433594 143.761719 170.542969 144.425781 170.394531 C 144.515625 170.378906 144.59375 170.335938 144.679688 170.300781 C 147.34375 177.355469 152.714844 183.035156 159.753906 185.851562 C 166.652344 188.617188 174.683594 188.277344 180.964844 184.152344 C 183.417969 182.539062 181.234375 178.710938 178.644531 180.183594 C 167.179688 186.71875 152.59375 180.179688 147.601562 168.554688 C 147.324219 167.902344 146.730469 167.671875 146.132812 167.722656 C 146.105469 167.535156 146.058594 167.351562 145.976562 167.160156 C 145.660156 166.417969 145.144531 166.070312 144.425781 165.769531 C 141.296875 164.460938 138.144531 163.230469 134.914062 162.199219 C 134.023438 161.917969 133.054688 162.460938 132.710938 163.277344 C 132.359375 164.117188 132.660156 165.152344 133.476562 165.613281 Z M 178.933594 210.070312 C 178.246094 210.59375 177.902344 211.433594 178.367188 212.246094 C 178.765625 212.949219 179.832031 213.292969 180.539062 212.8125 C 184.234375 210.292969 189.09375 210.652344 192.875 212.582031 C 194.785156 213.558594 196.621094 215.015625 197.722656 216.578125 C 198.34375 217.464844 198.855469 218.421875 199.109375 219.160156 C 199.585938 220.546875 199.636719 221.878906 200.597656 223.070312 C 201.460938 224.144531 203.421875 223.777344 204.015625 222.628906 C 205.492188 219.796875 203.164062 215.960938 201.398438 213.738281 C 199.707031 211.605469 197.417969 209.90625 194.929688 208.800781 C 189.769531 206.507812 183.570312 206.546875 178.933594 210.070312 Z M 133.707031 261.128906 C 121.566406 258.472656 113.367188 246.96875 108.523438 236.273438 C 103.640625 225.507812 101.25 213.714844 101.257812 201.917969 C 102.027344 201.050781 102.167969 199.710938 101.320312 198.9375 C 101.359375 197.820312 101.386719 196.695312 101.46875 195.578125 C 102.050781 187.742188 103.929688 180.097656 106.132812 172.578125 C 106.738281 170.53125 104.300781 168.933594 102.695312 169.648438 C 102.28125 169.832031 101.917969 170.171875 101.679688 170.703125 C 98.175781 178.515625 96.375 187.023438 95.878906 195.621094 C 95.855469 196.027344 95.832031 196.4375 95.8125 196.84375 C 95.453125 196.667969 95.105469 196.480469 94.761719 196.285156 C 92.535156 195.007812 90.625 193.253906 89.222656 190.933594 C 86.757812 186.855469 85.578125 181.59375 85.746094 176.847656 C 86.105469 166.484375 95.574219 155.679688 105.117188 152.285156 C 105.175781 152.265625 105.238281 152.242188 105.292969 152.21875 C 105.335938 152.203125 105.355469 152.175781 105.398438 152.160156 C 105.378906 152.242188 105.367188 152.324219 105.347656 152.40625 C 104.777344 154.804688 104.429688 157.265625 104.355469 159.773438 C 104.335938 160.46875 104.570312 160.988281 104.9375 161.351562 C 106.117188 162.507812 108.699219 161.953125 108.867188 159.773438 C 109.734375 148.445312 115.292969 137.339844 124.542969 130.53125 C 126.109375 129.375 124.695312 126.761719 122.980469 127.855469 C 114.984375 132.964844 108.875 140.816406 106.058594 149.796875 C 105.742188 149.347656 105.199219 149.082031 104.484375 149.273438 C 96.308594 151.484375 88.371094 157.914062 84.109375 165.835938 C 82.246094 169.296875 81.082031 173.042969 80.902344 176.847656 C 80.640625 182.523438 82.070312 189.085938 85.148438 193.898438 C 87.699219 197.886719 91.390625 200.582031 95.738281 201.929688 C 95.800781 206.355469 96.179688 210.769531 96.835938 215.085938 C 98.9375 228.835938 104.261719 243.40625 113.898438 253.71875 C 118.925781 259.105469 125.539062 263.03125 132.820312 264.339844 C 133.773438 264.511719 134.472656 263.953125 134.765625 263.25 C 135.105469 262.425781 134.855469 261.382812 133.707031 261.128906 Z M 151.316406 122.269531 C 151.058594 122.351562 150.800781 122.445312 150.546875 122.542969 C 145.230469 124.53125 141.085938 129.15625 137.808594 133.640625 C 134.335938 138.386719 131.867188 143.914062 130.707031 149.679688 C 130.40625 151.167969 131.136719 152.71875 132.675781 153.140625 C 134.078125 153.527344 135.816406 152.667969 136.136719 151.171875 C 137.257812 145.992188 139.300781 141.105469 142.261719 136.710938 C 145.257812 132.261719 149.417969 129.09375 153.039062 125.234375 C 153.707031 124.523438 153.613281 123.457031 153.078125 122.792969 C 152.691406 122.308594 152.058594 122.03125 151.316406 122.269531 Z M 215.78125 181.785156 C 215.691406 182.542969 216.148438 183.445312 216.972656 183.605469 C 218.1875 183.839844 219.363281 184.226562 220.589844 184.382812 C 221.675781 184.519531 222.796875 184.640625 223.890625 184.570312 C 225.097656 184.488281 226.28125 184.339844 227.441406 184.097656 C 227.804688 184.019531 228.164062 183.933594 228.515625 183.839844 C 229.453125 183.582031 230.371094 183.25 231.261719 182.820312 C 232.433594 182.257812 232.800781 180.664062 232.332031 179.554688 C 231.851562 178.410156 230.492188 177.636719 229.246094 178.042969 C 227.261719 178.6875 225.304688 179.40625 223.234375 179.765625 C 222.753906 179.851562 222.28125 179.957031 221.800781 180.039062 C 221.738281 180.046875 221.164062 180.128906 221.183594 180.132812 C 220.980469 180.15625 220.785156 180.179688 220.585938 180.195312 C 219.496094 180.296875 218.773438 180.457031 217.714844 180.382812 C 217.617188 180.371094 217.515625 180.367188 217.40625 180.351562 C 217.167969 180.324219 216.933594 180.386719 216.722656 180.492188 C 216.605469 180.554688 216.488281 180.621094 216.382812 180.710938 C 216.058594 180.988281 215.832031 181.394531 215.78125 181.785156 Z M 181.832031 160.589844 C 181.359375 159.71875 181.640625 158.703125 182.46875 158.171875 C 183.269531 157.652344 184.414062 158.011719 184.882812 158.808594 C 185.503906 159.867188 186.164062 160.910156 186.90625 161.882812 C 186.945312 161.929688 186.984375 161.976562 187.023438 162.03125 C 187.125 162.15625 187.21875 162.273438 187.320312 162.394531 C 187.503906 162.605469 187.699219 162.804688 187.898438 163.007812 C 188.308594 163.4375 188.707031 163.878906 189.125 164.308594 C 189.984375 165.1875 190.839844 166.0625 191.734375 166.902344 C 192.605469 167.722656 193.425781 168.585938 194.28125 169.421875 C 195.019531 170.148438 195.058594 171.335938 194.441406 172.132812 C 193.851562 172.902344 192.632812 173.238281 191.777344 172.664062 C 190.59375 171.875 189.46875 171.050781 188.464844 170.039062 C 187.515625 169.082031 186.636719 168.042969 185.832031 166.964844 C 185.085938 165.957031 184.441406 164.890625 183.769531 163.832031 C 183.09375 162.765625 182.433594 161.695312 181.832031 160.589844 Z M 186.90625 161.882812 C 186.914062 161.882812 186.914062 161.882812 186.90625 161.882812 C 186.988281 161.984375 186.988281 161.984375 186.90625 161.882812 Z M 186.90625 161.882812 "/></g></svg>