<svg xmlns="http://www.w3.org/2000/svg" xmlns:xlink="http://www.w3.org/1999/xlink" width="500" zoomAndPan="magnify" viewBox="0 0 375 374.999991" height="500" preserveAspectRatio="xMidYMid meet" version="1.2"><g id="1a34f91a45"><path style=" stroke:none;fill-rule:nonzero;fill:#f0816a;fill-opacity:1;" d="M 295.386719 144.902344 C 295.273438 144.308594 295.058594 143.757812 294.71875 143.261719 C 294.542969 142.855469 294.386719 142.453125 294.199219 142.054688 C 290.085938 133.296875 282.105469 126.265625 272.621094 124.390625 C 271.921875 112.378906 267.671875 100.613281 258.910156 92.023438 C 250.0625 83.335938 236.765625 79.300781 225.375 85.484375 C 219.765625 88.53125 215.441406 93.746094 214.230469 100.082031 C 214.003906 101.261719 214.871094 102.027344 215.773438 102.117188 C 215.636719 102.4375 215.5 102.75 215.371094 103.074219 C 210.582031 103.164062 205.792969 103.820312 201.125 105.15625 C 201.046875 105.101562 200.96875 105.046875 200.878906 105.003906 C 188.828125 99.171875 174.375 98.023438 161.203125 100.078125 C 160.890625 95.394531 157.902344 91.289062 154.050781 88.46875 C 148.121094 84.132812 140.246094 83.132812 133.359375 85.5625 C 119.671875 90.382812 108.5 104.199219 104.753906 117.976562 C 102.929688 124.695312 102.285156 133.25 106.078125 139.4375 C 100.960938 142.480469 96.472656 145.929688 92.476562 150.425781 C 88.433594 154.976562 84.976562 160.054688 82.332031 165.546875 C 78.03125 174.476562 75.109375 187.230469 84.402344 194.089844 C 85.65625 195.015625 87.117188 194.207031 87.746094 193.023438 C 88.222656 193.304688 88.753906 193.515625 89.402344 193.554688 C 91.878906 193.699219 94.207031 193.65625 96.550781 193.792969 C 96.496094 193.988281 96.441406 194.183594 96.386719 194.378906 C 95.546875 193.996094 94.476562 194.207031 94.242188 195.371094 C 90.996094 211.328125 91.828125 227.984375 96.609375 243.554688 C 100.9375 257.65625 108.007812 272.550781 121.726562 279.523438 C 127.421875 282.417969 133.53125 283.769531 139.585938 285.648438 C 140.449219 285.914062 141.144531 285.71875 141.644531 285.289062 C 143.734375 286.472656 146.839844 284.335938 145.152344 282.039062 C 138.4375 272.875 132.734375 263.164062 128.082031 253 C 128.1875 253.097656 128.28125 253.207031 128.390625 253.304688 C 136.058594 260.40625 146.878906 262.378906 157.097656 263.128906 C 154.554688 267.070312 155.007812 272.191406 157.226562 276.355469 C 158.378906 278.515625 159.984375 280.238281 161.859375 281.621094 C 161.070312 282.257812 160.5 283.09375 160.113281 284.042969 C 159.894531 284.582031 159.796875 285.15625 159.757812 285.730469 C 159.746094 285.953125 159.75 286.175781 159.773438 286.398438 C 159.800781 286.636719 159.8125 286.890625 159.882812 287.121094 C 159.957031 287.359375 160.066406 287.585938 160.167969 287.8125 C 160.324219 288.15625 160.816406 288.503906 161.175781 288.585938 C 161.550781 288.667969 161.914062 288.648438 162.273438 288.5 C 162.464844 288.417969 162.644531 288.292969 162.800781 288.140625 C 162.890625 288.351562 162.964844 288.550781 162.980469 288.722656 C 162.832031 289.253906 162.761719 289.824219 162.816406 290.464844 C 163.003906 292.90625 164.785156 294.605469 167.128906 295.039062 C 169.859375 295.542969 172.8125 295.433594 175.582031 295.527344 C 178.667969 295.632812 181.761719 295.683594 184.851562 295.679688 C 196.792969 295.664062 208.679688 294.761719 220.507812 293.148438 C 221.085938 293.066406 221.570312 292.761719 221.964844 292.347656 C 222.253906 292.199219 222.511719 292.007812 222.746094 291.785156 C 223.367188 292.3125 224.234375 292.480469 225.023438 292.148438 C 226.058594 291.710938 226.546875 290.628906 226.300781 289.542969 C 226.042969 288.375 225.511719 287.203125 225.023438 286.117188 C 224.589844 285.160156 224.164062 284.1875 223.6875 283.246094 C 222.707031 281.328125 221.796875 279.398438 220.9375 277.425781 C 220.785156 277.082031 220.472656 276.859375 220.125 276.722656 C 221.359375 275.605469 222.472656 274.351562 223.355469 272.867188 C 225.777344 268.800781 226.410156 263.277344 224.230469 259.148438 C 228.378906 259.246094 232.523438 259.183594 236.664062 258.609375 C 243.167969 257.703125 249.234375 255.308594 254.546875 251.433594 C 256.6875 249.871094 258.566406 248.105469 260.1875 246.175781 C 259.886719 247.25 259.589844 248.332031 259.265625 249.402344 C 257.363281 255.730469 255.078125 261.957031 252.222656 267.914062 C 249.539062 273.511719 246.101562 278.484375 242.796875 283.699219 C 241.617188 285.5625 244.316406 287.628906 245.839844 286.046875 C 245.925781 285.953125 246.011719 285.851562 246.101562 285.753906 C 251.566406 283.085938 256.941406 280.101562 262.054688 276.730469 C 264.320312 275.492188 266.46875 273.9375 268.488281 272.152344 C 271.140625 270.121094 273.707031 267.976562 276.125 265.679688 C 280.328125 261.691406 284.097656 257.03125 286.5 251.726562 C 289.515625 245.078125 291.429688 238.058594 292.300781 230.816406 C 293.308594 222.460938 292.632812 214.050781 290.496094 205.925781 C 290.164062 204.667969 289.179688 204.171875 288.199219 204.21875 C 288.285156 200.289062 288.484375 196.519531 290.363281 192.132812 C 291.476562 189.539062 292.308594 186.996094 292.949219 184.40625 C 293.714844 184.335938 294.4375 183.863281 294.742188 182.875 C 298.464844 170.847656 299.90625 156.929688 295.386719 144.902344 Z M 295.386719 144.902344 "/><path style=" stroke:none;fill-rule:nonzero;fill:#2d371e;fill-opacity:1;" d="M 290.542969 181.710938 C 292.714844 170.925781 294.960938 159.394531 291.902344 148.628906 C 289.550781 148.402344 287.535156 146.257812 285.578125 145.027344 C 283.597656 143.78125 281.511719 142.664062 279.355469 141.773438 C 274.921875 139.945312 269.796875 138.605469 264.996094 138.363281 C 262.222656 138.226562 262.25 134.25 264.996094 134.070312 C 267.796875 133.890625 270.46875 133.761719 273.265625 134.136719 C 275.96875 134.492188 278.617188 135.050781 281.214844 135.882812 C 283.144531 136.5 285.019531 137.289062 286.855469 138.152344 C 283.222656 133.132812 278.152344 129.117188 272.183594 127.714844 C 270.824219 129.5 267.257812 128.953125 266.90625 126.167969 C 266.785156 125.851562 266.761719 125.511719 266.816406 125.175781 C 266.398438 118.71875 265.355469 112.6875 262.410156 106.828125 C 259.285156 100.609375 255.242188 95.019531 249.21875 91.324219 C 243.515625 87.828125 236.84375 86.59375 230.386719 88.585938 C 224.414062 90.429688 219.207031 94.851562 217.4375 100.972656 C 217.179688 101.878906 216.464844 102.195312 215.773438 102.128906 C 215.636719 102.449219 215.5 102.761719 215.371094 103.085938 C 233.542969 102.742188 251.753906 110.941406 263.386719 125.09375 C 264.707031 126.699219 262.472656 129.019531 261.0625 127.414062 C 246.445312 110.699219 222.367188 104.152344 201.082031 109.96875 C 199.9375 110.28125 199.070312 109.78125 198.601562 109.011719 C 191.617188 106.625 184.597656 104.609375 177.199219 104.027344 C 171.296875 103.566406 165.414062 103.910156 159.675781 104.9375 C 159.421875 105.027344 159.148438 105.070312 158.867188 105.066406 C 140.679688 108.539062 124.089844 119.152344 113.632812 134.8125 C 112.570312 136.402344 110.011719 134.9375 111.054688 133.304688 C 114.875 127.304688 119.539062 121.796875 124.882812 117.09375 C 129.5625 112.960938 134.820312 109.488281 140.425781 106.714844 C 140.921875 106.253906 141.957031 105.566406 141.886719 105.625 C 141.617188 105.867188 141.378906 106.128906 141.121094 106.386719 C 145.988281 104.042969 151.105469 102.21875 156.363281 101.03125 C 156.519531 97.226562 153.589844 93.921875 150.339844 91.851562 C 150.113281 91.785156 149.886719 91.71875 149.65625 91.675781 C 149.425781 91.464844 149.199219 91.242188 148.957031 91.050781 C 148.457031 90.789062 147.964844 90.558594 147.472656 90.359375 C 145.730469 89.664062 143.984375 89.304688 142.253906 89.175781 C 141.964844 89.222656 141.679688 89.285156 141.394531 89.371094 C 140.148438 89.109375 138.796875 89.183594 137.234375 89.707031 C 137.148438 89.6875 137.078125 89.652344 136.992188 89.640625 C 136.921875 89.625 136.855469 89.628906 136.785156 89.617188 C 128.421875 91.515625 120.808594 98.632812 115.960938 105.183594 C 112.429688 109.957031 109.710938 115.351562 108.347656 121.152344 C 107.027344 126.777344 106.34375 134.4375 109.902344 139.390625 C 110.671875 140.460938 109.605469 141.707031 108.527344 141.78125 C 108.445312 141.867188 108.394531 141.960938 108.289062 142.035156 C 106.1875 143.621094 104.152344 145.335938 102.203125 147.171875 C 107.527344 144.503906 113.039062 142.234375 118.671875 140.277344 C 123.910156 138.457031 129.339844 136.699219 134.847656 135.609375 C 134.898438 135.539062 134.953125 135.46875 135.003906 135.398438 C 135.539062 134.699219 136.382812 134.789062 137.011719 135.222656 C 138.53125 134.980469 140.050781 134.773438 141.582031 134.660156 C 144.457031 134.441406 144.804688 138.746094 142.234375 139.511719 C 139.8125 140.230469 137.371094 140.859375 134.921875 141.472656 C 132.222656 146.21875 130.421875 151.457031 129.441406 156.84375 C 128.140625 164.015625 129.089844 170.800781 130.28125 177.890625 C 130.765625 180.800781 126.925781 181.859375 125.875 179.109375 C 123.144531 171.96875 123.578125 163.375 125.136719 156.007812 C 126.136719 151.269531 127.878906 146.820312 130.195312 142.664062 C 126.9375 143.480469 123.6875 144.324219 120.488281 145.378906 C 113.308594 147.746094 106.308594 150.667969 99.441406 153.820312 C 98.261719 154.359375 97.160156 153.917969 96.527344 153.128906 C 93.160156 157.078125 90.207031 161.363281 87.84375 165.863281 C 84.203125 172.792969 80.015625 184.207031 87.316406 190.308594 C 88.210938 191.058594 88.203125 192.148438 87.734375 193.03125 C 88.210938 193.308594 88.742188 193.519531 89.394531 193.558594 C 91.871094 193.703125 94.199219 193.660156 96.542969 193.796875 C 96.484375 193.992188 96.433594 194.1875 96.375 194.382812 C 97.035156 194.683594 97.558594 195.34375 97.398438 196.25 C 95.855469 204.804688 95.507812 213.574219 96.320312 222.230469 C 97.714844 237.167969 102.78125 253.136719 111.855469 265.242188 C 115.640625 270.296875 120.867188 273.988281 126.699219 276.328125 C 130.199219 277.730469 133.835938 278.746094 137.421875 279.910156 C 133.929688 274.90625 130.753906 269.667969 127.898438 264.289062 C 125.808594 260.351562 123.9375 256.339844 122.230469 252.273438 C 122.15625 252.09375 122.082031 251.917969 122.003906 251.738281 C 113.199219 230.5 109.507812 207.644531 109.839844 184.515625 C 109.871094 182.398438 113.097656 182.402344 113.125 184.515625 C 113.15625 187.179688 113.261719 189.851562 113.414062 192.519531 C 113.726562 192.238281 114.144531 192.066406 114.667969 192.132812 C 115.15625 192.042969 115.660156 192.144531 116.042969 192.507812 C 116.066406 192.515625 116.089844 192.519531 116.113281 192.53125 C 116.375 192.453125 116.636719 192.355469 116.878906 192.21875 C 117.371094 192 117.851562 191.746094 118.328125 191.503906 C 119.53125 190.890625 120.722656 190.253906 121.90625 189.601562 C 124.160156 188.363281 126.25 186.914062 128.394531 185.5 C 130.191406 184.3125 132.023438 183.625 134.089844 183.351562 C 136.347656 182.351562 138.710938 181.515625 140.949219 180.652344 C 141.109375 180.59375 141.265625 180.53125 141.425781 180.464844 C 142.976562 178.820312 144.777344 177.386719 146.90625 176.273438 C 149.476562 174.933594 152.386719 174.175781 155.351562 173.972656 C 156.011719 173.425781 156.667969 172.878906 157.3125 172.320312 C 158.054688 171.671875 159.039062 170.910156 159.425781 169.96875 C 159.542969 169.6875 159.597656 169.390625 159.617188 169.085938 C 159.023438 168.546875 158.480469 167.949219 157.980469 167.3125 C 157.472656 167.480469 156.886719 167.453125 156.371094 167.027344 C 153.832031 164.96875 152.773438 162.289062 152.558594 159.425781 C 152.183594 159.53125 151.773438 159.546875 151.324219 159.425781 C 150.164062 159.105469 149.179688 157.679688 149.652344 156.472656 C 150.558594 154.140625 152.03125 152.1875 153.894531 150.691406 C 154.050781 150.210938 154.207031 149.742188 154.371094 149.273438 C 157.019531 141.863281 160.789062 134.847656 165.539062 128.570312 C 169.113281 123.851562 176.195312 115.625 182.691406 120.84375 C 185.472656 123.078125 186.707031 127.226562 187.734375 130.507812 C 188.382812 132.570312 188.84375 134.660156 189.167969 136.773438 C 191.539062 133.371094 193.375 129.539062 196.644531 126.835938 C 201.117188 123.144531 207.496094 122.136719 211.773438 126.730469 C 215.804688 131.050781 216.425781 137.695312 216.820312 143.300781 C 217.34375 150.75 216.625 158.300781 214.664062 165.507812 C 214.4375 166.332031 213.960938 166.855469 213.386719 167.132812 C 214.1875 167.429688 215.023438 167.652344 215.84375 167.800781 C 219.199219 168.433594 222.730469 167.984375 226.09375 167.609375 C 230.039062 167.164062 233.984375 166.683594 237.933594 166.222656 C 240.070312 165.972656 242.207031 165.707031 244.34375 165.445312 C 246.074219 165.234375 247.894531 164.859375 249.660156 164.832031 C 249.714844 164.210938 249.761719 163.601562 249.761719 163.019531 C 249.765625 160.203125 249.589844 157.363281 249.160156 154.574219 C 248.726562 151.757812 248.105469 148.953125 247.246094 146.238281 C 246.527344 143.957031 245.773438 142.144531 244.03125 140.457031 C 243.574219 140.019531 243.476562 139.402344 243.617188 138.835938 C 243.5625 138.789062 243.503906 138.75 243.449219 138.699219 C 243.265625 138.523438 243.070312 138.351562 242.890625 138.171875 C 242.542969 137.820312 242.234375 137.417969 241.910156 137.042969 C 241.457031 136.515625 240.980469 136.003906 240.589844 135.425781 C 240.3125 135.015625 240.03125 134.605469 239.75 134.191406 C 239.453125 133.753906 239.363281 132.980469 239.53125 132.484375 C 239.648438 132.117188 239.839844 131.792969 240.101562 131.503906 C 240.425781 131.144531 240.90625 130.957031 241.375 130.894531 C 241.671875 130.832031 241.960938 130.84375 242.257812 130.933594 C 242.433594 131.007812 242.613281 131.085938 242.789062 131.15625 C 243.199219 131.457031 243.609375 131.753906 244.019531 132.054688 C 244.574219 132.460938 245.066406 132.921875 245.570312 133.386719 C 245.941406 133.730469 246.347656 134.058594 246.691406 134.433594 C 246.867188 134.621094 247.03125 134.8125 247.199219 135.007812 C 247.503906 135.355469 247.730469 135.714844 247.949219 136.109375 C 248.25 136.652344 248.394531 137.40625 248.199219 138.015625 C 248.113281 138.269531 247.992188 138.5 247.847656 138.722656 C 251.773438 141.679688 253.222656 147.867188 254.273438 152.261719 C 255.070312 155.601562 255.582031 159.015625 255.835938 162.4375 C 256.015625 164.847656 256.457031 167.886719 255.585938 170.277344 C 255.671875 170.296875 255.746094 170.308594 255.796875 170.320312 C 257.65625 170.707031 259.5625 170.953125 261.453125 171.171875 C 263.484375 171.410156 265.527344 171.585938 267.566406 171.742188 C 269.707031 171.910156 272.003906 171.742188 274.09375 172.230469 C 275.351562 172.519531 276.261719 173.816406 276.261719 175.078125 C 276.261719 175.976562 275.722656 177.0625 274.90625 177.601562 C 274.808594 177.984375 274.671875 178.359375 274.554688 178.738281 C 275.597656 178.679688 276.703125 179.503906 276.324219 180.796875 C 273.371094 190.667969 271.085938 200.648438 269.101562 210.714844 C 269.171875 210.898438 269.210938 211.109375 269.203125 211.355469 C 268.640625 224.648438 266.535156 237.960938 262.851562 250.75 C 260.960938 257.316406 258.636719 263.773438 255.765625 269.980469 C 254.414062 272.910156 252.929688 275.929688 251.21875 278.796875 C 251.25 278.820312 251.285156 278.847656 251.316406 278.871094 C 254.210938 277.132812 257.054688 275.304688 259.824219 273.367188 C 269.269531 266.765625 278.734375 258.675781 283.058594 247.699219 C 288.105469 234.890625 288.953125 220.582031 285.851562 207.191406 C 285.441406 205.429688 286.820312 204.273438 288.203125 204.203125 C 288.289062 200.277344 288.492188 196.503906 290.367188 192.121094 C 291.480469 189.527344 292.3125 186.980469 292.957031 184.390625 C 291.636719 184.519531 290.191406 183.441406 290.542969 181.710938 Z M 224.492188 131.902344 C 224.605469 131.554688 224.792969 131.257812 225.066406 131.003906 C 225.316406 130.734375 225.617188 130.542969 225.960938 130.429688 C 226.292969 130.253906 226.648438 130.175781 227.03125 130.1875 C 227.21875 130.179688 227.414062 130.15625 227.601562 130.171875 C 227.691406 130.175781 227.785156 130.179688 227.875 130.1875 C 228.441406 130.226562 228.828125 130.285156 229.316406 130.570312 C 229.871094 130.890625 229.949219 131.082031 230.328125 131.570312 C 230.339844 131.589844 230.355469 131.609375 230.375 131.632812 C 230.613281 132.046875 230.738281 132.488281 230.738281 132.972656 C 230.738281 133.453125 230.613281 133.894531 230.375 134.308594 C 230.359375 134.328125 230.347656 134.347656 230.328125 134.371094 C 230.082031 134.785156 229.746094 135.121094 229.332031 135.367188 C 229.21875 135.421875 229.101562 135.46875 228.984375 135.511719 C 228.652344 135.6875 228.296875 135.765625 227.914062 135.753906 C 227.898438 135.753906 227.886719 135.753906 227.871094 135.757812 C 227.78125 135.761719 227.6875 135.765625 227.597656 135.777344 C 227.410156 135.789062 227.214844 135.765625 227.027344 135.757812 C 226.527344 135.757812 226.054688 135.628906 225.625 135.378906 C 225.4375 135.234375 225.25 135.09375 225.066406 134.945312 C 224.722656 134.597656 224.480469 134.191406 224.347656 133.71875 C 224.316406 133.476562 224.28125 133.230469 224.25 132.980469 C 224.234375 132.589844 224.316406 132.230469 224.492188 131.902344 Z M 234.75 153.878906 C 232.707031 151.875 230.25 150.488281 227.589844 149.660156 C 224.816406 148.796875 222.214844 148.605469 219.164062 148.632812 C 216.710938 148.65625 216.160156 144.882812 218.582031 144.332031 C 225.460938 142.769531 232.769531 146.1875 237.148438 151.484375 C 238.511719 153.136719 236.332031 155.4375 234.75 153.878906 Z M 262.054688 276.730469 C 264.257812 275.28125 266.398438 273.753906 268.488281 272.152344 C 266.46875 273.9375 264.320312 275.492188 262.054688 276.730469 Z M 262.054688 276.730469 "/><path style=" stroke:none;fill-rule:nonzero;fill:#f7b9ac;fill-opacity:1;" d="M 122.847656 226.535156 C 122.882812 226.671875 122.953125 226.761719 123.003906 226.875 C 122.972656 226.921875 122.929688 226.941406 122.894531 226.992188 C 121.652344 229.042969 120.925781 231.238281 120.613281 233.476562 C 118.0625 225.230469 116.15625 216.742188 114.933594 208.054688 C 114.871094 207.613281 114.824219 207.164062 114.769531 206.71875 C 118.484375 212.855469 121.226562 219.539062 122.847656 226.535156 Z M 187.523438 261.503906 C 187.527344 261.496094 187.527344 261.488281 187.53125 261.480469 C 187.503906 261.480469 187.476562 261.484375 187.445312 261.484375 C 187.472656 261.496094 187.5 261.496094 187.523438 261.503906 Z M 162.4375 199.199219 C 162.410156 199.570312 162.328125 199.921875 162.269531 200.28125 C 162.503906 199.957031 162.734375 199.625 162.976562 199.300781 C 162.824219 199.285156 162.679688 199.28125 162.527344 199.238281 C 162.5 199.230469 162.46875 199.214844 162.4375 199.199219 Z M 149.476562 198.742188 C 149.40625 198.601562 149.382812 198.453125 149.339844 198.304688 C 149.261719 198.390625 149.191406 198.484375 149.109375 198.570312 C 149.238281 198.621094 149.355469 198.6875 149.476562 198.742188 Z M 276.265625 175.085938 C 276.265625 175.988281 275.726562 177.070312 274.914062 177.613281 C 274.8125 177.996094 274.675781 178.367188 274.558594 178.75 C 273.933594 178.785156 273.332031 179.144531 273.097656 179.917969 C 268.835938 193.882812 265.121094 208.167969 262.972656 222.621094 C 262.871094 223.273438 263.078125 223.816406 263.421875 224.230469 C 263.484375 224.609375 263.511719 224.976562 263.554688 225.347656 C 263.300781 224.898438 263.019531 224.464844 262.671875 224.054688 C 260.367188 221.277344 256.644531 220.925781 253.296875 221.511719 C 250.972656 221.40625 248.644531 221.726562 246.351562 222.339844 C 243.007812 223.230469 239.148438 224.761719 236.964844 227.578125 C 234.617188 230.609375 235.164062 234.734375 238.082031 237.191406 C 240.863281 239.535156 244.527344 240.410156 248.101562 240.542969 C 251.757812 240.679688 255.460938 239.75 258.699219 238.066406 C 260.519531 237.125 262.164062 235.710938 262.730469 233.664062 C 262.734375 233.644531 262.734375 233.625 262.738281 233.609375 C 262.800781 233.550781 262.867188 233.507812 262.921875 233.441406 C 262.964844 233.394531 262.988281 233.34375 263.027344 233.296875 C 261.386719 239.695312 256.890625 245.023438 250.839844 248.84375 C 245.730469 252.074219 240.160156 253.847656 234.140625 254.328125 C 230.917969 254.582031 227.683594 254.601562 224.441406 254.550781 C 230.65625 249.296875 233.929688 241.339844 232.207031 232.953125 C 230.074219 222.527344 220.679688 214.863281 210.9375 211.765625 C 198.429688 207.789062 183.765625 210.609375 172.1875 216.234375 C 162.105469 221.132812 154.808594 230.9375 153.578125 242.160156 C 153.128906 246.242188 153.730469 250.53125 155.667969 254.191406 C 156.625 256.003906 157.910156 257.511719 159.414062 258.761719 C 150.117188 257.726562 139.808594 256.789062 132.300781 250.824219 C 130.011719 249.003906 127.964844 246.617188 126.464844 243.945312 C 125.761719 242.523438 125.179688 241.039062 124.746094 239.523438 C 126.117188 240.320312 127.675781 240.882812 129 241.296875 C 132.292969 242.328125 135.988281 242.890625 139.433594 242.523438 C 140.398438 242.417969 141.367188 242.230469 142.304688 241.953125 C 142.835938 242 143.324219 241.824219 143.667969 241.457031 C 145.425781 240.699219 146.945312 239.519531 147.828125 237.671875 C 149.214844 234.769531 148.777344 231.132812 146.902344 228.53125 C 144.640625 225.386719 140.765625 223.980469 136.972656 224.136719 C 132.886719 224.304688 128.960938 226.164062 125.628906 228.4375 C 125.601562 228.453125 125.578125 228.488281 125.550781 228.507812 C 125.738281 228.140625 125.757812 227.792969 125.683594 227.480469 C 126.253906 227.085938 126.621094 226.414062 126.410156 225.554688 C 124.125 216.234375 119.886719 207.625 114.015625 200.054688 C 113.769531 197.546875 113.574219 195.035156 113.429688 192.519531 C 113.742188 192.238281 114.160156 192.066406 114.683594 192.132812 C 115.167969 192.042969 115.671875 192.144531 116.054688 192.507812 C 116.078125 192.515625 116.101562 192.519531 116.125 192.53125 C 116.390625 192.453125 116.648438 192.355469 116.894531 192.21875 C 117.386719 192 117.867188 191.746094 118.34375 191.503906 C 119.542969 190.890625 120.738281 190.253906 121.921875 189.601562 C 124.175781 188.363281 126.261719 186.914062 128.40625 185.5 C 130.203125 184.3125 132.039062 183.625 134.101562 183.351562 C 136.359375 182.351562 138.722656 181.515625 140.960938 180.652344 C 141.121094 180.59375 141.277344 180.53125 141.4375 180.464844 C 135.992188 186.253906 133.863281 194.84375 133.09375 202.808594 C 130.101562 201.472656 127.535156 199.507812 125.179688 197.101562 C 123.863281 195.757812 121.335938 197.570312 122.5 199.167969 C 125.542969 203.351562 129.757812 206.246094 134.519531 208.195312 C 135.59375 208.636719 137.128906 207.710938 137.328125 206.597656 C 138.875 197.941406 139.625 187.175781 147.636719 181.738281 C 148.578125 181.101562 149.574219 180.574219 150.617188 180.140625 C 150.832031 186.882812 147.839844 193.726562 142.03125 197.390625 C 139.542969 198.960938 140.8125 202.207031 143.429688 202.535156 C 149.316406 203.269531 154.035156 208.234375 155.164062 213.914062 C 155.617188 216.195312 159.269531 216.730469 160.28125 214.585938 C 163.257812 208.273438 167.109375 202.472656 171.839844 197.339844 C 173.59375 195.4375 172.25 192.792969 169.851562 192.546875 C 163.527344 191.90625 159.386719 185.957031 159.289062 179.96875 C 159.285156 179.601562 159.210938 179.28125 159.113281 178.996094 C 159.835938 179.089844 160.554688 179.21875 161.269531 179.417969 C 165.90625 180.722656 168.863281 183.894531 171.679688 187.597656 C 173.105469 189.480469 176.851562 188.519531 175.894531 185.820312 C 172.890625 177.390625 163.878906 173.375 155.375 173.964844 C 156.035156 173.417969 156.691406 172.871094 157.335938 172.308594 C 158.078125 171.664062 159.0625 170.898438 159.449219 169.960938 C 159.566406 169.679688 159.621094 169.382812 159.640625 169.074219 C 159.046875 168.539062 158.503906 167.9375 158.003906 167.300781 C 159.074219 166.949219 159.789062 165.652344 158.703125 164.714844 C 155.777344 162.1875 156.324219 157.800781 157.445312 154.019531 C 157.496094 153.984375 157.546875 153.945312 157.601562 153.914062 C 157.941406 153.683594 158.285156 153.460938 158.636719 153.257812 C 159.003906 153.046875 159.386719 152.855469 159.777344 152.683594 C 159.84375 152.652344 159.949219 152.613281 160.003906 152.59375 C 160.21875 152.515625 160.429688 152.441406 160.640625 152.371094 C 161.421875 152.121094 162.226562 151.957031 163.03125 151.820312 C 163.09375 151.808594 163.113281 151.804688 163.121094 151.804688 C 163.191406 151.796875 163.265625 151.785156 163.335938 151.78125 C 163.523438 151.769531 163.710938 151.75 163.894531 151.738281 C 164.335938 151.714844 164.78125 151.714844 165.222656 151.738281 C 166.582031 151.808594 168.175781 152.285156 169.519531 153.117188 C 171.050781 154.058594 172.925781 151.761719 171.484375 150.570312 C 168.207031 147.863281 163.855469 146.96875 159.734375 147.902344 C 160.597656 145.859375 161.570312 143.863281 162.601562 141.898438 C 163.335938 142.304688 164.1875 142.476562 165.054688 142.246094 C 168.222656 141.386719 171.40625 140.726562 174.644531 140.207031 C 176.46875 139.914062 177.621094 139.746094 179.363281 139.453125 C 180.089844 139.332031 180.960938 139.207031 181.777344 138.976562 C 182.011719 139.039062 182.242188 139.105469 182.480469 139.164062 C 182.691406 139.230469 182.902344 139.242188 183.117188 139.195312 C 183.328125 139.183594 183.527344 139.125 183.710938 139.003906 C 183.898438 138.90625 184.042969 138.769531 184.15625 138.59375 C 184.226562 138.519531 184.25 138.417969 184.296875 138.328125 C 184.464844 139.878906 184.535156 141.433594 184.507812 143 C 184.46875 144.878906 186.816406 146.4375 188.472656 145.269531 C 190.488281 143.851562 191.984375 142.054688 193.328125 140.136719 C 193.335938 140.203125 193.335938 140.269531 193.355469 140.339844 C 193.535156 140.992188 194.257812 141.664062 194.976562 141.574219 C 197.703125 141.238281 199.828125 140.675781 202.601562 140.78125 C 203.988281 140.839844 204.8125 140.929688 206.027344 141.183594 C 207.511719 141.496094 209.089844 142.351562 210.601562 141.996094 C 210.855469 141.933594 211.085938 141.800781 211.304688 141.640625 C 211.394531 143.082031 211.4375 144.492188 211.472656 145.789062 C 211.65625 151.964844 210.972656 158.074219 209.636719 164.105469 C 209.09375 166.558594 211.691406 167.953125 213.410156 167.128906 C 214.210938 167.425781 215.046875 167.644531 215.867188 167.796875 C 219.222656 168.429688 222.753906 167.980469 226.117188 167.605469 C 230.0625 167.160156 234.007812 166.679688 237.957031 166.21875 C 240.09375 165.96875 242.230469 165.703125 244.367188 165.441406 C 246.097656 165.226562 247.917969 164.855469 249.683594 164.828125 C 249.523438 166.683594 249.296875 168.660156 249.796875 170.363281 C 249.933594 170.75 249.945312 170.863281 249.933594 170.832031 C 250.066406 171.164062 250.226562 171.480469 250.433594 171.78125 C 251.332031 173.097656 253.167969 173.496094 254.367188 172.289062 C 254.941406 171.710938 255.328125 171.027344 255.597656 170.28125 C 255.683594 170.300781 255.757812 170.316406 255.804688 170.324219 C 257.667969 170.710938 259.570312 170.957031 261.460938 171.175781 C 263.492188 171.414062 265.535156 171.59375 267.578125 171.75 C 269.71875 171.914062 272.011719 171.75 274.101562 172.234375 C 275.351562 172.53125 276.265625 173.828125 276.265625 175.085938 Z M 260.457031 186.871094 C 258.71875 188.570312 257.097656 190.371094 255.46875 192.171875 C 252.105469 183.5 246.789062 174.839844 237.597656 172.054688 C 226.1875 168.59375 215.199219 175.773438 208.488281 184.457031 C 207.371094 185.90625 209.773438 187.699219 211.003906 186.394531 C 214.820312 182.363281 220.226562 178.636719 225.957031 177.152344 C 225.882812 180.796875 224.621094 184.332031 222.136719 187.046875 C 220.804688 188.503906 219.269531 189.667969 217.480469 190.507812 C 215.679688 191.351562 213.742188 192.316406 212.957031 194.289062 C 211.0625 199.078125 217.269531 200.21875 219.996094 202.355469 C 223.09375 204.777344 225.164062 208.167969 226.027344 211.988281 C 226.476562 213.972656 229.261719 214.699219 230.628906 213.203125 C 235.453125 207.941406 240.273438 202.683594 245.097656 197.421875 C 246.621094 195.765625 245.820312 193.558594 243.871094 192.773438 C 240.601562 191.464844 237.808594 188.988281 235.929688 186.027344 C 234.015625 183.011719 233.503906 179.980469 233.046875 176.582031 C 234.203125 176.710938 235.347656 176.96875 236.476562 177.359375 C 245.375 180.449219 248.734375 190.628906 251.378906 198.707031 C 252.0625 200.789062 254.800781 201.769531 256.429688 200.039062 C 259.238281 197.070312 261.550781 193.71875 264.253906 190.664062 C 266.527344 188.097656 262.957031 184.441406 260.457031 186.871094 Z M 260.457031 186.871094 "/><path style=" stroke:none;fill-rule:nonzero;fill:#f0816a;fill-opacity:1;" d="M 187.542969 261.480469 C 187.539062 261.488281 187.53125 261.5 187.53125 261.507812 C 187.53125 261.496094 187.539062 261.484375 187.542969 261.480469 Z M 170.625 129.523438 C 170.710938 129.511719 170.785156 129.480469 170.871094 129.464844 C 170.835938 129.425781 170.800781 129.390625 170.757812 129.355469 C 170.714844 129.410156 170.671875 129.46875 170.625 129.523438 Z M 183.714844 261.757812 C 184.28125 261.714844 184.84375 261.679688 185.40625 261.636719 C 185.023438 261.617188 184.078125 261.722656 183.714844 261.757812 Z M 136.964844 224.140625 C 132.878906 224.3125 128.949219 226.167969 125.621094 228.441406 C 125.59375 228.460938 125.570312 228.492188 125.542969 228.511719 C 125.535156 228.519531 125.535156 228.527344 125.53125 228.535156 C 123.675781 232.019531 123.5625 235.828125 124.5625 239.425781 C 124.617188 239.457031 124.671875 239.492188 124.730469 239.523438 C 126.101562 240.320312 127.664062 240.882812 128.988281 241.296875 C 132.277344 242.328125 135.972656 242.890625 139.421875 242.523438 C 140.382812 242.417969 141.355469 242.230469 142.292969 241.953125 C 142.210938 241.941406 142.132812 241.960938 142.050781 241.941406 C 141.195312 241.75 140.699219 240.769531 140.921875 239.949219 C 141.105469 239.269531 141.242188 238.585938 141.378906 237.894531 C 141.40625 237.746094 141.433594 237.597656 141.46875 237.449219 C 141.496094 237.304688 141.59375 237.054688 141.585938 236.894531 C 141.589844 236.851562 141.59375 236.808594 141.605469 236.765625 C 141.640625 236.464844 141.6875 236.183594 141.75 235.890625 C 141.890625 235.226562 142.027344 234.566406 142.167969 233.898438 C 142.238281 233.554688 142.703125 231.710938 143.171875 231.21875 C 144.230469 230.105469 146.40625 230.585938 146.726562 232.15625 C 146.832031 232.660156 146.871094 233.09375 146.710938 233.59375 C 146.664062 233.734375 146.605469 233.875 146.554688 234.019531 C 146.4375 234.347656 146.3125 234.679688 146.195312 235.007812 C 145.964844 235.644531 145.734375 236.28125 145.503906 236.921875 C 145.402344 237.195312 145.300781 237.464844 145.183594 237.734375 C 145.152344 237.800781 145.121094 237.863281 145.09375 237.929688 C 144.960938 238.214844 144.867188 238.53125 144.757812 238.816406 C 144.507812 239.476562 144.261719 240.132812 144.058594 240.808594 C 143.980469 241.066406 143.839844 241.273438 143.667969 241.457031 C 145.425781 240.699219 146.945312 239.519531 147.828125 237.671875 C 149.214844 234.769531 148.78125 231.132812 146.902344 228.53125 C 144.628906 225.390625 140.753906 223.984375 136.964844 224.140625 Z M 137.789062 232.265625 C 137.648438 232.957031 137.105469 233.644531 136.746094 234.253906 C 136.4375 234.777344 136.128906 235.304688 135.820312 235.832031 C 135.203125 236.882812 134.578125 237.9375 133.960938 238.988281 C 133.484375 239.792969 132.476562 240.011719 131.671875 239.585938 C 131.308594 239.390625 131.011719 238.972656 130.902344 238.585938 C 130.769531 238.109375 130.886719 237.726562 131.070312 237.292969 C 131.777344 235.621094 132.492188 233.953125 133.199219 232.277344 C 133.273438 232.09375 133.351562 231.910156 133.429688 231.726562 C 133.480469 231.609375 133.527344 231.484375 133.578125 231.367188 C 133.667969 231.15625 133.757812 230.949219 133.847656 230.738281 C 133.976562 230.554688 134.117188 230.375 134.269531 230.207031 C 134.394531 230.066406 134.570312 229.945312 134.757812 229.84375 C 134.824219 229.8125 134.890625 229.789062 134.957031 229.761719 C 135.402344 229.570312 135.917969 229.5 136.320312 229.667969 C 136.300781 229.671875 136.28125 229.675781 136.261719 229.679688 C 136.460938 229.726562 136.648438 229.785156 136.824219 229.878906 C 137.675781 230.332031 137.976562 231.375 137.789062 232.265625 Z M 193.339844 140.34375 C 193.324219 140.273438 193.324219 140.207031 193.3125 140.140625 C 194.777344 138.039062 196.050781 135.78125 197.59375 133.664062 C 200.054688 130.273438 205.175781 126.625 208.417969 131.160156 C 210.457031 134.007812 211.058594 137.941406 211.292969 141.648438 C 211.078125 141.8125 210.847656 141.941406 210.59375 142.003906 C 209.078125 142.363281 207.503906 141.5 206.019531 141.191406 C 204.800781 140.9375 203.976562 140.84375 202.589844 140.792969 C 199.820312 140.683594 197.691406 141.25 194.96875 141.585938 C 194.242188 141.667969 193.519531 140.996094 193.339844 140.34375 Z M 162.59375 141.90625 C 164.019531 139.195312 165.597656 136.558594 167.34375 134.046875 C 167.953125 133.171875 169.15625 131.363281 170.625 129.519531 C 170.710938 129.503906 170.785156 129.476562 170.871094 129.457031 C 170.835938 129.421875 170.800781 129.386719 170.757812 129.351562 C 173.511719 125.941406 177.171875 122.503906 179.785156 124.738281 C 181.910156 126.550781 182.785156 130.78125 183.421875 133.363281 C 183.828125 134.996094 184.109375 136.65625 184.289062 138.320312 C 184.242188 138.410156 184.21875 138.515625 184.148438 138.589844 C 184.035156 138.765625 183.882812 138.902344 183.699219 139 C 183.515625 139.117188 183.316406 139.179688 183.105469 139.1875 C 182.894531 139.238281 182.683594 139.226562 182.46875 139.160156 C 182.234375 139.101562 182.003906 139.035156 181.765625 138.972656 C 180.945312 139.203125 180.078125 139.324219 179.351562 139.449219 C 177.617188 139.742188 176.457031 139.910156 174.632812 140.203125 C 171.394531 140.726562 168.210938 141.382812 165.042969 142.238281 C 164.183594 142.484375 163.328125 142.316406 162.59375 141.90625 Z M 187.824219 261.457031 C 189.117188 261.359375 190.402344 261.246094 191.695312 261.140625 C 191.601562 261.40625 191.535156 261.683594 191.523438 261.976562 C 191.523438 262.046875 191.515625 262.121094 191.507812 262.191406 C 191.480469 262.328125 191.460938 262.488281 191.433594 262.597656 C 191.394531 262.753906 191.351562 262.902344 191.304688 263.054688 C 191.289062 263.105469 191.183594 263.363281 191.160156 263.441406 C 191.125 263.507812 191.09375 263.570312 191.082031 263.585938 C 190.992188 263.757812 190.898438 263.921875 190.796875 264.082031 C 190.71875 264.207031 190.636719 264.324219 190.550781 264.441406 C 190.523438 264.472656 190.484375 264.515625 190.433594 264.574219 C 190.195312 264.835938 189.945312 265.074219 189.683594 265.308594 C 189.660156 265.332031 189.648438 265.335938 189.636719 265.355469 C 189.613281 265.371094 189.59375 265.378906 189.558594 265.402344 C 189.398438 265.507812 189.246094 265.609375 189.074219 265.703125 C 188.9375 265.785156 188.796875 265.855469 188.65625 265.925781 C 188.621094 265.945312 188.59375 265.953125 188.5625 265.96875 C 188.207031 266.085938 187.859375 266.191406 187.492188 266.265625 C 187.457031 266.269531 187.460938 266.273438 187.445312 266.28125 C 187.433594 266.28125 187.445312 266.273438 187.414062 266.273438 C 187.226562 266.269531 187.035156 266.292969 186.84375 266.292969 C 186.683594 266.292969 186.527344 266.28125 186.375 266.273438 C 186.332031 266.273438 186.3125 266.273438 186.289062 266.269531 C 186.261719 266.261719 186.238281 266.257812 186.183594 266.246094 C 185.839844 266.171875 185.503906 266.097656 185.171875 265.984375 C 185.082031 265.953125 184.992188 265.921875 184.902344 265.886719 C 185.058594 265.960938 185.066406 265.964844 184.941406 265.90625 C 184.792969 265.847656 184.644531 265.78125 184.5 265.714844 C 184.332031 265.632812 184.152344 265.550781 183.992188 265.449219 C 183.996094 265.449219 183.761719 265.285156 183.710938 265.25 C 183.472656 265.066406 183.257812 264.859375 183.050781 264.644531 C 182.554688 264.125 182.242188 263.707031 181.914062 262.984375 C 181.835938 262.824219 181.574219 262.578125 181.304688 262.363281 C 181.296875 262.355469 181.285156 262.351562 181.273438 262.347656 C 181.273438 262.34375 181.273438 262.34375 181.273438 262.339844 C 181.03125 262.148438 180.792969 261.984375 180.683594 261.921875 C 180.785156 261.875 181.148438 261.910156 181.421875 261.929688 C 181.546875 261.917969 181.667969 261.910156 181.796875 261.898438 C 181.941406 261.851562 182.097656 261.859375 182.257812 261.867188 C 182.394531 261.859375 182.535156 261.847656 182.671875 261.839844 C 183.019531 261.816406 183.367188 261.785156 183.714844 261.761719 C 184.019531 261.816406 184.308594 261.917969 184.554688 262.101562 C 184.808594 261.894531 185.089844 261.734375 185.410156 261.640625 C 186.089844 261.589844 186.769531 261.546875 187.449219 261.488281 C 187.472656 261.5 187.5 261.496094 187.527344 261.503906 C 187.53125 261.496094 187.53125 261.488281 187.539062 261.480469 C 187.539062 261.480469 187.542969 261.480469 187.542969 261.480469 C 187.539062 261.488281 187.53125 261.5 187.53125 261.503906 C 187.539062 261.496094 187.542969 261.484375 187.542969 261.476562 C 187.636719 261.472656 187.730469 261.464844 187.824219 261.457031 Z M 238.472656 231.976562 C 238.484375 231.863281 238.492188 231.75 238.511719 231.640625 C 238.519531 231.589844 238.53125 231.539062 238.539062 231.492188 C 238.515625 231.652344 238.492188 231.8125 238.472656 231.976562 Z M 263.550781 225.34375 C 263.296875 224.894531 263.011719 224.460938 262.667969 224.050781 C 260.363281 221.273438 256.640625 220.921875 253.292969 221.503906 C 250.96875 221.402344 248.636719 221.722656 246.347656 222.335938 C 243.003906 223.226562 239.144531 224.757812 236.960938 227.574219 C 234.613281 230.605469 235.160156 234.730469 238.078125 237.1875 C 240.859375 239.53125 244.523438 240.40625 248.097656 240.539062 C 251.753906 240.675781 255.457031 239.746094 258.695312 238.0625 C 260.515625 237.121094 262.160156 235.707031 262.726562 233.660156 C 262.730469 233.640625 262.730469 233.621094 262.734375 233.601562 C 262.796875 233.546875 262.863281 233.503906 262.917969 233.4375 C 262.960938 233.390625 262.984375 233.339844 263.023438 233.292969 C 263.667969 230.792969 263.855469 228.132812 263.550781 225.34375 Z M 243.976562 228.382812 C 243.636719 229.160156 243.296875 229.945312 242.957031 230.722656 C 242.792969 231.105469 242.628906 231.484375 242.457031 231.867188 C 242.226562 232.394531 241.953125 232.816406 241.589844 233.273438 C 241.683594 233.152344 241.777344 233.027344 241.878906 232.902344 C 241.726562 233.144531 241.574219 233.390625 241.425781 233.636719 C 240.980469 234.351562 240.109375 234.644531 239.335938 234.320312 C 238.535156 233.980469 238.207031 233.167969 238.367188 232.34375 C 238.414062 232.109375 238.460938 231.878906 238.503906 231.640625 C 238.621094 230.773438 238.929688 229.980469 239.222656 229.148438 C 239.507812 228.347656 239.785156 227.539062 240.066406 226.738281 C 240.292969 226.09375 240.667969 225.621094 241.300781 225.351562 C 241.855469 225.121094 242.394531 225.121094 242.949219 225.351562 C 243.53125 225.597656 244.035156 226.09375 244.183594 226.738281 C 244.207031 226.925781 244.234375 227.117188 244.257812 227.304688 C 244.269531 227.691406 244.167969 228.050781 243.976562 228.382812 Z M 254.855469 226.6875 C 254.617188 227.515625 254.113281 228.3125 253.679688 229.058594 C 253.304688 229.695312 252.9375 230.328125 252.566406 230.964844 C 252.191406 231.597656 251.800781 232.21875 251.410156 232.839844 C 251.171875 233.230469 250.9375 233.644531 250.625 233.980469 C 250.546875 234.042969 250.476562 234.101562 250.40625 234.171875 C 250.402344 234.179688 250.402344 234.179688 250.398438 234.183594 C 250.277344 234.347656 250.160156 234.511719 250.042969 234.683594 C 249.515625 235.425781 248.652344 235.710938 247.8125 235.265625 C 247.460938 235.078125 247.167969 234.667969 247.0625 234.292969 C 246.9375 233.828125 247.050781 233.457031 247.230469 233.03125 C 247.308594 232.84375 247.398438 232.660156 247.46875 232.46875 C 247.554688 232.28125 247.550781 232.277344 247.457031 232.457031 C 247.480469 232.363281 247.496094 232.265625 247.507812 232.164062 C 247.621094 231.726562 247.882812 231.296875 248.082031 230.890625 C 248.40625 230.230469 248.726562 229.566406 249.070312 228.917969 C 249.417969 228.265625 249.761719 227.617188 250.105469 226.96875 C 250.511719 226.203125 250.925781 225.386719 251.507812 224.738281 C 252.117188 224.066406 253.175781 224.023438 253.933594 224.429688 C 254.710938 224.839844 255.09375 225.871094 254.855469 226.6875 Z M 226.707031 230.613281 C 230.28125 239.714844 225.722656 248.613281 217.5 253.101562 C 216.890625 253.433594 216.535156 253.890625 216.367188 254.390625 C 216 254.160156 215.53125 254.046875 214.953125 254.113281 C 199.035156 256.035156 183.054688 257.523438 167.082031 258.9375 C 160.691406 256.578125 157.121094 251.152344 157.363281 244.097656 C 157.558594 238.65625 159.695312 233.3125 163.011719 228.894531 C 163.960938 227.632812 165.003906 226.449219 166.125 225.363281 C 167.566406 223.960938 169.136719 222.710938 170.804688 221.664062 C 175.628906 218.652344 181.242188 216.84375 186.75 215.566406 C 192.53125 214.226562 198.625 213.664062 204.515625 214.589844 C 213.808594 216.054688 223.140625 221.539062 226.707031 230.613281 Z M 226.707031 230.613281 "/><path style=" stroke:none;fill-rule:nonzero;fill:#f794c6;fill-opacity:1;" d="M 220.785156 287.90625 C 220.429688 286.910156 220.058594 285.921875 219.746094 284.910156 C 219.117188 282.847656 218.433594 280.824219 217.679688 278.800781 C 217.660156 278.753906 217.671875 278.707031 217.660156 278.65625 C 213.777344 281.238281 209.050781 282.765625 204.730469 284.105469 C 202.589844 284.769531 201.78125 281.546875 203.820312 280.796875 C 209.25 278.796875 215.871094 276.503906 219.058594 271.292969 C 220.515625 268.902344 221.085938 265.964844 220.515625 263.335938 C 220.417969 263.277344 220.332031 263.195312 220.222656 263.144531 C 220.246094 262.960938 220.292969 262.777344 220.300781 262.589844 C 219.867188 261.207031 219.125 259.933594 217.960938 258.925781 C 217.230469 258.890625 216.503906 258.863281 215.773438 258.835938 C 215.527344 258.949219 215.257812 259.035156 214.953125 259.066406 C 208.804688 259.707031 202.648438 260.246094 196.484375 260.753906 C 196.789062 261.386719 196.804688 261.980469 196.707031 262.6875 C 196.121094 266.933594 192.277344 270.285156 188.085938 270.632812 C 184.03125 270.964844 180.101562 268.050781 179.007812 264.214844 C 178.636719 262.910156 180.097656 261.921875 181.144531 262.28125 C 181.054688 262.171875 180.96875 262.070312 180.878906 261.96875 C 177.140625 262.234375 173.398438 262.464844 169.652344 262.605469 C 169.621094 262.671875 169.597656 262.726562 169.59375 262.730469 C 169.574219 262.726562 169.453125 262.6875 169.257812 262.628906 C 169.144531 262.636719 169.039062 262.644531 168.929688 262.648438 C 168.609375 262.808594 168.234375 262.890625 167.792969 262.785156 C 167.703125 262.761719 167.613281 262.734375 167.523438 262.710938 C 166.066406 262.753906 164.609375 262.753906 163.152344 262.761719 C 162.921875 263.039062 162.59375 263.242188 162.179688 263.335938 C 162.105469 263.710938 161.933594 264.085938 161.613281 264.429688 C 159.097656 267.136719 159.484375 271.164062 161.199219 274.417969 C 161.449219 274.738281 161.679688 275.074219 161.96875 275.355469 C 162.132812 275.730469 162.308594 276.101562 162.515625 276.449219 C 162.863281 276.882812 163.226562 277.289062 163.605469 277.652344 C 164.449219 278.453125 165.4375 279.074219 166.46875 279.621094 C 166.628906 279.664062 166.785156 279.722656 166.949219 279.75 C 167.070312 279.796875 167.191406 279.84375 167.3125 279.882812 C 167.265625 279.917969 167.214844 279.953125 167.160156 279.988281 C 168.765625 280.742188 170.480469 281.28125 172.167969 281.652344 C 175.722656 282.433594 179.292969 282.734375 182.917969 282.925781 C 184.941406 283.035156 184.957031 286.058594 182.917969 286.085938 C 179.183594 286.132812 175.359375 286.21875 171.664062 285.585938 C 169.234375 285.171875 166.851562 284.425781 164.667969 283.339844 C 164.527344 283.597656 164.335938 283.828125 164.09375 283.976562 C 164.070312 283.992188 164.050781 284.007812 164.03125 284.019531 C 163.882812 284.144531 163.753906 284.285156 163.625 284.425781 C 163.523438 284.578125 163.425781 284.734375 163.347656 284.898438 C 163.28125 285.085938 163.230469 285.273438 163.191406 285.46875 C 163.171875 285.71875 163.160156 285.964844 163.1875 286.210938 C 163.210938 286.355469 163.230469 286.492188 163.253906 286.632812 C 163.253906 286.625 163.253906 286.609375 163.253906 286.597656 C 163.242188 286.515625 163.230469 286.429688 163.21875 286.34375 C 163.230469 286.40625 163.238281 286.46875 163.253906 286.523438 C 163.257812 286.546875 163.253906 286.570312 163.257812 286.59375 C 163.265625 286.660156 163.277344 286.726562 163.285156 286.792969 C 163.277344 286.734375 163.265625 286.679688 163.261719 286.628906 C 163.324219 287.050781 163.289062 287.433594 163.089844 287.820312 C 163.023438 287.949219 162.917969 288.050781 162.808594 288.152344 C 162.898438 288.363281 162.976562 288.5625 162.988281 288.730469 C 162.84375 289.261719 162.773438 289.832031 162.824219 290.476562 C 163.011719 292.917969 164.792969 294.613281 167.136719 295.046875 C 169.867188 295.558594 172.824219 295.445312 175.589844 295.539062 C 178.679688 295.640625 181.773438 295.695312 184.859375 295.6875 C 196.800781 295.675781 208.6875 294.769531 220.515625 293.15625 C 221.097656 293.078125 221.582031 292.769531 221.972656 292.355469 C 222.265625 292.210938 222.519531 292.015625 222.753906 291.796875 C 222.570312 291.640625 222.40625 291.464844 222.273438 291.253906 C 221.644531 290.234375 221.183594 289.023438 220.785156 287.90625 Z M 201.429688 285.679688 C 201.488281 285.628906 201.539062 285.578125 201.597656 285.519531 C 201.785156 285.554688 201.972656 285.589844 202.167969 285.617188 C 201.921875 285.640625 201.675781 285.664062 201.429688 285.679688 Z M 227.898438 187.703125 C 228.359375 186.851562 228.746094 185.96875 229.058594 185.0625 C 229.667969 186.496094 230.394531 187.867188 231.203125 189.089844 C 233.175781 192.050781 235.691406 194.449219 238.648438 196.253906 C 238.101562 196.851562 237.558594 197.453125 237.011719 198.046875 C 236.898438 197.992188 236.648438 198.351562 236.636719 198.457031 C 234.339844 200.96875 232.046875 203.488281 229.75 206 C 228.691406 203.773438 227.257812 201.722656 225.519531 199.964844 C 224.097656 198.53125 222.449219 197.257812 220.679688 196.289062 C 220.476562 196.175781 219.890625 195.820312 219.308594 195.515625 C 222.953125 193.714844 225.921875 191.339844 227.898438 187.703125 Z M 149.339844 198.304688 C 152.210938 195.140625 154.175781 191.222656 154.859375 187.054688 C 156.6875 191.4375 160.464844 195.019531 164.871094 196.871094 C 164.21875 197.667969 163.59375 198.480469 162.976562 199.300781 C 162.824219 199.285156 162.328125 199.921875 162.269531 200.28125 C 160.820312 202.273438 159.460938 204.332031 158.226562 206.464844 C 156.175781 203.078125 153.089844 200.402344 149.476562 198.75 C 149.410156 198.601562 149.386719 198.453125 149.339844 198.304688 Z M 102.207031 147.167969 C 107.53125 144.496094 113.042969 142.230469 118.675781 140.273438 C 123.914062 138.453125 129.347656 136.695312 134.851562 135.605469 C 133.125 137.859375 131.5625 140.207031 130.199219 142.660156 C 126.941406 143.476562 123.691406 144.320312 120.492188 145.375 C 113.3125 147.742188 106.316406 150.664062 99.445312 153.8125 C 98.265625 154.355469 97.164062 153.914062 96.53125 153.125 C 98.320312 151.035156 100.214844 149.042969 102.207031 147.167969 Z M 137.015625 135.222656 C 138.535156 134.980469 140.058594 134.773438 141.585938 134.660156 C 144.460938 134.441406 144.808594 138.746094 142.238281 139.511719 C 139.816406 140.230469 137.375 140.859375 134.929688 141.472656 C 135.730469 140.0625 136.605469 138.691406 137.574219 137.375 C 138.144531 136.601562 137.714844 135.707031 137.015625 135.222656 Z M 224.347656 133.710938 C 224.316406 133.464844 224.28125 133.21875 224.25 132.972656 C 224.234375 132.589844 224.316406 132.230469 224.492188 131.902344 C 224.605469 131.554688 224.792969 131.257812 225.066406 131.003906 C 225.316406 130.734375 225.617188 130.542969 225.960938 130.429688 C 226.292969 130.253906 226.648438 130.175781 227.03125 130.1875 C 227.21875 130.179688 227.414062 130.15625 227.601562 130.171875 C 227.691406 130.175781 227.785156 130.179688 227.875 130.1875 C 228.441406 130.226562 228.828125 130.285156 229.316406 130.570312 C 229.871094 130.890625 229.949219 131.082031 230.328125 131.570312 C 230.339844 131.589844 230.355469 131.609375 230.375 131.632812 C 230.613281 132.046875 230.738281 132.488281 230.738281 132.972656 C 230.738281 133.453125 230.613281 133.894531 230.375 134.308594 C 230.359375 134.328125 230.347656 134.347656 230.328125 134.371094 C 230.082031 134.785156 229.746094 135.121094 229.332031 135.367188 C 229.21875 135.421875 229.101562 135.46875 228.984375 135.511719 C 228.652344 135.6875 228.296875 135.765625 227.914062 135.753906 C 227.898438 135.753906 227.886719 135.753906 227.871094 135.757812 C 227.78125 135.761719 227.6875 135.765625 227.597656 135.777344 C 227.410156 135.789062 227.214844 135.765625 227.027344 135.757812 C 226.527344 135.757812 226.054688 135.628906 225.625 135.378906 C 225.4375 135.234375 225.25 135.09375 225.066406 134.945312 C 224.722656 134.585938 224.480469 134.183594 224.347656 133.710938 Z M 243.632812 138.84375 C 243.574219 138.796875 243.519531 138.761719 243.460938 138.707031 C 243.277344 138.535156 243.085938 138.359375 242.90625 138.179688 C 242.558594 137.832031 242.25 137.425781 241.925781 137.054688 C 241.472656 136.527344 240.996094 136.011719 240.605469 135.4375 C 240.328125 135.027344 240.042969 134.617188 239.765625 134.203125 C 239.46875 133.761719 239.378906 132.988281 239.542969 132.496094 C 239.660156 132.125 239.855469 131.800781 240.113281 131.515625 C 240.441406 131.15625 240.921875 130.96875 241.386719 130.90625 C 241.683594 130.839844 241.976562 130.855469 242.273438 130.945312 C 242.449219 131.019531 242.628906 131.09375 242.800781 131.164062 C 243.210938 131.464844 243.621094 131.765625 244.03125 132.066406 C 244.589844 132.472656 245.078125 132.933594 245.582031 133.394531 C 245.957031 133.738281 246.363281 134.070312 246.707031 134.441406 C 246.878906 134.628906 247.046875 134.824219 247.214844 135.015625 C 247.515625 135.367188 247.742188 135.722656 247.964844 136.121094 C 248.265625 136.664062 248.40625 137.417969 248.214844 138.023438 C 248.128906 138.28125 248.007812 138.511719 247.859375 138.730469 C 247.21875 138.25 246.523438 137.84375 245.742188 137.558594 C 244.710938 137.179688 243.859375 137.941406 243.632812 138.84375 Z M 295.386719 144.902344 C 295.179688 144.351562 294.949219 143.804688 294.71875 143.261719 C 295.058594 143.757812 295.273438 144.308594 295.386719 144.902344 Z M 281.214844 135.882812 C 283.144531 136.5 285.019531 137.289062 286.855469 138.152344 C 288.386719 140.273438 289.667969 142.570312 290.640625 144.929688 C 291.144531 146.152344 291.550781 147.386719 291.902344 148.632812 C 289.550781 148.40625 287.535156 146.261719 285.578125 145.03125 C 283.597656 143.785156 281.511719 142.667969 279.355469 141.777344 C 274.921875 139.949219 269.796875 138.609375 264.996094 138.367188 C 262.222656 138.230469 262.25 134.253906 264.996094 134.074219 C 267.796875 133.894531 270.46875 133.765625 273.265625 134.140625 C 275.96875 134.492188 278.625 135.050781 281.214844 135.882812 Z M 281.214844 135.882812 "/><path style=" stroke:none;fill-rule:nonzero;fill:#020201;fill-opacity:1;" d="M 125.167969 197.101562 C 123.851562 195.757812 121.328125 197.570312 122.492188 199.167969 C 125.53125 203.351562 129.746094 206.246094 134.507812 208.195312 C 135.582031 208.632812 137.121094 207.710938 137.316406 206.597656 C 138.863281 197.941406 139.613281 187.175781 147.628906 181.738281 C 148.566406 181.101562 149.566406 180.574219 150.609375 180.140625 C 150.820312 186.882812 147.832031 193.726562 142.023438 197.390625 C 139.535156 198.960938 140.800781 202.207031 143.417969 202.535156 C 149.308594 203.269531 154.027344 208.234375 155.152344 213.914062 C 155.605469 216.195312 159.261719 216.730469 160.273438 214.585938 C 163.25 208.273438 167.101562 202.472656 171.828125 197.339844 C 173.582031 195.4375 172.238281 192.792969 169.84375 192.546875 C 163.515625 191.90625 159.378906 185.957031 159.277344 179.96875 C 159.273438 179.601562 159.203125 179.28125 159.105469 178.996094 C 159.824219 179.089844 160.546875 179.21875 161.257812 179.417969 C 165.898438 180.722656 168.855469 183.894531 171.667969 187.597656 C 173.097656 189.480469 176.839844 188.519531 175.882812 185.820312 C 172.878906 177.390625 163.871094 173.375 155.367188 173.964844 C 152.394531 174.171875 149.488281 174.925781 146.921875 176.265625 C 144.789062 177.378906 142.984375 178.808594 141.4375 180.457031 C 135.992188 186.246094 133.863281 194.835938 133.09375 202.796875 C 130.089844 201.472656 127.527344 199.507812 125.167969 197.101562 Z M 164.875 196.871094 C 164.222656 197.667969 163.597656 198.480469 162.980469 199.300781 C 162.738281 199.621094 159.46875 204.332031 158.230469 206.464844 C 156.179688 203.078125 153.09375 200.402344 149.480469 198.75 C 149.359375 198.691406 149.242188 198.625 149.113281 198.574219 C 149.195312 198.488281 149.265625 198.394531 149.34375 198.308594 C 152.214844 195.144531 154.183594 191.230469 154.867188 187.0625 C 156.6875 191.4375 160.464844 195.019531 164.875 196.871094 Z M 211.007812 186.394531 C 214.824219 182.363281 220.234375 178.636719 225.960938 177.152344 C 225.886719 180.796875 224.628906 184.332031 222.144531 187.046875 C 220.808594 188.503906 219.277344 189.667969 217.484375 190.507812 C 215.683594 191.351562 213.746094 192.316406 212.964844 194.289062 C 211.066406 199.078125 217.273438 200.21875 220.003906 202.355469 C 223.101562 204.777344 225.167969 208.167969 226.03125 211.988281 C 226.480469 213.972656 229.265625 214.699219 230.632812 213.203125 C 235.457031 207.941406 240.28125 202.683594 245.101562 197.421875 C 246.625 195.765625 245.824219 193.558594 243.875 192.773438 C 240.605469 191.464844 237.8125 188.988281 235.933594 186.027344 C 234.019531 183.011719 233.507812 179.980469 233.050781 176.582031 C 234.207031 176.710938 235.351562 176.96875 236.480469 177.359375 C 245.378906 180.449219 248.738281 190.628906 251.382812 198.707031 C 252.066406 200.789062 254.804688 201.769531 256.4375 200.039062 C 259.242188 197.070312 261.554688 193.71875 264.257812 190.664062 C 266.53125 188.089844 262.957031 184.433594 260.460938 186.867188 C 258.722656 188.566406 257.101562 190.367188 255.472656 192.167969 C 252.109375 183.496094 246.796875 174.835938 237.601562 172.050781 C 226.191406 168.589844 215.203125 175.769531 208.492188 184.453125 C 207.382812 185.90625 209.78125 187.699219 211.007812 186.394531 Z M 229.0625 185.0625 C 229.671875 186.496094 230.398438 187.867188 231.207031 189.089844 C 233.179688 192.050781 235.695312 194.449219 238.652344 196.253906 C 238.105469 196.851562 237.5625 197.453125 237.015625 198.046875 C 236.890625 198.183594 232.050781 203.488281 229.757812 206 C 228.695312 203.773438 227.261719 201.722656 225.523438 199.964844 C 224.105469 198.53125 222.453125 197.257812 220.6875 196.289062 C 220.484375 196.175781 219.894531 195.820312 219.3125 195.515625 C 222.953125 193.703125 225.921875 191.332031 227.898438 187.691406 C 228.359375 186.851562 228.746094 185.96875 229.0625 185.0625 Z M 157.996094 167.308594 C 157.488281 167.476562 156.902344 167.449219 156.382812 167.023438 C 153.847656 164.964844 152.785156 162.285156 152.574219 159.417969 C 152.199219 159.527344 151.789062 159.542969 151.339844 159.417969 C 150.179688 159.097656 149.195312 157.675781 149.664062 156.46875 C 150.570312 154.132812 152.046875 152.183594 153.910156 150.6875 C 154.0625 150.207031 154.21875 149.734375 154.386719 149.269531 C 157.035156 141.859375 160.800781 134.84375 165.554688 128.566406 C 169.128906 123.847656 176.207031 115.621094 182.707031 120.839844 C 185.488281 123.074219 186.722656 127.222656 187.75 130.503906 C 188.394531 132.566406 188.859375 134.652344 189.183594 136.769531 C 191.554688 133.367188 193.386719 129.535156 196.660156 126.832031 C 201.128906 123.140625 207.507812 122.132812 211.789062 126.722656 C 215.820312 131.046875 216.4375 137.691406 216.835938 143.296875 C 217.355469 150.746094 216.640625 158.296875 214.679688 165.5 C 214.453125 166.328125 213.976562 166.847656 213.402344 167.128906 C 211.6875 167.953125 209.082031 166.5625 209.625 164.105469 C 210.964844 158.082031 211.648438 151.96875 211.464844 145.789062 C 211.425781 144.492188 211.382812 143.078125 211.292969 141.640625 C 211.058594 137.929688 210.457031 134 208.417969 131.152344 C 205.179688 126.617188 200.058594 130.265625 197.59375 133.65625 C 196.050781 135.769531 194.777344 138.03125 193.3125 140.132812 C 191.972656 142.054688 190.480469 143.847656 188.457031 145.265625 C 186.808594 146.429688 184.453125 144.875 184.492188 142.992188 C 184.523438 141.429688 184.449219 139.867188 184.285156 138.320312 C 184.105469 136.652344 183.824219 134.996094 183.417969 133.363281 C 182.78125 130.78125 181.902344 126.550781 179.78125 124.738281 C 177.164062 122.503906 173.507812 125.941406 170.753906 129.351562 C 170.707031 129.40625 170.664062 129.464844 170.621094 129.515625 C 169.152344 131.359375 167.949219 133.167969 167.339844 134.039062 C 165.589844 136.554688 164.015625 139.1875 162.589844 141.898438 C 161.550781 143.863281 160.585938 145.855469 159.722656 147.902344 C 163.84375 146.96875 168.1875 147.859375 171.46875 150.570312 C 172.914062 151.761719 171.035156 154.058594 169.503906 153.117188 C 168.164062 152.285156 166.566406 151.816406 165.210938 151.738281 C 164.765625 151.714844 164.324219 151.714844 163.878906 151.738281 C 163.695312 151.75 163.507812 151.769531 163.324219 151.78125 C 163.25 151.785156 163.175781 151.796875 163.105469 151.804688 C 163.097656 151.804688 163.078125 151.808594 163.015625 151.820312 C 162.207031 151.957031 161.410156 152.121094 160.628906 152.371094 C 160.414062 152.441406 160.203125 152.515625 159.992188 152.59375 C 159.929688 152.617188 159.832031 152.652344 159.765625 152.683594 C 159.378906 152.855469 158.996094 153.046875 158.625 153.257812 C 158.265625 153.460938 157.925781 153.683594 157.585938 153.914062 C 157.535156 153.949219 157.480469 153.988281 157.429688 154.019531 C 156.308594 157.800781 155.757812 162.191406 158.6875 164.714844 C 159.777344 165.65625 159.0625 166.957031 157.996094 167.308594 Z M 249.675781 164.832031 C 249.726562 164.210938 249.773438 163.601562 249.773438 163.019531 C 249.78125 160.203125 249.605469 157.363281 249.175781 154.574219 C 248.742188 151.757812 248.121094 148.953125 247.261719 146.238281 C 246.539062 143.957031 245.785156 142.144531 244.046875 140.457031 C 243.589844 140.019531 243.488281 139.402344 243.632812 138.835938 C 243.859375 137.929688 244.707031 137.171875 245.734375 137.554688 C 246.511719 137.839844 247.214844 138.246094 247.851562 138.726562 C 251.777344 141.683594 253.226562 147.875 254.277344 152.265625 C 255.074219 155.605469 255.585938 159.019531 255.84375 162.441406 C 256.019531 164.851562 256.460938 167.890625 255.59375 170.28125 C 255.324219 171.027344 254.9375 171.710938 254.363281 172.289062 C 253.164062 173.5 251.320312 173.097656 250.429688 171.78125 C 250.226562 171.480469 250.0625 171.164062 249.929688 170.832031 C 249.867188 170.683594 249.839844 170.515625 249.792969 170.363281 C 249.289062 168.664062 249.515625 166.6875 249.675781 164.832031 Z M 130.199219 142.664062 C 131.5625 140.210938 133.125 137.863281 134.851562 135.609375 C 134.90625 135.539062 134.957031 135.46875 135.007812 135.398438 C 135.546875 134.699219 136.390625 134.789062 137.015625 135.222656 C 137.710938 135.699219 138.136719 136.601562 137.566406 137.375 C 136.601562 138.691406 135.730469 140.0625 134.921875 141.472656 C 132.222656 146.21875 130.421875 151.457031 129.441406 156.84375 C 128.140625 164.015625 129.089844 170.800781 130.28125 177.890625 C 130.765625 180.800781 126.925781 181.859375 125.875 179.109375 C 123.144531 171.96875 123.578125 163.375 125.136719 156.007812 C 126.140625 151.269531 127.882812 146.820312 130.199219 142.664062 Z M 87.746094 193.03125 C 87.117188 194.214844 85.65625 195.019531 84.402344 194.09375 C 75.109375 187.234375 78.027344 174.476562 82.332031 165.554688 C 84.976562 160.0625 88.433594 154.984375 92.476562 150.429688 C 96.472656 145.9375 100.960938 142.480469 106.078125 139.445312 C 102.285156 133.25 102.929688 124.703125 104.753906 117.984375 C 108.5 104.203125 119.671875 90.394531 133.363281 85.566406 C 140.25 83.136719 148.125 84.136719 154.054688 88.476562 C 157.90625 91.292969 160.894531 95.398438 161.207031 100.082031 C 174.378906 98.03125 188.839844 99.175781 200.882812 105.007812 C 200.972656 105.050781 201.050781 105.109375 201.128906 105.160156 C 205.792969 103.824219 210.582031 103.175781 215.378906 103.082031 C 233.546875 102.734375 251.757812 110.933594 263.390625 125.089844 C 264.710938 126.695312 262.476562 129.015625 261.066406 127.40625 C 246.449219 110.695312 222.375 104.144531 201.085938 109.964844 C 199.941406 110.273438 199.074219 109.773438 198.609375 109.007812 C 191.621094 106.621094 184.601562 104.601562 177.203125 104.023438 C 171.300781 103.5625 165.417969 103.90625 159.679688 104.933594 C 159.425781 105.023438 159.152344 105.066406 158.875 105.058594 C 140.683594 108.535156 124.09375 119.148438 113.636719 134.808594 C 112.574219 136.398438 110.015625 134.933594 111.058594 133.300781 C 114.882812 127.300781 119.542969 121.792969 124.886719 117.085938 C 129.566406 112.957031 134.824219 109.484375 140.429688 106.710938 C 140.660156 106.597656 140.898438 106.492188 141.132812 106.378906 C 145.996094 104.039062 151.113281 102.214844 156.375 101.023438 C 156.53125 97.21875 153.597656 93.914062 150.347656 91.84375 C 149.890625 91.554688 149.429688 91.285156 148.96875 91.042969 C 148.46875 90.785156 147.972656 90.554688 147.484375 90.355469 C 145.738281 89.65625 143.992188 89.300781 142.265625 89.171875 C 140.421875 89.039062 138.589844 89.199219 136.800781 89.609375 C 128.4375 91.511719 120.820312 98.628906 115.976562 105.179688 C 112.445312 109.953125 109.722656 115.347656 108.363281 121.148438 C 107.042969 126.769531 106.359375 134.433594 109.917969 139.386719 C 110.6875 140.457031 109.621094 141.703125 108.539062 141.777344 C 108.460938 141.863281 108.410156 141.957031 108.304688 142.03125 C 106.203125 143.617188 104.164062 145.332031 102.21875 147.167969 C 100.222656 149.042969 98.328125 151.035156 96.542969 153.128906 C 93.175781 157.078125 90.21875 161.363281 87.859375 165.863281 C 84.21875 172.792969 80.03125 184.207031 87.328125 190.308594 C 88.214844 191.058594 88.210938 192.148438 87.746094 193.03125 Z M 294.746094 182.871094 C 294.441406 183.859375 293.71875 184.332031 292.957031 184.402344 C 291.640625 184.523438 290.199219 183.441406 290.546875 181.710938 C 292.71875 170.925781 294.964844 159.394531 291.910156 148.628906 C 291.554688 147.382812 291.148438 146.148438 290.644531 144.925781 C 289.675781 142.566406 288.390625 140.269531 286.859375 138.148438 C 283.230469 133.125 278.15625 129.113281 272.1875 127.710938 C 270.828125 129.496094 267.261719 128.949219 266.914062 126.164062 C 266.789062 125.847656 266.765625 125.507812 266.824219 125.171875 C 266.402344 118.714844 265.359375 112.683594 262.414062 106.824219 C 259.289062 100.605469 255.25 95.015625 249.222656 91.316406 C 243.519531 87.824219 236.847656 86.589844 230.394531 88.582031 C 224.417969 90.425781 219.210938 94.847656 217.441406 100.96875 C 217.183594 101.875 216.472656 102.1875 215.777344 102.125 C 214.878906 102.035156 214.011719 101.261719 214.234375 100.085938 C 215.449219 93.746094 219.769531 88.535156 225.382812 85.492188 C 236.773438 79.300781 250.0625 83.339844 258.917969 92.023438 C 267.675781 100.613281 271.929688 112.378906 272.625 124.390625 C 282.113281 126.265625 290.089844 133.296875 294.203125 142.054688 C 294.394531 142.453125 294.550781 142.863281 294.722656 143.261719 C 294.953125 143.804688 295.183594 144.351562 295.394531 144.902344 C 299.90625 156.929688 298.464844 170.847656 294.746094 182.871094 Z M 285.851562 207.203125 C 288.953125 220.589844 288.097656 234.894531 283.058594 247.710938 C 278.742188 258.683594 269.269531 266.773438 259.824219 273.375 C 257.054688 275.3125 254.210938 277.136719 251.316406 278.882812 C 251.246094 278.925781 251.179688 278.972656 251.109375 279.015625 C 251.148438 278.949219 251.179688 278.878906 251.222656 278.8125 C 252.933594 275.945312 254.417969 272.921875 255.773438 269.996094 C 258.644531 263.789062 260.96875 257.335938 262.859375 250.765625 C 266.535156 237.976562 268.640625 224.664062 269.207031 211.371094 C 269.21875 211.125 269.175781 210.917969 269.105469 210.726562 C 271.089844 200.664062 273.375 190.675781 276.328125 180.808594 C 276.714844 179.519531 275.601562 178.6875 274.558594 178.753906 C 273.933594 178.792969 273.332031 179.148438 273.097656 179.921875 C 268.835938 193.886719 265.121094 208.171875 262.96875 222.628906 C 262.871094 223.277344 263.078125 223.820312 263.421875 224.234375 C 263.484375 224.613281 263.511719 224.980469 263.554688 225.351562 C 263.863281 228.144531 263.671875 230.808594 263.03125 233.296875 C 261.390625 239.695312 256.894531 245.023438 250.84375 248.84375 C 245.734375 252.074219 240.167969 253.847656 234.144531 254.328125 C 230.921875 254.582031 227.6875 254.601562 224.449219 254.550781 C 230.660156 249.296875 233.933594 241.339844 232.210938 232.953125 C 230.078125 222.527344 220.6875 214.863281 210.941406 211.765625 C 198.433594 207.789062 183.769531 210.609375 172.191406 216.234375 C 162.113281 221.132812 154.8125 230.9375 153.582031 242.160156 C 153.136719 246.242188 153.734375 250.53125 155.671875 254.191406 C 156.628906 256.003906 157.917969 257.511719 159.421875 258.761719 C 150.121094 257.726562 139.8125 256.789062 132.304688 250.824219 C 130.015625 249.003906 127.96875 246.617188 126.46875 243.945312 C 125.664062 242.507812 125.011719 240.992188 124.578125 239.429688 C 123.574219 235.832031 123.6875 232.023438 125.550781 228.539062 C 125.554688 228.53125 125.554688 228.527344 125.558594 228.515625 C 125.75 228.148438 125.765625 227.804688 125.691406 227.488281 C 126.261719 227.097656 126.628906 226.421875 126.417969 225.566406 C 124.136719 216.242188 119.898438 207.636719 114.023438 200.0625 C 113.777344 197.554688 113.585938 195.042969 113.4375 192.53125 C 113.285156 189.855469 113.179688 187.1875 113.148438 184.523438 C 113.121094 182.414062 109.894531 182.40625 109.867188 184.523438 C 109.53125 207.652344 113.222656 230.511719 122.027344 251.75 C 122.105469 251.929688 122.179688 252.101562 122.253906 252.28125 C 123.957031 256.347656 125.828125 260.363281 127.921875 264.300781 C 130.777344 269.683594 133.953125 274.917969 137.445312 279.917969 C 133.863281 278.757812 130.226562 277.742188 126.722656 276.335938 C 120.894531 273.996094 115.664062 270.300781 111.878906 265.253906 C 102.804688 253.144531 97.738281 237.175781 96.34375 222.242188 C 95.539062 213.585938 95.878906 204.816406 97.421875 196.257812 C 97.589844 195.355469 97.066406 194.695312 96.402344 194.390625 C 95.5625 194.011719 94.492188 194.222656 94.253906 195.386719 C 91.011719 211.339844 91.839844 227.996094 96.621094 243.570312 C 100.949219 257.671875 108.023438 272.5625 121.742188 279.535156 C 127.4375 282.433594 133.546875 283.785156 139.601562 285.660156 C 140.460938 285.929688 141.160156 285.730469 141.660156 285.304688 C 143.75 286.488281 146.855469 284.351562 145.167969 282.054688 C 138.449219 272.890625 132.75 263.175781 128.097656 253.011719 C 128.199219 253.113281 128.292969 253.21875 128.402344 253.320312 C 136.074219 260.417969 146.894531 262.394531 157.109375 263.144531 C 154.570312 267.085938 155.019531 272.207031 157.242188 276.367188 C 158.390625 278.527344 160 280.253906 161.871094 281.636719 C 161.085938 282.273438 160.515625 283.105469 160.128906 284.058594 C 159.910156 284.597656 159.8125 285.171875 159.773438 285.746094 C 159.757812 285.96875 159.765625 286.1875 159.789062 286.410156 C 159.816406 286.652344 159.824219 286.90625 159.894531 287.136719 C 159.972656 287.371094 160.078125 287.597656 160.183594 287.824219 C 160.339844 288.167969 160.828125 288.519531 161.1875 288.597656 C 161.566406 288.683594 161.929688 288.664062 162.285156 288.511719 C 162.480469 288.433594 162.660156 288.304688 162.816406 288.15625 C 162.917969 288.054688 163.023438 287.953125 163.09375 287.824219 C 163.296875 287.4375 163.328125 287.058594 163.265625 286.632812 C 163.25 286.492188 163.226562 286.355469 163.199219 286.210938 C 163.171875 285.964844 163.1875 285.71875 163.207031 285.46875 C 163.242188 285.273438 163.296875 285.082031 163.363281 284.898438 C 163.441406 284.734375 163.535156 284.578125 163.640625 284.425781 C 163.765625 284.28125 163.898438 284.144531 164.046875 284.019531 C 164.0625 284.007812 164.085938 283.992188 164.105469 283.976562 C 164.351562 283.824219 164.539062 283.597656 164.679688 283.339844 C 166.863281 284.429688 169.25 285.171875 171.679688 285.585938 C 175.375 286.21875 179.191406 286.136719 182.929688 286.085938 C 184.972656 286.058594 184.953125 283.039062 182.929688 282.925781 C 179.304688 282.730469 175.738281 282.433594 172.183594 281.652344 C 170.496094 281.285156 168.777344 280.742188 167.175781 279.988281 C 166.941406 279.875 166.714844 279.75 166.484375 279.621094 C 165.449219 279.074219 164.464844 278.453125 163.621094 277.652344 C 163.238281 277.289062 162.875 276.878906 162.53125 276.449219 C 162.035156 275.828125 161.59375 275.144531 161.210938 274.417969 C 159.5 271.164062 159.113281 267.140625 161.625 264.429688 C 161.945312 264.082031 162.121094 263.710938 162.191406 263.335938 C 162.605469 263.238281 162.933594 263.035156 163.167969 262.761719 C 164.625 262.753906 166.082031 262.753906 167.539062 262.710938 C 167.628906 262.734375 167.71875 262.761719 167.808594 262.785156 C 168.25 262.890625 168.621094 262.808594 168.945312 262.648438 C 169.054688 262.644531 169.164062 262.636719 169.273438 262.628906 C 169.40625 262.625 169.53125 262.617188 169.664062 262.613281 C 173.414062 262.46875 177.15625 262.238281 180.894531 261.976562 C 181.011719 261.964844 181.375 261.933594 181.253906 261.945312 C 181.082031 261.964844 181.933594 261.898438 182.691406 261.84375 C 183.039062 261.816406 183.382812 261.792969 183.734375 261.769531 C 184.296875 261.726562 184.863281 261.6875 185.425781 261.644531 C 186.105469 261.59375 186.785156 261.550781 187.460938 261.496094 C 187.492188 261.496094 187.519531 261.488281 187.550781 261.488281 C 187.550781 261.488281 187.554688 261.488281 187.554688 261.488281 C 187.554688 261.488281 187.554688 261.488281 187.5625 261.488281 C 187.65625 261.480469 187.75 261.476562 187.84375 261.472656 C 189.136719 261.371094 190.421875 261.257812 191.714844 261.15625 C 191.621094 261.417969 191.554688 261.695312 191.539062 261.988281 C 191.539062 262.058594 191.535156 262.136719 191.527344 262.207031 C 191.496094 262.34375 191.480469 262.503906 191.449219 262.613281 C 191.414062 262.765625 191.371094 262.917969 191.324219 263.070312 C 191.308594 263.121094 191.199219 263.375 191.175781 263.457031 C 191.144531 263.523438 191.113281 263.582031 191.101562 263.601562 C 191.011719 263.773438 190.917969 263.9375 190.8125 264.097656 C 190.738281 264.21875 190.652344 264.335938 190.570312 264.457031 C 190.539062 264.488281 190.503906 264.53125 190.453125 264.585938 C 190.214844 264.851562 189.964844 265.085938 189.703125 265.324219 C 189.679688 265.347656 189.667969 265.351562 189.65625 265.371094 C 189.632812 265.382812 189.613281 265.394531 189.578125 265.417969 C 189.417969 265.519531 189.261719 265.625 189.09375 265.71875 C 188.957031 265.796875 188.816406 265.871094 188.675781 265.941406 C 188.640625 265.960938 188.613281 265.96875 188.578125 265.984375 C 188.226562 266.101562 187.878906 266.203125 187.507812 266.28125 C 187.476562 266.285156 187.480469 266.289062 187.460938 266.292969 C 187.453125 266.292969 187.460938 266.289062 187.433594 266.289062 C 187.246094 266.285156 187.050781 266.308594 186.863281 266.308594 C 186.703125 266.308594 186.546875 266.292969 186.390625 266.289062 C 186.351562 266.289062 186.332031 266.289062 186.308594 266.285156 C 186.277344 266.273438 186.253906 266.269531 186.203125 266.261719 C 185.859375 266.183594 185.523438 266.109375 185.191406 265.996094 C 185.101562 265.96875 185.011719 265.933594 184.921875 265.902344 C 185.078125 265.972656 185.085938 265.976562 184.957031 265.921875 C 184.8125 265.859375 184.660156 265.792969 184.519531 265.726562 C 184.351562 265.648438 184.171875 265.5625 184.011719 265.464844 C 184.015625 265.464844 183.78125 265.300781 183.726562 265.265625 C 183.492188 265.082031 183.277344 264.875 183.066406 264.65625 C 182.574219 264.140625 182.261719 263.71875 181.933594 263 C 181.789062 262.691406 181.574219 262.507812 181.332031 262.386719 C 181.320312 262.375 181.304688 262.371094 181.289062 262.363281 C 181.242188 262.339844 181.207031 262.308594 181.160156 262.292969 C 180.113281 261.933594 178.652344 262.914062 179.023438 264.222656 C 180.117188 268.0625 184.042969 270.976562 188.097656 270.640625 C 192.292969 270.296875 196.136719 266.945312 196.722656 262.695312 C 196.820312 261.988281 196.800781 261.398438 196.5 260.761719 C 202.660156 260.253906 208.820312 259.71875 214.96875 259.074219 C 215.273438 259.042969 215.542969 258.957031 215.789062 258.84375 C 216.519531 258.875 217.246094 258.902344 217.976562 258.933594 C 219.140625 259.941406 219.878906 261.214844 220.3125 262.597656 C 220.394531 262.847656 220.476562 263.09375 220.535156 263.347656 C 221.105469 265.972656 220.539062 268.910156 219.078125 271.300781 C 215.894531 276.519531 209.273438 278.8125 203.839844 280.804688 C 201.800781 281.554688 202.609375 284.773438 204.75 284.113281 C 209.074219 282.777344 213.796875 281.25 217.679688 278.664062 C 217.691406 278.710938 217.679688 278.765625 217.695312 278.8125 C 218.449219 280.832031 219.132812 282.859375 219.765625 284.921875 C 220.074219 285.929688 220.445312 286.925781 220.804688 287.914062 C 221.199219 289.03125 221.65625 290.242188 222.28125 291.257812 C 222.410156 291.46875 222.578125 291.644531 222.761719 291.800781 C 223.382812 292.328125 224.25 292.492188 225.039062 292.164062 C 226.074219 291.722656 226.558594 290.644531 226.316406 289.554688 C 226.054688 288.390625 225.527344 287.21875 225.039062 286.132812 C 224.605469 285.175781 224.179688 284.199219 223.703125 283.261719 C 222.722656 281.34375 221.8125 279.414062 220.949219 277.4375 C 220.800781 277.09375 220.488281 276.875 220.140625 276.738281 C 221.375 275.621094 222.488281 274.363281 223.367188 272.878906 C 225.792969 268.816406 226.421875 263.289062 224.246094 259.160156 C 228.394531 259.257812 232.539062 259.199219 236.675781 258.625 C 243.183594 257.71875 249.246094 255.324219 254.558594 251.449219 C 256.699219 249.886719 258.582031 248.121094 260.203125 246.191406 C 259.902344 247.265625 259.605469 248.34375 259.277344 249.414062 C 257.378906 255.742188 255.09375 261.96875 252.234375 267.929688 C 249.554688 273.527344 246.117188 278.5 242.8125 283.714844 C 241.632812 285.578125 244.328125 287.640625 245.851562 286.0625 C 245.941406 285.96875 246.027344 285.863281 246.117188 285.769531 C 251.582031 283.101562 256.953125 280.117188 262.070312 276.746094 C 264.273438 275.292969 266.414062 273.765625 268.5 272.167969 C 271.15625 270.136719 273.71875 267.992188 276.136719 265.695312 C 280.34375 261.707031 284.109375 257.042969 286.515625 251.738281 C 289.527344 245.09375 291.441406 238.074219 292.3125 230.832031 C 293.324219 222.476562 292.648438 214.066406 290.507812 205.9375 C 290.179688 204.683594 289.191406 204.183594 288.210938 204.230469 C 286.820312 204.285156 285.441406 205.4375 285.851562 207.203125 Z M 122.894531 226.996094 C 121.652344 229.046875 120.925781 231.242188 120.613281 233.480469 C 118.0625 225.234375 116.15625 216.75 114.933594 208.058594 C 114.871094 207.617188 114.824219 207.167969 114.769531 206.726562 C 118.480469 212.855469 121.226562 219.539062 122.847656 226.535156 C 122.882812 226.671875 122.953125 226.761719 123.003906 226.875 C 122.972656 226.921875 122.929688 226.945312 122.894531 226.996094 Z M 217.5 253.101562 C 216.890625 253.433594 216.535156 253.890625 216.367188 254.390625 C 216 254.160156 215.53125 254.046875 214.953125 254.113281 C 199.035156 256.035156 183.054688 257.523438 167.082031 258.9375 C 160.691406 256.578125 157.121094 251.152344 157.363281 244.097656 C 157.558594 238.65625 159.695312 233.3125 163.011719 228.894531 C 163.960938 227.632812 165.003906 226.449219 166.125 225.363281 C 167.566406 223.960938 169.136719 222.710938 170.804688 221.664062 C 175.628906 218.652344 181.242188 216.84375 186.75 215.566406 C 192.53125 214.226562 198.625 213.664062 204.515625 214.589844 C 213.796875 216.050781 223.136719 221.527344 226.695312 230.605469 C 230.273438 239.71875 225.714844 248.613281 217.5 253.101562 Z M 163.242188 286.515625 C 163.25 286.539062 163.242188 286.5625 163.25 286.585938 C 163.238281 286.5 163.226562 286.414062 163.214844 286.332031 C 163.21875 286.390625 163.234375 286.453125 163.242188 286.515625 Z M 163.273438 286.789062 C 163.261719 286.730469 163.253906 286.675781 163.25 286.625 C 163.25 286.613281 163.25 286.597656 163.25 286.589844 C 163.257812 286.652344 163.265625 286.71875 163.273438 286.789062 Z M 237.148438 151.480469 C 238.515625 153.136719 236.339844 155.4375 234.753906 153.875 C 232.710938 151.871094 230.257812 150.484375 227.59375 149.65625 C 224.820312 148.792969 222.21875 148.597656 219.167969 148.628906 C 216.714844 148.652344 216.164062 144.878906 218.585938 144.328125 C 225.460938 142.761719 232.765625 146.179688 237.148438 151.480469 Z M 130.902344 238.582031 C 130.769531 238.105469 130.886719 237.722656 131.070312 237.289062 C 131.777344 235.617188 132.492188 233.945312 133.199219 232.273438 C 133.273438 232.089844 133.351562 231.90625 133.429688 231.722656 C 133.480469 231.605469 133.527344 231.480469 133.578125 231.363281 C 133.667969 231.152344 133.757812 230.945312 133.847656 230.730469 C 133.976562 230.546875 134.117188 230.367188 134.269531 230.203125 C 134.394531 230.0625 134.570312 229.941406 134.757812 229.839844 C 134.824219 229.808594 134.890625 229.785156 134.957031 229.757812 C 135.402344 229.566406 135.917969 229.496094 136.320312 229.660156 C 136.300781 229.667969 136.28125 229.671875 136.261719 229.675781 C 136.460938 229.722656 136.648438 229.78125 136.824219 229.875 C 137.679688 230.328125 137.976562 231.367188 137.792969 232.253906 C 137.652344 232.949219 137.109375 233.636719 136.753906 234.246094 C 136.441406 234.765625 136.136719 235.296875 135.824219 235.824219 C 135.207031 236.875 134.582031 237.925781 133.964844 238.976562 C 133.488281 239.785156 132.480469 240 131.675781 239.578125 C 131.3125 239.390625 131.011719 238.972656 130.902344 238.582031 Z M 144.050781 240.8125 C 143.96875 241.070312 143.828125 241.277344 143.660156 241.460938 C 143.316406 241.828125 142.824219 242.003906 142.296875 241.957031 C 142.214844 241.949219 142.136719 241.964844 142.054688 241.949219 C 141.199219 241.753906 140.703125 240.773438 140.925781 239.953125 C 141.109375 239.273438 141.246094 238.589844 141.382812 237.898438 C 141.410156 237.75 141.4375 237.601562 141.472656 237.453125 C 141.503906 237.300781 141.617188 237.015625 141.589844 236.867188 C 141.566406 237.085938 141.5625 237.128906 141.574219 236.992188 C 141.585938 236.921875 141.59375 236.847656 141.605469 236.777344 C 141.640625 236.472656 141.6875 236.191406 141.75 235.898438 C 141.890625 235.234375 142.027344 234.574219 142.167969 233.910156 C 142.238281 233.566406 142.703125 231.722656 143.171875 231.226562 C 144.230469 230.113281 146.40625 230.59375 146.726562 232.164062 C 146.832031 232.667969 146.871094 233.101562 146.710938 233.601562 C 146.664062 233.746094 146.605469 233.886719 146.554688 234.027344 C 146.4375 234.355469 146.3125 234.6875 146.195312 235.015625 C 145.964844 235.652344 145.734375 236.289062 145.503906 236.929688 C 145.402344 237.203125 145.300781 237.472656 145.183594 237.742188 C 145.152344 237.808594 145.121094 237.875 145.09375 237.941406 C 144.960938 238.222656 144.867188 238.539062 144.757812 238.828125 C 144.5 239.480469 144.253906 240.136719 144.050781 240.8125 Z M 244.191406 226.734375 C 244.214844 226.921875 244.246094 227.109375 244.269531 227.300781 C 244.269531 227.6875 244.167969 228.042969 243.976562 228.378906 C 243.636719 229.15625 243.296875 229.941406 242.957031 230.71875 C 242.792969 231.101562 242.628906 231.480469 242.457031 231.863281 C 242.226562 232.390625 241.953125 232.8125 241.589844 233.269531 C 241.683594 233.144531 241.777344 233.023438 241.878906 232.894531 C 241.726562 233.140625 241.574219 233.386719 241.425781 233.632812 C 240.980469 234.347656 240.109375 234.640625 239.335938 234.316406 C 238.535156 233.976562 238.207031 233.164062 238.367188 232.339844 C 238.421875 232.058594 238.480469 231.769531 238.535156 231.484375 C 238.511719 231.648438 238.492188 231.8125 238.46875 231.972656 C 238.539062 230.96875 238.898438 230.082031 239.222656 229.144531 C 239.507812 228.339844 239.785156 227.535156 240.066406 226.734375 C 240.292969 226.089844 240.667969 225.617188 241.300781 225.347656 C 241.855469 225.117188 242.394531 225.117188 242.949219 225.347656 C 243.542969 225.597656 244.046875 226.09375 244.191406 226.734375 Z M 254.855469 226.6875 C 254.617188 227.515625 254.113281 228.3125 253.679688 229.058594 C 253.304688 229.695312 252.9375 230.328125 252.566406 230.964844 C 252.191406 231.597656 251.800781 232.21875 251.410156 232.839844 C 251.171875 233.230469 250.9375 233.644531 250.625 233.980469 C 250.546875 234.042969 250.476562 234.101562 250.40625 234.171875 C 250.402344 234.179688 250.402344 234.179688 250.398438 234.183594 C 250.277344 234.347656 250.160156 234.511719 250.042969 234.683594 C 249.515625 235.425781 248.652344 235.710938 247.8125 235.265625 C 247.460938 235.078125 247.167969 234.667969 247.0625 234.292969 C 246.9375 233.828125 247.050781 233.457031 247.230469 233.03125 C 247.308594 232.84375 247.398438 232.660156 247.46875 232.46875 C 247.554688 232.28125 247.550781 232.277344 247.457031 232.457031 C 247.480469 232.363281 247.496094 232.265625 247.507812 232.164062 C 247.621094 231.726562 247.882812 231.296875 248.082031 230.890625 C 248.40625 230.230469 248.726562 229.566406 249.070312 228.917969 C 249.417969 228.265625 249.761719 227.617188 250.105469 226.96875 C 250.511719 226.203125 250.925781 225.386719 251.507812 224.738281 C 252.117188 224.066406 253.175781 224.023438 253.933594 224.429688 C 254.710938 224.839844 255.09375 225.871094 254.855469 226.6875 Z M 254.855469 226.6875 "/></g></svg>