<svg xmlns="http://www.w3.org/2000/svg" xmlns:xlink="http://www.w3.org/1999/xlink" width="500" zoomAndPan="magnify" viewBox="0 0 375 374.999991" height="500" preserveAspectRatio="xMidYMid meet" version="1.2"><defs><clipPath id="c2e0bc6270"><path d="M 65 83.203125 L 309 83.203125 L 309 291 L 65 291 Z M 65 83.203125 "/></clipPath><clipPath id="72cf5ed84d"><path d="M 65 83.203125 L 309 83.203125 L 309 291 L 65 291 Z M 65 83.203125 "/></clipPath></defs><g id="4ca20ed489"><g clip-rule="nonzero" clip-path="url(#c2e0bc6270)"><path style=" stroke:none;fill-rule:nonzero;fill:#f0816a;fill-opacity:1;" d="M 297.566406 264.554688 C 296.066406 266.386719 293.046875 263.980469 294.316406 262.046875 C 295.25 260.621094 296.128906 259.15625 296.949219 257.660156 C 296.804688 257.441406 296.683594 257.203125 296.652344 256.890625 C 294.609375 236.875 281.207031 216.121094 261.855469 209.007812 C 262.003906 210.609375 262.1875 212.21875 262.398438 213.828125 C 263.773438 214.683594 264.835938 216.339844 265.597656 217.628906 C 266.441406 219.054688 267.109375 220.628906 267.539062 222.230469 C 268.40625 225.488281 268.332031 228.984375 267.410156 232.21875 C 266.421875 235.675781 264.527344 238.800781 262.019531 241.367188 C 261.203125 242.199219 260.3125 242.953125 259.386719 243.671875 C 259.214844 244.136719 258.886719 244.566406 258.355469 244.902344 C 249.578125 250.410156 240.15625 254.746094 230.347656 258.074219 C 230.421875 260.441406 229.296875 263.1875 228.496094 265.183594 C 227.917969 266.621094 227.253906 268.007812 226.507812 269.34375 C 227.445312 270.613281 228.347656 271.910156 229.183594 273.257812 C 230.617188 275.574219 233.175781 278.9375 232.714844 281.796875 C 232.203125 284.957031 228.828125 285.214844 226.289062 285.699219 C 223.015625 286.324219 219.746094 286.949219 216.46875 287.574219 C 207.660156 289.257812 197.660156 291.632812 188.570312 289.871094 C 188.175781 289.847656 187.785156 289.792969 187.390625 289.753906 C 187.253906 290.4375 186.757812 291.042969 185.96875 290.96875 C 180.074219 290.40625 174.644531 288.234375 170.183594 284.527344 C 169.902344 284.398438 169.613281 284.269531 169.332031 284.140625 C 167.722656 283.394531 166.136719 282.617188 164.546875 281.832031 C 163.015625 281.074219 161.5625 280.074219 161.066406 278.335938 C 160.574219 276.613281 161.292969 274.683594 161.789062 273.03125 C 160.601562 270.097656 159.917969 266.972656 159.925781 263.808594 C 147.378906 261.535156 135.269531 256.839844 126.890625 246.796875 C 126.441406 246.257812 126.433594 245.640625 126.648438 245.128906 C 126.390625 245.011719 126.144531 244.832031 125.957031 244.515625 C 122.429688 238.433594 123.242188 230.664062 127.460938 225.207031 C 126.988281 224.125 126.773438 222.933594 126.472656 221.792969 C 126.128906 220.488281 125.765625 219.1875 125.371094 217.898438 C 125.359375 217.867188 125.351562 217.839844 125.339844 217.808594 C 118 226.875 112.914062 237.597656 110.230469 248.945312 C 108.960938 254.300781 108.257812 259.785156 108.316406 265.292969 C 108.359375 269.628906 108.207031 276.628906 112.597656 279.003906 C 114.722656 280.152344 113.148438 283 111.066406 282.640625 C 108.867188 282.261719 107.34375 280.984375 106.265625 279.289062 C 105.988281 279.617188 105.605469 279.875 105.09375 279.976562 C 96.976562 281.621094 91.328125 274.898438 88.898438 267.941406 C 84.261719 254.648438 84.292969 239.320312 87.414062 225.710938 C 90.222656 213.488281 95.628906 199.378906 107.8125 193.839844 C 108.359375 193.589844 108.875 193.675781 109.292969 193.914062 C 110.292969 193.023438 111.324219 192.179688 112.417969 191.425781 C 112.988281 190.878906 113.574219 190.34375 114.164062 189.816406 C 109.703125 190.082031 105.140625 190.597656 100.710938 190.09375 C 98.4375 190.421875 96.171875 190.75 93.976562 191.089844 C 92.972656 191.242188 92.140625 191.011719 91.519531 190.566406 C 91.097656 192.582031 87.929688 192.363281 87.71875 190.09375 C 86.800781 180.210938 89.976562 170.230469 95.347656 161.988281 C 98.972656 156.425781 103.8125 151.203125 109.527344 147.527344 C 109.539062 147.46875 109.527344 147.414062 109.546875 147.355469 C 110.136719 145.589844 110.789062 143.898438 111.496094 142.230469 C 111.25 142.222656 111.007812 142.167969 110.765625 141.984375 C 104.335938 137.039062 101.703125 128.988281 102.46875 121.035156 C 103.792969 107.304688 114.117188 95.492188 127.878906 93.4375 C 138.675781 91.824219 153.375 94.6875 156.890625 106.753906 C 156.894531 106.769531 156.894531 106.785156 156.898438 106.804688 C 158.785156 106.425781 160.675781 106.109375 162.589844 105.898438 C 165.074219 105.625 167.585938 105.632812 170.066406 105.332031 C 172.878906 105 175.125 103.867188 177.609375 102.609375 C 187.125 97.777344 198.003906 97.292969 208.304688 99.5625 C 210.835938 100.121094 213.316406 100.867188 215.757812 101.726562 C 216.597656 97.453125 219.660156 93.5625 222.945312 90.816406 C 224.699219 89.351562 226.515625 88.074219 228.671875 87.285156 C 232.191406 85.996094 236.121094 86.074219 239.800781 86.476562 C 246.691406 87.230469 253.539062 89.242188 259.386719 93.046875 C 265.214844 96.84375 269.714844 102.234375 271.96875 108.847656 C 273.769531 114.140625 274.171875 120.917969 271.746094 126.199219 C 277.246094 129.699219 282.1875 134.238281 285.414062 139.621094 C 288.226562 144.308594 289.820312 149.664062 290.714844 155.023438 C 291.167969 157.71875 291.46875 160.4375 291.660156 163.164062 C 291.839844 165.773438 292.339844 168.90625 291.535156 171.4375 C 291.289062 172.214844 290.695312 172.628906 290.054688 172.734375 C 289.863281 173.992188 289.585938 175.210938 289.195312 176.355469 C 288.625 178.039062 286.371094 178.894531 284.851562 178.28125 C 284.484375 178.476562 284.074219 178.609375 283.632812 178.644531 C 278.519531 179.070312 273.511719 179.109375 268.492188 178.839844 C 269.140625 179.175781 269.785156 179.558594 270.425781 179.9375 C 277.15625 181.949219 283.230469 185.035156 288.742188 189.503906 C 299.355469 198.097656 306.515625 210.566406 308.316406 224.125 C 310.195312 238.277344 306.671875 253.421875 297.566406 264.554688 Z M 277.179688 89.191406 C 278.238281 90.179688 279.261719 91.214844 280.238281 92.28125 C 280.257812 92.304688 280.28125 92.324219 280.300781 92.351562 C 280.15625 92.523438 279.996094 92.675781 279.855469 92.851562 C 278.871094 94.09375 277.644531 95.460938 277.160156 97.003906 C 276.605469 98.761719 278.960938 100.050781 280.210938 98.777344 C 281.214844 97.757812 281.867188 96.332031 282.695312 95.171875 C 282.707031 95.148438 282.730469 95.132812 282.742188 95.109375 C 283.742188 96.269531 284.707031 97.460938 285.605469 98.695312 C 287.054688 100.695312 288.300781 102.789062 289.457031 104.929688 C 288.664062 105.441406 287.871094 105.949219 287.082031 106.460938 C 286.1875 107.035156 285.816406 108.210938 286.371094 109.160156 C 286.875 110.015625 288.195312 110.488281 289.074219 109.867188 C 289.789062 109.355469 290.507812 108.847656 291.222656 108.335938 C 292.113281 110.117188 292.976562 111.917969 293.882812 113.707031 C 295.039062 115.996094 298.457031 114.367188 297.894531 112.015625 C 297.34375 109.710938 296.472656 107.492188 295.402344 105.363281 C 297.457031 103.890625 299.503906 102.410156 301.574219 100.964844 C 302.292969 100.460938 302.632812 99.539062 302.160156 98.738281 C 301.730469 98.011719 300.667969 97.667969 299.929688 98.152344 C 297.847656 99.53125 295.746094 100.886719 293.644531 102.246094 C 292.289062 100.035156 290.769531 97.929688 289.191406 95.941406 C 288.035156 94.480469 286.808594 93.082031 285.507812 91.757812 C 287.199219 89.910156 288.972656 88.238281 291.054688 86.808594 C 291.722656 86.351562 292.023438 85.488281 291.59375 84.75 C 291.203125 84.082031 290.21875 83.761719 289.539062 84.210938 C 288.308594 85.027344 287.164062 85.9375 286 86.832031 C 284.957031 87.632812 283.941406 88.484375 282.992188 89.398438 C 280.761719 87.496094 278.308594 85.386719 275.699219 84.042969 C 274.242188 83.292969 272.582031 85.183594 273.882812 86.402344 C 274.929688 87.382812 276.125 88.203125 277.179688 89.191406 Z M 86.644531 154.832031 C 86.644531 153.6875 85.847656 152.652344 84.671875 152.480469 C 82.164062 152.113281 79.640625 151.789062 77.167969 151.230469 C 77.425781 148.488281 77.875 145.75 78.675781 143 C 79.289062 140.910156 80.082031 138.882812 81.015625 136.921875 C 81.085938 136.953125 81.144531 136.996094 81.214844 137.023438 C 83.054688 137.910156 84.984375 138.628906 86.941406 139.21875 C 89.132812 139.875 91.289062 140.476562 93.589844 140.351562 C 95.570312 140.25 96.109375 137.035156 94.167969 136.417969 C 92.238281 135.808594 90.257812 135.574219 88.289062 135.117188 C 86.445312 134.6875 84.660156 134.085938 82.894531 133.410156 C 84.902344 130.066406 87.371094 126.996094 90.265625 124.351562 C 91.742188 123.003906 89.902344 120.5 88.367188 121.847656 C 84.957031 124.835938 81.9375 128.171875 79.449219 131.863281 C 77.066406 130.667969 74.816406 129.257812 72.710938 127.589844 C 71.117188 126.332031 69.296875 128.71875 70.78125 130.046875 C 72.859375 131.90625 75.128906 133.546875 77.519531 134.988281 C 76.453125 136.902344 75.519531 138.898438 74.757812 140.996094 C 73.753906 143.78125 72.960938 146.769531 72.433594 149.828125 C 72.40625 149.820312 72.375 149.808594 72.347656 149.800781 C 71.113281 149.339844 69.753906 148.777344 68.40625 148.675781 C 68.210938 148.585938 68.015625 148.496094 67.816406 148.410156 C 66.199219 147.667969 64.648438 150.121094 66.1875 151.136719 C 66.824219 151.554688 67.296875 152.140625 67.910156 152.585938 C 68.632812 153.101562 69.433594 153.5625 70.242188 153.929688 C 70.773438 154.171875 71.3125 154.394531 71.855469 154.609375 C 71.605469 157.945312 71.683594 161.277344 72.203125 164.441406 C 72.601562 166.839844 76.703125 167.21875 76.746094 164.511719 C 76.796875 161.714844 76.789062 158.960938 76.871094 156.226562 C 79.402344 156.859375 81.957031 157.242188 84.601562 157.128906 C 85.753906 157.074219 86.644531 155.914062 86.644531 154.832031 Z M 86.644531 154.832031 "/></g><path style=" stroke:none;fill-rule:nonzero;fill:#fff5ee;fill-opacity:1;" d="M 149.792969 104.421875 C 150.300781 105.058594 150.796875 105.726562 151.277344 106.414062 C 151.574219 106.910156 151.855469 107.421875 152.128906 107.941406 C 151.15625 108.21875 150.183594 108.511719 149.222656 108.839844 C 140.671875 111.761719 132.742188 116.417969 126.03125 122.46875 C 122.273438 125.851562 118.929688 129.6875 116.035156 133.832031 C 114.738281 135.691406 113.667969 137.609375 112.703125 139.578125 C 112.6875 139.5625 112.683594 139.535156 112.664062 139.523438 C 103.027344 130.789062 105.429688 114.796875 113.542969 105.933594 C 120.28125 98.582031 131.023438 96.257812 140.550781 98.675781 C 143.019531 99.296875 145.429688 100.296875 147.460938 101.859375 C 147.664062 102.011719 147.824219 102.195312 148.011719 102.359375 C 148.5625 102.957031 149.101562 103.582031 149.617188 104.210938 C 149.664062 104.269531 149.71875 104.320312 149.769531 104.378906 C 149.777344 104.394531 149.785156 104.414062 149.792969 104.421875 Z M 109.304688 193.910156 C 110.304688 193.019531 111.335938 192.171875 112.425781 191.421875 C 112.996094 190.875 113.582031 190.339844 114.171875 189.8125 C 109.710938 190.078125 105.148438 190.59375 100.722656 190.085938 C 98.445312 190.417969 96.183594 190.746094 93.984375 191.085938 C 92.980469 191.238281 92.152344 191.007812 91.53125 190.558594 C 91.566406 190.40625 91.621094 190.269531 91.613281 190.085938 C 91.480469 180.945312 93.660156 171.964844 98.476562 164.152344 C 103.402344 156.148438 110.527344 150.679688 118.78125 146.445312 C 120.3125 145.664062 119.253906 143.136719 117.605469 143.664062 C 116.59375 143.988281 115.59375 144.375 114.621094 144.800781 C 121.953125 131.15625 134.0625 119.917969 148.59375 114.480469 C 152.558594 112.996094 156.6875 111.894531 160.882812 111.285156 C 165.535156 110.605469 170.496094 111.121094 174.988281 109.570312 C 177.292969 108.78125 179.359375 107.488281 181.566406 106.480469 C 183.949219 105.390625 186.496094 104.648438 189.0625 104.152344 C 193.96875 103.203125 199.160156 103.308594 204.078125 104.148438 C 208.238281 104.859375 212.304688 106.066406 216.238281 107.601562 C 216.574219 108.085938 217.089844 108.246094 217.597656 108.164062 C 218.507812 108.539062 219.414062 108.914062 220.3125 109.316406 C 225.800781 111.824219 230.875 115.152344 236.378906 117.589844 C 239.199219 118.835938 241.191406 115.351562 238.773438 113.492188 C 234.234375 110.011719 228.90625 107.355469 223.71875 104.964844 C 222.222656 104.277344 220.710938 103.632812 219.179688 103.011719 C 220.027344 99.628906 222.773438 96.6875 225.332031 94.503906 C 229.300781 91.125 233.703125 90.484375 238.835938 90.992188 C 250.019531 92.09375 261.976562 97.507812 266.660156 108.359375 C 267.851562 111.105469 268.527344 114.113281 268.554688 117.109375 C 268.578125 119.460938 268.089844 121.570312 267.398438 123.695312 C 265.597656 122.765625 263.769531 121.941406 261.949219 121.238281 C 256.898438 119.28125 251.75 118.4375 246.378906 119.304688 C 244.53125 119.601562 245.34375 122.335938 247.148438 122.09375 C 252.539062 121.371094 258.503906 123.808594 263.21875 126.160156 C 264.375 126.734375 265.5 127.371094 266.617188 128.023438 C 266.660156 128.097656 266.726562 128.15625 266.78125 128.226562 C 266.75 128.246094 266.726562 128.269531 266.695312 128.285156 C 266.769531 128.320312 266.847656 128.367188 266.921875 128.402344 C 267.246094 128.722656 267.679688 128.933594 268.152344 129.042969 C 268.304688 129.125 268.453125 129.195312 268.605469 129.277344 C 271.871094 131.378906 274.9375 133.792969 277.628906 136.589844 C 278.292969 137.28125 278.898438 138.003906 279.472656 138.738281 C 278.117188 138.710938 276.808594 139.109375 275.429688 139.414062 C 273.617188 139.8125 271.796875 140.171875 269.972656 140.515625 C 266.574219 141.148438 263.160156 141.667969 259.726562 142.09375 C 255.113281 142.664062 250.46875 142.988281 245.816406 143.117188 C 245.457031 141.0625 244.929688 139.046875 244.105469 137.105469 C 242.949219 134.402344 241.148438 132.179688 239.019531 130.167969 C 237.367188 128.609375 235.144531 130.929688 236.558594 132.628906 C 238.964844 135.503906 240.21875 139.363281 240.738281 143.175781 C 239.910156 143.171875 239.078125 143.179688 238.246094 143.167969 C 235.675781 143.105469 235.777344 146.851562 238.246094 147.09375 C 239.171875 147.1875 240.101562 147.25 241.023438 147.320312 C 241.058594 149.828125 240.898438 152.347656 240.613281 154.839844 C 240.296875 157.628906 239.636719 160.378906 239.59375 163.1875 C 239.542969 166.265625 243.863281 166.648438 244.792969 163.890625 C 245.761719 161.007812 245.980469 157.859375 246.226562 154.839844 C 246.425781 152.453125 246.484375 150.050781 246.339844 147.65625 C 251.0625 147.867188 255.789062 147.878906 260.519531 147.601562 C 264.222656 147.390625 267.925781 146.953125 271.59375 146.417969 C 274.910156 145.929688 279.488281 145.789062 282.078125 143.515625 C 282.191406 143.417969 282.261719 143.304688 282.351562 143.191406 C 283.859375 146.039062 284.957031 149.105469 285.707031 152.332031 C 286.441406 155.464844 286.878906 158.652344 287.136719 161.859375 C 287.378906 164.90625 286.917969 168.550781 287.910156 171.453125 C 288.257812 172.457031 289.207031 172.890625 290.066406 172.746094 C 289.875 174.007812 289.59375 175.226562 289.207031 176.371094 C 288.636719 178.054688 286.382812 178.910156 284.863281 178.292969 C 284.492188 178.492188 284.085938 178.625 283.644531 178.660156 C 278.527344 179.085938 273.523438 179.125 268.5 178.855469 C 269.148438 179.191406 269.792969 179.574219 270.433594 179.953125 C 269.925781 179.800781 269.425781 179.640625 268.910156 179.5 C 266.957031 178.972656 266.175781 181.894531 268.078125 182.507812 C 274.769531 184.671875 281.050781 188.382812 286.40625 193.097656 C 287.371094 194.050781 288.316406 194.996094 289.214844 195.894531 C 289.777344 196.457031 290.375 197.03125 290.984375 197.621094 C 292.988281 199.851562 294.800781 202.226562 296.378906 204.71875 C 303.285156 215.601562 305.605469 228.910156 303.035156 241.527344 C 302.226562 245.488281 300.9375 249.308594 299.296875 252.976562 C 296.035156 232.253906 282.355469 212.195312 262.003906 205.34375 C 261.851562 205.292969 261.710938 205.265625 261.570312 205.253906 C 261.054688 196.082031 261.824219 187.003906 264.949219 178.117188 C 265.195312 177.414062 264.929688 176.867188 264.472656 176.558594 C 264.410156 175.820312 264.105469 175.128906 263.554688 174.585938 C 263.097656 174.132812 262.359375 173.621094 261.722656 173.480469 C 261.261719 173.371094 260.769531 173.355469 260.292969 173.304688 C 260.0625 173.277344 259.832031 173.25 259.601562 173.222656 C 259.285156 173.175781 258.96875 173.132812 258.660156 173.066406 C 257.972656 172.925781 257.285156 172.820312 256.585938 172.726562 C 256.878906 172.765625 257.175781 172.804688 257.464844 172.84375 C 257.355469 172.832031 257.242188 172.816406 257.136719 172.796875 C 257.0625 172.785156 256.988281 172.773438 256.917969 172.761719 C 256.609375 172.664062 256.304688 172.648438 255.996094 172.671875 C 253.832031 172.457031 251.644531 172.402344 249.492188 172.113281 C 247.582031 171.855469 245.53125 171.234375 243.546875 170.875 C 239.761719 170.183594 236.175781 170.601562 232.683594 171.804688 C 232.289062 171.601562 231.839844 171.457031 231.3125 171.410156 C 228.433594 171.148438 225.652344 171.433594 222.773438 171.519531 C 220.105469 171.597656 217.449219 171.472656 214.78125 171.277344 C 213.820312 171.207031 212.835938 171.027344 211.855469 170.816406 C 213.523438 169.171875 215.589844 167.914062 217.742188 167.316406 C 219.8125 166.742188 222.003906 166.773438 224.074219 167.332031 C 225.179688 167.632812 226.203125 168.058594 227.1875 168.644531 C 228.332031 169.328125 229.277344 170.25 230.539062 170.714844 C 232.773438 171.542969 234.128906 168.84375 233.328125 167.085938 C 232.660156 165.621094 230.921875 164.59375 229.550781 163.867188 C 228.269531 163.1875 226.875 162.636719 225.460938 162.296875 C 222.453125 161.570312 219.199219 161.582031 216.238281 162.53125 C 213.503906 163.414062 210.992188 165.09375 209.082031 167.238281 C 208.378906 168.03125 207.820312 168.875 207.324219 169.746094 C 207.238281 169.726562 207.15625 169.707031 207.078125 169.6875 C 206.003906 169.460938 204.761719 169.878906 203.785156 169.339844 C 203.601562 169.234375 203.417969 169.019531 203.308594 168.9375 C 203.285156 168.871094 203.269531 168.835938 203.25 168.792969 C 203.839844 167.9375 204.386719 167.046875 204.921875 166.167969 C 206.191406 164.070312 207.292969 161.902344 208.207031 159.625 C 209.910156 155.390625 210.484375 150.753906 209.515625 146.269531 C 208.617188 142.105469 206.050781 138.273438 202.304688 136.160156 C 198.484375 133.996094 193.738281 133.667969 189.523438 134.722656 C 187.035156 135.347656 184.617188 136.472656 182.527344 137.957031 C 181.140625 138.941406 179.769531 139.996094 178.675781 141.257812 C 176.507812 137.824219 173.132812 134.691406 168.859375 134.984375 C 163.917969 135.316406 160.792969 140.425781 159.4375 144.691406 C 157.082031 152.101562 159.097656 160.507812 162.792969 167.386719 C 161.796875 167.113281 160.769531 166.9375 159.722656 166.890625 C 156.855469 166.757812 153.839844 167.613281 151.445312 169.183594 C 150.285156 169.945312 149.183594 170.847656 148.277344 171.90625 C 147.304688 173.042969 146.125 174.558594 145.867188 176.070312 C 145.683594 177.191406 145.992188 178.308594 147.023438 178.914062 C 147.90625 179.429688 149.40625 179.390625 150.078125 178.519531 C 150.738281 177.664062 151.296875 176.507812 151.898438 175.746094 C 152.539062 174.945312 153.304688 174.238281 154.097656 173.714844 C 155.789062 172.601562 157.613281 171.96875 159.558594 171.988281 C 161.703125 172.007812 163.847656 172.914062 165.664062 174.285156 C 164.925781 174.773438 164.1875 175.265625 163.425781 175.703125 C 159.457031 178 155.261719 179.972656 150.933594 181.488281 C 146.65625 182.984375 142.164062 183.722656 137.699219 184.414062 C 135.296875 184.78125 132.914062 185.257812 130.609375 186.03125 C 128.371094 186.78125 126.261719 187.914062 123.980469 188.539062 C 123.769531 188.597656 123.589844 188.695312 123.441406 188.820312 C 122.691406 188.878906 121.933594 188.960938 121.199219 189.097656 C 120.210938 189.28125 119.488281 189.675781 118.644531 190.1875 C 117.863281 190.65625 117.738281 191.535156 118.054688 192.222656 C 116.859375 190.664062 114.402344 192.078125 115.347656 193.898438 C 118.015625 199.042969 120.550781 204.269531 122.597656 209.695312 C 123.15625 211.179688 123.6875 212.683594 124.195312 214.195312 C 124.15625 214.226562 124.117188 214.234375 124.082031 214.273438 C 110.027344 228.253906 102.046875 250.28125 103.773438 270.058594 C 103.914062 271.664062 104.15625 273.53125 104.632812 275.324219 C 104.582031 275.324219 104.535156 275.316406 104.480469 275.320312 C 98.136719 275.742188 94.78125 269.898438 93.195312 264.613281 C 91.429688 258.738281 90.484375 252.613281 90.234375 246.492188 C 89.742188 234.269531 91.898438 221.570312 97.285156 210.523438 C 97.527344 210.03125 97.785156 209.539062 98.042969 209.046875 C 98.132812 209.007812 98.21875 208.957031 98.3125 208.929688 C 99.050781 207.449219 99.855469 205.992188 100.710938 204.570312 C 102.988281 201.265625 105.808594 198.355469 109.414062 196.566406 C 110.6875 195.914062 110.277344 194.460938 109.304688 193.910156 Z M 250.214844 157.175781 C 250.230469 157.175781 250.242188 157.175781 250.253906 157.175781 C 250.25 157.171875 250.242188 157.171875 250.230469 157.167969 C 250.230469 157.167969 250.222656 157.171875 250.214844 157.175781 Z M 217.734375 139.792969 C 217.832031 140.027344 217.933594 140.265625 218.035156 140.5 C 218.300781 140.949219 218.652344 141.300781 219.097656 141.5625 C 219.34375 141.667969 219.59375 141.773438 219.839844 141.878906 C 219.960938 141.933594 220.085938 141.980469 220.210938 142.035156 C 220.5625 142.183594 220.90625 142.371094 221.269531 142.472656 C 221.53125 142.546875 221.800781 142.601562 222.066406 142.660156 C 222.363281 142.730469 222.6875 142.792969 222.976562 142.792969 C 223.296875 142.792969 223.605469 142.722656 223.914062 142.65625 C 224.027344 142.628906 224.136719 142.605469 224.25 142.585938 C 225.15625 142.394531 225.894531 141.566406 226.132812 140.703125 C 226.261719 140.226562 226.261719 139.75 226.132812 139.269531 C 226.003906 138.8125 225.773438 138.421875 225.441406 138.082031 C 225.363281 137.988281 225.277344 137.894531 225.199219 137.804688 C 225.066406 137.652344 224.984375 137.597656 224.796875 137.453125 C 224.59375 137.292969 224.53125 137.230469 224.339844 137.148438 C 224.101562 137.042969 223.867188 136.941406 223.628906 136.832031 C 223.25 136.664062 222.957031 136.53125 222.582031 136.4375 C 222.449219 136.402344 222.316406 136.375 222.1875 136.339844 C 221.925781 136.277344 221.664062 136.207031 221.398438 136.144531 C 221.003906 136.019531 220.609375 136 220.210938 136.089844 C 219.820312 136.109375 219.449219 136.222656 219.109375 136.445312 C 218.910156 136.597656 218.710938 136.753906 218.511719 136.90625 C 218.222656 137.175781 218.019531 137.492188 217.894531 137.859375 C 217.761719 138.089844 217.695312 138.34375 217.695312 138.605469 C 217.597656 139 217.609375 139.394531 217.734375 139.792969 Z M 161.507812 124.578125 C 161.507812 124.589844 161.511719 124.601562 161.511719 124.617188 C 161.511719 124.605469 161.515625 124.601562 161.515625 124.589844 C 161.511719 124.585938 161.507812 124.582031 161.507812 124.578125 Z M 98.980469 182.8125 C 98.953125 182.769531 98.933594 182.726562 98.90625 182.675781 C 98.882812 182.742188 98.859375 182.804688 98.835938 182.867188 C 98.882812 182.847656 98.933594 182.828125 98.980469 182.8125 Z M 122.808594 160.664062 C 122.355469 163.683594 122.207031 166.753906 122.453125 169.765625 C 122.789062 173.941406 123.5625 181.453125 128.726562 182.488281 C 130.476562 182.84375 131.542969 180.5625 129.960938 179.5625 C 127.921875 178.285156 127.757812 175.90625 127.574219 173.6875 C 127.382812 171.367188 127.347656 169.0625 127.476562 166.742188 C 127.597656 164.539062 127.914062 162.335938 128.390625 160.171875 C 133.417969 159.460938 138.289062 157.988281 142.652344 155.515625 C 145.066406 154.148438 143.453125 150.242188 140.757812 151.019531 C 137.253906 152.027344 133.777344 153.121094 130.234375 153.960938 C 130.277344 153.832031 130.320312 153.707031 130.363281 153.578125 C 133.722656 144.730469 139.972656 138.449219 147.0625 132.480469 C 149.273438 130.621094 146.453125 127.789062 144.210938 128.785156 C 134.367188 133.160156 127.539062 143.878906 124.386719 153.820312 C 124.253906 154.238281 124.136719 154.664062 124.015625 155.085938 C 118.628906 155.742188 112.996094 155.785156 107.648438 154.949219 C 104.996094 154.535156 103.78125 158.449219 106.511719 159.066406 C 111.695312 160.226562 117.269531 160.851562 122.808594 160.664062 Z M 122.808594 160.664062 "/><path style=" stroke:none;fill-rule:nonzero;fill:#f7b9ac;fill-opacity:1;" d="M 182.582031 238.945312 C 182.59375 238.953125 182.609375 238.957031 182.625 238.964844 C 182.621094 238.964844 182.621094 238.972656 182.617188 238.972656 C 182.59375 238.960938 182.585938 238.957031 182.566406 238.945312 C 182.570312 238.945312 182.582031 238.945312 182.582031 238.945312 Z M 220.871094 231.929688 C 220.894531 231.933594 220.921875 231.949219 220.945312 231.953125 C 220.921875 231.863281 220.90625 231.777344 220.875 231.6875 C 220.84375 231.824219 220.828125 231.925781 220.871094 231.929688 Z M 191.164062 249.851562 C 191.171875 249.851562 191.183594 249.855469 191.191406 249.855469 C 191.203125 249.855469 191.210938 249.855469 191.222656 249.855469 C 191.175781 249.851562 191.128906 249.839844 191.082031 249.835938 C 191.082031 249.839844 191.125 249.84375 191.164062 249.851562 Z M 215.800781 245.597656 C 215.957031 245.414062 216.128906 245.25 216.28125 245.066406 C 216.25 245.070312 216.210938 245.078125 216.175781 245.085938 C 216.058594 245.261719 215.925781 245.421875 215.800781 245.597656 Z M 182.460938 238.953125 C 182.398438 238.953125 182.335938 238.957031 182.269531 238.957031 C 182.335938 239.007812 182.484375 238.996094 182.574219 238.976562 C 182.546875 238.964844 182.523438 238.957031 182.496094 238.945312 C 182.484375 238.953125 182.476562 238.953125 182.460938 238.953125 Z M 211.09375 227.261719 C 210.863281 227.320312 210.632812 227.386719 210.402344 227.453125 C 210.507812 227.464844 210.617188 227.445312 210.726562 227.457031 C 210.847656 227.378906 210.976562 227.332031 211.09375 227.261719 Z M 263.554688 174.570312 C 264.105469 175.117188 264.410156 175.8125 264.472656 176.542969 C 263.714844 176.03125 262.433594 176.160156 262.015625 177.292969 C 257.65625 189.097656 255.523438 202.464844 258.273438 214.902344 C 258.121094 215.304688 258.074219 215.753906 258.125 216.226562 C 257.316406 216.058594 256.476562 216 255.644531 215.988281 C 253.753906 215.960938 251.875 216.144531 250 216.410156 C 246.339844 216.929688 242.804688 218.074219 239.492188 219.707031 C 237.214844 220.824219 235.078125 222.976562 234.769531 225.40625 C 233.851562 226.144531 233.167969 227.085938 233.179688 228.40625 C 233.21875 232.261719 238.4375 233.019531 241.34375 233.339844 C 247.453125 234.007812 253.929688 231.679688 258.445312 227.570312 C 259.71875 226.417969 261.125 224.804688 261.863281 223.082031 C 261.902344 223.199219 261.9375 223.324219 261.96875 223.445312 C 262.15625 224.644531 262.308594 225.84375 262.414062 227.058594 C 262.445312 227.074219 262.472656 227.101562 262.507812 227.121094 C 262.515625 228.4375 262.347656 229.769531 261.976562 231.070312 C 261.242188 233.636719 259.792969 236.078125 257.953125 238.101562 C 256.890625 239.269531 255.710938 240.324219 254.429688 241.25 C 254.222656 241.394531 254.019531 241.539062 253.816406 241.6875 C 238.683594 250.042969 222.375 256.054688 205.304688 258.972656 C 204.273438 259.148438 203.230469 259.296875 202.1875 259.449219 C 201.960938 259.480469 201.734375 259.511719 201.503906 259.542969 C 201.503906 259.546875 201.507812 259.546875 201.507812 259.554688 C 189.019531 261.371094 175.925781 261.726562 163.34375 259.886719 C 162.851562 259.5625 162.242188 259.480469 161.660156 259.632812 C 159.140625 259.222656 156.648438 258.707031 154.179688 258.117188 C 153.667969 257.960938 153.15625 257.8125 152.652344 257.648438 C 152.527344 257.648438 152.417969 257.660156 152.300781 257.664062 C 145.273438 255.808594 138.355469 252.816406 132.773438 248.125 C 132.714844 247.972656 132.628906 247.839844 132.582031 247.6875 C 131.136719 246.628906 129.839844 245.390625 128.832031 243.894531 C 128.882812 243.59375 128.851562 243.269531 128.671875 242.929688 C 127.078125 239.914062 126.527344 236.339844 127.035156 232.9375 C 127.035156 232.917969 127.039062 232.898438 127.042969 232.882812 C 127.351562 230.84375 128.046875 228.863281 129.128906 227.113281 C 130.445312 227.621094 132.011719 226.710938 132.191406 225.042969 C 132.359375 223.484375 131.785156 221.929688 131.339844 220.457031 C 130.898438 218.976562 130.425781 217.503906 129.925781 216.050781 C 128.980469 213.304688 127.910156 210.609375 126.742188 207.949219 C 124.347656 202.476562 121.53125 197.1875 118.105469 192.285156 C 118.085938 192.261719 118.0625 192.25 118.042969 192.226562 C 117.734375 191.539062 117.851562 190.664062 118.632812 190.191406 C 119.480469 189.679688 120.203125 189.285156 121.191406 189.105469 C 121.929688 188.964844 122.679688 188.882812 123.433594 188.824219 C 123.582031 188.699219 123.757812 188.601562 123.96875 188.542969 C 126.25 187.917969 128.355469 186.789062 130.597656 186.035156 C 132.910156 185.257812 135.289062 184.785156 137.691406 184.417969 C 142.15625 183.730469 146.644531 182.992188 150.925781 181.492188 C 155.253906 179.972656 159.453125 178.003906 163.414062 175.707031 C 164.179688 175.265625 164.914062 174.777344 165.652344 174.292969 C 167.117188 175.398438 168.378906 176.808594 169.203125 178.359375 C 170.09375 180.019531 172.410156 178.820312 172.097656 177.140625 C 171.683594 174.945312 170.683594 173.007812 169.289062 171.425781 C 169.640625 170.835938 169.707031 170.066406 169.230469 169.246094 C 165.648438 163.089844 162.265625 155.710938 163.355469 148.394531 C 163.421875 147.960938 163.519531 147.488281 163.628906 147.003906 C 164.109375 147.277344 164.699219 147.355469 165.273438 147.023438 C 165.484375 146.898438 165.707031 146.78125 165.917969 146.664062 C 165.976562 146.632812 165.992188 146.628906 166.015625 146.613281 C 166.117188 146.578125 166.21875 146.542969 166.324219 146.515625 C 166.785156 146.367188 167.238281 146.195312 167.699219 146.058594 C 168.578125 145.792969 169.484375 145.566406 170.394531 145.410156 C 170.628906 145.371094 170.886719 145.300781 171.121094 145.289062 C 171.21875 145.285156 171.320312 145.28125 171.363281 145.277344 C 171.789062 145.242188 172.222656 145.222656 172.652344 145.210938 C 173.769531 145.183594 175.066406 145.511719 176.136719 145.125 C 176.464844 145.003906 176.75 144.839844 177.003906 144.640625 C 177.152344 145.585938 178.09375 146.230469 179.171875 145.722656 C 180.777344 144.972656 182.152344 143.871094 183.605469 142.855469 C 183.671875 143.820312 184.503906 144.753906 185.613281 144.367188 C 186.1875 144.167969 186.789062 144.222656 187.425781 144.117188 C 187.984375 144.015625 188.527344 143.910156 188.886719 143.875 C 190.132812 143.761719 191.375 143.664062 192.632812 143.707031 C 192.9375 143.71875 193.242188 143.738281 193.542969 143.761719 C 193.714844 143.777344 193.890625 143.796875 194.0625 143.808594 C 194.355469 143.84375 194.410156 143.851562 194.230469 143.832031 C 194.054688 143.808594 194.109375 143.820312 194.394531 143.859375 C 194.566406 143.890625 194.734375 143.917969 194.90625 143.953125 C 195.199219 144.011719 195.496094 144.074219 195.789062 144.148438 C 197.019531 144.453125 198.15625 145.011719 199.371094 145.335938 C 200.652344 145.679688 201.980469 145.054688 202.578125 143.902344 C 203.707031 145.789062 204.222656 147.925781 204.289062 150.101562 C 204.277344 150.214844 204.277344 150.320312 204.269531 150.433594 C 204.285156 150.636719 204.289062 150.84375 204.304688 151.042969 C 204.253906 152.523438 204.011719 154 203.609375 155.402344 C 202.90625 157.832031 201.796875 160.078125 200.519531 162.253906 C 199.183594 164.535156 197.226562 166.726562 196.585938 169.339844 C 196.121094 171.257812 198.335938 173.375 200.171875 172.09375 C 201.425781 171.21875 202.390625 170.042969 203.253906 168.785156 C 203.273438 168.828125 203.289062 168.863281 203.316406 168.925781 C 203.421875 169.015625 203.605469 169.226562 203.792969 169.328125 C 204.765625 169.871094 206.007812 169.449219 207.082031 169.679688 C 207.160156 169.699219 207.242188 169.71875 207.328125 169.738281 C 206.417969 171.335938 205.792969 173.058594 205.429688 174.945312 C 205.03125 177.03125 207.957031 177.875 208.628906 175.824219 C 209.246094 173.953125 210.40625 172.226562 211.855469 170.792969 C 212.835938 171.007812 213.820312 171.1875 214.78125 171.257812 C 217.445312 171.449219 220.105469 171.570312 222.773438 171.5 C 225.652344 171.414062 228.441406 171.128906 231.3125 171.390625 C 231.839844 171.4375 232.289062 171.582031 232.683594 171.785156 C 236.171875 170.582031 239.761719 170.171875 243.546875 170.855469 C 245.53125 171.214844 247.582031 171.832031 249.492188 172.09375 C 251.644531 172.382812 253.835938 172.4375 255.996094 172.652344 C 256.304688 172.628906 256.609375 172.648438 256.917969 172.742188 C 256.992188 172.753906 257.066406 172.765625 257.136719 172.777344 C 257.242188 172.792969 257.355469 172.8125 257.464844 172.824219 C 257.171875 172.785156 256.875 172.746094 256.585938 172.707031 C 257.285156 172.800781 257.972656 172.90625 258.660156 173.046875 C 258.96875 173.109375 259.285156 173.15625 259.601562 173.203125 C 259.832031 173.230469 260.0625 173.257812 260.292969 173.285156 C 260.765625 173.335938 261.261719 173.351562 261.722656 173.460938 C 262.363281 173.609375 263.097656 174.121094 263.554688 174.570312 Z M 158.203125 234.957031 C 157.25 234.089844 156 233.636719 154.828125 233.128906 C 153.496094 232.546875 152.160156 231.984375 150.796875 231.472656 C 145.835938 229.59375 140.375 228.441406 135.117188 229.742188 C 132.648438 230.351562 129.773438 231.691406 129.640625 234.613281 C 129.53125 236.910156 131.351562 239.226562 132.921875 240.742188 C 135.875 243.609375 139.957031 245.179688 144.054688 245.285156 C 144.621094 245.300781 145.21875 245.269531 145.828125 245.222656 C 147.699219 245.371094 149.5625 245.304688 151.4375 245 C 153.804688 244.613281 156.566406 243.902344 158.207031 242.019531 C 159.933594 240.058594 160.253906 236.835938 158.203125 234.957031 Z M 174.933594 218.96875 C 176.304688 220.382812 178.179688 218.597656 177.476562 217.007812 C 174.425781 210.078125 166.183594 205.703125 158.960938 204.816406 C 151.921875 203.953125 144.742188 206.296875 139.328125 210.78125 C 138.5 209.753906 137.660156 208.730469 136.777344 207.742188 C 134.902344 205.648438 131.207031 208.421875 132.835938 210.78125 C 134.203125 212.765625 135.675781 214.644531 137.167969 216.53125 C 138.042969 217.636719 140.015625 217.476562 140.917969 216.53125 C 145.519531 211.6875 151.972656 209.164062 158.644531 209.710938 C 165.511719 210.277344 170.339844 214.25 174.933594 218.96875 Z M 225.023438 234.226562 C 225.15625 229.859375 222.515625 225.425781 218.398438 223.882812 C 212.578125 221.699219 207.144531 224.925781 201.613281 226.394531 C 195.199219 228.101562 188.59375 228.859375 182.085938 230.070312 C 176.886719 231.035156 171.078125 232.03125 169.601562 237.96875 C 168.273438 243.320312 171.40625 248.660156 174.804688 252.570312 C 177.171875 255.289062 181.066406 256.976562 184.410156 258.0625 C 189.78125 259.808594 195.5 259.890625 200.753906 257.914062 C 201.125 258.136719 201.589844 258.234375 202.125 258.101562 C 210.714844 256.003906 218.273438 250.410156 222.433594 242.546875 C 223.78125 240.015625 224.9375 237.128906 225.023438 234.226562 Z M 248.308594 201.128906 C 247.453125 202.226562 246.640625 203.339844 245.839844 204.46875 C 240.054688 200.316406 232.789062 198.527344 225.691406 199.84375 C 218.421875 201.195312 210.667969 206.386719 208.09375 213.527344 C 207.554688 215.019531 209.773438 216.320312 210.804688 215.105469 C 215.097656 210.035156 219.597656 205.875 226.398438 204.699219 C 232.890625 203.582031 239.703125 205.738281 244.523438 210.175781 C 245.84375 211.398438 247.695312 211.078125 248.683594 209.640625 C 249.921875 207.839844 251.132812 206.046875 252.246094 204.167969 C 253.652344 201.796875 250.097656 198.828125 248.308594 201.128906 Z M 248.308594 201.128906 "/><path style=" stroke:none;fill-rule:nonzero;fill:#f0816a;fill-opacity:1;" d="M 199.824219 264.863281 C 199.46875 265.292969 199.121094 265.726562 198.726562 266.113281 C 198.132812 266.703125 197.867188 266.890625 197.128906 267.3125 C 195.902344 268.015625 194.660156 268.332031 193.175781 268.253906 C 192.625 268.222656 192.023438 268.074219 191.28125 267.835938 C 190.660156 267.632812 190.144531 267.382812 189.5 266.96875 C 188.992188 266.640625 188.476562 266.207031 188.003906 265.726562 C 191.949219 265.597656 195.894531 265.308594 199.824219 264.863281 Z M 220.871094 231.929688 C 220.894531 231.933594 220.921875 231.949219 220.945312 231.953125 C 221.152344 232.691406 221.285156 233.417969 221.285156 233.996094 C 221.285156 236.035156 220.457031 238.144531 219.574219 239.949219 C 218.664062 241.800781 217.558594 243.511719 216.289062 245.066406 C 216.253906 245.070312 216.214844 245.078125 216.179688 245.085938 C 216.0625 245.257812 215.929688 245.421875 215.804688 245.597656 C 212.015625 249.988281 206.890625 253.089844 201.140625 254.496094 C 200.527344 254.648438 200.148438 255.007812 199.957031 255.453125 C 192.613281 256.898438 184.332031 255.992188 178.390625 251.085938 C 175.769531 248.921875 173.25 244.675781 172.980469 241.28125 C 172.824219 239.3125 173.398438 237.152344 175.023438 235.90625 C 176.941406 234.425781 180.019531 234.214844 182.320312 233.777344 C 187.578125 232.78125 192.894531 232.117188 198.136719 231.035156 C 200.765625 230.492188 203.375 229.847656 205.925781 229.019531 C 207.4375 228.527344 208.894531 227.902344 210.402344 227.449219 C 210.507812 227.457031 210.617188 227.4375 210.726562 227.453125 C 210.84375 227.375 210.972656 227.332031 211.089844 227.257812 C 211.914062 227.046875 212.757812 226.894531 213.636719 226.867188 C 215.777344 226.808594 218.160156 227.339844 219.566406 229.089844 C 220.144531 229.808594 220.582031 230.75 220.871094 231.683594 C 220.84375 231.824219 220.828125 231.925781 220.871094 231.929688 Z M 182.574219 238.980469 C 182.546875 238.972656 182.523438 238.960938 182.496094 238.953125 C 182.484375 238.953125 182.484375 238.953125 182.46875 238.953125 C 182.402344 238.953125 182.339844 238.957031 182.277344 238.957031 C 182.335938 239.007812 182.488281 239 182.574219 238.980469 Z M 182.628906 238.964844 C 182.617188 238.960938 182.601562 238.957031 182.585938 238.945312 C 182.582031 238.945312 182.574219 238.945312 182.570312 238.945312 C 182.589844 238.957031 182.601562 238.960938 182.621094 238.972656 C 182.625 238.972656 182.625 238.964844 182.628906 238.964844 Z M 191.222656 249.855469 C 191.175781 249.851562 191.128906 249.839844 191.082031 249.835938 C 191.082031 249.839844 191.125 249.84375 191.164062 249.851562 C 191.171875 249.851562 191.183594 249.855469 191.191406 249.855469 C 191.203125 249.855469 191.214844 249.855469 191.222656 249.855469 Z M 158.203125 234.957031 C 160.257812 236.835938 159.933594 240.058594 158.210938 242.027344 C 156.566406 243.910156 153.8125 244.621094 151.441406 245.003906 C 149.5625 245.3125 147.699219 245.371094 145.835938 245.226562 C 145.222656 245.28125 144.625 245.304688 144.058594 245.289062 C 139.960938 245.183594 135.878906 243.613281 132.925781 240.746094 C 131.355469 239.226562 129.542969 236.910156 129.644531 234.621094 C 129.78125 231.699219 132.65625 230.355469 135.125 229.746094 C 140.378906 228.445312 145.839844 229.597656 150.800781 231.476562 C 152.160156 231.992188 153.5 232.554688 154.835938 233.132812 C 155.996094 233.640625 157.242188 234.089844 158.203125 234.957031 Z M 144.253906 230.253906 C 142.972656 231.730469 141.910156 233.359375 141.152344 235.171875 C 140.8125 235.976562 140.523438 236.800781 140.3125 237.652344 C 140.203125 238.085938 140.101562 238.527344 140.035156 238.972656 C 139.929688 239.660156 140.023438 240.285156 140.121094 240.96875 C 140.214844 241.617188 141.015625 242.152344 141.640625 242.125 C 142.347656 242.09375 142.949219 241.65625 143.160156 240.96875 C 143.3125 240.457031 143.46875 239.980469 143.53125 239.445312 C 143.539062 239.382812 143.597656 238.960938 143.585938 239.007812 C 143.613281 238.839844 143.640625 238.667969 143.671875 238.5 C 143.816406 237.691406 144.019531 236.890625 144.269531 236.113281 C 144.519531 235.34375 144.792969 234.605469 145.058594 234.039062 C 145.410156 233.273438 145.824219 232.527344 146.285156 231.816406 C 147.0625 230.597656 145.222656 229.136719 144.253906 230.253906 Z M 153.285156 233.375 C 152.832031 233.027344 152.085938 233.011719 151.683594 233.46875 C 151.289062 233.914062 150.875 234.355469 150.5 234.824219 C 150.070312 235.371094 149.695312 235.960938 149.359375 236.570312 C 149.019531 237.191406 148.730469 237.835938 148.523438 238.507812 C 148.398438 238.921875 148.265625 239.371094 148.292969 239.808594 C 148.332031 240.304688 148.386719 240.875 148.703125 241.28125 C 148.996094 241.671875 149.292969 241.925781 149.789062 241.992188 C 150.285156 242.058594 150.652344 241.894531 151.039062 241.582031 C 151.316406 241.355469 151.488281 241.03125 151.640625 240.710938 C 151.839844 240.304688 151.914062 239.949219 151.992188 239.523438 C 152.101562 238.960938 152.207031 238.390625 152.355469 237.835938 C 152.425781 237.570312 152.503906 237.304688 152.597656 237.042969 C 152.640625 236.914062 152.695312 236.789062 152.742188 236.660156 C 152.8125 236.488281 152.75 236.644531 152.714844 236.722656 C 152.777344 236.578125 152.835938 236.429688 152.902344 236.277344 C 152.925781 236.21875 152.945312 236.160156 152.96875 236.097656 C 153.015625 235.964844 153.089844 235.832031 153.152344 235.707031 C 153.28125 235.4375 153.4375 235.195312 153.609375 234.949219 C 153.949219 234.457031 153.734375 233.71875 153.285156 233.375 Z M 238.859375 222.777344 C 238.875 222.78125 238.890625 222.792969 238.910156 222.800781 C 238.902344 222.796875 238.894531 222.792969 238.886719 222.78125 C 238.875 222.78125 238.871094 222.78125 238.859375 222.777344 Z M 255.644531 215.988281 C 256.476562 216.003906 257.316406 216.058594 258.125 216.226562 C 258.132812 216.308594 258.121094 216.382812 258.132812 216.46875 C 258.449219 218.074219 259.859375 219.15625 260.671875 220.507812 C 261.242188 221.46875 261.566406 222.171875 261.863281 223.082031 C 261.128906 224.808594 259.71875 226.417969 258.445312 227.570312 C 253.929688 231.679688 247.457031 234.003906 241.34375 233.339844 C 238.4375 233.019531 233.21875 232.261719 233.179688 228.40625 C 233.167969 227.085938 233.851562 226.144531 234.769531 225.40625 C 235.078125 222.972656 237.214844 220.824219 239.492188 219.707031 C 242.804688 218.082031 246.339844 216.929688 250 216.410156 C 251.878906 216.144531 253.753906 215.964844 255.644531 215.988281 Z M 244.035156 227.285156 C 243.816406 226.925781 243.59375 226.574219 243.28125 226.289062 C 243.085938 226.105469 242.882812 225.917969 242.683594 225.742188 C 242.253906 225.363281 241.820312 224.988281 241.390625 224.609375 C 240.902344 224.1875 240.410156 223.664062 239.839844 223.355469 C 239.609375 223.234375 239.398438 223.085938 239.175781 222.949219 C 239.144531 222.929688 239.027344 222.867188 238.914062 222.804688 C 238.886719 222.78125 238.855469 222.753906 238.828125 222.726562 C 238.769531 222.671875 238.707031 222.621094 238.65625 222.566406 C 238.171875 222.113281 237.335938 222.050781 236.863281 222.566406 C 236.378906 223.097656 236.398438 223.824219 236.863281 224.355469 C 236.910156 224.40625 236.949219 224.449219 236.992188 224.5 C 237.003906 224.507812 237.160156 224.699219 237.085938 224.597656 C 237.085938 224.585938 237.074219 224.566406 237.054688 224.523438 C 237.011719 224.234375 237.144531 224.734375 237.207031 224.851562 C 237.335938 225.078125 237.484375 225.300781 237.601562 225.53125 C 237.90625 226.121094 238.421875 226.636719 238.847656 227.148438 C 239.199219 227.578125 239.554688 228.007812 239.914062 228.4375 C 240.085938 228.644531 240.265625 228.84375 240.445312 229.050781 C 240.730469 229.382812 241.097656 229.617188 241.460938 229.855469 C 242.132812 230.292969 243.203125 230.148438 243.746094 229.558594 C 244.300781 228.957031 244.488281 228.019531 244.035156 227.285156 Z M 253.382812 224.601562 C 253.109375 224.3125 252.84375 224.046875 252.507812 223.820312 C 252.265625 223.65625 252.019531 223.503906 251.785156 223.335938 C 251.324219 223.011719 250.867188 222.683594 250.410156 222.355469 C 249.964844 222.039062 249.527344 221.695312 249.035156 221.464844 C 248.910156 221.40625 248.777344 221.355469 248.648438 221.304688 C 248.648438 221.304688 248.652344 221.304688 248.65625 221.304688 C 248.582031 221.324219 248.324219 221.128906 248.253906 221.085938 C 248.011719 220.921875 247.785156 220.730469 247.554688 220.558594 C 247.328125 220.386719 246.878906 220.351562 246.621094 220.4375 C 246.367188 220.519531 246.152344 220.65625 245.992188 220.875 C 245.648438 221.320312 245.628906 222.074219 246.085938 222.46875 C 246.292969 222.644531 246.507812 222.820312 246.710938 223.003906 C 246.816406 223.097656 246.902344 223.210938 246.996094 223.3125 C 247.023438 223.367188 247.0625 223.421875 247.097656 223.46875 C 247.476562 224.007812 247.980469 224.4375 248.460938 224.882812 C 248.867188 225.25 249.277344 225.613281 249.679688 225.988281 C 249.898438 226.183594 250.097656 226.390625 250.308594 226.59375 C 250.609375 226.882812 250.953125 227.089844 251.308594 227.300781 C 252.046875 227.75 253.015625 227.523438 253.527344 226.859375 C 254.042969 226.175781 253.980469 225.226562 253.382812 224.601562 Z M 172.828125 140.761719 C 171.519531 139.855469 169.9375 138.972656 168.339844 139.644531 C 165.773438 140.722656 164.292969 144.175781 163.640625 146.992188 C 164.125 147.269531 164.714844 147.347656 165.289062 147.011719 C 165.5 146.890625 165.722656 146.769531 165.933594 146.652344 C 165.992188 146.625 166.007812 146.617188 166.03125 146.605469 C 166.128906 146.570312 166.234375 146.535156 166.335938 146.503906 C 166.800781 146.359375 167.25 146.1875 167.714844 146.046875 C 168.59375 145.78125 169.5 145.554688 170.410156 145.398438 C 170.644531 145.359375 170.902344 145.289062 171.136719 145.28125 C 171.234375 145.277344 171.332031 145.269531 171.378906 145.265625 C 171.804688 145.230469 172.238281 145.210938 172.667969 145.203125 C 173.78125 145.171875 175.082031 145.503906 176.152344 145.113281 C 176.476562 144.996094 176.761719 144.828125 177.019531 144.632812 C 177.007812 144.558594 176.988281 144.488281 176.988281 144.410156 C 175.691406 143.121094 174.3125 141.792969 172.828125 140.761719 Z M 191.585938 139.394531 C 189.371094 139.730469 187.28125 140.628906 185.347656 141.726562 C 184.75 142.070312 184.175781 142.449219 183.613281 142.839844 C 183.683594 143.804688 184.511719 144.738281 185.625 144.351562 C 186.195312 144.15625 186.800781 144.207031 187.433594 144.101562 C 187.996094 144.003906 188.535156 143.894531 188.894531 143.859375 C 190.144531 143.746094 191.382812 143.648438 192.644531 143.691406 C 192.949219 143.703125 193.253906 143.722656 193.550781 143.746094 C 193.726562 143.761719 193.902344 143.78125 194.074219 143.796875 C 194.363281 143.832031 194.417969 143.835938 194.242188 143.816406 C 194.0625 143.796875 194.117188 143.804688 194.402344 143.84375 C 194.574219 143.875 194.742188 143.902344 194.914062 143.9375 C 195.210938 143.996094 195.503906 144.0625 195.800781 144.136719 C 197.03125 144.441406 198.164062 144.996094 199.378906 145.320312 C 200.664062 145.664062 201.992188 145.039062 202.585938 143.890625 C 202.542969 143.816406 202.507812 143.730469 202.457031 143.65625 C 200.207031 140.113281 195.582031 138.789062 191.585938 139.394531 Z M 191.585938 139.394531 "/><path style=" stroke:none;fill-rule:nonzero;fill:#f794c6;fill-opacity:1;" d="M 170.179688 284.527344 C 169.898438 284.398438 169.609375 284.269531 169.328125 284.140625 C 167.71875 283.394531 166.128906 282.617188 164.542969 281.832031 C 163.011719 281.074219 161.558594 280.074219 161.058594 278.335938 C 160.570312 276.613281 161.285156 274.683594 161.78125 273.03125 C 163.050781 276.175781 164.894531 279.105469 167.144531 281.640625 C 168.09375 282.695312 169.117188 283.640625 170.179688 284.527344 Z M 224.226562 272.867188 C 225.070312 271.738281 225.824219 270.5625 226.507812 269.347656 C 227.445312 270.617188 228.347656 271.917969 229.183594 273.265625 C 230.617188 275.582031 233.175781 278.945312 232.714844 281.800781 C 232.203125 284.964844 228.828125 285.21875 226.289062 285.707031 C 223.015625 286.332031 219.746094 286.957031 216.46875 287.578125 C 207.660156 289.261719 197.660156 291.636719 188.570312 289.875 C 188.175781 289.851562 187.785156 289.796875 187.390625 289.757812 C 187.546875 288.996094 187.253906 288.140625 186.367188 288.015625 C 174.769531 286.414062 166.03125 275.792969 164.472656 264.519531 C 167.3125 264.910156 170.152344 265.203125 172.960938 265.410156 C 176.644531 265.683594 180.34375 265.773438 184.046875 265.757812 C 184.691406 267.457031 185.609375 268.921875 187.074219 270.105469 C 188.832031 271.527344 190.804688 272.355469 193.054688 272.585938 C 197.222656 273.019531 202.546875 270.535156 203.917969 266.355469 C 204.171875 265.597656 203.929688 264.898438 203.460938 264.398438 C 203.460938 264.398438 203.460938 264.398438 203.460938 264.390625 C 210.75 263.390625 217.949219 261.828125 224.984375 259.746094 C 224.96875 259.816406 224.953125 259.890625 224.9375 259.964844 C 224.667969 261.175781 224.324219 262.367188 223.910156 263.53125 C 223.054688 265.960938 221.875 268.285156 220.488281 270.457031 C 219.277344 272.339844 217.882812 274.074219 216.332031 275.652344 C 216.328125 275.644531 216.316406 275.632812 216.3125 275.625 C 216.003906 275.933594 215.679688 276.230469 215.359375 276.527344 C 215.382812 276.535156 215.398438 276.554688 215.421875 276.558594 C 213.582031 278.285156 211.542969 279.789062 209.3125 281.019531 C 207.5625 281.984375 209.101562 284.4375 210.855469 283.652344 C 216.144531 281.265625 220.734375 277.519531 224.226562 272.867188 Z M 224.289062 276.046875 C 224.382812 276.019531 224.480469 275.984375 224.574219 275.957031 C 224.546875 275.914062 224.519531 275.867188 224.496094 275.820312 C 224.433594 275.898438 224.363281 275.972656 224.289062 276.046875 Z M 142.652344 155.515625 C 145.066406 154.148438 143.453125 150.242188 140.757812 151.019531 C 137.253906 152.027344 133.777344 153.121094 130.234375 153.960938 C 129.488281 155.980469 128.859375 158.058594 128.394531 160.171875 C 133.421875 159.460938 138.289062 157.988281 142.652344 155.515625 Z M 122.808594 160.664062 C 123.09375 158.777344 123.496094 156.910156 124.019531 155.085938 C 118.632812 155.742188 113.003906 155.785156 107.652344 154.949219 C 105 154.535156 103.785156 158.449219 106.515625 159.066406 C 111.695312 160.226562 117.269531 160.851562 122.808594 160.664062 Z M 218.035156 140.5 C 218.300781 140.949219 218.652344 141.300781 219.097656 141.5625 C 219.34375 141.667969 219.59375 141.773438 219.839844 141.878906 C 219.960938 141.933594 220.085938 141.980469 220.210938 142.035156 C 220.5625 142.183594 220.90625 142.371094 221.269531 142.472656 C 221.53125 142.546875 221.800781 142.601562 222.066406 142.660156 C 222.363281 142.730469 222.6875 142.792969 222.976562 142.792969 C 223.296875 142.792969 223.605469 142.722656 223.914062 142.65625 C 224.027344 142.628906 224.136719 142.605469 224.25 142.585938 C 225.15625 142.394531 225.894531 141.566406 226.132812 140.703125 C 226.261719 140.226562 226.261719 139.75 226.132812 139.269531 C 226.003906 138.8125 225.773438 138.421875 225.441406 138.082031 C 225.363281 137.988281 225.277344 137.894531 225.199219 137.804688 C 225.066406 137.652344 224.984375 137.597656 224.796875 137.453125 C 224.59375 137.292969 224.53125 137.230469 224.339844 137.148438 C 224.101562 137.042969 223.867188 136.941406 223.628906 136.832031 C 223.25 136.664062 222.957031 136.53125 222.582031 136.4375 C 222.449219 136.402344 222.316406 136.375 222.1875 136.339844 C 221.925781 136.277344 221.664062 136.207031 221.398438 136.144531 C 221.003906 136.019531 220.609375 136 220.210938 136.089844 C 219.820312 136.109375 219.449219 136.222656 219.109375 136.445312 C 218.910156 136.597656 218.710938 136.753906 218.511719 136.90625 C 218.222656 137.175781 218.019531 137.492188 217.894531 137.859375 C 217.761719 138.089844 217.695312 138.34375 217.695312 138.605469 C 217.605469 139 217.625 139.394531 217.75 139.792969 C 217.835938 140.027344 217.933594 140.265625 218.035156 140.5 Z M 275.425781 139.402344 C 273.609375 139.800781 271.792969 140.160156 269.964844 140.503906 C 266.570312 141.140625 263.15625 141.65625 259.722656 142.085938 C 255.109375 142.65625 250.460938 142.980469 245.808594 143.105469 C 245.957031 143.964844 246.085938 144.828125 246.183594 145.699219 C 246.253906 146.34375 246.300781 146.992188 246.335938 147.640625 C 251.058594 147.851562 255.785156 147.863281 260.515625 147.585938 C 264.21875 147.375 267.921875 146.9375 271.589844 146.402344 C 274.902344 145.914062 279.484375 145.773438 282.074219 143.5 C 282.1875 143.402344 282.257812 143.289062 282.34375 143.175781 C 281.519531 141.621094 280.570312 140.136719 279.46875 138.734375 C 278.109375 138.707031 276.800781 139.097656 275.425781 139.402344 Z M 240.738281 143.15625 C 239.910156 143.152344 239.078125 143.160156 238.246094 143.148438 C 235.675781 143.085938 235.777344 146.828125 238.246094 147.074219 C 239.171875 147.167969 240.101562 147.226562 241.023438 147.300781 C 241.023438 147.160156 241.035156 147.015625 241.035156 146.875 C 241.003906 145.664062 240.910156 144.410156 240.738281 143.15625 Z M 240.738281 143.15625 "/><g clip-rule="nonzero" clip-path="url(#72cf5ed84d)"><path style=" stroke:none;fill-rule:nonzero;fill:#020201;fill-opacity:1;" d="M 218.402344 223.882812 C 212.585938 221.699219 207.152344 224.925781 201.617188 226.394531 C 195.203125 228.101562 188.601562 228.859375 182.089844 230.070312 C 176.890625 231.035156 171.082031 232.03125 169.609375 237.96875 C 168.28125 243.320312 171.414062 248.660156 174.8125 252.570312 C 177.175781 255.289062 181.070312 256.976562 184.414062 258.0625 C 189.785156 259.808594 195.503906 259.890625 200.757812 257.914062 C 201.132812 258.136719 201.59375 258.234375 202.128906 258.101562 C 210.722656 256.003906 218.28125 250.410156 222.441406 242.546875 C 223.777344 240.015625 224.933594 237.128906 225.023438 234.226562 C 225.15625 229.859375 222.515625 225.425781 218.402344 223.882812 Z M 221.285156 233.996094 C 221.285156 236.035156 220.457031 238.144531 219.574219 239.949219 C 218.664062 241.800781 217.558594 243.511719 216.289062 245.066406 C 216.136719 245.25 215.964844 245.414062 215.804688 245.597656 C 212.015625 249.988281 206.890625 253.089844 201.140625 254.496094 C 200.527344 254.648438 200.148438 255.007812 199.957031 255.453125 C 192.613281 256.898438 184.332031 255.992188 178.390625 251.085938 C 175.769531 248.921875 173.25 244.675781 172.980469 241.28125 C 172.824219 239.3125 173.398438 237.152344 175.023438 235.90625 C 176.941406 234.425781 180.019531 234.214844 182.320312 233.777344 C 187.578125 232.78125 192.894531 232.117188 198.136719 231.035156 C 200.765625 230.492188 203.375 229.847656 205.925781 229.019531 C 207.4375 228.527344 208.894531 227.902344 210.402344 227.449219 C 210.632812 227.378906 210.863281 227.320312 211.09375 227.257812 C 211.921875 227.046875 212.761719 226.894531 213.640625 226.867188 C 215.78125 226.808594 218.167969 227.339844 219.574219 229.089844 C 220.148438 229.808594 220.585938 230.75 220.875 231.683594 C 220.90625 231.773438 220.921875 231.859375 220.945312 231.949219 C 221.152344 232.691406 221.285156 233.417969 221.285156 233.996094 Z M 146.28125 231.8125 C 145.820312 232.523438 145.410156 233.261719 145.050781 234.035156 C 144.792969 234.597656 144.515625 235.335938 144.265625 236.109375 C 144.015625 236.890625 143.816406 237.6875 143.664062 238.496094 C 143.636719 238.660156 143.605469 238.832031 143.582031 239 C 143.59375 238.957031 143.53125 239.382812 143.527344 239.4375 C 143.464844 239.976562 143.304688 240.453125 143.152344 240.964844 C 142.949219 241.652344 142.34375 242.089844 141.632812 242.117188 C 141.011719 242.148438 140.207031 241.613281 140.113281 240.964844 C 140.015625 240.28125 139.929688 239.65625 140.03125 238.964844 C 140.101562 238.523438 140.199219 238.082031 140.308594 237.648438 C 140.523438 236.796875 140.808594 235.972656 141.148438 235.164062 C 141.90625 233.355469 142.96875 231.726562 144.25 230.246094 C 145.222656 229.136719 147.0625 230.597656 146.28125 231.8125 Z M 153.285156 233.375 C 153.734375 233.71875 153.949219 234.453125 153.601562 234.953125 C 153.425781 235.199219 153.273438 235.441406 153.140625 235.710938 C 153.082031 235.839844 153.007812 235.972656 152.960938 236.105469 C 152.9375 236.164062 152.917969 236.222656 152.890625 236.28125 C 152.832031 236.429688 152.773438 236.582031 152.703125 236.730469 C 152.738281 236.644531 152.804688 236.488281 152.734375 236.664062 C 152.683594 236.792969 152.636719 236.921875 152.585938 237.046875 C 152.492188 237.308594 152.414062 237.574219 152.34375 237.839844 C 152.203125 238.394531 152.089844 238.960938 151.980469 239.527344 C 151.898438 239.953125 151.824219 240.3125 151.632812 240.71875 C 151.480469 241.035156 151.308594 241.363281 151.027344 241.585938 C 150.648438 241.898438 150.273438 242.066406 149.777344 241.996094 C 149.28125 241.925781 148.988281 241.671875 148.691406 241.289062 C 148.378906 240.878906 148.324219 240.308594 148.285156 239.8125 C 148.25 239.378906 148.386719 238.933594 148.515625 238.515625 C 148.722656 237.839844 149.007812 237.195312 149.351562 236.578125 C 149.683594 235.964844 150.058594 235.375 150.492188 234.832031 C 150.859375 234.359375 151.273438 233.925781 151.671875 233.472656 C 152.085938 233.011719 152.832031 233.027344 153.285156 233.375 Z M 243.289062 226.289062 C 243.089844 226.105469 242.890625 225.917969 242.6875 225.742188 C 242.257812 225.363281 241.828125 224.988281 241.394531 224.609375 C 240.90625 224.1875 240.414062 223.664062 239.84375 223.355469 C 239.613281 223.234375 239.402344 223.085938 239.179688 222.949219 C 239.152344 222.929688 239.03125 222.867188 238.921875 222.804688 C 238.890625 222.78125 238.859375 222.753906 238.832031 222.726562 C 238.773438 222.671875 238.714844 222.621094 238.660156 222.566406 C 238.175781 222.113281 237.339844 222.050781 236.871094 222.566406 C 236.382812 223.097656 236.402344 223.824219 236.871094 224.355469 C 236.914062 224.40625 236.953125 224.449219 236.996094 224.5 C 237.007812 224.507812 237.164062 224.699219 237.089844 224.597656 C 237.089844 224.585938 237.082031 224.566406 237.0625 224.523438 C 237.015625 224.234375 237.148438 224.734375 237.214844 224.851562 C 237.339844 225.078125 237.488281 225.300781 237.605469 225.53125 C 237.910156 226.121094 238.429688 226.636719 238.851562 227.148438 C 239.207031 227.578125 239.558594 228.007812 239.917969 228.4375 C 240.089844 228.644531 240.273438 228.84375 240.449219 229.050781 C 240.734375 229.382812 241.105469 229.617188 241.46875 229.855469 C 242.136719 230.292969 243.207031 230.148438 243.75 229.558594 C 244.308594 228.949219 244.492188 228.007812 244.042969 227.277344 C 243.816406 226.925781 243.597656 226.570312 243.289062 226.289062 Z M 238.859375 222.777344 C 238.875 222.78125 238.875 222.78125 238.886719 222.78125 C 238.894531 222.785156 238.898438 222.792969 238.910156 222.800781 C 238.890625 222.792969 238.875 222.78125 238.859375 222.777344 Z M 253.382812 224.601562 C 253.980469 225.230469 254.046875 226.175781 253.515625 226.859375 C 253.003906 227.523438 252.03125 227.75 251.296875 227.300781 C 250.945312 227.089844 250.601562 226.882812 250.300781 226.59375 C 250.09375 226.390625 249.886719 226.183594 249.671875 225.988281 C 249.265625 225.621094 248.859375 225.25 248.449219 224.882812 C 247.96875 224.445312 247.46875 224.011719 247.089844 223.46875 C 247.054688 223.421875 247.011719 223.367188 246.984375 223.3125 C 246.890625 223.203125 246.808594 223.097656 246.699219 223.003906 C 246.5 222.820312 246.28125 222.644531 246.074219 222.46875 C 245.613281 222.074219 245.632812 221.316406 245.980469 220.875 C 246.148438 220.65625 246.355469 220.519531 246.613281 220.4375 C 246.871094 220.351562 247.324219 220.386719 247.546875 220.558594 C 247.777344 220.734375 248.003906 220.921875 248.246094 221.085938 C 248.3125 221.132812 248.574219 221.324219 248.648438 221.304688 C 248.648438 221.304688 248.644531 221.304688 248.636719 221.304688 C 248.769531 221.355469 248.898438 221.40625 249.027344 221.464844 C 249.519531 221.695312 249.960938 222.039062 250.398438 222.355469 C 250.855469 222.683594 251.3125 223.011719 251.777344 223.335938 C 252.011719 223.503906 252.261719 223.65625 252.5 223.820312 C 252.84375 224.046875 253.101562 224.304688 253.382812 224.601562 Z M 174.933594 218.96875 C 170.339844 214.246094 165.507812 210.269531 158.652344 209.707031 C 151.976562 209.15625 145.523438 211.683594 140.921875 216.527344 C 140.023438 217.46875 138.050781 217.632812 137.175781 216.527344 C 135.679688 214.636719 134.203125 212.757812 132.839844 210.777344 C 131.214844 208.417969 134.90625 205.636719 136.78125 207.738281 C 137.664062 208.726562 138.507812 209.75 139.332031 210.777344 C 144.746094 206.292969 151.925781 203.945312 158.964844 204.8125 C 166.195312 205.703125 174.4375 210.074219 177.480469 217.003906 C 178.179688 218.597656 176.304688 220.382812 174.933594 218.96875 Z M 98.46875 164.152344 C 103.398438 156.148438 110.523438 150.679688 118.777344 146.445312 C 120.304688 145.664062 119.25 143.136719 117.601562 143.664062 C 116.585938 143.988281 115.589844 144.375 114.617188 144.800781 C 121.949219 131.15625 134.054688 119.917969 148.589844 114.480469 C 152.550781 112.996094 156.683594 111.894531 160.878906 111.285156 C 165.53125 110.605469 170.492188 111.121094 174.984375 109.570312 C 177.289062 108.78125 179.355469 107.488281 181.5625 106.480469 C 183.941406 105.390625 186.492188 104.648438 189.058594 104.152344 C 193.964844 103.203125 199.152344 103.308594 204.070312 104.148438 C 208.234375 104.859375 212.300781 106.066406 216.234375 107.601562 C 216.566406 108.085938 217.085938 108.246094 217.589844 108.164062 C 218.5 108.539062 219.410156 108.914062 220.304688 109.316406 C 225.792969 111.824219 230.871094 115.152344 236.371094 117.589844 C 239.195312 118.835938 241.1875 115.351562 238.769531 113.492188 C 234.226562 110.011719 228.902344 107.355469 223.714844 104.964844 C 222.21875 104.277344 220.703125 103.632812 219.175781 103.011719 C 220.019531 99.628906 222.769531 96.6875 225.328125 94.503906 C 229.296875 91.125 233.699219 90.484375 238.832031 90.992188 C 250.015625 92.09375 261.96875 97.507812 266.65625 108.359375 C 267.847656 111.105469 268.519531 114.113281 268.550781 117.109375 C 268.574219 119.460938 268.082031 121.570312 267.394531 123.695312 C 265.59375 122.765625 263.765625 121.941406 261.945312 121.238281 C 256.894531 119.28125 251.746094 118.4375 246.375 119.304688 C 244.527344 119.601562 245.339844 122.335938 247.144531 122.09375 C 252.53125 121.371094 258.5 123.808594 263.214844 126.160156 C 264.371094 126.734375 265.496094 127.371094 266.613281 128.023438 C 266.65625 128.097656 266.722656 128.15625 266.773438 128.226562 C 266.824219 128.285156 266.863281 128.347656 266.917969 128.402344 C 267.242188 128.722656 267.675781 128.933594 268.148438 129.042969 C 268.199219 129.058594 268.253906 129.078125 268.3125 129.085938 C 268.414062 129.148438 268.507812 129.21875 268.597656 129.277344 C 271.863281 131.378906 274.933594 133.792969 277.625 136.589844 C 278.289062 137.28125 278.894531 138.003906 279.46875 138.738281 C 280.570312 140.140625 281.523438 141.625 282.34375 143.179688 C 283.855469 146.027344 284.953125 149.097656 285.703125 152.324219 C 286.4375 155.457031 286.875 158.644531 287.128906 161.847656 C 287.375 164.898438 286.914062 168.542969 287.90625 171.445312 C 288.25 172.449219 289.199219 172.878906 290.0625 172.738281 C 290.707031 172.632812 291.296875 172.222656 291.542969 171.445312 C 292.34375 168.910156 291.847656 165.777344 291.664062 163.167969 C 291.472656 160.441406 291.167969 157.722656 290.71875 155.027344 C 289.824219 149.667969 288.230469 144.308594 285.417969 139.625 C 282.1875 134.246094 277.25 129.707031 271.75 126.203125 C 274.175781 120.925781 273.773438 114.144531 271.972656 108.855469 C 269.722656 102.238281 265.222656 96.851562 259.394531 93.054688 C 253.546875 89.246094 246.699219 87.234375 239.804688 86.484375 C 236.132812 86.078125 232.203125 86 228.675781 87.289062 C 226.523438 88.074219 224.703125 89.355469 222.953125 90.820312 C 219.667969 93.570312 216.601562 97.460938 215.761719 101.734375 C 213.324219 100.871094 210.839844 100.125 208.3125 99.570312 C 198.007812 97.296875 187.128906 97.785156 177.613281 102.613281 C 175.128906 103.871094 172.882812 105.003906 170.070312 105.339844 C 167.585938 105.632812 165.078125 105.625 162.59375 105.902344 C 160.679688 106.113281 158.789062 106.429688 156.90625 106.808594 C 156.898438 106.792969 156.898438 106.777344 156.894531 106.757812 C 153.378906 94.691406 138.679688 91.828125 127.882812 93.441406 C 114.125 95.496094 103.796875 107.308594 102.472656 121.039062 C 101.707031 128.988281 104.34375 137.042969 110.769531 141.992188 C 111.011719 142.171875 111.257812 142.230469 111.503906 142.238281 C 110.800781 143.902344 110.140625 145.601562 109.550781 147.359375 C 109.53125 147.421875 109.546875 147.472656 109.53125 147.535156 C 103.816406 151.207031 98.976562 156.429688 95.351562 161.992188 C 89.980469 170.234375 86.804688 180.21875 87.726562 190.097656 C 87.9375 192.371094 91.101562 192.585938 91.527344 190.570312 C 91.5625 190.417969 91.613281 190.28125 91.609375 190.097656 C 91.480469 180.941406 93.660156 171.964844 98.46875 164.152344 Z M 151.277344 106.414062 C 151.574219 106.910156 151.855469 107.421875 152.128906 107.941406 C 151.15625 108.21875 150.183594 108.511719 149.222656 108.839844 C 140.671875 111.761719 132.742188 116.417969 126.03125 122.46875 C 122.273438 125.851562 118.929688 129.6875 116.035156 133.832031 C 114.738281 135.691406 113.667969 137.609375 112.703125 139.578125 C 112.6875 139.5625 112.683594 139.535156 112.664062 139.523438 C 103.027344 130.789062 105.429688 114.796875 113.542969 105.933594 C 120.28125 98.582031 131.023438 96.257812 140.550781 98.675781 C 143.019531 99.296875 145.429688 100.296875 147.460938 101.859375 C 147.664062 102.011719 147.824219 102.195312 148.011719 102.359375 C 149.359375 103.53125 150.394531 104.910156 151.277344 106.414062 Z M 252.246094 204.167969 C 251.132812 206.046875 249.921875 207.839844 248.683594 209.640625 C 247.695312 211.078125 245.84375 211.398438 244.523438 210.175781 C 239.703125 205.742188 232.890625 203.582031 226.398438 204.699219 C 219.597656 205.871094 215.101562 210.035156 210.804688 215.105469 C 209.773438 216.324219 207.558594 215.027344 208.09375 213.527344 C 210.667969 206.386719 218.421875 201.195312 225.691406 199.84375 C 232.789062 198.527344 240.054688 200.316406 245.839844 204.46875 C 246.636719 203.339844 247.453125 202.226562 248.308594 201.128906 C 250.097656 198.828125 253.652344 201.796875 252.246094 204.167969 Z M 207.328125 169.738281 C 207.824219 168.867188 208.386719 168.019531 209.089844 167.230469 C 210.996094 165.085938 213.507812 163.402344 216.242188 162.523438 C 219.199219 161.574219 222.453125 161.558594 225.464844 162.285156 C 226.875 162.632812 228.269531 163.183594 229.554688 163.855469 C 230.933594 164.578125 232.664062 165.613281 233.332031 167.078125 C 234.136719 168.832031 232.777344 171.527344 230.542969 170.707031 C 229.28125 170.238281 228.335938 169.320312 227.191406 168.636719 C 226.207031 168.050781 225.183594 167.617188 224.078125 167.324219 C 222.007812 166.761719 219.820312 166.726562 217.75 167.308594 C 215.59375 167.90625 213.535156 169.164062 211.863281 170.804688 C 210.40625 172.234375 209.25 173.957031 208.636719 175.835938 C 207.960938 177.882812 205.035156 177.039062 205.433594 174.957031 C 205.792969 173.058594 206.417969 171.335938 207.328125 169.738281 Z M 288.742188 189.503906 C 283.234375 185.035156 277.15625 181.953125 270.425781 179.9375 C 269.917969 179.785156 269.414062 179.628906 268.898438 179.484375 C 266.945312 178.957031 266.164062 181.878906 268.066406 182.496094 C 274.761719 184.660156 281.042969 188.367188 286.398438 193.082031 C 288.011719 194.503906 289.542969 196.015625 290.976562 197.605469 C 292.976562 199.835938 294.792969 202.210938 296.371094 204.703125 C 303.277344 215.585938 305.597656 228.894531 303.023438 241.515625 C 302.21875 245.472656 300.929688 249.292969 299.285156 252.960938 C 296.027344 232.238281 282.34375 212.179688 261.996094 205.328125 C 261.84375 205.277344 261.699219 205.25 261.5625 205.238281 C 261.046875 196.066406 261.8125 186.988281 264.941406 178.101562 C 265.1875 177.398438 264.921875 176.855469 264.464844 176.542969 C 263.707031 176.03125 262.421875 176.160156 262.003906 177.292969 C 257.648438 189.097656 255.511719 202.464844 258.261719 214.902344 C 258.109375 215.308594 258.066406 215.753906 258.113281 216.226562 C 258.125 216.308594 258.109375 216.382812 258.125 216.46875 C 258.4375 218.074219 259.851562 219.15625 260.660156 220.507812 C 261.234375 221.46875 261.558594 222.171875 261.851562 223.082031 C 261.890625 223.199219 261.925781 223.324219 261.960938 223.445312 C 261.988281 223.550781 262.019531 223.632812 262.050781 223.742188 C 262.347656 224.835938 262.488281 225.96875 262.496094 227.113281 C 262.507812 228.433594 262.339844 229.765625 261.964844 231.0625 C 261.234375 233.628906 259.78125 236.074219 257.941406 238.097656 C 256.878906 239.265625 255.699219 240.320312 254.421875 241.242188 C 254.214844 241.390625 254.007812 241.535156 253.804688 241.679688 C 238.675781 250.035156 222.367188 256.050781 205.296875 258.96875 C 204.265625 259.144531 203.222656 259.292969 202.179688 259.445312 C 201.953125 259.480469 201.726562 259.519531 201.5 259.546875 C 189.007812 261.367188 175.917969 261.722656 163.332031 259.882812 C 162.839844 259.558594 162.230469 259.472656 161.648438 259.625 C 159.132812 259.21875 156.640625 258.703125 154.171875 258.113281 C 153.667969 257.988281 153.15625 257.890625 152.65625 257.761719 C 152.53125 257.734375 152.410156 257.6875 152.285156 257.660156 C 145.257812 255.804688 138.339844 252.808594 132.757812 248.117188 C 131.460938 247.027344 130.214844 245.875 129.078125 244.597656 C 128.957031 244.460938 128.828125 244.386719 128.695312 244.308594 C 128.757812 244.179688 128.792969 244.035156 128.820312 243.894531 C 128.867188 243.59375 128.839844 243.269531 128.65625 242.929688 C 127.0625 239.914062 126.511719 236.339844 127.019531 232.9375 C 127.023438 232.917969 127.023438 232.898438 127.027344 232.882812 C 127.339844 230.84375 128.03125 228.867188 129.113281 227.113281 C 130.429688 227.621094 131.996094 226.710938 132.175781 225.042969 C 132.34375 223.484375 131.769531 221.929688 131.328125 220.457031 C 130.882812 218.976562 130.410156 217.503906 129.910156 216.050781 C 128.964844 213.304688 127.894531 210.609375 126.726562 207.949219 C 124.332031 202.476562 121.515625 197.1875 118.09375 192.285156 C 118.074219 192.261719 118.046875 192.25 118.027344 192.226562 C 116.832031 190.667969 114.378906 192.085938 115.324219 193.902344 C 117.988281 199.046875 120.527344 204.277344 122.574219 209.699219 C 123.132812 211.183594 123.664062 212.691406 124.171875 214.199219 C 124.132812 214.230469 124.09375 214.238281 124.058594 214.277344 C 110.003906 228.261719 102.019531 250.289062 103.746094 270.0625 C 103.890625 271.671875 104.128906 273.535156 104.609375 275.328125 C 104.558594 275.328125 104.507812 275.320312 104.457031 275.324219 C 98.109375 275.746094 94.757812 269.90625 93.167969 264.617188 C 91.402344 258.742188 90.460938 252.617188 90.207031 246.496094 C 89.714844 234.273438 91.875 221.578125 97.261719 210.527344 C 97.5 210.035156 97.761719 209.542969 98.019531 209.050781 C 98.820312 207.523438 99.699219 206.011719 100.6875 204.574219 C 102.964844 201.269531 105.78125 198.359375 109.386719 196.570312 C 110.667969 195.933594 110.253906 194.480469 109.285156 193.929688 C 108.867188 193.691406 108.351562 193.605469 107.804688 193.855469 C 95.617188 199.390625 90.207031 213.5 87.40625 225.726562 C 84.28125 239.332031 84.253906 254.664062 88.890625 267.957031 C 91.316406 274.910156 96.964844 281.640625 105.085938 279.992188 C 105.597656 279.886719 105.980469 279.636719 106.253906 279.304688 C 107.332031 280.996094 108.855469 282.277344 111.054688 282.65625 C 113.140625 283.015625 114.714844 280.167969 112.589844 279.019531 C 108.199219 276.640625 108.351562 269.644531 108.304688 265.308594 C 108.246094 259.796875 108.949219 254.316406 110.21875 248.960938 C 112.902344 237.617188 117.984375 226.886719 125.332031 217.824219 C 125.339844 217.855469 125.351562 217.882812 125.359375 217.914062 C 125.75 219.207031 126.117188 220.503906 126.460938 221.808594 C 126.761719 222.945312 126.980469 224.140625 127.453125 225.222656 C 123.230469 230.679688 122.421875 238.449219 125.945312 244.527344 C 126.132812 244.847656 126.378906 245.027344 126.640625 245.144531 C 126.421875 245.65625 126.433594 246.273438 126.882812 246.8125 C 135.261719 256.847656 147.367188 261.550781 159.914062 263.820312 C 159.910156 266.992188 160.597656 270.113281 161.777344 273.046875 C 163.046875 276.191406 164.890625 279.121094 167.136719 281.652344 C 168.082031 282.714844 169.105469 283.660156 170.167969 284.546875 C 174.628906 288.253906 180.058594 290.425781 185.953125 290.988281 C 186.742188 291.0625 187.238281 290.457031 187.375 289.773438 C 187.53125 289.011719 187.238281 288.15625 186.351562 288.03125 C 174.757812 286.429688 166.015625 275.804688 164.457031 264.535156 C 167.296875 264.921875 170.136719 265.21875 172.945312 265.425781 C 176.628906 265.699219 180.328125 265.789062 184.03125 265.773438 C 184.675781 267.46875 185.59375 268.9375 187.0625 270.121094 C 188.816406 271.542969 190.789062 272.367188 193.042969 272.601562 C 197.207031 273.03125 202.53125 270.550781 203.90625 266.367188 C 204.15625 265.613281 203.914062 264.914062 203.449219 264.410156 C 210.734375 263.410156 217.933594 261.847656 224.96875 259.765625 C 224.953125 259.839844 224.9375 259.910156 224.921875 259.984375 C 224.652344 261.195312 224.308594 262.386719 223.894531 263.550781 C 223.039062 265.980469 221.859375 268.308594 220.472656 270.476562 C 219.261719 272.359375 217.867188 274.09375 216.316406 275.671875 C 216.015625 275.980469 215.71875 276.289062 215.402344 276.578125 C 213.5625 278.304688 211.523438 279.808594 209.292969 281.039062 C 207.542969 282.003906 209.082031 284.457031 210.835938 283.671875 C 216.144531 281.269531 220.730469 277.523438 224.21875 272.875 C 225.066406 271.75 225.820312 270.574219 226.503906 269.359375 C 227.25 268.019531 227.914062 266.632812 228.488281 265.199219 C 229.289062 263.203125 230.421875 260.457031 230.34375 258.085938 C 240.148438 254.757812 249.570312 250.425781 258.351562 244.917969 C 258.882812 244.582031 259.210938 244.15625 259.382812 243.6875 C 260.308594 242.96875 261.203125 242.21875 262.015625 241.382812 C 264.523438 238.8125 266.414062 235.691406 267.40625 232.234375 C 268.328125 229 268.402344 225.5 267.53125 222.246094 C 267.105469 220.640625 266.4375 219.070312 265.59375 217.644531 C 264.832031 216.355469 263.773438 214.695312 262.394531 213.839844 C 262.183594 212.234375 262 210.625 261.851562 209.023438 C 281.207031 216.136719 294.609375 236.890625 296.644531 256.90625 C 296.675781 257.21875 296.792969 257.460938 296.945312 257.675781 C 296.121094 259.164062 295.246094 260.628906 294.308594 262.0625 C 293.042969 263.992188 296.0625 266.402344 297.5625 264.570312 C 306.667969 253.433594 310.191406 238.292969 308.3125 224.140625 C 306.515625 210.566406 299.355469 198.097656 288.742188 189.503906 Z M 199.824219 264.863281 C 199.46875 265.292969 199.121094 265.726562 198.726562 266.113281 C 198.132812 266.703125 197.867188 266.890625 197.128906 267.3125 C 195.902344 268.015625 194.660156 268.332031 193.175781 268.253906 C 192.625 268.222656 192.023438 268.074219 191.28125 267.835938 C 190.660156 267.632812 190.144531 267.382812 189.5 266.96875 C 188.992188 266.640625 188.476562 266.207031 188.003906 265.726562 C 191.949219 265.597656 195.894531 265.308594 199.824219 264.863281 Z M 301.574219 100.957031 C 299.503906 102.40625 297.457031 103.882812 295.402344 105.351562 C 296.472656 107.480469 297.34375 109.699219 297.894531 112.007812 C 298.457031 114.355469 295.03125 115.984375 293.882812 113.699219 C 292.976562 111.90625 292.113281 110.109375 291.222656 108.328125 C 290.507812 108.839844 289.789062 109.347656 289.074219 109.859375 C 288.203125 110.480469 286.875 110.003906 286.371094 109.148438 C 285.816406 108.199219 286.1875 107.03125 287.082031 106.449219 C 287.871094 105.9375 288.664062 105.429688 289.457031 104.917969 C 288.300781 102.777344 287.054688 100.679688 285.605469 98.683594 C 284.707031 97.449219 283.738281 96.257812 282.742188 95.097656 C 282.730469 95.125 282.707031 95.136719 282.695312 95.164062 C 281.863281 96.328125 281.214844 97.75 280.210938 98.769531 C 278.957031 100.042969 276.605469 98.746094 277.160156 96.992188 C 277.644531 95.457031 278.871094 94.085938 279.855469 92.839844 C 279.996094 92.664062 280.160156 92.511719 280.300781 92.339844 C 280.28125 92.316406 280.261719 92.296875 280.238281 92.269531 C 279.261719 91.203125 278.238281 90.171875 277.179688 89.183594 C 276.125 88.195312 274.929688 87.371094 273.882812 86.378906 C 272.585938 85.160156 274.242188 83.265625 275.699219 84.019531 C 278.308594 85.363281 280.761719 87.476562 282.992188 89.375 C 283.941406 88.460938 284.957031 87.613281 286 86.808594 C 287.164062 85.90625 288.308594 85.003906 289.539062 84.1875 C 290.21875 83.734375 291.203125 84.054688 291.59375 84.726562 C 292.027344 85.464844 291.722656 86.324219 291.054688 86.78125 C 288.972656 88.214844 287.199219 89.886719 285.507812 91.734375 C 286.808594 93.058594 288.039062 94.453125 289.191406 95.914062 C 290.765625 97.90625 292.289062 100.015625 293.644531 102.21875 C 295.746094 100.867188 297.839844 99.503906 299.929688 98.128906 C 300.667969 97.640625 301.734375 97.984375 302.160156 98.714844 C 302.632812 99.53125 302.296875 100.449219 301.574219 100.957031 Z M 122.808594 160.664062 C 123.09375 158.777344 123.496094 156.910156 124.019531 155.085938 C 124.140625 154.664062 124.257812 154.238281 124.390625 153.820312 C 127.542969 143.878906 134.371094 133.160156 144.214844 128.785156 C 146.460938 127.792969 149.273438 130.621094 147.070312 132.480469 C 139.976562 138.453125 133.726562 144.730469 130.367188 153.578125 C 130.320312 153.707031 130.285156 153.832031 130.238281 153.960938 C 129.492188 155.980469 128.863281 158.058594 128.402344 160.171875 C 127.921875 162.339844 127.605469 164.539062 127.484375 166.742188 C 127.359375 169.070312 127.390625 171.371094 127.585938 173.6875 C 127.765625 175.90625 127.933594 178.285156 129.96875 179.5625 C 131.554688 180.558594 130.492188 182.84375 128.734375 182.488281 C 123.570312 181.445312 122.800781 173.941406 122.464844 169.765625 C 122.207031 166.753906 122.355469 163.683594 122.808594 160.664062 Z M 246.183594 145.695312 C 246.253906 146.339844 246.300781 146.988281 246.335938 147.636719 C 246.480469 150.03125 246.414062 152.429688 246.222656 154.820312 C 245.976562 157.839844 245.757812 160.988281 244.785156 163.871094 C 243.859375 166.628906 239.539062 166.246094 239.589844 163.167969 C 239.632812 160.359375 240.292969 157.609375 240.605469 154.820312 C 240.890625 152.328125 241.054688 149.808594 241.019531 147.300781 C 241.019531 147.160156 241.03125 147.015625 241.03125 146.875 C 241 145.664062 240.90625 144.414062 240.734375 143.15625 C 240.214844 139.351562 238.960938 135.484375 236.554688 132.609375 C 235.136719 130.910156 237.359375 128.589844 239.011719 130.148438 C 241.144531 132.160156 242.9375 134.382812 244.097656 137.085938 C 244.929688 139.027344 245.457031 141.042969 245.808594 143.097656 C 245.957031 143.957031 246.085938 144.824219 246.183594 145.695312 Z M 165.660156 174.277344 C 163.84375 172.90625 161.699219 172.003906 159.554688 171.980469 C 157.609375 171.960938 155.785156 172.589844 154.089844 173.707031 C 153.300781 174.226562 152.53125 174.9375 151.894531 175.738281 C 151.292969 176.496094 150.734375 177.65625 150.074219 178.511719 C 149.398438 179.382812 147.898438 179.421875 147.019531 178.90625 C 145.988281 178.300781 145.675781 177.179688 145.863281 176.0625 C 146.113281 174.542969 147.296875 173.03125 148.273438 171.898438 C 149.179688 170.839844 150.28125 169.933594 151.441406 169.171875 C 153.835938 167.601562 156.851562 166.746094 159.71875 166.878906 C 160.765625 166.929688 161.792969 167.101562 162.785156 167.378906 C 159.09375 160.496094 157.078125 152.09375 159.433594 144.679688 C 160.789062 140.417969 163.914062 135.3125 168.855469 134.972656 C 173.132812 134.683594 176.503906 137.816406 178.671875 141.25 C 179.761719 139.980469 181.136719 138.933594 182.523438 137.949219 C 184.613281 136.464844 187.03125 135.332031 189.519531 134.710938 C 193.734375 133.660156 198.480469 133.984375 202.300781 136.148438 C 206.042969 138.261719 208.609375 142.09375 209.511719 146.257812 C 210.480469 150.738281 209.90625 155.382812 208.203125 159.617188 C 207.289062 161.886719 206.1875 164.0625 204.917969 166.15625 C 204.386719 167.039062 203.835938 167.921875 203.246094 168.785156 C 202.378906 170.039062 201.417969 171.214844 200.164062 172.09375 C 198.328125 173.375 196.109375 171.253906 196.578125 169.339844 C 197.214844 166.734375 199.167969 164.535156 200.511719 162.253906 C 201.789062 160.078125 202.902344 157.832031 203.601562 155.402344 C 204.003906 154 204.25 152.519531 204.292969 151.042969 C 204.304688 150.730469 204.292969 150.414062 204.285156 150.101562 C 204.222656 147.925781 203.703125 145.789062 202.570312 143.902344 C 202.527344 143.832031 202.492188 143.746094 202.445312 143.671875 C 200.191406 140.117188 195.570312 138.789062 191.570312 139.398438 C 189.359375 139.734375 187.265625 140.632812 185.335938 141.730469 C 184.734375 142.074219 184.160156 142.453125 183.597656 142.847656 C 182.148438 143.863281 180.769531 144.960938 179.167969 145.714844 C 178.097656 146.214844 177.148438 145.570312 177 144.632812 C 176.988281 144.558594 176.96875 144.488281 176.96875 144.410156 C 175.675781 143.125 174.300781 141.792969 172.8125 140.765625 C 171.503906 139.863281 169.921875 138.976562 168.324219 139.648438 C 165.757812 140.726562 164.277344 144.179688 163.628906 146.996094 C 163.515625 147.484375 163.421875 147.957031 163.355469 148.390625 C 162.269531 155.707031 165.648438 163.082031 169.230469 169.242188 C 169.707031 170.058594 169.640625 170.824219 169.289062 171.417969 C 170.683594 173.003906 171.683594 174.941406 172.097656 177.132812 C 172.410156 178.8125 170.097656 180.015625 169.203125 178.355469 C 168.382812 176.792969 167.128906 175.382812 165.660156 174.277344 Z M 78.675781 143 C 77.871094 145.742188 77.421875 148.484375 77.167969 151.230469 C 79.640625 151.792969 82.164062 152.113281 84.671875 152.480469 C 85.847656 152.652344 86.644531 153.6875 86.644531 154.832031 C 86.644531 155.914062 85.753906 157.074219 84.601562 157.125 C 81.957031 157.234375 79.398438 156.859375 76.871094 156.222656 C 76.789062 158.957031 76.796875 161.710938 76.75 164.503906 C 76.699219 167.214844 72.601562 166.839844 72.203125 164.4375 C 71.675781 161.273438 71.605469 157.941406 71.855469 154.605469 C 71.3125 154.390625 70.773438 154.167969 70.242188 153.925781 C 69.433594 153.558594 68.632812 153.09375 67.910156 152.578125 C 67.296875 152.136719 66.824219 151.550781 66.1875 151.132812 C 64.644531 150.113281 66.199219 147.660156 67.816406 148.402344 C 68.015625 148.492188 68.210938 148.582031 68.40625 148.667969 C 69.75 148.773438 71.113281 149.339844 72.347656 149.796875 C 72.375 149.804688 72.40625 149.816406 72.433594 149.824219 C 72.960938 146.765625 73.753906 143.777344 74.757812 140.992188 C 75.511719 138.886719 76.453125 136.894531 77.519531 134.984375 C 75.128906 133.542969 72.859375 131.898438 70.78125 130.035156 C 69.296875 128.703125 71.121094 126.316406 72.710938 127.582031 C 74.816406 129.25 77.066406 130.660156 79.449219 131.855469 C 81.9375 128.160156 84.957031 124.828125 88.367188 121.835938 C 89.902344 120.496094 91.742188 122.996094 90.265625 124.339844 C 87.371094 126.988281 84.902344 130.050781 82.894531 133.398438 C 84.660156 134.082031 86.445312 134.683594 88.289062 135.105469 C 90.257812 135.5625 92.238281 135.792969 94.167969 136.410156 C 96.113281 137.023438 95.570312 140.238281 93.589844 140.34375 C 91.289062 140.464844 89.132812 139.867188 86.941406 139.207031 C 84.984375 138.617188 83.058594 137.902344 81.214844 137.015625 C 81.144531 136.980469 81.082031 136.945312 81.015625 136.910156 C 80.085938 138.878906 79.289062 140.902344 78.675781 143 Z M 78.675781 143 "/></g></g></svg>