<svg xmlns="http://www.w3.org/2000/svg" xmlns:xlink="http://www.w3.org/1999/xlink" width="500" zoomAndPan="magnify" viewBox="0 0 375 374.999991" height="500" preserveAspectRatio="xMidYMid meet" version="1.2"><g id="c3af10ad62"><path style=" stroke:none;fill-rule:nonzero;fill:#f0816a;fill-opacity:1;" d="M 290.628906 170.378906 C 286.714844 160.878906 279.628906 152.34375 269.734375 148.941406 C 269.753906 148.675781 269.726562 148.394531 269.640625 148.089844 C 268.097656 142.789062 263.984375 138.292969 260.007812 134.480469 C 263.878906 124.558594 259.429688 112.023438 252.304688 104.679688 C 244.496094 96.625 232.714844 93.949219 222.007812 96.949219 C 216.628906 98.457031 211.609375 101.332031 207.96875 105.582031 C 205.753906 105.226562 203.511719 104.980469 201.226562 104.898438 C 195.714844 104.703125 190.339844 105.296875 185.109375 106.523438 C 182.605469 100.128906 177.835938 93.941406 173.042969 89.234375 C 169.277344 85.539062 164.8125 82.410156 159.75 80.820312 C 147.398438 76.941406 133.246094 84.425781 125.472656 93.832031 C 121.699219 98.390625 118.921875 104.191406 119.378906 109.980469 C 119.390625 110.296875 119.410156 110.609375 119.4375 110.925781 C 119.472656 111.332031 119.566406 111.726562 119.707031 112.121094 C 119.84375 112.742188 120.019531 113.355469 120.246094 113.96875 C 113.617188 118.550781 107.625 124.050781 102.96875 130.476562 C 102.835938 130.65625 102.753906 130.835938 102.691406 131.019531 C 96.9375 133.519531 91.074219 136.410156 86.6875 140.957031 C 82.046875 145.753906 78.605469 152.816406 80.488281 159.539062 C 80.804688 160.675781 81.796875 161.222656 82.789062 161.234375 C 82.507812 165.378906 83.003906 169.589844 84.101562 173.683594 C 82.242188 177.144531 81.074219 180.890625 80.898438 184.695312 C 80.636719 190.371094 82.0625 196.933594 85.144531 201.746094 C 87.695312 205.734375 91.386719 208.429688 95.734375 209.777344 C 95.796875 214.203125 96.175781 218.617188 96.832031 222.933594 C 98.933594 236.683594 104.257812 251.253906 113.894531 261.566406 C 118.921875 266.953125 125.535156 270.878906 132.816406 272.1875 C 133.765625 272.359375 134.46875 271.800781 134.761719 271.097656 C 135.152344 271.246094 135.546875 271.378906 135.949219 271.503906 C 136.722656 271.742188 137.527344 271.929688 138.324219 272.0625 C 138.816406 272.148438 139.304688 272.1875 139.796875 272.210938 C 140.246094 272.234375 140.675781 272.148438 141.117188 272.183594 C 141.71875 272.230469 142.136719 271.933594 142.386719 271.511719 C 142.40625 271.511719 142.429688 271.519531 142.449219 271.519531 C 142.472656 271.519531 142.496094 271.511719 142.519531 271.511719 C 142.515625 271.855469 142.667969 272.210938 143.03125 272.511719 C 148.378906 276.933594 154.933594 279.691406 161.734375 281.003906 C 165.128906 281.660156 168.597656 282.019531 172.054688 282.003906 C 175.371094 281.996094 178.917969 281.832031 182.066406 280.660156 C 182.074219 281.273438 182.410156 281.847656 183.144531 281.945312 C 185.902344 282.324219 188.511719 282.351562 191.242188 281.769531 C 193.878906 281.210938 196.445312 280.121094 198.730469 278.699219 C 201 277.289062 203.066406 275.542969 204.742188 273.457031 C 205.980469 271.914062 207.511719 269.851562 208.167969 267.8125 C 211.140625 267.636719 214.101562 267.238281 216.972656 266.503906 C 217.28125 266.421875 217.535156 266.300781 217.757812 266.152344 C 227.054688 264.8125 237.246094 262.164062 243.238281 254.410156 C 248.171875 248.019531 249.554688 238.28125 243.921875 232.019531 C 243.929688 232 243.949219 231.984375 243.960938 231.960938 C 244.894531 230.214844 245.730469 228.394531 246.519531 226.546875 C 249.585938 238.746094 250.21875 251.878906 248.644531 264.347656 C 247.296875 275.003906 244.316406 285.230469 236.300781 292.789062 C 234.433594 294.550781 236.859375 297.757812 239.058594 296.367188 C 241.410156 294.882812 243.351562 293.003906 244.984375 290.875 C 269.074219 278.949219 283.039062 250.359375 276.925781 224.039062 C 276.242188 221.09375 275.25 218.015625 273.878906 215.117188 C 275.128906 215.589844 276.382812 216.050781 277.652344 216.480469 C 279.097656 216.972656 280.546875 217.46875 282 217.953125 C 282.71875 218.1875 283.417969 218.449219 284.183594 218.480469 C 285.324219 218.53125 286.488281 217.855469 287.050781 216.867188 C 287.441406 216.179688 287.523438 215.382812 287.664062 214.621094 C 287.808594 213.863281 287.945312 213.109375 288.089844 212.355469 C 288.371094 210.84375 288.648438 209.332031 288.902344 207.816406 C 288.941406 207.585938 288.964844 207.355469 289 207.128906 C 289.128906 206.648438 289.253906 206.167969 289.378906 205.691406 C 289.871094 205.53125 290.308594 205.199219 290.605469 204.628906 C 296.113281 194.207031 295.023438 181.03125 290.628906 170.378906 Z M 141.515625 251.28125 C 140.925781 252.804688 140.496094 254.28125 140.355469 255.914062 C 140.328125 256.261719 140.320312 256.609375 140.3125 256.960938 C 139.828125 257.222656 139.378906 257.550781 139.023438 257.992188 C 138.816406 258.25 138.605469 258.511719 138.429688 258.796875 C 138.292969 259.023438 138.195312 259.261719 138.09375 259.5 C 137.9375 259.867188 137.820312 260.253906 137.765625 260.648438 C 132.664062 253.125 128.855469 244.703125 126.453125 235.890625 C 130.8125 241.59375 136.160156 246.382812 142.09375 250.378906 C 141.851562 250.617188 141.65625 250.921875 141.515625 251.28125 Z M 141.515625 251.28125 "/><path style=" stroke:none;fill-rule:nonzero;fill:#fff5ee;fill-opacity:1;" d="M 254.527344 160.269531 C 254.730469 160.234375 254.921875 160.207031 255.117188 160.195312 C 255.117188 160.195312 255.113281 160.195312 255.113281 160.195312 C 254.917969 160.21875 254.722656 160.242188 254.527344 160.269531 Z M 119.433594 110.921875 C 119.464844 111.328125 119.5625 111.722656 119.699219 112.113281 C 119.542969 111.402344 119.433594 110.691406 119.375 109.980469 C 119.390625 110.289062 119.410156 110.605469 119.433594 110.921875 Z M 105.390625 160.007812 C 105.351562 160.023438 105.328125 160.050781 105.285156 160.066406 C 105.226562 160.085938 105.164062 160.109375 105.109375 160.132812 C 105.183594 160.171875 105.261719 160.203125 105.335938 160.25 C 105.355469 160.171875 105.371094 160.089844 105.390625 160.007812 Z M 242.804688 103.492188 C 233.515625 97.949219 222.351562 99.429688 213.75 105.125 C 213.15625 105.515625 212.574219 105.929688 212.003906 106.359375 C 212.488281 106.476562 212.9375 106.585938 212.917969 106.589844 C 223.15625 109.15625 232.691406 114.28125 241.546875 120.046875 C 246.335938 123.164062 250.992188 126.554688 255.347656 130.269531 C 255.648438 125.65625 255.472656 121.253906 253.722656 116.699219 C 251.667969 111.316406 247.78125 106.460938 242.804688 103.492188 Z M 250.558594 205.640625 C 250.574219 205.613281 250.585938 205.582031 250.597656 205.550781 C 250.578125 205.5625 250.554688 205.570312 250.535156 205.582031 C 250.542969 205.597656 250.550781 205.617188 250.558594 205.640625 Z M 289.363281 205.703125 C 289.242188 206.183594 289.117188 206.664062 288.988281 207.140625 C 288.949219 207.371094 288.925781 207.601562 288.886719 207.828125 C 288.628906 209.347656 288.355469 210.855469 288.074219 212.371094 C 287.933594 213.125 287.792969 213.878906 287.652344 214.632812 C 287.507812 215.398438 287.425781 216.191406 287.035156 216.882812 C 286.476562 217.871094 285.3125 218.542969 284.167969 218.496094 C 283.40625 218.464844 282.703125 218.207031 281.988281 217.964844 C 280.535156 217.488281 279.089844 216.988281 277.636719 216.496094 C 276.371094 216.066406 275.117188 215.601562 273.863281 215.128906 C 271.601562 210.335938 268.300781 206.027344 263.65625 203.628906 C 261.535156 202.535156 259.238281 205.230469 261.042969 207.011719 C 279.417969 225.152344 273.949219 256.394531 258.972656 274.832031 C 255.945312 278.554688 252.496094 281.824219 248.648438 284.59375 C 251.203125 278.828125 252.410156 272.257812 253.15625 266.347656 C 254.289062 257.363281 254.117188 248.484375 252.832031 239.699219 C 252.796875 239.175781 252.71875 238.820312 252.636719 238.457031 C 252.492188 237.5625 252.339844 236.671875 252.175781 235.777344 C 252.121094 235.339844 252.0625 234.910156 251.960938 234.609375 C 251.351562 231.503906 250.617188 228.410156 249.738281 225.328125 C 249.527344 224.597656 249.011719 224.234375 248.441406 224.160156 C 248.113281 224.113281 247.769531 224.160156 247.453125 224.289062 C 247.640625 223.824219 247.816406 223.363281 248 222.894531 C 248.386719 221.894531 248.769531 220.898438 249.144531 219.894531 C 249.199219 219.824219 249.269531 219.765625 249.3125 219.691406 C 249.46875 219.394531 249.53125 219.09375 249.550781 218.796875 C 250.304688 216.757812 251.054688 214.722656 251.84375 212.734375 C 254.410156 206.238281 256.863281 199.703125 259.511719 193.238281 C 260.203125 191.546875 257.253906 190.285156 256.535156 191.980469 C 255.117188 195.347656 253.644531 198.683594 252.164062 202.023438 C 251.957031 201.40625 251.546875 200.867188 250.949219 200.5625 C 248.414062 199.257812 245.769531 198.109375 243.082031 197.050781 C 246.171875 192.578125 248.390625 187.5625 249.425781 182.171875 C 250.058594 178.882812 250.320312 175.527344 250.085938 172.183594 C 249.855469 168.910156 249.621094 164.308594 247.300781 161.785156 C 245.683594 160.027344 243.082031 161.523438 242.917969 163.597656 C 242.800781 165.136719 243.449219 166.589844 243.824219 168.054688 C 244.199219 169.5 244.488281 170.972656 244.652344 172.457031 C 244.980469 175.445312 244.972656 178.535156 244.574219 181.519531 C 243.910156 186.542969 242.183594 191.425781 239.476562 195.707031 C 237.382812 194.960938 235.285156 194.261719 233.195312 193.601562 C 231.949219 193.203125 230.699219 192.832031 229.445312 192.476562 C 229.289062 192.34375 228.875 192.277344 228.457031 192.207031 C 228.121094 192.113281 227.78125 192.019531 227.449219 191.929688 C 227.8125 191.851562 228.167969 191.765625 228.523438 191.671875 C 229.457031 191.414062 230.375 191.082031 231.269531 190.652344 C 232.4375 190.089844 232.804688 188.496094 232.335938 187.386719 C 231.855469 186.242188 230.5 185.46875 229.253906 185.875 C 227.265625 186.519531 225.308594 187.238281 223.242188 187.597656 C 222.757812 187.683594 222.285156 187.789062 221.804688 187.871094 C 221.742188 187.878906 221.167969 187.960938 221.1875 187.964844 C 220.988281 187.988281 220.792969 188.011719 220.589844 188.027344 C 219.503906 188.128906 218.777344 188.289062 217.722656 188.214844 C 217.621094 188.203125 217.519531 188.199219 217.410156 188.183594 C 217.171875 188.15625 216.9375 188.21875 216.726562 188.324219 C 216.824219 188.03125 217.21875 187.625 217.070312 187.410156 C 218.484375 185.035156 219.816406 182.609375 221.066406 180.140625 C 221.726562 178.839844 222.359375 177.527344 222.972656 176.210938 C 223.546875 176.175781 224.121094 175.890625 224.527344 175.246094 C 227.285156 170.855469 229.445312 166.195312 230.925781 161.226562 C 231.660156 158.753906 232.246094 156.226562 232.675781 153.679688 C 233.078125 151.308594 233.503906 148.863281 233.183594 146.457031 C 232.570312 141.890625 228.902344 139.078125 224.488281 138.578125 C 219.992188 138.066406 215.96875 140.261719 212.3125 142.632812 C 213.160156 138.960938 213.335938 134.902344 210.945312 131.855469 C 206.695312 126.445312 199.816406 129.488281 195.042969 132.347656 C 191.902344 134.128906 188.242188 136.332031 185.265625 138.894531 C 184.011719 139.972656 170.582031 151.671875 169.53125 158.402344 C 168.84375 159.785156 169.417969 161.042969 170.390625 161.667969 C 166.539062 161.582031 162.679688 161.609375 158.832031 161.679688 C 154.632812 161.753906 150.4375 161.921875 146.246094 162.171875 C 142.300781 162.40625 137.894531 162.410156 134.101562 163.554688 C 134.09375 163.5625 134.085938 163.566406 134.078125 163.566406 C 133.902344 163.605469 133.734375 163.671875 133.582031 163.769531 C 132.964844 163.566406 132.269531 163.695312 131.953125 164.414062 C 129.058594 170.933594 126.648438 177.765625 124.925781 184.765625 C 124.027344 184.871094 123.152344 185.40625 122.734375 186.476562 C 118.433594 197.402344 117.542969 209.933594 118.777344 221.535156 C 120.039062 233.34375 123.578125 244.808594 129.503906 255.117188 C 129.605469 255.292969 129.714844 255.460938 129.8125 255.636719 C 129.9375 256 130.058594 256.367188 130.179688 256.730469 C 130.609375 257.277344 131.050781 257.820312 131.496094 258.347656 C 134.40625 262.828125 137.832031 267.015625 141.542969 270.835938 C 141.855469 271.160156 142.203125 271.304688 142.542969 271.332031 C 142.535156 271.394531 142.53125 271.457031 142.53125 271.519531 C 142.503906 271.519531 142.480469 271.523438 142.457031 271.523438 C 142.4375 271.523438 142.414062 271.519531 142.394531 271.519531 C 142.148438 271.9375 141.726562 272.238281 141.125 272.1875 C 140.6875 272.148438 140.257812 272.238281 139.808594 272.214844 C 139.3125 272.191406 138.820312 272.148438 138.332031 272.066406 C 137.535156 271.933594 136.734375 271.746094 135.960938 271.507812 C 135.5625 271.382812 135.167969 271.25 134.769531 271.101562 C 135.113281 270.265625 134.867188 269.226562 133.714844 268.976562 C 121.578125 266.316406 113.378906 254.816406 108.53125 244.121094 C 103.652344 233.355469 101.257812 221.5625 101.269531 209.761719 C 102.039062 208.898438 102.175781 207.558594 101.332031 206.785156 C 101.371094 205.667969 101.398438 204.542969 101.480469 203.425781 C 102.0625 195.589844 103.9375 187.945312 106.144531 180.425781 C 106.746094 178.378906 104.3125 176.78125 102.707031 177.492188 C 103.1875 175.597656 103.683594 173.707031 104.207031 171.820312 C 104.449219 170.949219 104.691406 170.074219 104.941406 169.199219 C 106.121094 170.355469 108.703125 169.800781 108.871094 167.621094 C 109.738281 156.292969 115.296875 145.1875 124.546875 138.378906 C 126.113281 137.222656 124.699219 134.609375 122.984375 135.703125 C 114.988281 140.8125 108.878906 148.664062 106.0625 157.644531 C 105.746094 157.195312 105.203125 156.929688 104.488281 157.121094 C 96.3125 159.328125 88.375 165.761719 84.113281 173.683594 C 83.015625 169.589844 82.519531 165.375 82.800781 161.234375 C 84.046875 161.253906 85.292969 160.441406 85.226562 158.898438 C 84.960938 153.027344 87.03125 147.976562 90.90625 143.628906 C 94.730469 139.335938 99.917969 136.503906 104.90625 133.730469 C 105.445312 133.75 105.992188 133.582031 106.445312 133.152344 C 108.285156 131.390625 110.125 129.652344 111.992188 127.953125 C 111.085938 129.789062 111.886719 132.453125 114.4375 132.21875 C 119.054688 131.792969 123.609375 130.9375 128.222656 130.507812 C 132.988281 130.0625 137.777344 129.847656 142.5625 129.949219 C 145.226562 130.007812 147.898438 130.144531 150.554688 130.382812 C 145.242188 132.375 141.097656 136.996094 137.816406 141.480469 C 134.34375 146.226562 131.875 151.757812 130.714844 157.519531 C 130.414062 159.011719 131.144531 160.5625 132.683594 160.980469 C 134.085938 161.367188 135.824219 160.507812 136.144531 159.015625 C 137.269531 153.835938 139.3125 148.949219 142.273438 144.550781 C 145.265625 140.105469 149.429688 136.933594 153.050781 133.078125 C 153.71875 132.367188 153.621094 131.300781 153.085938 130.636719 C 154.203125 130.765625 155.320312 130.910156 156.433594 131.078125 C 158.671875 131.410156 160.910156 131.777344 163.128906 132.21875 C 165.535156 132.695312 167.980469 133.378906 170.453125 133.28125 C 172.632812 133.203125 173.304688 130.46875 171.539062 129.285156 C 167.667969 126.703125 162.140625 126.011719 157.632812 125.238281 C 152.78125 124.40625 147.871094 123.851562 142.953125 123.609375 C 133.367188 123.140625 122.820312 123.347656 113.652344 126.453125 C 113.640625 126.460938 113.632812 126.464844 113.621094 126.464844 C 120.375 120.457031 127.472656 115.007812 135.652344 110.792969 C 141.277344 107.894531 147.484375 105.042969 153.804688 104.167969 C 159.324219 103.410156 166.390625 105.121094 168.5625 110.910156 C 169.292969 112.859375 172.367188 112.101562 171.742188 110.039062 C 169.894531 103.964844 164.269531 100.378906 158.164062 99.738281 C 150.757812 98.960938 143.320312 101.96875 136.660156 104.875 C 132.03125 106.894531 127.445312 109.300781 123.082031 112.082031 C 121.707031 106.550781 124.882812 100.417969 128.476562 96.359375 C 132.917969 91.339844 138.753906 87.378906 145.1875 85.445312 C 147.773438 84.667969 150.394531 84.195312 153.011719 84.230469 C 154.683594 84.253906 156.347656 84.476562 158.011719 84.972656 C 160.101562 85.601562 162.070312 86.554688 163.902344 87.722656 C 165.726562 88.890625 167.421875 90.269531 168.972656 91.753906 C 171.28125 93.957031 173.34375 96.410156 175.179688 99.015625 C 177.09375 101.734375 178.632812 104.683594 180.386719 107.492188 C 180.390625 107.59375 180.394531 107.699219 180.398438 107.804688 C 177.8125 108.613281 175.253906 109.570312 172.726562 110.6875 C 171.070312 111.421875 172.273438 114.34375 173.972656 113.644531 C 177.207031 112.316406 180.582031 111.3125 184.039062 110.597656 C 184.148438 110.582031 184.257812 110.558594 184.363281 110.53125 C 196.476562 108.09375 209.527344 109.382812 220.699219 114.320312 C 232.324219 119.453125 243.433594 126.769531 252.875 135.253906 C 257.738281 139.628906 261.78125 144.433594 265.34375 149.898438 C 265.5625 150.238281 265.839844 150.480469 266.144531 150.660156 C 266.296875 151.125 266.632812 151.546875 267.234375 151.757812 C 276.40625 154.925781 282.730469 163.691406 285.914062 172.539062 C 286.441406 174.007812 286.878906 175.492188 287.246094 176.984375 C 286.753906 176.648438 286.226562 176.40625 285.703125 176.136719 C 285.1875 175.875 284.675781 175.761719 284.097656 175.835938 C 283.566406 175.910156 283.023438 176.125 282.652344 176.53125 C 282.355469 176.847656 282.140625 177.226562 282 177.640625 C 281.796875 178.273438 281.953125 179.015625 282.253906 179.582031 C 282.527344 180.085938 282.773438 180.589844 283.105469 181.0625 C 283.582031 181.742188 284.152344 182.351562 284.703125 182.964844 C 285.097656 183.40625 285.492188 183.84375 285.882812 184.285156 C 286.074219 184.5 286.292969 184.683594 286.5 184.886719 C 286.785156 185.15625 287.085938 185.414062 287.410156 185.640625 C 287.480469 185.6875 287.546875 185.730469 287.617188 185.773438 C 287.855469 185.90625 288.234375 186.089844 288.511719 186.136719 C 288.515625 186.136719 288.515625 186.136719 288.519531 186.136719 C 288.726562 191.714844 287.921875 197.316406 286.242188 202.804688 C 285.628906 204.769531 287.765625 206.214844 289.363281 205.703125 Z M 260.894531 165.285156 C 260.871094 165.167969 260.84375 165.050781 260.816406 164.9375 C 260.699219 164.515625 260.496094 164.109375 260.304688 163.714844 C 260.117188 163.328125 259.789062 162.964844 259.53125 162.640625 C 259.382812 162.453125 259.210938 162.28125 259.035156 162.117188 C 258.550781 161.675781 258.027344 161.253906 257.464844 160.921875 C 257.101562 160.707031 256.675781 160.550781 256.289062 160.394531 C 256.179688 160.351562 256.070312 160.308594 255.960938 160.269531 C 255.671875 160.175781 255.40625 160.164062 255.136719 160.183594 C 254.925781 160.15625 254.722656 160.117188 254.511719 160.09375 C 254.332031 160.117188 254.144531 160.140625 253.964844 160.164062 C 253.695312 160.226562 253.460938 160.351562 253.261719 160.535156 C 252.921875 160.796875 252.621094 161.171875 252.519531 161.609375 C 252.441406 161.96875 252.441406 162.34375 252.519531 162.707031 C 252.640625 163.226562 253.023438 163.613281 253.433594 163.914062 C 253.441406 163.917969 253.449219 163.929688 253.457031 163.933594 C 253.515625 164.003906 253.570312 164.082031 253.628906 164.152344 C 253.644531 164.167969 253.664062 164.175781 253.675781 164.191406 C 254.144531 164.558594 254.574219 164.988281 254.960938 165.445312 C 255.160156 165.742188 255.355469 166.042969 255.558594 166.34375 C 255.921875 166.878906 256.242188 167.523438 256.742188 167.9375 C 257.046875 168.246094 257.410156 168.453125 257.832031 168.574219 C 258.265625 168.695312 258.703125 168.695312 259.140625 168.574219 C 259.917969 168.359375 260.699219 167.675781 260.859375 166.855469 C 260.867188 166.808594 260.878906 166.761719 260.886719 166.710938 C 261 166.070312 261.03125 165.925781 260.894531 165.285156 Z M 274.910156 170.15625 C 274.910156 169.734375 274.804688 169.34375 274.589844 168.980469 C 274.492188 168.789062 274.394531 168.597656 274.296875 168.40625 C 274.195312 168.222656 274.054688 168.050781 273.9375 167.871094 C 273.816406 167.707031 273.703125 167.539062 273.582031 167.371094 C 273.46875 167.207031 273.347656 167.046875 273.230469 166.890625 C 273.035156 166.636719 273 166.597656 272.847656 166.476562 C 272.71875 166.359375 272.613281 166.199219 272.507812 166.0625 C 272.390625 165.914062 272.273438 165.765625 272.15625 165.617188 C 271.96875 165.417969 271.746094 165.273438 271.492188 165.195312 C 271.242188 165.066406 270.980469 165.007812 270.695312 165.015625 C 270.511719 165.039062 270.328125 165.066406 270.144531 165.089844 C 269.878906 165.152344 269.644531 165.273438 269.445312 165.457031 C 269.289062 165.546875 269.167969 165.671875 269.070312 165.828125 C 268.890625 166.027344 268.765625 166.261719 268.703125 166.53125 C 268.679688 166.710938 268.65625 166.898438 268.632812 167.078125 C 268.632812 167.453125 268.726562 167.800781 268.914062 168.121094 C 269 168.308594 269.085938 168.496094 269.171875 168.683594 C 269.1875 168.75 269.195312 168.816406 269.21875 168.882812 C 269.304688 169.171875 269.445312 169.417969 269.578125 169.675781 C 269.675781 169.867188 269.777344 170.054688 269.878906 170.246094 C 269.972656 170.421875 270.058594 170.613281 270.167969 170.78125 C 270.292969 170.964844 270.433594 171.148438 270.566406 171.328125 C 270.714844 171.601562 270.914062 171.816406 271.167969 171.984375 C 271.390625 172.1875 271.65625 172.328125 271.960938 172.398438 C 272.269531 172.496094 272.582031 172.507812 272.890625 172.441406 C 273.203125 172.425781 273.488281 172.335938 273.753906 172.164062 C 274.253906 171.84375 274.691406 171.367188 274.824219 170.769531 C 274.855469 170.570312 274.882812 170.363281 274.910156 170.15625 Z M 274.910156 170.15625 "/><path style=" stroke:none;fill-rule:nonzero;fill:#f7b9ac;fill-opacity:1;" d="M 104.34375 167.621094 C 104.324219 168.316406 104.558594 168.835938 104.925781 169.199219 C 104.679688 170.074219 104.433594 170.949219 104.191406 171.820312 C 103.671875 173.707031 103.175781 175.597656 102.691406 177.492188 C 102.277344 177.679688 101.914062 178.019531 101.675781 178.550781 C 98.171875 186.359375 96.371094 194.871094 95.875 203.46875 C 95.847656 203.875 95.824219 204.285156 95.804688 204.691406 C 95.449219 204.515625 95.101562 204.328125 94.757812 204.132812 C 92.53125 202.855469 90.621094 201.101562 89.21875 198.78125 C 86.753906 194.703125 85.574219 189.441406 85.742188 184.695312 C 86.097656 174.332031 95.566406 163.527344 105.113281 160.132812 C 105.1875 160.171875 105.265625 160.203125 105.34375 160.25 C 104.769531 162.648438 104.421875 165.113281 104.34375 167.621094 Z M 218.796875 230.796875 C 218.796875 230.757812 218.804688 230.71875 218.804688 230.683594 C 218.796875 230.683594 218.78125 230.6875 218.761719 230.691406 C 218.773438 230.726562 218.785156 230.761719 218.796875 230.796875 Z M 218.710938 230.703125 C 218.625 230.726562 218.503906 230.757812 218.429688 230.824219 C 218.496094 230.769531 218.652344 230.789062 218.710938 230.703125 Z M 218.054688 143.5625 C 217.78125 143.6875 217.511719 143.816406 217.242188 143.953125 C 217.46875 143.960938 217.992188 143.695312 218.054688 143.5625 Z M 186.90625 169.726562 C 186.914062 169.726562 186.914062 169.726562 186.90625 169.726562 C 186.988281 169.824219 186.988281 169.824219 186.90625 169.726562 Z M 124.914062 184.769531 C 126.636719 177.777344 129.046875 170.9375 131.945312 164.421875 C 132.261719 163.703125 132.960938 163.570312 133.570312 163.777344 C 133.730469 163.679688 133.890625 163.609375 134.066406 163.570312 C 134.078125 163.566406 134.082031 163.5625 134.09375 163.5625 C 137.882812 162.414062 142.289062 162.410156 146.234375 162.175781 C 150.425781 161.925781 154.621094 161.761719 158.820312 161.683594 C 162.671875 161.613281 166.527344 161.589844 170.382812 161.675781 C 171.414062 162.339844 172.898438 162.289062 173.800781 160.90625 C 178.765625 153.300781 184.238281 146.371094 191.300781 140.730469 C 191.5 140.777344 191.707031 140.796875 191.921875 140.769531 C 192.925781 140.648438 193.039062 140.601562 193.953125 140.53125 C 194.628906 140.476562 195.3125 140.449219 195.996094 140.460938 C 196.628906 140.464844 197.265625 140.496094 197.898438 140.554688 C 198.15625 140.578125 198.410156 140.601562 198.667969 140.636719 C 198.683594 140.640625 199.324219 140.746094 199.414062 140.761719 C 200.664062 140.988281 201.902344 141.3125 203.101562 141.738281 C 204.488281 142.230469 205.484375 142.730469 206.894531 143.128906 C 207.746094 143.367188 208.511719 143.015625 208.984375 142.421875 C 208.855469 143.09375 208.707031 143.726562 208.558594 144.269531 C 208.097656 145.984375 210.25 146.816406 211.25 145.773438 C 211.742188 146.429688 212.597656 146.761719 213.5 146.183594 C 213.609375 146.113281 213.722656 146.042969 213.839844 145.96875 C 213.914062 146.257812 214.074219 146.5 214.289062 146.6875 C 214.472656 147.207031 214.882812 147.617188 215.460938 147.832031 C 215.28125 147.765625 215.457031 147.851562 215.53125 147.890625 C 215.738281 148.019531 216.035156 148.109375 216.285156 148.183594 C 216.566406 148.269531 216.851562 148.34375 217.132812 148.429688 C 217.667969 148.597656 218.199219 148.785156 218.722656 148.988281 C 218.828125 149.027344 218.933594 149.070312 219.039062 149.113281 C 218.953125 149.078125 219.472656 149.292969 219.554688 149.328125 C 219.617188 149.351562 219.675781 149.375 219.734375 149.398438 C 219.753906 149.40625 219.933594 149.484375 219.988281 149.511719 C 220.527344 149.761719 221.054688 150.027344 221.570312 150.324219 C 222.058594 150.601562 222.53125 150.902344 222.992188 151.222656 C 223.125 151.316406 223.265625 151.414062 223.398438 151.507812 C 223.402344 151.511719 223.425781 151.527344 223.445312 151.542969 C 223.46875 151.566406 223.910156 151.898438 223.9375 151.925781 C 223.992188 151.96875 224.039062 152.003906 224.058594 152.019531 C 224.492188 152.371094 224.90625 152.75 225.308594 153.140625 C 225.859375 153.679688 226.335938 154.355469 227.023438 154.710938 C 227.324219 154.871094 227.640625 154.964844 227.957031 155.007812 C 226.558594 161.351562 224.015625 167.5625 221.011719 173.1875 C 220.132812 174.828125 221.570312 176.289062 222.976562 176.203125 C 222.363281 177.523438 221.730469 178.835938 221.074219 180.132812 C 219.820312 182.601562 218.484375 185.027344 217.078125 187.40625 C 216.851562 187.785156 216.621094 188.160156 216.394531 188.539062 C 216.0625 188.820312 215.835938 189.226562 215.789062 189.617188 C 215.695312 190.375 216.15625 191.277344 216.976562 191.4375 C 218.195312 191.671875 219.367188 192.058594 220.59375 192.214844 C 221.679688 192.355469 222.800781 192.472656 223.894531 192.402344 C 225.101562 192.320312 226.289062 192.171875 227.449219 191.929688 C 227.785156 192.019531 228.121094 192.113281 228.457031 192.207031 C 228.785156 192.296875 229.113281 192.382812 229.445312 192.476562 C 230.699219 192.835938 231.949219 193.207031 233.195312 193.601562 C 235.285156 194.257812 237.382812 194.957031 239.476562 195.707031 C 238.964844 196.511719 238.421875 197.300781 237.839844 198.066406 C 236.609375 199.671875 239.355469 201.808594 240.660156 200.242188 C 241.515625 199.214844 242.320312 198.152344 243.082031 197.058594 C 245.769531 198.113281 248.414062 199.261719 250.949219 200.566406 C 251.546875 200.871094 251.957031 201.410156 252.164062 202.027344 C 251.640625 203.203125 251.121094 204.371094 250.601562 205.546875 C 250.582031 205.554688 250.558594 205.566406 250.539062 205.574219 C 250.550781 205.59375 250.554688 205.617188 250.5625 205.636719 C 249.746094 207.476562 248.929688 209.320312 248.125 211.167969 C 247.535156 212.507812 246.925781 213.851562 246.300781 215.203125 C 246.292969 215.195312 246.289062 215.195312 246.285156 215.191406 C 245.492188 214.722656 244.699219 214.261719 243.910156 213.792969 C 243.113281 213.324219 242.292969 212.929688 241.476562 212.503906 C 241.261719 212.390625 241.054688 212.261719 240.847656 212.140625 C 240.441406 211.476562 239.699219 211.085938 238.941406 211.050781 C 238.9375 211.046875 238.929688 211.046875 238.925781 211.042969 C 238.214844 210.621094 237.164062 210.855469 236.769531 211.609375 C 236.542969 212.03125 236.515625 212.445312 236.628906 212.824219 C 235.09375 217.105469 229.585938 218.253906 225.632812 217.039062 C 219.746094 215.234375 216.113281 208.980469 213.148438 204.042969 C 212.082031 202.265625 209.359375 203.851562 210.371094 205.667969 C 213.839844 211.902344 218.070312 219.316406 225.496094 221.300781 C 230.777344 222.707031 237.675781 221.074219 240.277344 216.066406 C 240.792969 216.496094 241.304688 216.929688 241.84375 217.332031 C 242.585938 217.886719 243.324219 218.433594 244.070312 218.988281 C 244.195312 219.078125 244.3125 219.167969 244.433594 219.261719 C 242.769531 222.894531 241.183594 226.566406 240.035156 230.320312 C 239.839844 230.953125 239.96875 231.523438 240.269531 231.972656 C 240.226562 232.15625 240.222656 232.355469 240.25 232.554688 C 239.476562 232.015625 238.644531 231.546875 237.828125 231.105469 C 235.789062 229.996094 233.664062 229.039062 231.496094 228.199219 C 229.34375 227.363281 227.128906 226.679688 224.875 226.160156 C 222.886719 225.703125 220.710938 225.152344 218.65625 225.308594 C 216.347656 225.488281 214.183594 226.71875 213.519531 229.078125 C 212.960938 231.058594 213.679688 233.078125 214.726562 234.789062 C 214.726562 235.125 214.785156 235.449219 214.964844 235.691406 C 215.996094 237.082031 217.175781 238.238281 218.464844 239.234375 C 223.097656 243.5 229.460938 245.960938 235.769531 245.367188 C 236.414062 245.335938 237.054688 245.269531 237.679688 245.132812 C 240.222656 244.558594 242.441406 242.527344 243.273438 240.113281 C 243.40625 244.429688 241.355469 249.046875 238.519531 251.96875 C 236.875 253.664062 234.96875 255.007812 232.914062 256.113281 C 232.691406 256.214844 232.460938 256.320312 232.238281 256.410156 C 232.21875 256.4375 232.199219 256.46875 232.179688 256.496094 C 227.351562 258.925781 221.78125 260.164062 216.664062 261.5625 C 216.347656 261.507812 215.996094 261.515625 215.621094 261.601562 C 206.09375 263.8125 194.945312 262.914062 185.011719 261.304688 C 183.804688 260.410156 182.320312 260.195312 180.902344 260.570312 C 167.546875 258.023438 154.355469 253.464844 142.917969 246.0625 C 136.101562 241.65625 129.929688 235.957031 125.539062 229.101562 C 125.339844 228.792969 125.078125 228.621094 124.800781 228.507812 C 123.480469 221.195312 123.101562 213.722656 123.753906 206.378906 C 124.316406 200.046875 125.835938 193.914062 127.617188 187.828125 C 128.214844 185.773438 126.519531 184.578125 124.914062 184.769531 Z M 165.078125 207.515625 C 165.109375 204.507812 163.167969 202.527344 160.890625 200.878906 C 158.519531 199.15625 156.082031 197.539062 153.589844 196.011719 C 151.148438 194.511719 148.664062 192.945312 145.980469 191.90625 C 141.070312 189.996094 134.3125 191.667969 133.773438 197.753906 C 133.515625 200.679688 134.941406 203.273438 136.980469 205.390625 C 139.21875 209.222656 143.027344 212.265625 147.027344 214.007812 C 151.671875 216.03125 157.910156 217.210938 162.144531 213.644531 C 163.917969 212.164062 165.054688 209.820312 165.078125 207.515625 Z M 194.933594 216.648438 C 189.769531 214.351562 183.570312 214.390625 178.933594 217.914062 C 178.246094 218.433594 177.902344 219.273438 178.367188 220.085938 C 178.765625 220.792969 179.832031 221.136719 180.539062 220.65625 C 184.234375 218.132812 189.09375 218.496094 192.875 220.425781 C 194.785156 221.398438 196.621094 222.855469 197.722656 224.421875 C 198.34375 225.304688 198.855469 226.265625 199.109375 227 C 199.585938 228.390625 199.636719 229.722656 200.597656 230.910156 C 201.460938 231.984375 203.421875 231.617188 204.015625 230.472656 C 205.492188 227.640625 203.164062 223.800781 201.398438 221.582031 C 199.710938 219.457031 197.421875 217.757812 194.933594 216.648438 Z M 181.832031 168.429688 C 182.433594 169.539062 183.09375 170.609375 183.765625 171.671875 C 184.433594 172.734375 185.078125 173.796875 185.828125 174.804688 C 186.636719 175.886719 187.515625 176.921875 188.460938 177.878906 C 189.460938 178.894531 190.589844 179.71875 191.773438 180.507812 C 192.632812 181.078125 193.847656 180.746094 194.4375 179.976562 C 195.054688 179.179688 195.015625 177.984375 194.277344 177.265625 C 193.421875 176.429688 192.605469 175.566406 191.730469 174.742188 C 190.839844 173.898438 189.976562 173.03125 189.117188 172.152344 C 188.703125 171.726562 188.300781 171.28125 187.890625 170.851562 C 187.695312 170.652344 187.5 170.445312 187.3125 170.234375 C 187.210938 170.117188 187.113281 169.996094 187.019531 169.875 C 186.980469 169.824219 186.941406 169.777344 186.902344 169.726562 C 186.160156 168.75 185.5 167.710938 184.878906 166.648438 C 184.410156 165.851562 183.265625 165.5 182.460938 166.015625 C 181.640625 166.546875 181.359375 167.5625 181.832031 168.429688 Z M 133.476562 173.453125 C 136.4375 175.121094 139.488281 176.589844 142.578125 177.996094 C 143.191406 178.277344 143.761719 178.386719 144.425781 178.238281 C 144.515625 178.21875 144.59375 178.175781 144.679688 178.144531 C 147.34375 185.195312 152.714844 190.878906 159.753906 193.695312 C 166.652344 196.460938 174.683594 196.121094 180.964844 191.996094 C 183.417969 190.382812 181.234375 186.550781 178.644531 188.027344 C 167.179688 194.558594 152.59375 188.023438 147.601562 176.394531 C 147.324219 175.746094 146.730469 175.511719 146.132812 175.566406 C 146.105469 175.378906 146.058594 175.191406 145.976562 175 C 145.660156 174.261719 145.144531 173.914062 144.425781 173.613281 C 141.296875 172.304688 138.144531 171.070312 134.914062 170.039062 C 134.023438 169.757812 133.054688 170.304688 132.710938 171.121094 C 132.359375 171.960938 132.660156 172.996094 133.476562 173.453125 Z M 209.277344 140.289062 C 209.296875 140.039062 209.3125 139.789062 209.320312 139.542969 C 209.230469 139.65625 209.207031 140.140625 209.277344 140.289062 Z M 209.277344 140.289062 "/><path style=" stroke:none;fill-rule:nonzero;fill:#f0816a;fill-opacity:1;" d="M 159.921875 259.542969 C 165.210938 261.609375 170.671875 263.296875 176.234375 264.605469 C 175.8125 265.207031 175.367188 265.78125 174.792969 266.238281 C 173.902344 266.945312 172.765625 267.339844 171.640625 267.460938 C 166.28125 268.003906 162.613281 263.789062 159.921875 259.542969 Z M 209.320312 139.542969 C 209.394531 137.296875 208.945312 135.078125 207.230469 133.914062 C 205.019531 132.410156 202.171875 133.65625 200.101562 134.792969 C 197.914062 135.996094 195.8125 137.390625 193.789062 138.839844 C 192.933594 139.453125 192.109375 140.085938 191.296875 140.734375 C 191.496094 140.785156 191.703125 140.804688 191.917969 140.773438 C 192.917969 140.65625 193.035156 140.605469 193.945312 140.535156 C 194.625 140.484375 195.308594 140.453125 195.988281 140.464844 C 196.625 140.46875 197.261719 140.503906 197.894531 140.558594 C 198.152344 140.582031 198.40625 140.605469 198.664062 140.640625 C 198.679688 140.644531 199.316406 140.75 199.410156 140.765625 C 200.660156 140.992188 201.898438 141.320312 203.09375 141.742188 C 204.484375 142.234375 205.476562 142.738281 206.890625 143.132812 C 207.742188 143.371094 208.503906 143.019531 208.976562 142.425781 C 209.105469 141.75 209.21875 141.023438 209.273438 140.28125 C 209.207031 140.140625 209.230469 139.65625 209.320312 139.542969 Z M 227.914062 144.527344 C 226.964844 143.351562 225.410156 142.742188 223.953125 142.515625 C 221.875 142.203125 219.914062 142.714844 218.058594 143.5625 C 217.992188 143.695312 217.46875 143.960938 217.25 143.953125 C 216.070312 144.5625 214.933594 145.277344 213.84375 145.972656 C 213.921875 146.261719 214.078125 146.503906 214.292969 146.691406 C 214.480469 147.210938 214.890625 147.621094 215.46875 147.835938 C 215.285156 147.769531 215.460938 147.855469 215.535156 147.894531 C 215.746094 148.023438 216.039062 148.113281 216.289062 148.191406 C 216.570312 148.277344 216.855469 148.347656 217.136719 148.433594 C 217.671875 148.601562 218.203125 148.792969 218.730469 148.992188 C 218.832031 149.03125 218.9375 149.074219 219.042969 149.117188 C 218.957031 149.082031 219.476562 149.296875 219.558594 149.332031 C 219.621094 149.355469 219.679688 149.378906 219.742188 149.402344 C 219.761719 149.414062 219.9375 149.488281 219.992188 149.515625 C 220.535156 149.765625 221.058594 150.03125 221.574219 150.328125 C 222.0625 150.605469 222.535156 150.90625 222.996094 151.226562 C 223.132812 151.324219 223.269531 151.417969 223.402344 151.511719 C 223.40625 151.519531 223.433594 151.53125 223.449219 151.546875 C 223.476562 151.570312 223.914062 151.90625 223.941406 151.929688 C 223.996094 151.972656 224.042969 152.011719 224.0625 152.023438 C 224.496094 152.378906 224.914062 152.753906 225.3125 153.144531 C 225.863281 153.6875 226.339844 154.359375 227.027344 154.71875 C 227.328125 154.875 227.644531 154.96875 227.964844 155.011719 C 228.355469 153.242188 228.660156 151.460938 228.851562 149.679688 C 229.03125 147.921875 229.089844 145.980469 227.914062 144.527344 Z M 160.894531 200.878906 C 158.527344 199.15625 156.085938 197.539062 153.59375 196.011719 C 151.152344 194.511719 148.671875 192.945312 145.988281 191.90625 C 141.074219 189.996094 134.316406 191.667969 133.777344 197.753906 C 133.519531 200.679688 134.945312 203.273438 136.984375 205.390625 C 139.226562 209.222656 143.03125 212.265625 147.03125 214.007812 C 151.679688 216.03125 157.914062 217.210938 162.148438 213.644531 C 163.910156 212.164062 165.046875 209.820312 165.070312 207.515625 C 165.109375 204.507812 163.167969 202.527344 160.894531 200.878906 Z M 237.828125 231.105469 C 238.640625 231.550781 239.472656 232.019531 240.25 232.554688 C 240.292969 232.84375 240.421875 233.136719 240.675781 233.410156 C 242.417969 235.296875 243.195312 237.652344 243.273438 240.109375 C 242.441406 242.523438 240.226562 244.554688 237.679688 245.125 C 237.054688 245.265625 236.414062 245.332031 235.769531 245.359375 C 229.460938 245.957031 223.097656 243.492188 218.464844 239.230469 C 217.175781 238.230469 215.996094 237.074219 214.964844 235.6875 C 214.785156 235.441406 214.726562 235.113281 214.726562 234.785156 C 213.6875 233.074219 212.960938 231.054688 213.519531 229.074219 C 214.183594 226.71875 216.351562 225.488281 218.65625 225.304688 C 220.707031 225.148438 222.882812 225.699219 224.875 226.15625 C 227.128906 226.671875 229.339844 227.359375 231.496094 228.195312 C 233.660156 229.039062 235.785156 229.996094 237.828125 231.105469 Z M 218.710938 230.703125 C 218.625 230.726562 218.503906 230.757812 218.429688 230.824219 C 218.496094 230.769531 218.652344 230.789062 218.710938 230.703125 Z M 218.804688 230.683594 C 218.796875 230.683594 218.78125 230.6875 218.761719 230.691406 C 218.773438 230.730469 218.785156 230.761719 218.796875 230.796875 C 218.796875 230.757812 218.800781 230.71875 218.804688 230.683594 Z M 218.804688 230.683594 "/><path style=" stroke:none;fill-rule:nonzero;fill:#f794c6;fill-opacity:1;" d="M 182.0625 280.671875 C 178.914062 281.835938 175.371094 282 172.046875 282.011719 C 168.589844 282.027344 165.125 281.667969 161.730469 281.015625 C 154.929688 279.703125 148.378906 276.941406 143.027344 272.519531 C 142.660156 272.21875 142.511719 271.867188 142.515625 271.523438 C 142.515625 271.460938 142.519531 271.398438 142.53125 271.335938 C 143.800781 271.433594 144.960938 269.75 143.855469 268.507812 C 141.65625 266.027344 139.621094 263.394531 137.757812 260.644531 C 137.816406 260.253906 137.929688 259.867188 138.089844 259.496094 C 138.1875 259.25 138.289062 259.015625 138.421875 258.792969 C 138.59375 258.507812 138.808594 258.242188 139.019531 257.984375 C 139.375 257.550781 139.820312 257.222656 140.308594 256.953125 C 140.3125 256.605469 140.324219 256.257812 140.351562 255.910156 C 140.492188 254.277344 140.921875 252.800781 141.511719 251.277344 C 141.652344 250.917969 141.847656 250.613281 142.089844 250.375 C 144.492188 251.992188 146.996094 253.484375 149.5625 254.847656 C 149.617188 254.914062 149.667969 254.988281 149.71875 255.054688 C 149.757812 255.03125 149.804688 255.015625 149.847656 254.992188 C 151.664062 255.945312 153.511719 256.84375 155.386719 257.679688 C 155.394531 257.691406 155.402344 257.695312 155.40625 257.703125 C 155.4375 257.835938 155.460938 257.964844 155.53125 258.105469 C 158.527344 263.585938 162.039062 269.84375 168.671875 271.253906 C 171.507812 271.855469 174.738281 271.636719 177.15625 269.898438 C 178.53125 268.910156 179.402344 267.613281 180.429688 266.292969 C 180.601562 266.074219 180.78125 265.835938 180.976562 265.621094 C 184.765625 266.355469 188.585938 266.925781 192.410156 267.320312 C 192.546875 267.355469 192.679688 267.386719 192.820312 267.425781 C 192.863281 267.40625 192.910156 267.390625 192.953125 267.378906 C 195.257812 267.601562 197.566406 267.769531 199.871094 267.859375 C 200.695312 267.894531 201.523438 267.917969 202.355469 267.933594 C 201.933594 268.699219 201.484375 269.457031 200.976562 270.167969 C 200.195312 271.25 199.273438 272.28125 198.269531 273.214844 C 198.164062 273.257812 198.054688 273.304688 197.941406 273.335938 C 197.808594 273.402344 197.675781 273.472656 197.527344 273.519531 C 196.753906 274.140625 195.960938 274.742188 195.121094 275.257812 C 193.257812 276.398438 191.277344 277.332031 189.222656 278.082031 C 188.632812 278.296875 188.035156 278.488281 187.4375 278.671875 C 186.144531 278.914062 184.835938 279.027344 183.53125 278.996094 C 182.601562 278.96875 182.046875 279.859375 182.0625 280.671875 Z M 114.425781 132.21875 C 119.042969 131.792969 123.597656 130.9375 128.210938 130.507812 C 132.976562 130.0625 137.765625 129.847656 142.546875 129.949219 C 145.214844 130.007812 147.882812 130.144531 150.542969 130.382812 C 150.796875 130.289062 151.054688 130.191406 151.3125 130.113281 C 152.054688 129.875 152.6875 130.148438 153.082031 130.640625 C 154.199219 130.769531 155.316406 130.914062 156.429688 131.082031 C 158.667969 131.414062 160.902344 131.78125 163.125 132.222656 C 165.53125 132.699219 167.976562 133.382812 170.449219 133.289062 C 172.625 133.207031 173.300781 130.476562 171.53125 129.289062 C 167.664062 126.707031 162.136719 126.015625 157.628906 125.242188 C 152.777344 124.410156 147.867188 123.855469 142.949219 123.613281 C 133.363281 123.144531 122.8125 123.351562 113.644531 126.460938 C 113.636719 126.464844 113.625 126.46875 113.617188 126.46875 C 113.066406 126.957031 112.519531 127.453125 111.972656 127.945312 C 111.070312 129.78125 111.875 132.453125 114.425781 132.21875 Z M 260.894531 165.285156 C 261.03125 165.925781 261 166.066406 260.890625 166.707031 C 260.882812 166.753906 260.871094 166.804688 260.863281 166.851562 C 260.707031 167.675781 259.921875 168.355469 259.144531 168.570312 C 258.710938 168.6875 258.269531 168.6875 257.835938 168.570312 C 257.421875 168.449219 257.058594 168.238281 256.746094 167.933594 C 256.246094 167.523438 255.925781 166.875 255.5625 166.339844 C 255.363281 166.042969 255.171875 165.738281 254.964844 165.441406 C 254.578125 164.984375 254.144531 164.554688 253.679688 164.1875 C 253.667969 164.171875 253.648438 164.164062 253.632812 164.148438 C 253.578125 164.078125 253.519531 164 253.460938 163.929688 C 253.453125 163.921875 253.449219 163.914062 253.4375 163.910156 C 253.023438 163.613281 252.640625 163.222656 252.527344 162.699219 C 252.445312 162.339844 252.445312 161.964844 252.527344 161.601562 C 252.625 161.171875 252.921875 160.796875 253.265625 160.527344 C 253.464844 160.347656 253.699219 160.222656 253.96875 160.160156 C 254.148438 160.136719 254.335938 160.113281 254.515625 160.089844 C 254.726562 160.113281 254.933594 160.152344 255.140625 160.179688 C 255.410156 160.160156 255.675781 160.171875 255.964844 160.265625 C 256.074219 160.304688 256.183594 160.347656 256.292969 160.390625 C 256.679688 160.546875 257.105469 160.699219 257.46875 160.914062 C 258.03125 161.25 258.554688 161.667969 259.039062 162.113281 C 259.214844 162.277344 259.382812 162.449219 259.535156 162.632812 C 259.789062 162.953125 260.117188 163.320312 260.308594 163.707031 C 260.5 164.105469 260.707031 164.507812 260.820312 164.929688 C 260.84375 165.050781 260.871094 165.167969 260.894531 165.285156 Z M 255.117188 160.191406 C 255.117188 160.191406 255.113281 160.191406 255.113281 160.191406 C 254.917969 160.214844 254.726562 160.242188 254.53125 160.265625 C 254.738281 160.226562 254.925781 160.203125 255.117188 160.191406 Z M 274.300781 168.40625 C 274.199219 168.222656 274.0625 168.050781 273.941406 167.871094 C 273.820312 167.707031 273.707031 167.539062 273.589844 167.371094 C 273.472656 167.207031 273.355469 167.046875 273.234375 166.890625 C 273.039062 166.636719 273.003906 166.597656 272.851562 166.476562 C 272.722656 166.359375 272.617188 166.199219 272.515625 166.0625 C 272.394531 165.914062 272.28125 165.765625 272.160156 165.617188 C 271.972656 165.417969 271.75 165.273438 271.496094 165.195312 C 271.25 165.066406 270.984375 165.007812 270.699219 165.015625 C 270.519531 165.039062 270.332031 165.066406 270.148438 165.089844 C 269.882812 165.152344 269.648438 165.273438 269.449219 165.457031 C 269.296875 165.546875 269.171875 165.671875 269.074219 165.828125 C 268.894531 166.027344 268.769531 166.261719 268.707031 166.53125 C 268.683594 166.710938 268.660156 166.898438 268.636719 167.078125 C 268.636719 167.453125 268.730469 167.800781 268.917969 168.121094 C 269.003906 168.308594 269.089844 168.496094 269.175781 168.683594 C 269.191406 168.75 269.199219 168.816406 269.222656 168.882812 C 269.308594 169.171875 269.449219 169.417969 269.582031 169.675781 C 269.683594 169.867188 269.78125 170.054688 269.882812 170.246094 C 269.976562 170.421875 270.0625 170.613281 270.175781 170.78125 C 270.296875 170.964844 270.4375 171.148438 270.570312 171.328125 C 270.71875 171.601562 270.917969 171.816406 271.171875 171.984375 C 271.398438 172.1875 271.660156 172.328125 271.964844 172.398438 C 272.273438 172.496094 272.585938 172.507812 272.894531 172.441406 C 273.207031 172.425781 273.492188 172.335938 273.761719 172.164062 C 274.257812 171.84375 274.695312 171.367188 274.828125 170.769531 C 274.859375 170.566406 274.886719 170.359375 274.910156 170.148438 C 274.910156 169.730469 274.804688 169.339844 274.589844 168.976562 C 274.496094 168.789062 274.398438 168.597656 274.300781 168.40625 Z M 284.082031 175.84375 C 283.554688 175.914062 283.007812 176.128906 282.636719 176.535156 C 282.339844 176.855469 282.125 177.230469 281.988281 177.648438 C 281.78125 178.277344 281.941406 179.023438 282.242188 179.585938 C 282.511719 180.089844 282.761719 180.59375 283.089844 181.066406 C 283.566406 181.75 284.136719 182.355469 284.691406 182.972656 C 285.082031 183.410156 285.476562 183.847656 285.871094 184.289062 C 286.058594 184.503906 286.28125 184.691406 286.484375 184.890625 C 286.773438 185.164062 287.074219 185.421875 287.398438 185.644531 C 287.464844 185.691406 287.53125 185.734375 287.601562 185.777344 C 287.839844 185.914062 288.21875 186.09375 288.496094 186.140625 C 288.5 186.140625 288.5 186.140625 288.503906 186.140625 C 288.394531 183.074219 287.96875 180.019531 287.226562 176.992188 C 286.734375 176.660156 286.207031 176.414062 285.683594 176.148438 C 285.171875 175.878906 284.660156 175.761719 284.082031 175.84375 Z M 284.082031 175.84375 "/><path style=" stroke:none;fill-rule:nonzero;fill:#020201;fill-opacity:1;" d="M 170.382812 161.679688 C 169.414062 161.054688 169.285156 159.9375 169.523438 158.414062 C 170.578125 151.679688 184 139.980469 185.257812 138.902344 C 188.230469 136.34375 191.894531 134.136719 195.035156 132.355469 C 199.878906 129.617188 206.691406 126.453125 210.9375 131.863281 C 213.328125 134.910156 213.152344 138.96875 212.300781 142.640625 C 215.960938 140.277344 219.984375 138.082031 224.476562 138.585938 C 228.898438 139.089844 232.566406 141.902344 233.171875 146.464844 C 233.492188 148.871094 233.066406 151.316406 232.667969 153.691406 C 232.238281 156.234375 231.65625 158.757812 230.914062 161.234375 C 229.433594 166.207031 227.277344 170.867188 224.515625 175.253906 C 224.109375 175.898438 223.542969 176.1875 222.964844 176.21875 C 221.554688 176.304688 220.117188 174.84375 220.996094 173.203125 C 224 167.578125 226.546875 161.363281 227.945312 155.023438 C 228.335938 153.25 228.640625 151.46875 228.832031 149.6875 C 229.023438 147.933594 229.082031 145.988281 227.90625 144.535156 C 226.957031 143.363281 225.398438 142.75 223.941406 142.527344 C 221.867188 142.210938 219.902344 142.722656 218.050781 143.574219 C 217.777344 143.695312 217.507812 143.824219 217.238281 143.964844 C 216.058594 144.570312 214.921875 145.285156 213.835938 145.984375 C 213.71875 146.054688 213.605469 146.128906 213.496094 146.199219 C 212.59375 146.777344 211.738281 146.4375 211.246094 145.789062 C 210.242188 146.828125 208.09375 146 208.554688 144.285156 C 208.699219 143.738281 208.847656 143.109375 208.976562 142.4375 C 209.105469 141.757812 209.21875 141.03125 209.273438 140.292969 C 209.292969 140.042969 209.308594 139.796875 209.316406 139.546875 C 209.390625 137.304688 208.941406 135.082031 207.226562 133.917969 C 205.015625 132.414062 202.167969 133.660156 200.097656 134.796875 C 197.910156 136 195.808594 137.394531 193.785156 138.84375 C 192.929688 139.457031 192.101562 140.089844 191.292969 140.742188 C 184.222656 146.378906 178.753906 153.308594 173.792969 160.914062 C 172.894531 162.296875 171.414062 162.34375 170.382812 161.679688 Z M 290.597656 204.644531 C 290.300781 205.207031 289.855469 205.546875 289.371094 205.703125 C 287.765625 206.214844 285.636719 204.769531 286.238281 202.804688 C 287.917969 197.316406 288.71875 191.710938 288.515625 186.136719 C 288.40625 183.070312 287.980469 180.015625 287.234375 176.988281 C 286.867188 175.496094 286.433594 174.011719 285.902344 172.542969 C 282.722656 163.699219 276.402344 154.933594 267.222656 151.761719 C 266.621094 151.554688 266.292969 151.136719 266.132812 150.664062 C 265.828125 150.488281 265.550781 150.242188 265.332031 149.902344 C 261.769531 144.4375 257.730469 139.632812 252.863281 135.257812 C 243.425781 126.773438 232.3125 119.457031 220.691406 114.324219 C 209.519531 109.394531 196.460938 108.097656 184.355469 110.535156 C 184.25 110.5625 184.140625 110.585938 184.027344 110.601562 C 180.578125 111.316406 177.195312 112.316406 173.964844 113.648438 C 172.261719 114.34375 171.058594 111.425781 172.71875 110.691406 C 175.238281 109.574219 177.800781 108.621094 180.390625 107.808594 C 180.4375 107.792969 180.484375 107.773438 180.539062 107.761719 C 180.484375 107.675781 180.433594 107.589844 180.375 107.503906 C 178.625 104.691406 177.085938 101.738281 175.171875 99.027344 C 173.332031 96.417969 171.269531 93.964844 168.964844 91.765625 C 167.40625 90.277344 165.710938 88.898438 163.894531 87.734375 C 162.058594 86.5625 160.09375 85.609375 158 84.984375 C 156.339844 84.488281 154.671875 84.257812 153 84.238281 C 150.378906 84.207031 147.761719 84.683594 145.179688 85.457031 C 138.742188 87.390625 132.90625 91.347656 128.46875 96.367188 C 124.875 100.429688 121.695312 106.5625 123.070312 112.089844 C 127.4375 109.3125 132.019531 106.90625 136.652344 104.886719 C 143.3125 101.976562 150.746094 98.96875 158.152344 99.746094 C 164.265625 100.386719 169.890625 103.976562 171.734375 110.046875 C 172.359375 112.109375 169.289062 112.875 168.554688 110.921875 C 166.390625 105.132812 159.324219 103.417969 153.804688 104.183594 C 147.484375 105.058594 141.277344 107.910156 135.652344 110.808594 C 127.472656 115.023438 120.375 120.464844 113.621094 126.476562 C 113.074219 126.964844 112.523438 127.460938 111.980469 127.953125 C 110.113281 129.652344 108.269531 131.386719 106.429688 133.152344 C 105.980469 133.582031 105.433594 133.75 104.894531 133.730469 C 99.902344 136.503906 94.71875 139.335938 90.894531 143.628906 C 87.019531 147.980469 84.949219 153.027344 85.210938 158.898438 C 85.28125 160.441406 84.03125 161.253906 82.785156 161.234375 C 81.792969 161.222656 80.796875 160.675781 80.484375 159.539062 C 78.605469 152.816406 82.039062 145.753906 86.679688 140.957031 C 91.070312 136.414062 96.929688 133.527344 102.6875 131.019531 C 102.75 130.835938 102.835938 130.65625 102.964844 130.476562 C 107.621094 124.050781 113.609375 118.550781 120.238281 113.96875 C 120.015625 113.351562 119.839844 112.734375 119.699219 112.121094 C 119.542969 111.410156 119.433594 110.695312 119.375 109.984375 C 118.921875 104.191406 121.699219 98.390625 125.472656 93.828125 C 133.246094 84.421875 147.398438 76.9375 159.75 80.816406 C 164.8125 82.40625 169.277344 85.53125 173.042969 89.230469 C 177.835938 93.9375 182.605469 100.125 185.109375 106.519531 C 190.347656 105.292969 195.714844 104.699219 201.226562 104.894531 C 203.511719 104.976562 205.753906 105.21875 207.96875 105.578125 C 211.609375 101.328125 216.628906 98.453125 222.007812 96.945312 C 232.714844 93.945312 244.496094 96.621094 252.304688 104.671875 C 259.429688 112.015625 263.878906 124.550781 260.007812 134.472656 C 263.984375 138.28125 268.097656 142.78125 269.640625 148.082031 C 269.726562 148.382812 269.75 148.664062 269.734375 148.929688 C 279.628906 152.335938 286.71875 160.867188 290.628906 170.371094 C 295.023438 181.03125 296.113281 194.207031 290.597656 204.644531 Z M 253.734375 116.707031 C 251.667969 111.316406 247.78125 106.460938 242.808594 103.496094 C 233.519531 97.953125 222.359375 99.433594 213.753906 105.128906 C 213.160156 105.519531 212.578125 105.9375 212.011719 106.367188 C 212.316406 106.4375 212.621094 106.519531 212.925781 106.59375 C 223.164062 109.160156 232.699219 114.289062 241.558594 120.050781 C 246.347656 123.167969 251.003906 126.558594 255.355469 130.273438 C 255.652344 125.660156 255.480469 121.265625 253.734375 116.707031 Z M 273.871094 215.128906 C 275.242188 218.035156 276.234375 221.113281 276.917969 224.054688 C 283.027344 250.375 269.066406 278.960938 244.976562 290.890625 C 243.34375 293.019531 241.40625 294.894531 239.050781 296.382812 C 236.851562 297.769531 234.425781 294.566406 236.289062 292.804688 C 244.3125 285.242188 247.289062 275.019531 248.632812 264.359375 C 250.210938 251.894531 249.574219 238.761719 246.507812 226.5625 C 245.722656 228.410156 244.886719 230.222656 243.949219 231.976562 C 243.941406 231.996094 243.925781 232.015625 243.910156 232.035156 C 249.546875 238.292969 248.160156 248.035156 243.230469 254.421875 C 237.242188 262.171875 227.050781 264.828125 217.75 266.164062 C 217.523438 266.3125 217.273438 266.4375 216.960938 266.519531 C 214.097656 267.257812 211.136719 267.648438 208.15625 267.828125 C 207.503906 269.871094 205.96875 271.929688 204.734375 273.472656 C 203.058594 275.554688 200.988281 277.304688 198.722656 278.714844 C 196.433594 280.136719 193.871094 281.226562 191.234375 281.785156 C 188.503906 282.363281 185.886719 282.339844 183.136719 281.960938 C 182.402344 281.859375 182.066406 281.292969 182.058594 280.675781 C 182.042969 279.863281 182.589844 278.972656 183.535156 279 C 184.835938 279.039062 186.148438 278.917969 187.441406 278.675781 C 190.675781 278.070312 193.804688 276.664062 196.410156 274.753906 C 197.050781 274.289062 197.675781 273.773438 198.273438 273.21875 C 199.277344 272.285156 200.195312 271.25 200.980469 270.171875 C 201.492188 269.460938 201.941406 268.710938 202.359375 267.9375 C 201.527344 267.921875 200.703125 267.898438 199.878906 267.863281 C 197.570312 267.769531 195.265625 267.605469 192.957031 267.382812 C 192.777344 267.363281 192.59375 267.34375 192.414062 267.324219 C 188.589844 266.933594 184.769531 266.359375 180.984375 265.625 C 180.78125 265.84375 180.605469 266.078125 180.433594 266.300781 C 179.40625 267.617188 178.539062 268.914062 177.164062 269.902344 C 174.742188 271.640625 171.515625 271.863281 168.675781 271.261719 C 162.046875 269.847656 158.53125 263.589844 155.535156 258.109375 C 155.460938 257.972656 155.441406 257.84375 155.414062 257.707031 C 155.414062 257.703125 155.414062 257.699219 155.40625 257.695312 C 155.402344 257.691406 155.398438 257.691406 155.386719 257.683594 C 153.511719 256.847656 151.664062 255.953125 149.851562 254.996094 C 149.753906 254.949219 149.660156 254.902344 149.566406 254.847656 C 147 253.488281 144.5 251.992188 142.09375 250.375 C 136.160156 246.378906 130.8125 241.582031 126.453125 235.886719 C 128.855469 244.695312 132.664062 253.121094 137.765625 260.644531 C 139.625 263.394531 141.65625 266.027344 143.863281 268.507812 C 144.964844 269.75 143.804688 271.425781 142.535156 271.335938 C 142.195312 271.3125 141.847656 271.164062 141.53125 270.839844 C 137.820312 267.023438 134.402344 262.835938 131.484375 258.351562 C 130.902344 257.460938 130.339844 256.554688 129.804688 255.636719 C 129.703125 255.460938 129.59375 255.292969 129.492188 255.117188 C 123.566406 244.800781 120.03125 233.34375 118.769531 221.535156 C 117.53125 209.941406 118.425781 197.402344 122.722656 186.476562 C 123.144531 185.410156 124.011719 184.871094 124.914062 184.765625 C 126.519531 184.578125 128.21875 185.773438 127.617188 187.820312 C 125.835938 193.910156 124.316406 200.042969 123.753906 206.371094 C 123.101562 213.722656 123.480469 221.191406 124.800781 228.503906 C 125.078125 228.613281 125.339844 228.78125 125.539062 229.097656 C 129.929688 235.953125 136.101562 241.652344 142.917969 246.058594 C 154.363281 253.460938 167.546875 258.019531 180.902344 260.5625 C 182.320312 260.195312 183.804688 260.40625 185.011719 261.300781 C 194.945312 262.910156 206.097656 263.804688 215.621094 261.59375 C 215.996094 261.507812 216.347656 261.503906 216.664062 261.558594 C 221.78125 260.160156 227.351562 258.921875 232.179688 256.492188 C 232.429688 256.367188 232.671875 256.238281 232.914062 256.105469 C 234.96875 254.996094 236.875 253.660156 238.519531 251.960938 C 241.363281 249.039062 243.40625 244.421875 243.273438 240.101562 C 243.195312 237.648438 242.417969 235.289062 240.675781 233.402344 C 240.421875 233.132812 240.292969 232.835938 240.25 232.550781 C 240.222656 232.355469 240.230469 232.15625 240.269531 231.96875 C 239.96875 231.511719 239.839844 230.945312 240.035156 230.316406 C 241.183594 226.558594 242.769531 222.890625 244.433594 219.257812 C 244.3125 219.164062 244.1875 219.074219 244.070312 218.984375 C 243.328125 218.429688 242.589844 217.878906 241.84375 217.328125 C 241.304688 216.921875 240.792969 216.488281 240.277344 216.0625 C 237.675781 221.070312 230.769531 222.703125 225.496094 221.292969 C 218.070312 219.316406 213.839844 211.898438 210.371094 205.660156 C 209.363281 203.847656 212.082031 202.261719 213.148438 204.039062 C 216.113281 208.976562 219.746094 215.230469 225.632812 217.035156 C 229.585938 218.25 235.09375 217.101562 236.628906 212.820312 C 236.515625 212.441406 236.542969 212.027344 236.769531 211.605469 C 237.164062 210.855469 238.214844 210.617188 238.925781 211.039062 C 238.929688 211.042969 238.9375 211.042969 238.941406 211.046875 C 239.699219 211.085938 240.441406 211.476562 240.847656 212.136719 C 241.054688 212.253906 241.261719 212.382812 241.476562 212.5 C 242.292969 212.925781 243.121094 213.320312 243.910156 213.789062 C 244.703125 214.257812 245.496094 214.71875 246.285156 215.1875 C 246.289062 215.191406 246.292969 215.191406 246.300781 215.195312 C 246.921875 213.851562 247.535156 212.507812 248.125 211.164062 C 248.929688 209.3125 249.746094 207.476562 250.5625 205.632812 C 250.578125 205.605469 250.59375 205.570312 250.601562 205.542969 C 251.121094 204.367188 251.640625 203.199219 252.164062 202.023438 C 253.644531 198.683594 255.117188 195.347656 256.535156 191.980469 C 257.253906 190.28125 260.203125 191.546875 259.511719 193.238281 C 256.863281 199.699219 254.410156 206.238281 251.84375 212.734375 C 251.054688 214.722656 250.304688 216.757812 249.550781 218.796875 C 249.53125 219.09375 249.46875 219.390625 249.3125 219.691406 C 249.269531 219.765625 249.199219 219.824219 249.144531 219.894531 C 248.773438 220.898438 248.390625 221.894531 248 222.894531 C 247.816406 223.359375 247.640625 223.824219 247.453125 224.289062 C 247.765625 224.160156 248.113281 224.117188 248.441406 224.160156 C 249.011719 224.242188 249.53125 224.597656 249.738281 225.328125 C 250.617188 228.410156 251.351562 231.503906 251.960938 234.609375 C 252.039062 234.996094 252.105469 235.386719 252.175781 235.777344 C 252.34375 236.671875 252.496094 237.5625 252.636719 238.457031 C 252.703125 238.871094 252.773438 239.28125 252.832031 239.699219 C 254.121094 248.484375 254.289062 257.371094 253.15625 266.347656 C 252.410156 272.257812 251.203125 278.828125 248.648438 284.59375 C 252.496094 281.824219 255.949219 278.554688 258.972656 274.832031 C 273.949219 256.394531 279.417969 225.152344 261.042969 207.011719 C 259.238281 205.230469 261.539062 202.527344 263.65625 203.628906 C 268.3125 206.027344 271.605469 210.335938 273.871094 215.128906 Z M 176.234375 264.605469 C 170.671875 263.296875 165.210938 261.605469 159.921875 259.542969 C 162.613281 263.792969 166.277344 268.007812 171.644531 267.460938 C 172.769531 267.34375 173.902344 266.949219 174.792969 266.238281 C 175.367188 265.78125 175.8125 265.207031 176.234375 264.605469 Z M 240.660156 200.246094 C 241.515625 199.21875 242.320312 198.15625 243.082031 197.0625 C 246.171875 192.585938 248.390625 187.574219 249.425781 182.183594 C 250.058594 178.894531 250.320312 175.535156 250.085938 172.195312 C 249.855469 168.917969 249.621094 164.320312 247.300781 161.792969 C 245.683594 160.035156 243.082031 161.53125 242.917969 163.609375 C 242.800781 165.144531 243.449219 166.597656 243.824219 168.0625 C 244.199219 169.511719 244.488281 170.980469 244.652344 172.464844 C 244.980469 175.453125 244.972656 178.542969 244.574219 181.527344 C 243.910156 186.550781 242.183594 191.4375 239.476562 195.714844 C 238.964844 196.523438 238.421875 197.308594 237.839844 198.074219 C 236.605469 199.679688 239.351562 201.8125 240.660156 200.246094 Z M 133.476562 173.453125 C 136.4375 175.121094 139.488281 176.589844 142.578125 177.996094 C 143.191406 178.277344 143.761719 178.386719 144.425781 178.238281 C 144.515625 178.21875 144.59375 178.175781 144.679688 178.144531 C 147.34375 185.195312 152.714844 190.878906 159.753906 193.695312 C 166.652344 196.460938 174.683594 196.121094 180.964844 191.996094 C 183.417969 190.382812 181.234375 186.550781 178.644531 188.027344 C 167.179688 194.558594 152.59375 188.023438 147.601562 176.394531 C 147.324219 175.746094 146.730469 175.511719 146.132812 175.566406 C 146.105469 175.378906 146.058594 175.191406 145.976562 175 C 145.660156 174.261719 145.144531 173.914062 144.425781 173.613281 C 141.296875 172.304688 138.144531 171.070312 134.914062 170.039062 C 134.023438 169.757812 133.054688 170.304688 132.710938 171.121094 C 132.359375 171.960938 132.660156 172.996094 133.476562 173.453125 Z M 178.933594 217.914062 C 178.246094 218.433594 177.902344 219.273438 178.367188 220.085938 C 178.765625 220.792969 179.832031 221.136719 180.539062 220.65625 C 184.234375 218.132812 189.09375 218.496094 192.875 220.425781 C 194.785156 221.398438 196.621094 222.855469 197.722656 224.421875 C 198.34375 225.304688 198.855469 226.265625 199.109375 227 C 199.585938 228.390625 199.636719 229.722656 200.597656 230.910156 C 201.460938 231.984375 203.421875 231.617188 204.015625 230.472656 C 205.492188 227.640625 203.164062 223.800781 201.398438 221.582031 C 199.707031 219.445312 197.417969 217.746094 194.929688 216.644531 C 189.769531 214.351562 183.570312 214.390625 178.933594 217.914062 Z M 133.707031 268.972656 C 121.566406 266.3125 113.367188 254.808594 108.523438 244.113281 C 103.640625 233.351562 101.25 221.558594 101.257812 209.757812 C 102.027344 208.894531 102.167969 207.550781 101.320312 206.777344 C 101.359375 205.660156 101.386719 204.539062 101.46875 203.421875 C 102.050781 195.585938 103.929688 187.941406 106.132812 180.421875 C 106.738281 178.371094 104.300781 176.777344 102.695312 177.488281 C 102.28125 177.675781 101.917969 178.015625 101.679688 178.542969 C 98.175781 186.355469 96.375 194.867188 95.878906 203.464844 C 95.855469 203.871094 95.832031 204.28125 95.8125 204.6875 C 95.453125 204.511719 95.105469 204.324219 94.761719 204.128906 C 92.535156 202.847656 90.625 201.097656 89.222656 198.777344 C 86.757812 194.699219 85.578125 189.4375 85.746094 184.691406 C 86.105469 174.328125 95.574219 163.523438 105.117188 160.128906 C 105.175781 160.109375 105.238281 160.085938 105.292969 160.058594 C 105.335938 160.046875 105.355469 160.015625 105.398438 160.003906 C 105.378906 160.085938 105.367188 160.164062 105.347656 160.246094 C 104.777344 162.648438 104.429688 165.109375 104.355469 167.613281 C 104.335938 168.3125 104.570312 168.832031 104.9375 169.195312 C 106.117188 170.351562 108.699219 169.796875 108.867188 167.613281 C 109.734375 156.289062 115.292969 145.183594 124.542969 138.371094 C 126.109375 137.21875 124.695312 134.605469 122.980469 135.699219 C 114.984375 140.808594 108.875 148.65625 106.058594 157.640625 C 105.742188 157.191406 105.199219 156.921875 104.484375 157.113281 C 96.308594 159.324219 88.371094 165.757812 84.109375 173.679688 C 82.246094 177.140625 81.082031 180.882812 80.902344 184.691406 C 80.640625 190.367188 82.070312 196.929688 85.148438 201.742188 C 87.699219 205.726562 91.390625 208.425781 95.738281 209.773438 C 95.800781 214.199219 96.179688 218.609375 96.835938 222.929688 C 98.9375 236.679688 104.261719 251.25 113.898438 261.5625 C 118.925781 266.949219 125.539062 270.875 132.820312 272.179688 C 133.773438 272.355469 134.472656 271.792969 134.765625 271.09375 C 135.105469 270.265625 134.855469 269.226562 133.707031 268.972656 Z M 151.316406 130.113281 C 151.058594 130.191406 150.800781 130.289062 150.546875 130.382812 C 145.230469 132.375 141.085938 136.996094 137.808594 141.480469 C 134.335938 146.226562 131.867188 151.757812 130.707031 157.519531 C 130.40625 159.011719 131.136719 160.5625 132.675781 160.980469 C 134.078125 161.367188 135.816406 160.507812 136.136719 159.015625 C 137.257812 153.832031 139.300781 148.949219 142.261719 144.550781 C 145.257812 140.105469 149.417969 136.933594 153.039062 133.078125 C 153.707031 132.367188 153.613281 131.300781 153.078125 130.636719 C 152.691406 130.148438 152.058594 129.875 151.316406 130.113281 Z M 215.78125 189.628906 C 215.691406 190.386719 216.148438 191.289062 216.972656 191.445312 C 218.1875 191.679688 219.363281 192.066406 220.589844 192.226562 C 221.675781 192.363281 222.796875 192.484375 223.890625 192.410156 C 225.097656 192.328125 226.28125 192.183594 227.441406 191.9375 C 227.804688 191.863281 228.164062 191.777344 228.515625 191.679688 C 229.453125 191.421875 230.371094 191.09375 231.261719 190.664062 C 232.433594 190.101562 232.800781 188.503906 232.332031 187.398438 C 231.851562 186.25 230.492188 185.476562 229.246094 185.882812 C 227.261719 186.527344 225.304688 187.25 223.234375 187.605469 C 222.753906 187.691406 222.28125 187.796875 221.800781 187.878906 C 221.738281 187.890625 221.164062 187.96875 221.183594 187.976562 C 220.980469 188 220.785156 188.023438 220.585938 188.035156 C 219.496094 188.136719 218.773438 188.300781 217.714844 188.222656 C 217.617188 188.214844 217.515625 188.210938 217.40625 188.195312 C 217.167969 188.167969 216.933594 188.226562 216.722656 188.332031 C 216.605469 188.394531 216.488281 188.460938 216.382812 188.554688 C 216.058594 188.828125 215.832031 189.234375 215.78125 189.628906 Z M 181.832031 168.429688 C 181.359375 167.5625 181.640625 166.546875 182.46875 166.015625 C 183.269531 165.496094 184.414062 165.851562 184.882812 166.648438 C 185.503906 167.710938 186.164062 168.75 186.90625 169.726562 C 186.945312 169.773438 186.984375 169.820312 187.023438 169.875 C 187.125 169.996094 187.21875 170.117188 187.320312 170.234375 C 187.503906 170.445312 187.699219 170.648438 187.898438 170.851562 C 188.308594 171.28125 188.707031 171.722656 189.125 172.152344 C 189.984375 173.03125 190.839844 173.902344 191.734375 174.742188 C 192.605469 175.566406 193.425781 176.429688 194.28125 177.265625 C 195.019531 177.992188 195.058594 179.179688 194.441406 179.976562 C 193.851562 180.746094 192.632812 181.078125 191.777344 180.507812 C 190.59375 179.71875 189.46875 178.894531 188.464844 177.878906 C 187.515625 176.925781 186.636719 175.886719 185.832031 174.804688 C 185.085938 173.796875 184.441406 172.734375 183.769531 171.671875 C 183.09375 170.609375 182.433594 169.539062 181.832031 168.429688 Z M 186.90625 169.726562 C 186.914062 169.726562 186.914062 169.726562 186.90625 169.726562 C 186.988281 169.824219 186.988281 169.824219 186.90625 169.726562 Z M 186.90625 169.726562 "/></g></svg>