<svg xmlns="http://www.w3.org/2000/svg" xmlns:xlink="http://www.w3.org/1999/xlink" width="500" zoomAndPan="magnify" viewBox="0 0 375 374.999991" height="500" preserveAspectRatio="xMidYMid meet" version="1.2"><defs><clipPath id="86af6ec96b"><path d="M 70 86 L 305 86 L 305 289.425781 L 70 289.425781 Z M 70 86 "/></clipPath><clipPath id="88c7ec95a3"><path d="M 113 136 L 255 136 L 255 289.425781 L 113 289.425781 Z M 113 136 "/></clipPath><clipPath id="b748ac78cb"><path d="M 70 86 L 305 86 L 305 289.425781 L 70 289.425781 Z M 70 86 "/></clipPath></defs><g id="badd93cf02"><g clip-rule="nonzero" clip-path="url(#86af6ec96b)"><path style=" stroke:none;fill-rule:nonzero;fill:#f0816a;fill-opacity:1;" d="M 300.800781 224.128906 C 298.019531 226.125 295.042969 228.203125 291.542969 228.570312 C 288.304688 228.914062 285.175781 227.742188 282.414062 226.148438 C 277.855469 223.511719 274.871094 220.554688 273.488281 215.441406 C 272.1875 210.621094 272.105469 205.503906 272.199219 200.539062 C 272.300781 195.25 272.6875 189.945312 273.058594 184.667969 C 273.351562 180.550781 273.746094 176.289062 273.167969 172.167969 C 276.875 172.28125 280.601562 172.289062 284.304688 172.300781 C 284.925781 172.300781 285.425781 172.152344 285.835938 171.921875 C 286.941406 173.195312 289.40625 172.898438 289.785156 171.070312 C 290.484375 167.710938 288.683594 163.464844 287.421875 160.390625 C 286.082031 157.109375 284.453125 153.914062 282.355469 151.050781 C 280.0625 147.90625 277.40625 145.089844 274.484375 142.585938 C 279.125 138.113281 280.132812 131.105469 279.335938 124.921875 C 278.453125 118.066406 275.324219 111.675781 271.167969 106.21875 C 266.910156 100.628906 261.535156 95.742188 255.640625 91.921875 C 249.886719 88.195312 242.355469 85.421875 235.523438 87.617188 C 230.089844 89.363281 225.035156 94.089844 224.734375 99.871094 C 218.230469 97.328125 211.285156 95.902344 204.402344 96.039062 C 197.523438 96.175781 190.742188 98.070312 185.46875 102.578125 C 185.453125 101.933594 185.132812 101.324219 184.40625 101.207031 C 175.554688 99.757812 166.90625 99.75 158.226562 101.527344 C 156.53125 97.113281 152.183594 93.398438 148.117188 91.597656 C 141.648438 88.726562 134.367188 89.703125 127.992188 92.332031 C 121.902344 94.84375 116.355469 98.667969 111.863281 103.488281 C 107.566406 108.089844 103.363281 113.984375 102.96875 120.476562 C 102.707031 124.734375 105.007812 129.382812 108.628906 131.445312 C 101.390625 133.347656 94.632812 137.246094 89.128906 142.226562 C 85.191406 145.789062 81.808594 150.035156 79.3125 154.726562 C 77.15625 158.796875 74.597656 165.066406 79.445312 168.285156 C 80.414062 168.929688 81.476562 168.371094 81.972656 167.519531 C 82.636719 167.855469 83.382812 167.964844 84.070312 167.707031 C 84.296875 167.820312 84.539062 167.917969 84.824219 167.96875 C 89.167969 168.785156 93.558594 169.464844 97.972656 170.074219 C 98.019531 170.480469 98.089844 170.886719 98.136719 171.296875 C 97.609375 171.453125 97.191406 171.886719 97.242188 172.625 C 98.070312 184.964844 102.054688 196.871094 102.109375 209.3125 C 102.136719 215.535156 101.152344 221.570312 97.664062 226.84375 C 94.941406 230.953125 90.996094 233.480469 85.976562 232.621094 C 81.558594 231.867188 77.628906 229.472656 73.285156 228.429688 C 70.699219 227.804688 69.707031 231.46875 72.109375 232.394531 C 76.925781 240.90625 83.984375 248.660156 93.265625 252.199219 C 102.101562 255.570312 112.398438 253.605469 119.230469 246.964844 C 122.921875 243.375 125.152344 238.621094 124.84375 233.4375 C 129.085938 235.773438 133.761719 237.464844 138.191406 238.890625 C 144.34375 240.875 150.640625 242.460938 157.019531 243.683594 C 155.847656 245.089844 155.1875 246.910156 155.09375 248.765625 C 154.96875 251.1875 155.871094 254.128906 158.015625 255.488281 C 157.527344 256.175781 157.085938 256.914062 156.703125 257.742188 C 153.992188 263.605469 153.628906 271.726562 155.960938 277.769531 C 158.476562 284.285156 164.515625 288.152344 171.261719 289.171875 C 172.367188 289.335938 173.085938 288.503906 173.117188 287.667969 C 173.253906 287.707031 173.390625 287.730469 173.527344 287.769531 C 174.09375 288.066406 174.664062 288.320312 175.195312 288.496094 C 177.933594 289.40625 180.824219 289.046875 183.425781 287.933594 C 184.796875 287.34375 186.027344 286.5 187.136719 285.511719 C 187.535156 285.292969 187.949219 285.089844 188.320312 284.835938 C 190.949219 283.03125 192.898438 280.550781 194.046875 277.730469 C 194.15625 277.550781 194.234375 277.359375 194.296875 277.148438 C 194.316406 277.03125 194.367188 276.921875 194.398438 276.808594 C 194.476562 276.566406 194.5625 276.324219 194.632812 276.074219 C 194.640625 276.054688 194.652344 276.039062 194.65625 276.023438 C 194.832031 275.75 194.925781 275.449219 194.9375 275.132812 C 194.980469 274.949219 194.988281 274.765625 194.96875 274.582031 C 194.992188 274.453125 195.023438 274.332031 195.042969 274.203125 C 195.003906 274.496094 195.027344 274.792969 195.128906 275.074219 C 194.746094 275.992188 195.191406 277.292969 196.488281 277.292969 C 197.324219 277.292969 197.789062 276.75 197.933594 276.117188 C 199.25 275.144531 200.128906 273.691406 200.679688 272.085938 C 201.082031 272.269531 201.527344 272.382812 202.011719 272.378906 C 203.890625 272.355469 205.820312 272.257812 207.695312 272.089844 C 208.082031 272.050781 208.480469 271.996094 208.871094 271.917969 C 211.453125 271.984375 214.042969 271.972656 216.625 271.871094 C 220.925781 271.707031 225.570312 271.820312 229.667969 270.410156 C 231.023438 269.941406 231.609375 268.882812 231.609375 267.816406 C 231.859375 267.953125 232.105469 268.09375 232.363281 268.207031 C 234.277344 269.035156 235.875 267.015625 234.558594 265.363281 C 233.578125 264.125 232.261719 263.226562 230.988281 262.296875 C 229.785156 261.417969 228.578125 260.554688 227.367188 259.6875 C 225.972656 258.6875 224.558594 257.71875 223.148438 256.734375 C 225.597656 256.632812 228.058594 256.265625 229.964844 254.917969 C 232.613281 253.050781 233.921875 249.417969 232.855469 246.308594 C 232.269531 244.597656 231.0625 243.183594 229.550781 242.289062 C 233.710938 241.269531 237.8125 240.050781 241.84375 238.601562 C 242.390625 238.886719 243.046875 238.957031 243.660156 238.636719 C 246.011719 237.40625 248.4375 235.707031 250.507812 233.667969 C 254.367188 242.222656 264.023438 247.296875 273.324219 247.21875 C 285.886719 247.109375 296.9375 238.574219 303.792969 228.65625 C 304.097656 228.214844 304.175781 227.757812 304.121094 227.324219 C 305.117188 225.417969 302.851562 222.65625 300.800781 224.128906 Z M 300.800781 224.128906 "/></g><path style=" stroke:none;fill-rule:nonzero;fill:#2d371e;fill-opacity:1;" d="M 237.140625 177.175781 C 237.0625 177.015625 236.96875 176.863281 236.882812 176.707031 C 237.027344 176.816406 237.171875 176.929688 237.308594 177.046875 C 237.246094 177.085938 237.195312 177.132812 237.140625 177.175781 Z M 187.4375 150.113281 C 187.5 149.878906 187.558594 149.640625 187.632812 149.402344 C 187.546875 149.386719 187.46875 149.355469 187.390625 149.332031 C 187.410156 149.589844 187.421875 149.855469 187.4375 150.113281 Z M 114.519531 129.308594 C 114.808594 129.296875 115.039062 129.378906 115.246094 129.496094 C 115.289062 129.371094 115.3125 129.238281 115.398438 129.109375 C 118.609375 124.1875 122.617188 119.921875 127.1875 116.246094 C 134.96875 109.980469 144.101562 105.292969 153.730469 102.621094 C 152.722656 100.929688 151.683594 99.320312 150.058594 97.941406 C 147.726562 95.960938 144.824219 94.691406 141.785156 94.324219 C 134.894531 93.484375 127.890625 96.519531 122.261719 100.25 C 116.886719 103.8125 112.058594 108.757812 109.058594 114.496094 C 107.550781 117.378906 106.417969 121.035156 107.574219 124.234375 C 108.628906 127.15625 111.34375 129.421875 114.519531 129.308594 Z M 213.433594 172.824219 C 213.195312 172.71875 212.96875 172.601562 212.730469 172.515625 C 212.824219 172.597656 212.925781 172.671875 213.027344 172.746094 C 213.242188 172.800781 213.410156 172.832031 213.433594 172.824219 Z M 115.167969 177.695312 C 115.25 177.953125 115.328125 178.214844 115.40625 178.472656 C 115.382812 178.269531 115.363281 178.066406 115.339844 177.871094 C 115.285156 177.816406 115.226562 177.757812 115.167969 177.695312 Z M 98.128906 171.300781 C 98.082031 170.898438 98.011719 170.492188 97.960938 170.078125 C 93.546875 169.464844 89.15625 168.792969 84.8125 167.972656 C 84.527344 167.921875 84.28125 167.824219 84.058594 167.710938 C 83.375 167.96875 82.628906 167.859375 81.960938 167.527344 C 82.359375 166.847656 82.402344 165.988281 81.6875 165.367188 C 78.804688 162.859375 83.324219 156.375 84.808594 154.050781 C 87.285156 150.183594 90.339844 146.742188 93.851562 143.789062 C 100.894531 137.867188 109.476562 134.519531 118.503906 133.097656 C 119.796875 132.894531 119.835938 131.285156 119.042969 130.539062 C 127.105469 121.621094 136.5 114.078125 147.714844 109.480469 C 158.964844 104.867188 171.875 102.667969 183.996094 104.195312 C 184.203125 104.226562 184.390625 104.203125 184.558594 104.140625 C 184.683594 105.144531 185.808594 106.070312 186.832031 105.371094 C 196.617188 98.710938 209.1875 99.636719 219.933594 103.253906 C 230.339844 106.761719 239.675781 113.324219 246.769531 121.675781 C 250.878906 126.511719 253.628906 132.0625 256.832031 137.480469 C 258.039062 139.519531 261.1875 138.164062 260.625 135.882812 C 259.171875 129.980469 255.566406 124.644531 251.832031 119.933594 C 248.089844 115.210938 243.667969 111.085938 238.789062 107.554688 C 235.445312 105.136719 231.796875 103.007812 227.960938 101.25 C 228.566406 96.417969 232.496094 92.769531 237.21875 91.628906 C 243.074219 90.210938 249.066406 93.257812 253.753906 96.488281 C 262.847656 102.75 271.355469 112.195312 273.785156 123.222656 C 275.066406 129.023438 274.085938 134.804688 270.921875 139.773438 C 269.535156 138.777344 268.09375 137.84375 266.605469 136.980469 C 264.800781 135.933594 263.199219 138.695312 264.976562 139.769531 C 270.558594 143.152344 275.152344 148 278.53125 153.566406 C 280.15625 156.242188 281.628906 159 282.710938 161.941406 C 283.273438 163.464844 283.75 165.023438 284.148438 166.601562 C 284.574219 168.242188 284.734375 170.136719 285.585938 171.617188 C 285.652344 171.738281 285.75 171.820312 285.835938 171.921875 C 285.425781 172.152344 284.917969 172.296875 284.304688 172.296875 C 280.597656 172.289062 276.875 172.273438 273.167969 172.167969 C 273.117188 171.785156 273.066406 171.398438 272.992188 171.015625 C 272.640625 169.140625 269.882812 169.960938 270.164062 171.792969 C 270.835938 176.128906 270.117188 180.800781 269.648438 185.117188 C 269.496094 186.503906 269.335938 187.886719 269.175781 189.277344 C 268.972656 189.4375 269.242188 189.898438 269.015625 190.023438 C 269.003906 190.265625 269.015625 190.511719 269.019531 190.757812 C 268.839844 192.363281 268.660156 193.972656 268.503906 195.582031 C 268.28125 197.882812 268.089844 200.183594 267.996094 202.496094 C 267.78125 207.78125 267.921875 213.335938 269.550781 218.414062 C 271.414062 224.226562 275.511719 227.984375 280.777344 230.910156 C 284.214844 232.824219 288.140625 234.074219 292.105469 233.660156 C 292.394531 233.632812 292.671875 233.574219 292.949219 233.527344 C 287.578125 238.308594 281.335938 242.148438 274.136719 242.746094 C 265.605469 243.457031 256.015625 239.363281 252.773438 231.097656 C 254.183594 229.214844 255.246094 227.140625 255.710938 224.925781 C 256.695312 220.25 255.261719 214.679688 251.039062 212.078125 C 251.054688 212.042969 251.082031 212.019531 251.09375 211.980469 C 252.347656 207.792969 253.75 203.632812 255.039062 199.449219 C 255.671875 197.394531 256.296875 195.34375 256.914062 193.289062 C 257.296875 192.023438 257.734375 190.71875 258.054688 189.398438 C 259.195312 189.875 260.789062 189.4375 261.269531 188.015625 C 263.503906 181.421875 262.65625 173.667969 260.871094 167.0625 C 259.769531 162.992188 258.140625 158.84375 255.859375 155.160156 C 257.207031 155.359375 258.539062 155.503906 259.816406 155.609375 C 262.273438 155.808594 264.742188 155.820312 267.199219 155.652344 C 269.925781 155.464844 273.121094 155.316406 275.25 153.414062 C 276.863281 151.972656 275.933594 149.320312 274.019531 148.753906 C 271.78125 148.09375 269.207031 148.953125 266.957031 149.265625 C 264.679688 149.582031 262.355469 149.683594 260.0625 149.65625 C 257.78125 149.628906 255.46875 149.515625 253.210938 149.207031 C 252.269531 149.082031 251.339844 148.890625 250.402344 148.699219 C 250.167969 148.589844 249.921875 148.539062 249.679688 148.550781 C 248.664062 148.339844 247.652344 148.125 246.621094 147.984375 C 245.59375 147.84375 244.585938 148.144531 244.167969 149.1875 C 243.789062 150.132812 244.101562 151.261719 245.015625 151.785156 C 246.558594 152.671875 248.285156 153.363281 250.078125 153.90625 C 252.652344 158.5 254.910156 163.144531 256.128906 168.375 C 256.695312 170.796875 256.976562 173.199219 257.089844 175.597656 C 257.167969 177.285156 257.167969 178.972656 257.125 180.664062 C 257.113281 181.15625 257.097656 181.648438 257.082031 182.136719 C 257.050781 183.039062 257.011719 183.945312 256.96875 184.855469 C 256.152344 184.648438 255.21875 184.890625 254.746094 185.738281 C 254.699219 185.824219 254.667969 185.925781 254.621094 186.015625 C 254.5 186.246094 254.394531 186.484375 254.289062 186.726562 C 253.3125 186.296875 252.363281 185.757812 251.433594 185.207031 C 250.378906 184.910156 249.332031 184.589844 248.285156 184.261719 C 247.539062 184.027344 246.792969 183.792969 246.039062 183.554688 C 245.808594 183.476562 245.578125 183.40625 245.351562 183.332031 C 245.257812 182.804688 245.152344 182.273438 244.996094 181.730469 C 244.371094 179.511719 243.285156 177.425781 241.800781 175.691406 C 240.335938 173.980469 238.496094 172.613281 236.335938 171.804688 C 233.464844 170.730469 230.355469 170.742188 227.453125 171.542969 C 227.253906 171.601562 227.0625 171.660156 226.867188 171.726562 C 225.253906 172.238281 223.710938 172.972656 222.328125 173.941406 C 219.601562 170.425781 215.40625 168.039062 211.089844 167.535156 C 211.140625 167.234375 211.203125 166.9375 211.285156 166.632812 C 211.441406 166.058594 211.636719 165.484375 211.863281 164.925781 C 211.683594 164.574219 211.589844 164.203125 211.566406 163.820312 C 211.703125 164.046875 211.882812 164.238281 212.089844 164.394531 C 213.140625 165.179688 214.894531 164.972656 215.550781 163.316406 C 216.648438 160.550781 217.539062 157.394531 218.058594 154.128906 C 219.582031 144.5625 217.859375 134.070312 208.210938 129.921875 C 199.417969 126.144531 192.972656 132.363281 188.945312 139.589844 C 188.132812 136.035156 186.992188 132.507812 185.257812 129.53125 C 184.125 127.582031 182.34375 125.808594 179.996094 125.597656 C 177.460938 125.367188 175.414062 126.914062 173.765625 128.675781 C 167.34375 135.535156 162.929688 144.601562 161.5625 153.964844 C 161.316406 155.648438 161.15625 157.34375 161.113281 159.03125 C 161.074219 160.488281 162.652344 160.71875 163.46875 159.9375 C 163.492188 160.316406 163.507812 160.699219 163.46875 161.085938 C 163.398438 161.832031 163.171875 162.511719 162.859375 163.148438 C 162.828125 163.21875 162.804688 163.289062 162.769531 163.363281 C 162.363281 164.117188 161.816406 164.800781 161.164062 165.421875 C 158.648438 167.804688 155.113281 167.960938 151.855469 168.34375 C 151.792969 168.347656 151.738281 168.355469 151.675781 168.363281 C 151.511719 168.402344 151.34375 168.449219 151.179688 168.488281 C 149.457031 168.9375 147.714844 169.292969 145.960938 169.59375 C 144.898438 169.777344 143.828125 169.9375 142.761719 170.09375 C 142.375 169.886719 141.988281 169.675781 141.578125 169.511719 C 139.191406 168.570312 136.472656 168.410156 133.929688 169.136719 C 133.039062 169.390625 132.21875 169.753906 131.449219 170.191406 C 130.726562 170.609375 130.050781 171.09375 129.4375 171.648438 C 128.597656 171.804688 127.757812 171.964844 126.914062 172.101562 C 126.535156 172.160156 126.175781 172.160156 125.828125 172.113281 C 126.1875 170.75 126.074219 169.351562 126.132812 167.949219 C 126.199219 166.453125 126.347656 164.96875 126.605469 163.492188 C 126.742188 162.714844 126.902344 161.941406 127.082031 161.171875 C 127.574219 159.066406 128.21875 156.988281 129.039062 154.992188 C 130.308594 151.890625 132.015625 148.945312 134.042969 146.238281 C 138.53125 146.101562 143.015625 145.800781 147.464844 145.132812 C 150.449219 144.683594 149.597656 140.089844 146.769531 140.019531 C 144.34375 139.960938 141.917969 139.988281 139.484375 140.039062 C 140.074219 138.777344 138.308594 137.414062 137.011719 138.421875 C 136.292969 138.976562 135.605469 139.5625 134.933594 140.167969 C 130.804688 140.316406 126.671875 140.511719 122.539062 140.574219 C 118.632812 140.628906 114.71875 140.640625 110.808594 140.65625 C 108.722656 140.667969 106.640625 140.679688 104.554688 140.695312 C 102.597656 140.710938 100.433594 140.429688 98.578125 141.121094 C 97.183594 141.636719 96.519531 143.824219 98.125 144.601562 C 99.894531 145.460938 101.839844 145.464844 103.773438 145.621094 C 105.855469 145.789062 107.941406 145.9375 110.03125 146.039062 C 114.203125 146.246094 118.367188 146.335938 122.546875 146.34375 C 124.84375 146.347656 127.144531 146.347656 129.449219 146.324219 C 127.863281 148.539062 126.488281 150.910156 125.367188 153.4375 C 124.097656 156.308594 123.101562 159.273438 122.5 162.355469 C 122.191406 163.914062 121.796875 165.800781 121.644531 167.664062 C 121.53125 169.089844 121.578125 170.484375 121.921875 171.714844 C 120.507812 172.769531 118.410156 172.484375 116.730469 172.421875 C 115.769531 172.386719 114.8125 172.351562 113.855469 172.3125 C 113.832031 172.734375 113.886719 173.125 114.011719 173.484375 C 113.992188 173.535156 113.96875 173.585938 113.949219 173.644531 C 113.902344 173.820312 113.878906 173.988281 113.855469 174.164062 C 113.015625 172.898438 110.898438 173.582031 111.246094 175.289062 C 112.105469 179.46875 112.730469 183.710938 113.246094 187.949219 C 113.492188 190 113.679688 192.050781 113.832031 194.105469 C 113.996094 196.328125 113.746094 198.882812 114.746094 200.917969 C 114.773438 200.980469 114.820312 201.011719 114.855469 201.070312 C 109.3125 206.851562 109.660156 216.527344 113.59375 223.167969 C 115.667969 226.671875 118.574219 229.410156 121.890625 231.632812 C 121.308594 231.917969 120.851562 232.464844 120.824219 233.332031 C 120.464844 243.558594 109.984375 250.507812 100.382812 250.066406 C 97.203125 249.917969 94.226562 249.082031 91.460938 247.769531 C 90.394531 247.265625 89.355469 246.695312 88.355469 246.050781 C 84.304688 243.449219 80.8125 239.824219 77.941406 235.878906 C 77.566406 235.363281 77.203125 234.84375 76.851562 234.324219 C 77.507812 234.613281 78.164062 234.890625 78.820312 235.160156 C 80.546875 235.875 82.308594 236.507812 84.183594 236.859375 C 87.203125 237.4375 90.148438 237.253906 92.839844 236.273438 C 94.769531 235.570312 96.574219 234.472656 98.164062 232.886719 C 98.65625 232.394531 99.101562 231.878906 99.535156 231.359375 C 108.085938 221.234375 106.234375 206.378906 103.941406 194.269531 C 102.578125 187.085938 100.6875 179.914062 100.125 172.605469 C 100.058594 171.496094 98.953125 171.058594 98.128906 171.300781 Z M 228.835938 145.789062 C 228.835938 145.992188 228.890625 146.179688 228.988281 146.355469 C 229.078125 146.632812 229.234375 146.875 229.449219 147.078125 C 229.550781 147.152344 229.644531 147.234375 229.742188 147.308594 C 229.789062 147.347656 229.832031 147.378906 229.875 147.421875 C 230.058594 147.613281 230.261719 147.78125 230.496094 147.914062 C 230.710938 148.035156 230.933594 148.160156 231.15625 148.277344 C 231.265625 148.339844 231.378906 148.390625 231.496094 148.449219 C 231.722656 148.5625 231.953125 148.65625 232.1875 148.734375 C 232.445312 148.773438 232.699219 148.804688 232.953125 148.839844 C 233.007812 148.84375 233.058594 148.855469 233.109375 148.859375 C 233.234375 148.871094 233.351562 148.890625 233.472656 148.894531 C 233.777344 148.90625 234.144531 148.804688 234.460938 148.746094 C 234.855469 148.632812 235.207031 148.433594 235.5 148.140625 C 235.792969 147.847656 235.996094 147.5 236.101562 147.101562 C 236.214844 146.6875 236.214844 146.265625 236.101562 145.851562 C 235.988281 145.453125 235.792969 145.105469 235.5 144.8125 C 235.4375 144.738281 235.371094 144.65625 235.304688 144.585938 C 235.101562 144.359375 234.835938 144.1875 234.578125 144.027344 C 234.210938 143.800781 233.828125 143.605469 233.40625 143.5 C 233.195312 143.449219 232.972656 143.417969 232.761719 143.382812 C 232.660156 143.363281 232.5625 143.347656 232.464844 143.328125 C 232.433594 143.324219 232.410156 143.320312 232.382812 143.316406 C 232.082031 143.222656 231.78125 143.210938 231.480469 143.265625 C 231.507812 143.257812 231.53125 143.253906 231.5625 143.253906 C 231.390625 143.253906 231.214844 143.253906 231.046875 143.253906 C 230.847656 143.28125 230.648438 143.304688 230.453125 143.335938 C 230.273438 143.410156 230.09375 143.484375 229.917969 143.5625 C 229.765625 143.679688 229.617188 143.792969 229.464844 143.910156 C 229.246094 144.113281 229.09375 144.355469 229.003906 144.632812 C 228.902344 144.808594 228.851562 144.996094 228.851562 145.199219 C 228.78125 145.394531 228.78125 145.589844 228.835938 145.789062 Z M 118.078125 222.46875 C 118.527344 223.074219 119 223.652344 119.5 224.199219 C 119.402344 224.023438 119.316406 223.84375 119.230469 223.664062 C 118.832031 223.292969 118.441406 222.894531 118.078125 222.46875 Z M 253.878906 187.8125 C 254 187.449219 254.136719 187.097656 254.285156 186.75 C 254.21875 186.753906 254.148438 186.773438 254.078125 186.777344 C 254.019531 187.125 253.949219 187.46875 253.878906 187.8125 Z M 253.878906 187.8125 "/><g clip-rule="nonzero" clip-path="url(#88c7ec95a3)"><path style=" stroke:none;fill-rule:nonzero;fill:#f7b9ac;fill-opacity:1;" d="M 248.292969 184.273438 C 247.546875 184.035156 246.800781 183.804688 246.050781 183.5625 C 245.820312 183.488281 245.585938 183.417969 245.359375 183.339844 C 245.945312 186.664062 245.394531 189.730469 244.105469 192.519531 C 243.613281 193.578125 243.023438 194.597656 242.34375 195.574219 C 240.214844 198.644531 237.277344 201.308594 234.207031 203.546875 C 233.578125 204 232.949219 204.449219 232.320312 204.863281 C 229.929688 206.457031 227.449219 207.914062 224.984375 209.402344 C 223.769531 210.132812 222.378906 211.195312 220.910156 211.980469 C 220.203125 212.359375 219.480469 212.660156 218.753906 212.839844 C 218.171875 212.980469 217.589844 213.054688 217.011719 212.984375 C 214.28125 212.660156 212.621094 209.773438 211.089844 207.800781 C 209.164062 205.3125 207.304688 202.769531 205.539062 200.164062 C 200.230469 192.332031 191.472656 178.941406 200.910156 170.609375 C 201.28125 170.28125 201.664062 170.003906 202.050781 169.730469 C 202.410156 169.480469 202.773438 169.261719 203.144531 169.054688 C 204.148438 168.492188 205.195312 168.085938 206.273438 167.824219 C 207.0625 167.628906 207.859375 167.511719 208.671875 167.46875 C 209.480469 167.425781 210.292969 167.453125 211.105469 167.550781 C 211.15625 167.246094 211.21875 166.949219 211.296875 166.648438 C 211.453125 166.070312 211.652344 165.5 211.878906 164.9375 C 211.699219 164.589844 211.605469 164.214844 211.582031 163.832031 C 211.316406 163.394531 211.199219 162.832031 211.332031 162.164062 C 212.242188 157.535156 213.777344 153.105469 213.945312 148.433594 C 212.902344 148.859375 211.589844 148.632812 210.777344 147.484375 C 210.199219 147.257812 209.617188 147.03125 209.03125 146.828125 C 206.804688 146.050781 204.546875 145.4375 202.199219 145.015625 C 200.058594 144.632812 197.875 144.496094 195.695312 144.480469 C 194.820312 144.476562 193.953125 144.480469 193.085938 144.511719 C 192.546875 144.523438 192.167969 144.253906 191.9375 143.882812 C 191.265625 145.289062 190.695312 146.652344 190.214844 147.832031 C 189.71875 149.066406 188.621094 149.558594 187.636719 149.398438 C 187.566406 149.636719 187.507812 149.875 187.441406 150.109375 C 187.421875 149.851562 187.414062 149.585938 187.394531 149.324219 C 186.558594 149.09375 185.847656 148.394531 185.734375 147.226562 C 185.609375 145.894531 185.429688 144.5625 185.21875 143.226562 C 184.835938 143.84375 184.195312 144.292969 183.449219 144.199219 C 181.839844 143.996094 180.234375 143.835938 178.625 143.746094 C 177.601562 143.6875 176.578125 143.652344 175.546875 143.664062 C 173.019531 143.699219 170.539062 143.96875 168.042969 144.289062 C 165.976562 148.957031 164.617188 153.941406 163.945312 159.039062 C 163.894531 159.425781 163.714844 159.71875 163.476562 159.945312 C 163.5 160.320312 163.515625 160.703125 163.476562 161.089844 C 163.40625 161.835938 163.179688 162.515625 162.867188 163.152344 C 162.875 163.214844 162.878906 163.277344 162.882812 163.339844 C 162.851562 163.347656 162.8125 163.355469 162.777344 163.367188 C 162.375 164.121094 161.824219 164.804688 161.175781 165.425781 C 158.65625 167.808594 155.121094 167.964844 151.863281 168.347656 C 151.800781 168.351562 151.746094 168.363281 151.683594 168.367188 C 151.519531 168.410156 151.355469 168.457031 151.1875 168.492188 C 149.464844 168.941406 147.722656 169.296875 145.972656 169.597656 C 144.910156 169.78125 143.839844 169.941406 142.769531 170.097656 C 144.300781 170.925781 145.617188 172.105469 146.59375 173.609375 C 150.222656 169.667969 156.660156 167.332031 161.839844 167.226562 C 164.859375 167.167969 167.332031 168.191406 169.273438 169.859375 C 169.777344 170.289062 170.246094 170.746094 170.675781 171.253906 C 172.84375 173.820312 174.105469 177.308594 174.460938 180.84375 C 174.703125 183.28125 174.523438 185.734375 173.90625 187.921875 C 172.589844 192.570312 168.992188 196.765625 165.5 199.964844 C 160.871094 204.203125 155.566406 207.65625 150.792969 211.730469 C 150.207031 212.230469 149.332031 212.632812 148.542969 212.324219 C 145.816406 211.253906 142.972656 209.796875 140.234375 208.03125 C 139.9375 209.285156 139.210938 210.414062 138.058594 210.984375 C 136.511719 211.75 135.019531 211.945312 133.5 211.964844 C 132.050781 211.984375 130.578125 211.84375 129 211.863281 C 126.1875 211.898438 123.429688 212.59375 120.613281 212.472656 C 120.359375 212.460938 120.132812 212.394531 119.90625 212.339844 C 117.308594 211.734375 116.34375 208.632812 118.148438 206.515625 C 118.429688 206.1875 118.746094 205.871094 119.082031 205.570312 C 122.109375 202.808594 127.230469 201.015625 131.839844 201.105469 C 130.164062 199.3125 128.699219 197.367188 127.503906 195.308594 C 125.570312 191.984375 124.386719 188.355469 124.335938 184.503906 C 124.324219 183.761719 124.339844 183.019531 124.414062 182.265625 C 124.746094 179.003906 125.976562 175.65625 128.070312 173.097656 C 128.496094 172.582031 128.949219 172.097656 129.441406 171.652344 C 128.601562 171.808594 127.761719 171.96875 126.917969 172.105469 C 126.539062 172.167969 126.179688 172.167969 125.832031 172.121094 C 125.816406 172.167969 125.816406 172.21875 125.804688 172.265625 C 125.242188 174.207031 122.71875 173.988281 122.074219 172.265625 C 122.007812 172.089844 121.972656 171.902344 121.921875 171.722656 C 120.507812 172.78125 118.410156 172.492188 116.730469 172.429688 C 115.769531 172.398438 114.8125 172.359375 113.855469 172.324219 C 113.832031 172.742188 113.886719 173.132812 114.011719 173.492188 C 113.992188 173.546875 113.96875 173.597656 113.949219 173.652344 C 113.902344 173.828125 113.878906 174 113.855469 174.171875 C 113.929688 174.28125 114.011719 174.378906 114.058594 174.523438 C 114.441406 175.574219 114.808594 176.628906 115.15625 177.691406 C 115.21875 177.746094 115.269531 177.808594 115.335938 177.863281 C 115.359375 178.066406 115.375 178.269531 115.402344 178.46875 C 116.308594 181.308594 117.082031 184.183594 117.632812 187.125 C 118.03125 189.285156 118.367188 191.457031 118.621094 193.636719 C 118.8125 195.238281 119.230469 197.222656 119.050781 198.960938 C 119 199.46875 118.902344 199.957031 118.726562 200.410156 C 118.6875 200.507812 118.621094 200.59375 118.570312 200.683594 C 118.722656 201.125 118.652344 201.625 118.167969 202.054688 C 111.886719 207.597656 113.539062 216.355469 118.066406 222.464844 C 118.429688 222.890625 118.816406 223.285156 119.222656 223.660156 C 119.308594 223.839844 119.386719 224.019531 119.492188 224.195312 C 120.230469 225.003906 121.019531 225.75 121.847656 226.402344 C 126.335938 229.9375 131.769531 232.1875 137.339844 233.910156 C 140.644531 234.933594 144.003906 235.773438 147.226562 236.585938 C 147.652344 236.695312 148.078125 236.773438 148.503906 236.878906 C 148.910156 236.941406 149.308594 236.988281 149.714844 237.035156 C 149.816406 237.101562 149.921875 237.164062 150.027344 237.226562 C 158.824219 239.28125 167.761719 240.65625 176.773438 241.328125 C 177.804688 241.402344 178.839844 241.464844 179.871094 241.519531 C 183.355469 241.714844 186.832031 241.796875 190.296875 241.773438 C 191.710938 241.765625 193.117188 241.738281 194.523438 241.695312 C 207.175781 241.308594 219.695312 239.542969 232.082031 236.675781 C 233.273438 236.398438 234.46875 236.113281 235.664062 235.816406 C 237.683594 235.316406 239.699219 234.792969 241.710938 234.234375 C 242.207031 234.097656 242.640625 234.121094 243.003906 234.257812 C 246.546875 231.628906 250.292969 228.980469 251.839844 224.671875 C 252.371094 223.179688 252.566406 221.503906 252.382812 219.898438 C 252.179688 218.113281 251.488281 216.4375 250.222656 215.191406 C 250.238281 215.859375 250.128906 216.511719 249.894531 217.121094 C 249.394531 218.382812 248.335938 219.421875 246.613281 219.855469 C 246.503906 219.882812 246.394531 219.890625 246.28125 219.917969 C 246.035156 219.96875 245.789062 220.019531 245.550781 220.054688 C 242.515625 220.5 239.679688 219.625 236.632812 219.074219 C 233.472656 218.503906 230.214844 218.273438 227.183594 217.179688 C 224.273438 216.128906 223.625 213.144531 225.011719 211.078125 C 225.496094 210.355469 226.222656 209.742188 227.183594 209.363281 C 230.398438 208.097656 234.035156 207.996094 237.453125 208.128906 C 240.214844 208.234375 243.285156 208.265625 245.875 209.351562 C 246.566406 209.636719 247.230469 209.988281 247.835938 210.453125 C 247.953125 210.542969 248.0625 210.648438 248.171875 210.746094 C 249.207031 206.640625 250.125 202.496094 251.140625 198.378906 C 251.671875 196.210938 252.222656 194.054688 252.769531 191.890625 C 253.109375 190.550781 253.414062 189.140625 253.863281 187.796875 C 253.933594 187.453125 254.003906 187.109375 254.066406 186.765625 C 254.132812 186.757812 254.203125 186.742188 254.273438 186.734375 C 254.273438 186.730469 254.28125 186.726562 254.285156 186.722656 C 253.308594 186.292969 252.359375 185.753906 251.429688 185.203125 C 250.382812 184.917969 249.335938 184.597656 248.292969 184.273438 Z M 197.945312 211.890625 C 196.980469 215.785156 193.425781 218.515625 189.425781 218.617188 C 186.878906 218.683594 184.566406 217.65625 182.820312 215.984375 C 181.046875 218.691406 177.890625 220.445312 174.488281 219.902344 C 169.917969 219.175781 166.933594 214.585938 167.636719 210.136719 C 167.898438 208.503906 170.59375 208.910156 170.5 210.527344 C 170.347656 213.117188 172.175781 215.832031 174.871094 216.175781 C 177.425781 216.503906 180.042969 214.359375 180.265625 211.808594 C 180.46875 209.453125 183.355469 209.199219 184.214844 211.277344 C 185.0625 213.335938 187.40625 214.75 189.613281 214.578125 C 191.949219 214.390625 193.890625 212.636719 194.839844 210.582031 C 195.675781 208.769531 198.390625 210.101562 197.945312 211.890625 Z M 189.925781 246.785156 C 186.695312 246.78125 183.46875 246.691406 180.234375 246.511719 C 181.34375 248.511719 183.5625 249.890625 185.792969 249.632812 C 187.195312 249.46875 188.417969 248.667969 189.367188 247.582031 C 189.539062 247.386719 189.746094 247.085938 189.925781 246.785156 Z M 187.558594 248.652344 C 187.550781 248.660156 187.546875 248.660156 187.535156 248.664062 C 187.554688 248.652344 187.574219 248.640625 187.59375 248.625 C 187.582031 248.632812 187.570312 248.644531 187.558594 248.652344 Z M 212.40625 172.429688 C 212.515625 172.460938 212.625 172.476562 212.730469 172.515625 C 212.824219 172.597656 212.925781 172.671875 213.027344 172.746094 C 212.644531 172.652344 212.109375 172.484375 211.847656 172.308594 C 212.0625 172.351562 212.25 172.394531 212.40625 172.429688 Z M 219.035156 207.796875 C 219.234375 207.640625 219.4375 207.496094 219.683594 207.417969 C 219.464844 207.550781 219.253906 207.679688 219.035156 207.796875 Z M 207.757812 195.183594 C 207.777344 195.253906 207.800781 195.328125 207.820312 195.402344 C 207.695312 195.214844 207.570312 195.027344 207.445312 194.835938 C 207.550781 194.949219 207.652344 195.070312 207.757812 195.183594 Z M 217.085938 208.058594 C 217.195312 208.050781 217.359375 208.144531 217.53125 208.234375 C 217.363281 208.210938 217.21875 208.15625 217.085938 208.058594 Z M 195.058594 274.007812 C 195.042969 274.066406 195.054688 274.132812 195.042969 274.195312 C 195.023438 274.324219 194.992188 274.445312 194.96875 274.574219 C 194.980469 274.757812 194.980469 274.941406 194.9375 275.125 C 194.925781 275.441406 194.832031 275.738281 194.65625 276.011719 C 194.648438 276.03125 194.636719 276.046875 194.632812 276.066406 C 194.5625 276.316406 194.476562 276.554688 194.398438 276.800781 C 194.367188 276.914062 194.320312 277.023438 194.296875 277.140625 C 194.242188 277.347656 194.15625 277.542969 194.046875 277.722656 C 192.894531 280.542969 190.945312 283.027344 188.320312 284.828125 C 187.949219 285.082031 187.535156 285.285156 187.136719 285.503906 C 186.019531 286.488281 184.796875 287.339844 183.425781 287.925781 C 180.824219 289.039062 177.929688 289.398438 175.195312 288.484375 C 174.667969 288.304688 174.09375 288.054688 173.527344 287.757812 C 173.390625 287.726562 173.253906 287.699219 173.117188 287.660156 C 173.117188 287.621094 173.132812 287.578125 173.132812 287.542969 C 173.109375 287.003906 172.78125 286.488281 172.0625 286.261719 C 171.730469 286.160156 171.398438 286.046875 171.074219 285.9375 C 170.058594 285.601562 169.058594 285.226562 168.078125 284.808594 C 166.359375 284.070312 164.738281 283.167969 163.320312 282.003906 C 162.195312 281.074219 161.1875 279.992188 160.394531 278.65625 C 157.691406 274.085938 157.703125 267.785156 158.890625 262.742188 C 159.492188 260.164062 160.582031 257.609375 162.601562 255.820312 C 162.632812 255.792969 162.664062 255.761719 162.695312 255.734375 C 163.832031 254.757812 165.148438 254.128906 166.550781 253.734375 C 166.566406 253.855469 166.578125 253.980469 166.597656 254.105469 C 166.609375 254.1875 166.632812 254.261719 166.640625 254.335938 C 166.714844 254.800781 166.804688 255.320312 166.890625 255.664062 C 167.605469 258.550781 169.1875 261.074219 171.441406 263.046875 C 170.863281 263.703125 170.289062 264.375 169.828125 265.082031 C 169.136719 266.140625 169.398438 267.75 169.769531 268.894531 C 170.046875 269.734375 170.445312 270.492188 170.941406 271.167969 C 171.640625 272.117188 172.542969 272.882812 173.605469 273.429688 C 173.835938 276.191406 174.855469 278.878906 176.523438 281.082031 C 176.871094 281.546875 177.253906 281.980469 177.660156 282.394531 C 178.808594 283.570312 180.144531 284.558594 181.6875 285.214844 C 183.722656 286.078125 185.539062 283.273438 183.476562 282.148438 C 182.753906 281.753906 182.09375 281.28125 181.46875 280.777344 C 181.328125 280.664062 181.183594 280.554688 181.050781 280.4375 C 178.714844 278.34375 177.261719 275.445312 177.277344 272.164062 C 177.28125 271.320312 176.6875 270.597656 175.898438 270.351562 C 174.234375 269.835938 173.171875 268.425781 173.035156 266.757812 C 173.761719 265.859375 174.488281 264.949219 175.21875 264.050781 C 175.40625 263.816406 175.539062 263.566406 175.621094 263.308594 C 175.6875 263.101562 175.710938 262.894531 175.699219 262.683594 C 175.675781 262.152344 175.414062 261.644531 174.863281 261.292969 C 172.433594 259.714844 170.753906 257.316406 169.855469 254.605469 C 169.816406 254.488281 169.785156 254.367188 169.746094 254.242188 C 169.648438 253.890625 169.53125 253.441406 169.472656 253.21875 C 170.300781 253.152344 171.125 253.140625 171.941406 253.164062 C 172.6875 253.179688 173.4375 253.234375 174.183594 253.300781 C 176.816406 253.519531 179.449219 253.964844 182.027344 254.457031 C 184.582031 254.941406 187.183594 255.574219 189.5625 256.65625 C 189.941406 256.875 190.351562 257.058594 190.761719 257.230469 C 192.480469 258.179688 193.976562 259.410156 195.0625 260.957031 C 195.066406 260.964844 195.070312 260.976562 195.082031 260.980469 C 195.273438 261.253906 195.445312 261.546875 195.609375 261.839844 C 195.660156 261.929688 195.710938 262.015625 195.757812 262.105469 C 196.109375 262.785156 196.398438 263.507812 196.597656 264.285156 C 196.996094 265.863281 197.070312 267.539062 196.765625 269.136719 C 196.441406 270.867188 195.476562 272.296875 195.0625 273.988281 C 195.058594 274 195.058594 274 195.058594 274.007812 Z M 171.726562 137.546875 C 171.828125 137.390625 171.941406 137.234375 172.050781 137.078125 C 172.007812 137.238281 172.070312 137.433594 171.726562 137.546875 Z M 145.914062 177.019531 C 145.839844 176.925781 145.757812 176.832031 145.679688 176.738281 C 145.707031 176.738281 145.730469 176.738281 145.757812 176.738281 C 145.808594 176.835938 145.859375 176.929688 145.914062 177.019531 Z M 165.328125 173.035156 C 165.394531 173.074219 165.464844 173.097656 165.527344 173.132812 C 165.535156 173.140625 165.546875 173.144531 165.550781 173.148438 C 165.53125 173.148438 165.515625 173.144531 165.5 173.144531 C 165.4375 173.144531 165.378906 173.097656 165.328125 173.035156 Z M 146.75 178.101562 C 146.609375 177.917969 146.472656 177.726562 146.324219 177.546875 C 146.476562 177.699219 146.648438 177.824219 146.828125 177.925781 C 146.808594 177.988281 146.773438 178.039062 146.75 178.101562 Z M 130.007812 191.160156 C 130.125 191.480469 130.242188 191.800781 130.363281 192.113281 C 130.109375 191.605469 129.871094 191.089844 129.660156 190.566406 C 129.769531 190.761719 129.890625 190.960938 130.007812 191.160156 Z M 172.355469 136.847656 C 172.253906 136.871094 172.191406 136.90625 172.144531 136.941406 C 172.316406 136.695312 172.480469 136.445312 172.660156 136.207031 C 172.667969 136.226562 172.675781 136.25 172.683594 136.265625 C 172.839844 136.617188 172.046875 136.660156 172.355469 136.847656 Z M 172.355469 136.847656 "/></g><path style=" stroke:none;fill-rule:nonzero;fill:#f0816a;fill-opacity:1;" d="M 185.007812 142.121094 C 185.074219 142.496094 185.15625 142.863281 185.214844 143.234375 C 184.832031 143.855469 184.1875 144.300781 183.445312 144.207031 C 181.832031 144.003906 180.226562 143.84375 178.617188 143.753906 C 177.597656 143.699219 176.574219 143.660156 175.539062 143.675781 C 173.015625 143.707031 170.535156 143.976562 168.039062 144.296875 C 168.59375 143.039062 169.203125 141.800781 169.875 140.589844 C 170.449219 139.554688 171.066406 138.539062 171.722656 137.542969 C 172.066406 137.429688 172.003906 137.234375 172.046875 137.074219 C 172.078125 137.027344 172.113281 136.980469 172.140625 136.9375 C 172.1875 136.898438 172.246094 136.867188 172.347656 136.84375 C 172.042969 136.648438 172.835938 136.613281 172.679688 136.261719 C 172.667969 136.242188 172.664062 136.21875 172.65625 136.199219 C 173.148438 135.519531 173.632812 134.835938 174.167969 134.179688 C 175.34375 132.734375 176.84375 130.503906 178.628906 129.769531 C 180.007812 129.203125 180.988281 130.234375 181.664062 131.40625 C 181.953125 131.898438 182.1875 132.417969 182.371094 132.859375 C 183.613281 135.808594 184.433594 138.949219 185.007812 142.121094 Z M 245.890625 209.363281 C 243.296875 208.277344 240.230469 208.25 237.46875 208.140625 C 234.050781 208.003906 230.410156 208.113281 227.199219 209.378906 C 226.230469 209.761719 225.507812 210.371094 225.027344 211.09375 C 223.644531 213.164062 224.289062 216.144531 227.199219 217.191406 C 230.230469 218.289062 233.488281 218.519531 236.644531 219.089844 C 239.695312 219.640625 242.527344 220.519531 245.5625 220.066406 C 245.804688 220.03125 246.050781 219.980469 246.296875 219.929688 C 246.40625 219.90625 246.511719 219.898438 246.625 219.867188 C 248.347656 219.429688 249.410156 218.394531 249.90625 217.136719 C 250.148438 216.53125 250.253906 215.875 250.238281 215.203125 C 249.808594 214.78125 249.332031 214.390625 248.761719 214.085938 C 247.957031 213.65625 247.890625 212.871094 248.222656 212.269531 C 248.058594 211.964844 247.980469 211.597656 248.089844 211.167969 C 248.121094 211.035156 248.152344 210.898438 248.1875 210.765625 C 248.082031 210.667969 247.972656 210.5625 247.855469 210.472656 C 247.246094 210 246.578125 209.652344 245.890625 209.363281 Z M 213.863281 145.355469 C 213.527344 142.292969 212.222656 139.21875 210.109375 136.929688 C 209.179688 135.921875 208.105469 135.050781 206.863281 134.421875 C 204.460938 133.203125 202.324219 133.179688 200.429688 133.910156 C 196.664062 135.359375 193.871094 139.808594 191.925781 143.890625 C 192.160156 144.261719 192.535156 144.535156 193.074219 144.519531 C 193.941406 144.496094 194.8125 144.488281 195.683594 144.492188 C 197.867188 144.503906 200.046875 144.640625 202.191406 145.023438 C 204.539062 145.445312 206.792969 146.054688 209.023438 146.835938 C 209.609375 147.039062 210.1875 147.265625 210.769531 147.492188 C 211.582031 148.640625 212.894531 148.863281 213.9375 148.441406 C 213.980469 147.417969 213.980469 146.398438 213.863281 145.355469 Z M 119.085938 205.578125 C 118.75 205.886719 118.4375 206.203125 118.15625 206.527344 C 116.347656 208.640625 117.316406 211.742188 119.910156 212.347656 C 120.144531 212.398438 120.363281 212.464844 120.621094 212.480469 C 123.433594 212.601562 126.191406 211.90625 129.003906 211.871094 C 130.582031 211.851562 132.054688 211.992188 133.503906 211.976562 C 135.023438 211.957031 136.515625 211.757812 138.0625 210.992188 C 139.214844 210.425781 139.9375 209.292969 140.242188 208.042969 C 137.214844 206.097656 134.320312 203.765625 131.847656 201.117188 C 127.234375 201.027344 122.117188 202.816406 119.085938 205.578125 Z M 119.085938 205.578125 "/><path style=" stroke:none;fill-rule:nonzero;fill:#f794c6;fill-opacity:1;" d="M 228.484375 265.546875 C 229.488281 266.351562 230.488281 267.179688 231.613281 267.800781 C 231.609375 268.871094 231.027344 269.925781 229.671875 270.394531 C 225.570312 271.804688 220.929688 271.691406 216.628906 271.859375 C 214.042969 271.957031 211.457031 271.972656 208.875 271.90625 C 208.484375 271.980469 208.085938 272.039062 207.699219 272.074219 C 205.828125 272.25 203.898438 272.339844 202.015625 272.363281 C 201.53125 272.367188 201.085938 272.253906 200.683594 272.070312 C 201.332031 270.191406 201.535156 268.101562 201.421875 266.277344 C 201.304688 264.375 200.84375 262.523438 200.074219 260.816406 C 199.34375 259.195312 198.332031 257.707031 197.050781 256.429688 C 195.878906 255.269531 194.5625 254.328125 193.15625 253.542969 C 192.160156 252.992188 191.121094 252.511719 190.042969 252.109375 C 189.796875 252.015625 189.542969 251.933594 189.292969 251.84375 C 189.5 251.738281 189.691406 251.601562 189.886719 251.472656 C 190.574219 251.046875 191.214844 250.5625 191.753906 249.953125 C 192.386719 249.242188 192.957031 248.390625 193.371094 247.472656 C 193.480469 247.226562 193.578125 246.980469 193.664062 246.730469 C 194.152344 246.722656 194.636719 246.71875 195.125 246.703125 C 196.402344 246.667969 197.683594 246.625 198.957031 246.5625 C 200.300781 246.496094 201.648438 246.414062 202.988281 246.320312 C 205.339844 246.15625 212.3125 245.417969 213.449219 245.273438 C 216.792969 244.839844 223.570312 243.617188 223.640625 243.601562 C 223.695312 243.800781 223.789062 243.984375 223.921875 244.148438 C 223.941406 244.171875 223.957031 244.195312 223.980469 244.21875 C 224.210938 244.464844 224.558594 244.625 224.988281 244.683594 C 225.066406 244.691406 225.125 244.726562 225.210938 244.730469 C 227.304688 244.796875 229.390625 246.335938 229.464844 248.53125 C 229.554688 251.164062 227.363281 252.457031 225.046875 252.847656 C 221.933594 253.359375 218.671875 253.316406 215.527344 253.445312 C 213.515625 253.527344 211.507812 253.5625 209.496094 253.566406 C 208.457031 253.574219 207.417969 253.5625 206.378906 253.539062 C 206.023438 253.535156 205.675781 253.539062 205.320312 253.53125 C 204.765625 253.515625 204.394531 253.769531 204.179688 254.125 C 203.875 254.613281 203.890625 255.28125 204.226562 255.773438 C 204.453125 256.109375 204.804688 256.359375 205.320312 256.390625 C 206.242188 256.449219 207.167969 256.496094 208.09375 256.542969 C 208.273438 256.550781 208.457031 256.5625 208.636719 256.570312 C 211.304688 256.703125 213.96875 256.777344 216.636719 256.777344 C 217.097656 256.777344 217.558594 256.777344 218.015625 256.773438 C 218.078125 256.847656 218.109375 256.929688 218.191406 257 C 219.003906 257.683594 219.820312 258.359375 220.632812 259.042969 C 222.089844 260.277344 223.542969 261.515625 225.027344 262.722656 C 225.890625 263.425781 226.753906 264.128906 227.617188 264.832031 C 227.902344 265.074219 228.191406 265.316406 228.484375 265.546875 Z M 158.878906 249.769531 C 158.871094 249.707031 158.867188 249.648438 158.855469 249.589844 C 158.847656 249.601562 158.859375 249.683594 158.878906 249.769531 Z M 267.207031 155.660156 C 269.929688 155.472656 273.125 155.328125 275.253906 153.421875 C 276.871094 151.984375 275.941406 149.332031 274.023438 148.765625 C 271.785156 148.101562 269.210938 148.960938 266.960938 149.273438 C 264.683594 149.589844 262.363281 149.695312 260.066406 149.664062 C 257.789062 149.636719 255.472656 149.523438 253.21875 149.21875 C 252.273438 149.089844 251.34375 148.902344 250.40625 148.707031 C 250.554688 148.773438 250.695312 148.847656 250.828125 148.972656 C 252.78125 150.765625 254.445312 152.878906 255.867188 155.171875 C 257.210938 155.367188 258.542969 155.515625 259.820312 155.617188 C 262.277344 155.816406 264.746094 155.832031 267.207031 155.660156 Z M 229.449219 147.074219 C 229.550781 147.148438 229.644531 147.230469 229.742188 147.304688 C 229.789062 147.34375 229.832031 147.375 229.875 147.417969 C 230.058594 147.605469 230.261719 147.777344 230.496094 147.910156 C 230.710938 148.03125 230.933594 148.15625 231.15625 148.273438 C 231.265625 148.335938 231.378906 148.386719 231.496094 148.441406 C 231.722656 148.554688 231.953125 148.652344 232.1875 148.730469 C 232.445312 148.769531 232.699219 148.800781 232.953125 148.835938 C 233.007812 148.839844 233.058594 148.847656 233.109375 148.855469 C 233.234375 148.867188 233.351562 148.886719 233.472656 148.890625 C 233.777344 148.902344 234.144531 148.800781 234.460938 148.742188 C 234.855469 148.628906 235.207031 148.429688 235.5 148.136719 C 235.792969 147.84375 235.996094 147.492188 236.101562 147.097656 C 236.214844 146.683594 236.214844 146.261719 236.101562 145.847656 C 235.988281 145.449219 235.792969 145.101562 235.5 144.808594 C 235.4375 144.730469 235.371094 144.652344 235.304688 144.582031 C 235.101562 144.355469 234.835938 144.183594 234.578125 144.023438 C 234.210938 143.796875 233.828125 143.597656 233.40625 143.496094 C 233.195312 143.441406 232.972656 143.414062 232.761719 143.378906 C 232.660156 143.359375 232.5625 143.34375 232.464844 143.324219 C 232.433594 143.320312 232.410156 143.316406 232.382812 143.3125 C 232.082031 143.214844 231.78125 143.207031 231.480469 143.257812 C 231.507812 143.253906 231.53125 143.25 231.5625 143.25 C 231.390625 143.25 231.214844 143.25 231.046875 143.25 C 230.847656 143.277344 230.648438 143.300781 230.453125 143.328125 C 230.273438 143.40625 230.09375 143.480469 229.917969 143.554688 C 229.765625 143.675781 229.617188 143.789062 229.464844 143.90625 C 229.246094 144.109375 229.09375 144.351562 229.003906 144.628906 C 228.902344 144.804688 228.851562 144.992188 228.851562 145.195312 C 228.800781 145.394531 228.800781 145.589844 228.851562 145.789062 C 228.851562 145.992188 228.902344 146.179688 229.003906 146.355469 C 229.078125 146.632812 229.234375 146.871094 229.449219 147.074219 Z M 244.171875 149.199219 C 243.792969 150.140625 244.105469 151.269531 245.019531 151.796875 C 246.566406 152.683594 248.289062 153.371094 250.082031 153.914062 C 249.515625 152.90625 248.941406 151.898438 248.347656 150.886719 C 247.667969 149.722656 248.617188 148.617188 249.6875 148.5625 C 248.671875 148.347656 247.65625 148.136719 246.625 147.996094 C 245.597656 147.851562 244.589844 148.148438 244.171875 149.199219 Z M 134.054688 146.253906 C 138.546875 146.117188 143.03125 145.8125 147.476562 145.148438 C 150.460938 144.699219 149.613281 140.105469 146.785156 140.035156 C 144.355469 139.972656 141.929688 140 139.5 140.054688 C 139.417969 140.222656 139.304688 140.390625 139.136719 140.550781 C 137.292969 142.28125 135.589844 144.203125 134.054688 146.253906 Z M 177.253906 246.699219 C 177.214844 246.578125 177.191406 246.445312 177.160156 246.316406 C 177.042969 246.308594 176.921875 246.296875 176.804688 246.289062 C 175.164062 246.164062 173.523438 246.023438 171.886719 245.855469 C 169.0625 245.566406 166.25 245.207031 163.445312 244.78125 C 162.585938 244.648438 161.726562 244.511719 160.867188 244.371094 C 160.785156 244.453125 160.71875 244.542969 160.632812 244.613281 C 160.898438 244.40625 160.355469 244.894531 160.367188 244.851562 C 160.242188 244.996094 160.125 245.152344 160.003906 245.289062 C 159.984375 245.3125 159.933594 245.378906 159.894531 245.429688 C 159.652344 245.777344 159.449219 246.136719 159.265625 246.515625 C 159.242188 246.570312 159.21875 246.632812 159.210938 246.65625 C 159.167969 246.78125 159.125 246.90625 159.09375 247.03125 C 159.027344 247.261719 158.96875 247.496094 158.925781 247.738281 C 158.90625 247.847656 158.894531 247.953125 158.875 248.066406 C 158.875 248.074219 158.875 248.074219 158.875 248.078125 C 158.875 248.085938 158.875 248.09375 158.875 248.101562 C 158.855469 248.347656 158.835938 248.585938 158.835938 248.828125 C 158.835938 249.074219 158.847656 249.316406 158.871094 249.558594 C 158.875 249.632812 158.882812 249.703125 158.894531 249.773438 C 158.914062 249.863281 158.9375 249.953125 158.941406 249.972656 C 158.992188 250.207031 159.054688 250.441406 159.128906 250.667969 C 159.167969 250.78125 159.21875 250.894531 159.246094 251.007812 C 159.480469 251.457031 159.710938 251.882812 160 252.292969 C 160.058594 252.382812 160.121094 252.472656 160.183594 252.5625 C 160.214844 252.609375 160.242188 252.652344 160.265625 252.679688 C 160.25 252.65625 160.234375 252.636719 160.207031 252.601562 C 160.28125 252.695312 160.355469 252.792969 160.433594 252.894531 C 161.507812 252.019531 162.699219 251.332031 163.972656 250.800781 C 163.984375 250.769531 165.769531 250.117188 165.9375 250.121094 C 168.058594 249.527344 170.332031 249.289062 172.628906 249.300781 C 173.773438 249.304688 174.925781 249.363281 176.0625 249.476562 C 176.972656 249.566406 177.890625 249.660156 178.828125 249.761719 C 178.839844 249.714844 178.84375 249.664062 178.855469 249.613281 C 178.117188 248.761719 177.574219 247.765625 177.253906 246.699219 Z M 129.660156 190.566406 C 129.773438 190.769531 129.890625 190.960938 130.007812 191.160156 C 130.125 191.480469 130.242188 191.800781 130.363281 192.113281 C 132.867188 197.097656 137.421875 201.1875 142.355469 204.199219 C 144.480469 205.496094 146.660156 206.582031 148.777344 207.464844 C 153.074219 203.929688 157.679688 200.761719 161.824219 197.042969 C 162.015625 196.878906 162.195312 196.703125 162.378906 196.527344 C 164.882812 194.199219 167.167969 191.539062 168.582031 188.578125 C 170.128906 185.332031 170.636719 181.742188 169.234375 177.875 C 168.496094 175.84375 167.207031 174.1875 165.554688 173.148438 C 165.535156 173.148438 165.523438 173.144531 165.503906 173.144531 C 165.441406 173.144531 165.386719 173.097656 165.328125 173.035156 C 164.625 172.625 163.875 172.3125 163.058594 172.148438 C 162.25 171.988281 161.402344 171.929688 160.507812 172.046875 C 156.609375 172.566406 152.011719 174.398438 149.398438 177.449219 C 148.605469 178.375 147.613281 178.382812 146.835938 177.925781 C 146.8125 177.988281 146.777344 178.039062 146.761719 178.101562 C 146.617188 177.917969 146.480469 177.726562 146.335938 177.546875 C 146.179688 177.394531 146.042969 177.214844 145.925781 177.019531 C 145.847656 176.925781 145.769531 176.832031 145.6875 176.738281 C 145.277344 176.707031 144.882812 176.503906 144.617188 176.023438 C 144.058594 175.019531 143.285156 174.21875 142.386719 173.617188 C 142.109375 173.425781 141.8125 173.277344 141.511719 173.125 C 139.078125 171.921875 136.003906 171.96875 133.578125 173.378906 C 129.589844 175.703125 128.117188 180.769531 128.394531 185.125 C 128.519531 187.039062 128.976562 188.847656 129.660156 190.566406 Z M 122.558594 140.589844 C 118.652344 140.648438 114.738281 140.65625 110.828125 140.675781 C 108.742188 140.6875 106.660156 140.699219 104.574219 140.714844 C 102.617188 140.730469 100.449219 140.449219 98.59375 141.140625 C 97.203125 141.652344 96.535156 143.84375 98.140625 144.617188 C 99.914062 145.476562 101.859375 145.484375 103.792969 145.636719 C 105.875 145.808594 107.960938 145.953125 110.046875 146.058594 C 114.222656 146.265625 118.386719 146.355469 122.566406 146.359375 C 124.863281 146.367188 127.164062 146.367188 129.46875 146.34375 C 131.070312 144.105469 132.902344 142.035156 134.960938 140.1875 C 130.820312 140.339844 126.691406 140.535156 122.558594 140.589844 Z M 213.027344 172.746094 C 213.242188 172.804688 213.414062 172.832031 213.4375 172.824219 C 215.96875 173.9375 218.054688 175.996094 220.238281 177.804688 C 221.429688 178.789062 223.179688 178.152344 223.578125 176.949219 C 224.234375 176.582031 224.921875 176.261719 225.636719 175.972656 C 227.546875 175.203125 229.605469 174.785156 231.640625 174.894531 C 232.492188 174.9375 233.335938 175.050781 234.164062 175.292969 C 235.164062 175.585938 236.070312 176.082031 236.886719 176.703125 C 236.972656 176.859375 237.066406 177.011719 237.144531 177.171875 C 237.203125 177.128906 237.25 177.078125 237.3125 177.042969 C 238.699219 178.238281 239.777344 179.828125 240.445312 181.519531 C 240.582031 181.867188 240.6875 182.214844 240.792969 182.558594 C 241.464844 184.808594 241.398438 186.953125 240.808594 188.953125 C 240.714844 189.28125 239.175781 192.640625 238.230469 193.882812 C 236.621094 195.996094 234.535156 197.855469 232.382812 199.417969 C 228.882812 201.957031 225.109375 204.09375 221.40625 206.308594 C 220.84375 206.644531 220.273438 207.046875 219.6875 207.414062 C 219.441406 207.488281 219.238281 207.636719 219.039062 207.792969 C 218.84375 207.902344 218.644531 208 218.441406 208.085938 C 218.0625 208.242188 217.78125 208.273438 217.539062 208.234375 C 217.371094 208.140625 217.203125 208.050781 217.097656 208.058594 C 216.78125 207.820312 216.515625 207.410156 216.132812 206.933594 C 215.363281 205.980469 214.613281 205.011719 213.875 204.03125 C 213.097656 202.996094 212.332031 201.949219 211.582031 200.894531 C 210.300781 199.097656 209.042969 197.265625 207.828125 195.402344 C 207.808594 195.328125 207.785156 195.253906 207.765625 195.183594 C 207.664062 195.070312 207.558594 194.949219 207.457031 194.835938 C 206.167969 192.828125 204.949219 190.773438 203.859375 188.667969 C 201.980469 185.03125 200.492188 180.664062 202.175781 176.664062 C 203.441406 173.667969 206.472656 172.03125 209.640625 171.996094 C 209.800781 171.996094 209.953125 172.019531 210.109375 172.023438 C 210.621094 172.078125 211.304688 172.195312 211.851562 172.308594 C 212.105469 172.484375 212.644531 172.652344 213.027344 172.746094 Z M 213.027344 172.746094 "/><g clip-rule="nonzero" clip-path="url(#b748ac78cb)"><path style=" stroke:none;fill-rule:nonzero;fill:#020201;fill-opacity:1;" d="M 208.667969 167.46875 C 207.859375 167.511719 207.0625 167.632812 206.269531 167.824219 C 205.195312 168.082031 204.144531 168.492188 203.140625 169.054688 C 202.765625 169.261719 202.402344 169.480469 202.042969 169.730469 C 201.65625 170.003906 201.273438 170.28125 200.90625 170.609375 C 191.46875 178.945312 200.226562 192.332031 205.535156 200.164062 C 207.300781 202.769531 209.15625 205.308594 211.085938 207.800781 C 212.617188 209.773438 214.273438 212.660156 217.007812 212.984375 C 217.585938 213.054688 218.167969 212.980469 218.75 212.839844 C 219.476562 212.664062 220.199219 212.363281 220.90625 211.980469 C 222.371094 211.191406 223.765625 210.132812 224.980469 209.402344 C 227.441406 207.917969 229.921875 206.460938 232.316406 204.863281 C 232.949219 204.445312 233.578125 204 234.199219 203.546875 C 237.277344 201.308594 240.214844 198.644531 242.339844 195.574219 C 243.019531 194.597656 243.609375 193.578125 244.101562 192.519531 C 245.390625 189.730469 245.945312 186.664062 245.355469 183.339844 C 245.261719 182.8125 245.15625 182.285156 245.003906 181.742188 C 244.375 179.523438 243.289062 177.433594 241.804688 175.703125 C 240.34375 173.988281 238.5 172.625 236.339844 171.8125 C 233.46875 170.742188 230.363281 170.75 227.457031 171.554688 C 227.261719 171.609375 227.066406 171.671875 226.875 171.738281 C 225.257812 172.246094 223.714844 172.984375 222.332031 173.953125 C 219.605469 170.433594 215.410156 168.050781 211.09375 167.542969 C 210.292969 167.453125 209.480469 167.425781 208.667969 167.46875 Z M 213.433594 172.824219 C 215.960938 173.9375 218.050781 175.996094 220.234375 177.804688 C 221.425781 178.789062 223.175781 178.152344 223.574219 176.949219 C 224.230469 176.582031 224.917969 176.261719 225.632812 175.972656 C 227.542969 175.203125 229.601562 174.785156 231.636719 174.894531 C 232.488281 174.9375 233.332031 175.050781 234.15625 175.292969 C 235.160156 175.585938 236.066406 176.082031 236.882812 176.703125 C 237.027344 176.8125 237.171875 176.925781 237.308594 177.042969 C 238.695312 178.238281 239.769531 179.828125 240.441406 181.519531 C 240.578125 181.867188 240.683594 182.214844 240.785156 182.558594 C 241.460938 184.808594 241.394531 186.953125 240.804688 188.953125 C 240.710938 189.28125 239.171875 192.640625 238.226562 193.882812 C 236.617188 195.996094 234.53125 197.855469 232.378906 199.417969 C 228.878906 201.957031 225.101562 204.09375 221.402344 206.308594 C 220.839844 206.644531 220.269531 207.046875 219.683594 207.414062 C 219.46875 207.546875 219.253906 207.675781 219.035156 207.792969 C 218.835938 207.902344 218.640625 208 218.4375 208.085938 C 218.058594 208.242188 217.777344 208.273438 217.535156 208.234375 C 217.371094 208.207031 217.222656 208.152344 217.089844 208.058594 C 216.773438 207.820312 216.511719 207.410156 216.128906 206.933594 C 215.359375 205.980469 214.609375 205.011719 213.871094 204.03125 C 213.09375 202.996094 212.328125 201.949219 211.578125 200.894531 C 210.296875 199.097656 209.035156 197.265625 207.824219 195.402344 C 207.699219 195.214844 207.574219 195.027344 207.449219 194.835938 C 206.160156 192.828125 204.945312 190.773438 203.851562 188.667969 C 201.972656 185.03125 200.488281 180.664062 202.171875 176.664062 C 203.4375 173.667969 206.46875 172.03125 209.636719 171.996094 C 209.757812 171.996094 209.925781 172.007812 210.105469 172.023438 C 210.617188 172.078125 212.257812 172.394531 212.414062 172.429688 C 212.558594 172.464844 212.679688 172.496094 212.734375 172.515625 C 212.96875 172.601562 213.195312 172.71875 213.433594 172.824219 Z M 122.082031 172.28125 C 122.015625 172.105469 121.984375 171.917969 121.933594 171.738281 C 121.585938 170.507812 121.539062 169.113281 121.652344 167.6875 C 121.804688 165.824219 122.199219 163.9375 122.507812 162.378906 C 123.113281 159.296875 124.109375 156.332031 125.378906 153.460938 C 126.496094 150.941406 127.871094 148.5625 129.457031 146.347656 C 131.0625 144.109375 132.894531 142.042969 134.953125 140.191406 C 135.625 139.585938 136.3125 139 137.03125 138.445312 C 138.328125 137.433594 140.097656 138.796875 139.503906 140.0625 C 139.421875 140.234375 139.308594 140.398438 139.140625 140.558594 C 137.289062 142.285156 135.585938 144.207031 134.050781 146.257812 C 132.03125 148.96875 130.316406 151.910156 129.046875 155.011719 C 128.230469 157.007812 127.578125 159.085938 127.09375 161.191406 C 126.914062 161.960938 126.753906 162.734375 126.617188 163.511719 C 126.359375 164.984375 126.210938 166.472656 126.144531 167.96875 C 126.082031 169.371094 126.195312 170.769531 125.835938 172.132812 C 125.820312 172.179688 125.820312 172.234375 125.808594 172.28125 C 125.246094 174.21875 122.730469 174.003906 122.082031 172.28125 Z M 163.945312 159.046875 C 163.894531 159.433594 163.714844 159.726562 163.476562 159.953125 C 162.660156 160.730469 161.089844 160.5 161.121094 159.046875 C 161.164062 157.355469 161.324219 155.667969 161.570312 153.980469 C 162.933594 144.617188 167.355469 135.550781 173.773438 128.691406 C 175.421875 126.933594 177.464844 125.378906 180.007812 125.613281 C 182.359375 125.824219 184.132812 127.59375 185.265625 129.542969 C 187 132.523438 188.140625 136.050781 188.953125 139.605469 C 192.976562 132.382812 199.429688 126.160156 208.21875 129.9375 C 217.871094 134.085938 219.59375 144.578125 218.066406 154.140625 C 217.550781 157.410156 216.652344 160.566406 215.5625 163.328125 C 214.90625 164.984375 213.152344 165.195312 212.101562 164.410156 C 211.894531 164.253906 211.71875 164.058594 211.578125 163.832031 C 211.3125 163.394531 211.195312 162.832031 211.328125 162.164062 C 212.238281 157.535156 213.773438 153.109375 213.941406 148.433594 C 213.980469 147.417969 213.976562 146.398438 213.863281 145.355469 C 213.527344 142.292969 212.222656 139.21875 210.109375 136.929688 C 209.179688 135.921875 208.105469 135.050781 206.863281 134.421875 C 204.460938 133.203125 202.324219 133.179688 200.429688 133.910156 C 196.664062 135.359375 193.871094 139.808594 191.925781 143.890625 C 191.257812 145.296875 190.6875 146.664062 190.203125 147.84375 C 189.707031 149.074219 188.613281 149.566406 187.625 149.40625 C 187.542969 149.390625 187.464844 149.359375 187.386719 149.335938 C 186.550781 149.105469 185.835938 148.40625 185.722656 147.234375 C 185.601562 145.902344 185.421875 144.570312 185.210938 143.234375 C 185.148438 142.863281 185.066406 142.496094 185 142.121094 C 184.429688 138.949219 183.609375 135.808594 182.375 132.863281 C 182.191406 132.425781 181.953125 131.90625 181.667969 131.410156 C 180.988281 130.238281 180.011719 129.210938 178.632812 129.777344 C 176.847656 130.507812 175.347656 132.734375 174.171875 134.183594 C 173.636719 134.839844 173.152344 135.519531 172.660156 136.207031 C 172.484375 136.453125 172.320312 136.695312 172.144531 136.941406 C 172.113281 136.988281 172.078125 137.03125 172.050781 137.078125 C 171.941406 137.234375 171.835938 137.386719 171.726562 137.546875 C 171.070312 138.539062 170.457031 139.558594 169.878906 140.597656 C 169.210938 141.804688 168.605469 143.042969 168.042969 144.300781 C 165.976562 148.96875 164.621094 153.953125 163.945312 159.046875 Z M 81.6875 165.367188 C 78.804688 162.859375 83.324219 156.375 84.808594 154.050781 C 87.285156 150.183594 90.339844 146.742188 93.851562 143.789062 C 100.894531 137.867188 109.476562 134.519531 118.503906 133.097656 C 119.796875 132.894531 119.835938 131.285156 119.042969 130.539062 C 127.105469 121.621094 136.5 114.078125 147.714844 109.480469 C 158.964844 104.867188 171.875 102.667969 183.996094 104.195312 C 184.203125 104.226562 184.390625 104.203125 184.558594 104.140625 C 184.683594 105.144531 185.808594 106.070312 186.832031 105.371094 C 196.617188 98.710938 209.1875 99.636719 219.933594 103.253906 C 230.339844 106.761719 239.675781 113.324219 246.769531 121.675781 C 250.878906 126.511719 253.628906 132.0625 256.832031 137.480469 C 258.039062 139.519531 261.1875 138.164062 260.625 135.882812 C 259.171875 129.980469 255.566406 124.644531 251.832031 119.933594 C 248.089844 115.210938 243.667969 111.085938 238.789062 107.554688 C 235.445312 105.136719 231.796875 103.007812 227.960938 101.25 C 228.566406 96.417969 232.496094 92.769531 237.21875 91.628906 C 243.074219 90.210938 249.066406 93.257812 253.753906 96.488281 C 262.847656 102.75 271.355469 112.195312 273.785156 123.222656 C 275.066406 129.023438 274.085938 134.804688 270.921875 139.773438 C 269.535156 138.777344 268.09375 137.84375 266.605469 136.980469 C 264.800781 135.933594 263.199219 138.695312 264.976562 139.769531 C 270.558594 143.152344 275.152344 148 278.53125 153.566406 C 280.15625 156.242188 281.628906 159 282.710938 161.941406 C 283.273438 163.464844 283.75 165.023438 284.148438 166.601562 C 284.574219 168.242188 284.734375 170.136719 285.585938 171.617188 C 285.652344 171.738281 285.75 171.820312 285.835938 171.921875 C 286.941406 173.195312 289.40625 172.898438 289.785156 171.070312 C 290.484375 167.710938 288.683594 163.464844 287.421875 160.390625 C 286.082031 157.109375 284.453125 153.914062 282.355469 151.050781 C 280.0625 147.90625 277.40625 145.089844 274.484375 142.585938 C 279.125 138.113281 280.132812 131.105469 279.335938 124.921875 C 278.453125 118.066406 275.324219 111.675781 271.167969 106.21875 C 266.910156 100.628906 261.535156 95.742188 255.640625 91.921875 C 249.886719 88.195312 242.355469 85.421875 235.523438 87.617188 C 230.089844 89.363281 225.035156 94.089844 224.734375 99.871094 C 218.230469 97.328125 211.285156 95.902344 204.402344 96.039062 C 197.523438 96.175781 190.742188 98.070312 185.46875 102.578125 C 185.453125 101.933594 185.132812 101.324219 184.40625 101.207031 C 175.554688 99.757812 166.90625 99.75 158.226562 101.527344 C 156.53125 97.113281 152.183594 93.398438 148.117188 91.597656 C 141.648438 88.726562 134.367188 89.703125 127.992188 92.332031 C 121.902344 94.84375 116.355469 98.667969 111.863281 103.488281 C 107.566406 108.089844 103.363281 113.984375 102.96875 120.476562 C 102.707031 124.734375 105.007812 129.382812 108.628906 131.445312 C 101.390625 133.347656 94.632812 137.246094 89.128906 142.226562 C 85.191406 145.789062 81.808594 150.035156 79.3125 154.726562 C 77.15625 158.796875 74.597656 165.066406 79.445312 168.285156 C 80.414062 168.929688 81.476562 168.371094 81.972656 167.519531 C 82.359375 166.847656 82.402344 165.988281 81.6875 165.367188 Z M 107.570312 124.234375 C 106.414062 121.03125 107.546875 117.375 109.050781 114.496094 C 112.054688 108.757812 116.878906 103.8125 122.257812 100.25 C 127.886719 96.519531 134.890625 93.484375 141.78125 94.324219 C 144.820312 94.691406 147.722656 95.960938 150.054688 97.941406 C 151.679688 99.320312 152.71875 100.929688 153.722656 102.621094 C 144.09375 105.285156 134.957031 109.980469 127.183594 116.246094 C 122.613281 119.921875 118.601562 124.191406 115.394531 129.109375 C 115.308594 129.238281 115.285156 129.363281 115.242188 129.496094 C 115.039062 129.378906 114.808594 129.296875 114.515625 129.308594 C 111.34375 129.421875 108.628906 127.15625 107.570312 124.234375 Z M 197.945312 211.890625 C 196.980469 215.785156 193.425781 218.515625 189.425781 218.617188 C 186.878906 218.683594 184.566406 217.65625 182.820312 215.984375 C 181.046875 218.691406 177.890625 220.445312 174.488281 219.902344 C 169.917969 219.175781 166.933594 214.585938 167.636719 210.136719 C 167.898438 208.503906 170.59375 208.910156 170.5 210.527344 C 170.347656 213.117188 172.175781 215.832031 174.871094 216.175781 C 177.425781 216.503906 180.042969 214.359375 180.265625 211.808594 C 180.46875 209.453125 183.355469 209.199219 184.214844 211.277344 C 185.0625 213.335938 187.40625 214.75 189.613281 214.578125 C 191.949219 214.390625 193.890625 212.636719 194.839844 210.582031 C 195.675781 208.769531 198.390625 210.101562 197.945312 211.890625 Z M 300.800781 224.128906 C 298.019531 226.125 295.042969 228.203125 291.542969 228.570312 C 288.304688 228.914062 285.175781 227.742188 282.414062 226.148438 C 277.855469 223.511719 274.871094 220.554688 273.488281 215.441406 C 272.1875 210.621094 272.105469 205.503906 272.199219 200.539062 C 272.300781 195.25 272.6875 189.945312 273.058594 184.667969 C 273.351562 180.550781 273.746094 176.289062 273.167969 172.167969 C 273.117188 171.785156 273.066406 171.398438 272.992188 171.015625 C 272.640625 169.140625 269.882812 169.960938 270.164062 171.792969 C 270.835938 176.128906 270.117188 180.800781 269.648438 185.117188 C 269.496094 186.503906 269.335938 187.886719 269.175781 189.277344 C 269.117188 189.773438 269.070312 190.265625 269.015625 190.757812 C 268.835938 192.363281 268.65625 193.972656 268.5 195.582031 C 268.277344 197.882812 268.082031 200.183594 267.988281 202.496094 C 267.777344 207.78125 267.917969 213.335938 269.546875 218.414062 C 271.40625 224.226562 275.503906 227.984375 280.773438 230.910156 C 284.210938 232.824219 288.132812 234.074219 292.101562 233.660156 C 292.386719 233.632812 292.667969 233.574219 292.945312 233.527344 C 287.574219 238.308594 281.332031 242.148438 274.132812 242.746094 C 265.601562 243.457031 256.011719 239.363281 252.769531 231.097656 C 254.179688 229.214844 255.242188 227.140625 255.707031 224.925781 C 256.691406 220.25 255.257812 214.679688 251.035156 212.078125 C 251.050781 212.042969 251.078125 212.019531 251.085938 211.980469 C 252.34375 207.792969 253.746094 203.632812 255.035156 199.449219 C 255.667969 197.394531 256.289062 195.34375 256.910156 193.289062 C 257.292969 192.023438 257.730469 190.71875 258.050781 189.398438 C 259.1875 189.875 260.785156 189.4375 261.265625 188.015625 C 263.5 181.421875 262.648438 173.667969 260.867188 167.0625 C 259.765625 162.992188 258.136719 158.84375 255.855469 155.160156 C 254.441406 152.871094 252.773438 150.757812 250.820312 148.960938 C 250.6875 148.839844 250.539062 148.765625 250.398438 148.699219 C 250.164062 148.589844 249.917969 148.539062 249.675781 148.550781 C 248.613281 148.601562 247.660156 149.714844 248.339844 150.878906 C 248.929688 151.890625 249.507812 152.894531 250.074219 153.90625 C 252.644531 158.5 254.90625 163.144531 256.125 168.375 C 256.691406 170.796875 256.96875 173.199219 257.082031 175.597656 C 257.164062 177.285156 257.164062 178.972656 257.121094 180.664062 C 257.105469 181.15625 257.09375 181.648438 257.078125 182.136719 C 257.046875 183.039062 257.007812 183.945312 256.964844 184.855469 C 256.148438 184.648438 255.214844 184.890625 254.742188 185.738281 C 254.695312 185.824219 254.660156 185.925781 254.613281 186.015625 C 254.496094 186.246094 254.386719 186.484375 254.285156 186.726562 C 254.285156 186.730469 254.28125 186.734375 254.273438 186.742188 C 254.128906 187.089844 253.988281 187.441406 253.867188 187.804688 C 253.421875 189.144531 253.113281 190.554688 252.773438 191.894531 C 252.226562 194.058594 251.679688 196.222656 251.144531 198.382812 C 250.128906 202.5 249.214844 206.644531 248.175781 210.753906 C 248.140625 210.882812 248.113281 211.023438 248.074219 211.152344 C 247.96875 211.589844 248.042969 211.953125 248.207031 212.253906 C 247.882812 212.859375 247.945312 213.640625 248.746094 214.070312 C 249.316406 214.378906 249.789062 214.765625 250.222656 215.191406 C 251.488281 216.433594 252.179688 218.113281 252.382812 219.898438 C 252.566406 221.503906 252.371094 223.179688 251.839844 224.671875 C 250.292969 228.980469 246.546875 231.632812 243.003906 234.257812 C 242.640625 234.121094 242.207031 234.097656 241.710938 234.234375 C 239.699219 234.792969 237.683594 235.3125 235.664062 235.816406 C 234.46875 236.113281 233.273438 236.398438 232.082031 236.675781 C 219.695312 239.539062 207.175781 241.304688 194.523438 241.695312 C 193.117188 241.738281 191.710938 241.765625 190.296875 241.773438 C 186.832031 241.796875 183.355469 241.714844 179.871094 241.519531 C 178.835938 241.464844 177.804688 241.40625 176.773438 241.328125 C 167.765625 240.652344 158.824219 239.28125 150.027344 237.226562 C 149.523438 237.109375 149.011719 237.007812 148.507812 236.878906 C 148.082031 236.773438 147.652344 236.695312 147.234375 236.585938 C 144.003906 235.773438 140.652344 234.933594 137.347656 233.910156 C 131.777344 232.1875 126.339844 229.9375 121.851562 226.402344 C 121.027344 225.75 120.238281 225.003906 119.496094 224.195312 C 118.996094 223.644531 118.523438 223.070312 118.074219 222.464844 C 113.542969 216.355469 111.894531 207.597656 118.179688 202.054688 C 118.660156 201.632812 118.726562 201.125 118.578125 200.683594 C 118.632812 200.59375 118.699219 200.507812 118.734375 200.410156 C 118.914062 199.960938 119.007812 199.46875 119.0625 198.960938 C 119.242188 197.222656 118.816406 195.238281 118.632812 193.636719 C 118.375 191.457031 118.042969 189.285156 117.640625 187.125 C 117.09375 184.183594 116.3125 181.308594 115.410156 178.46875 C 115.328125 178.210938 115.257812 177.945312 115.171875 177.691406 C 114.820312 176.628906 114.453125 175.574219 114.070312 174.523438 C 114.019531 174.378906 113.9375 174.28125 113.867188 174.171875 C 113.027344 172.90625 110.914062 173.59375 111.261719 175.296875 C 112.121094 179.480469 112.746094 183.71875 113.257812 187.957031 C 113.503906 190.007812 113.695312 192.0625 113.84375 194.113281 C 114.011719 196.339844 113.757812 198.894531 114.761719 200.929688 C 114.789062 200.988281 114.835938 201.023438 114.867188 201.078125 C 109.328125 206.863281 109.675781 216.535156 113.609375 223.179688 C 115.679688 226.679688 118.589844 229.417969 121.902344 231.644531 C 121.324219 231.925781 120.863281 232.472656 120.835938 233.34375 C 120.476562 243.570312 109.996094 250.519531 100.398438 250.074219 C 97.21875 249.929688 94.242188 249.09375 91.476562 247.78125 C 90.410156 247.273438 89.371094 246.703125 88.371094 246.0625 C 84.320312 243.460938 80.824219 239.835938 77.953125 235.886719 C 77.582031 235.375 77.21875 234.855469 76.863281 234.335938 C 77.519531 234.621094 78.175781 234.902344 78.832031 235.171875 C 80.5625 235.882812 82.320312 236.515625 84.195312 236.871094 C 87.21875 237.445312 90.164062 237.261719 92.855469 236.285156 C 94.785156 235.582031 96.589844 234.480469 98.179688 232.894531 C 98.671875 232.402344 99.113281 231.890625 99.550781 231.371094 C 108.097656 221.242188 106.25 206.390625 103.953125 194.28125 C 102.59375 187.09375 100.699219 179.921875 100.140625 172.613281 C 100.054688 171.488281 98.945312 171.042969 98.125 171.289062 C 97.59375 171.445312 97.179688 171.878906 97.226562 172.613281 C 98.058594 184.957031 102.042969 196.863281 102.09375 209.304688 C 102.121094 215.527344 101.140625 221.558594 97.652344 226.832031 C 94.925781 230.945312 90.980469 233.46875 85.960938 232.609375 C 81.542969 231.855469 77.613281 229.460938 73.269531 228.417969 C 70.683594 227.796875 69.691406 231.460938 72.09375 232.382812 C 76.910156 240.898438 83.96875 248.648438 93.25 252.191406 C 102.089844 255.5625 112.386719 253.597656 119.21875 246.953125 C 122.910156 243.367188 125.136719 238.613281 124.832031 233.429688 C 129.070312 235.765625 133.75 237.457031 138.175781 238.882812 C 144.328125 240.863281 150.628906 242.449219 157.003906 243.671875 C 155.835938 245.078125 155.171875 246.902344 155.078125 248.757812 C 154.957031 251.179688 155.859375 254.121094 158 255.480469 C 157.515625 256.164062 157.070312 256.90625 156.6875 257.730469 C 153.980469 263.597656 153.617188 271.714844 155.949219 277.757812 C 158.464844 284.273438 164.503906 288.140625 171.25 289.160156 C 172.355469 289.324219 173.070312 288.496094 173.105469 287.660156 C 173.105469 287.621094 173.117188 287.578125 173.117188 287.542969 C 173.09375 287.003906 172.769531 286.488281 172.046875 286.261719 C 171.714844 286.160156 171.386719 286.046875 171.058594 285.9375 C 170.046875 285.601562 169.042969 285.226562 168.0625 284.808594 C 166.34375 284.070312 164.722656 283.167969 163.308594 282.003906 C 162.179688 281.074219 161.175781 279.992188 160.378906 278.65625 C 157.675781 274.085938 157.691406 267.785156 158.875 262.742188 C 159.480469 260.164062 160.570312 257.609375 162.585938 255.820312 C 162.59375 255.8125 162.605469 255.796875 162.617188 255.789062 C 162.636719 255.769531 162.660156 255.753906 162.683594 255.738281 C 163.824219 254.761719 165.140625 254.136719 166.542969 253.738281 C 166.554688 253.859375 166.570312 253.984375 166.589844 254.109375 C 166.597656 254.191406 166.621094 254.265625 166.632812 254.34375 C 166.699219 254.792969 166.773438 255.234375 166.882812 255.667969 C 167.59375 258.554688 169.175781 261.078125 171.433594 263.054688 C 170.851562 263.710938 170.28125 264.378906 169.820312 265.085938 C 169.128906 266.144531 169.390625 267.753906 169.761719 268.898438 C 170.035156 269.738281 170.4375 270.5 170.933594 271.171875 C 171.632812 272.121094 172.53125 272.886719 173.59375 273.433594 C 173.828125 276.195312 174.847656 278.882812 176.511719 281.085938 C 176.863281 281.550781 177.246094 281.984375 177.652344 282.398438 C 178.796875 283.574219 180.132812 284.5625 181.679688 285.21875 C 183.710938 286.082031 185.53125 283.277344 183.46875 282.15625 C 182.746094 281.757812 182.082031 281.285156 181.460938 280.78125 C 181.320312 280.667969 181.171875 280.558594 181.039062 280.441406 C 178.703125 278.347656 177.253906 275.449219 177.269531 272.167969 C 177.273438 271.324219 176.679688 270.601562 175.890625 270.355469 C 174.222656 269.84375 173.160156 268.429688 173.023438 266.765625 C 173.75 265.863281 174.476562 264.957031 175.210938 264.054688 C 175.398438 263.824219 175.53125 263.574219 175.609375 263.3125 C 175.675781 263.105469 175.699219 262.898438 175.691406 262.691406 C 175.667969 262.15625 175.402344 261.652344 174.855469 261.296875 C 172.425781 259.71875 170.742188 257.320312 169.847656 254.613281 C 169.808594 254.492188 169.777344 254.371094 169.738281 254.25 C 169.679688 254.0625 169.621094 253.875 169.574219 253.6875 C 169.535156 253.53125 169.496094 253.375 169.464844 253.21875 C 170.289062 253.152344 171.117188 253.140625 171.933594 253.164062 C 172.679688 253.179688 173.429688 253.234375 174.175781 253.300781 C 176.804688 253.519531 179.441406 253.964844 182.019531 254.457031 C 184.570312 254.941406 187.171875 255.574219 189.550781 256.65625 C 189.855469 256.792969 190.171875 256.910156 190.464844 257.066406 C 190.5625 257.117188 190.652344 257.179688 190.75 257.230469 C 192.46875 258.179688 193.96875 259.410156 195.054688 260.957031 C 195.058594 260.964844 195.0625 260.976562 195.070312 260.980469 C 195.265625 261.253906 195.433594 261.546875 195.601562 261.839844 C 195.648438 261.929688 195.699219 262.015625 195.746094 262.105469 C 196.101562 262.785156 196.390625 263.507812 196.585938 264.285156 C 196.988281 265.863281 197.058594 267.539062 196.757812 269.136719 C 196.429688 270.867188 195.46875 272.296875 195.054688 273.988281 C 195.054688 273.988281 195.054688 273.992188 195.054688 273.992188 C 195.039062 274.054688 195.046875 274.121094 195.039062 274.179688 C 195 274.472656 195.023438 274.769531 195.125 275.050781 C 194.742188 275.96875 195.183594 277.269531 196.484375 277.269531 C 197.320312 277.269531 197.785156 276.726562 197.929688 276.09375 C 199.246094 275.121094 200.125 273.667969 200.675781 272.0625 C 201.324219 270.183594 201.527344 268.089844 201.414062 266.269531 C 201.292969 264.367188 200.835938 262.515625 200.066406 260.804688 C 199.335938 259.1875 198.324219 257.699219 197.039062 256.417969 C 195.871094 255.257812 194.550781 254.320312 193.144531 253.535156 C 192.148438 252.984375 191.109375 252.5 190.035156 252.101562 C 189.789062 252.003906 189.535156 251.925781 189.285156 251.835938 C 189.492188 251.726562 189.679688 251.589844 189.878906 251.460938 C 190.5625 251.039062 191.203125 250.550781 191.742188 249.941406 C 192.375 249.234375 192.945312 248.378906 193.363281 247.464844 C 193.472656 247.21875 193.570312 246.972656 193.65625 246.722656 C 194.140625 246.714844 194.628906 246.707031 195.113281 246.695312 C 196.394531 246.65625 197.671875 246.613281 198.949219 246.554688 C 200.292969 246.488281 201.640625 246.40625 202.980469 246.3125 C 205.332031 246.148438 212.304688 245.410156 213.441406 245.265625 C 216.785156 244.828125 223.558594 243.605469 223.628906 243.59375 C 223.6875 243.789062 223.78125 243.976562 223.914062 244.140625 C 223.933594 244.164062 223.945312 244.1875 223.96875 244.210938 C 224.199219 244.457031 224.550781 244.617188 224.980469 244.671875 C 225.054688 244.683594 225.117188 244.714844 225.203125 244.722656 C 227.292969 244.785156 229.378906 246.324219 229.457031 248.519531 C 229.546875 251.15625 227.355469 252.449219 225.035156 252.835938 C 221.925781 253.351562 218.664062 253.308594 215.519531 253.4375 C 213.507812 253.515625 211.496094 253.554688 209.484375 253.558594 C 208.445312 253.5625 207.40625 253.554688 206.371094 253.53125 C 206.015625 253.527344 205.664062 253.53125 205.3125 253.519531 C 204.753906 253.507812 204.386719 253.761719 204.167969 254.117188 C 203.867188 254.601562 203.882812 255.273438 204.214844 255.765625 C 204.441406 256.097656 204.796875 256.347656 205.3125 256.382812 C 206.234375 256.4375 207.15625 256.484375 208.082031 256.535156 C 208.261719 256.542969 208.445312 256.550781 208.625 256.5625 C 211.292969 256.695312 213.960938 256.769531 216.628906 256.769531 C 217.085938 256.769531 217.550781 256.769531 218.007812 256.765625 C 218.066406 256.839844 218.101562 256.921875 218.179688 256.992188 C 218.992188 257.675781 219.808594 258.351562 220.621094 259.035156 C 222.082031 260.269531 223.535156 261.503906 225.019531 262.714844 C 225.882812 263.417969 226.746094 264.121094 227.609375 264.824219 C 227.898438 265.058594 228.1875 265.296875 228.476562 265.53125 C 229.484375 266.339844 230.484375 267.164062 231.609375 267.789062 C 231.859375 267.925781 232.105469 268.066406 232.363281 268.179688 C 234.277344 269.007812 235.875 266.984375 234.558594 265.332031 C 233.578125 264.097656 232.261719 263.199219 230.988281 262.269531 C 229.785156 261.390625 228.578125 260.527344 227.367188 259.660156 C 225.972656 258.65625 224.558594 257.691406 223.148438 256.707031 C 225.597656 256.605469 228.058594 256.234375 229.964844 254.890625 C 232.613281 253.019531 233.921875 249.390625 232.855469 246.277344 C 232.269531 244.570312 231.0625 243.152344 229.550781 242.261719 C 233.710938 241.242188 237.8125 240.023438 241.84375 238.574219 C 242.390625 238.855469 243.046875 238.929688 243.660156 238.605469 C 246.011719 237.378906 248.4375 235.679688 250.507812 233.640625 C 254.367188 242.195312 264.023438 247.269531 273.324219 247.191406 C 285.886719 247.082031 296.941406 238.546875 303.792969 228.625 C 304.097656 228.1875 304.175781 227.730469 304.121094 227.296875 C 305.117188 225.417969 302.851562 222.65625 300.800781 224.128906 Z M 158.855469 249.589844 C 158.867188 249.648438 158.871094 249.707031 158.878906 249.769531 C 158.859375 249.683594 158.847656 249.601562 158.855469 249.589844 Z M 178.8125 249.773438 C 177.878906 249.667969 176.957031 249.578125 176.050781 249.484375 C 174.914062 249.371094 173.761719 249.316406 172.613281 249.308594 C 170.320312 249.300781 168.042969 249.535156 165.921875 250.132812 C 165.253906 250.320312 164.597656 250.546875 163.960938 250.8125 C 162.683594 251.339844 161.492188 252.027344 160.417969 252.902344 C 160.34375 252.804688 160.265625 252.703125 160.191406 252.609375 C 160.226562 252.648438 160.238281 252.667969 160.253906 252.691406 C 160.230469 252.660156 160.203125 252.621094 160.167969 252.570312 C 160.105469 252.484375 160.046875 252.394531 159.984375 252.304688 C 159.695312 251.890625 159.460938 251.46875 159.234375 251.019531 C 159.199219 250.90625 159.148438 250.792969 159.117188 250.679688 C 159.039062 250.449219 158.980469 250.214844 158.925781 249.980469 C 158.921875 249.960938 158.898438 249.871094 158.878906 249.78125 C 158.871094 249.710938 158.859375 249.640625 158.855469 249.570312 C 158.832031 249.328125 158.824219 249.082031 158.824219 248.835938 C 158.824219 248.59375 158.839844 248.351562 158.859375 248.109375 C 158.859375 248.097656 158.859375 248.097656 158.859375 248.085938 C 158.859375 248.082031 158.859375 248.082031 158.859375 248.078125 C 158.878906 247.96875 158.894531 247.859375 158.914062 247.746094 C 158.953125 247.511719 159.011719 247.269531 159.078125 247.039062 C 159.117188 246.910156 159.152344 246.789062 159.195312 246.667969 C 159.207031 246.636719 159.230469 246.582031 159.253906 246.523438 C 159.4375 246.140625 159.640625 245.78125 159.878906 245.4375 C 159.921875 245.386719 159.96875 245.320312 159.988281 245.296875 C 160.113281 245.160156 160.230469 245 160.351562 244.863281 C 160.339844 244.90625 160.886719 244.414062 160.617188 244.621094 C 160.707031 244.550781 160.777344 244.464844 160.851562 244.382812 C 161.710938 244.527344 162.570312 244.664062 163.429688 244.792969 C 166.234375 245.214844 169.046875 245.574219 171.871094 245.863281 C 173.511719 246.027344 175.148438 246.175781 176.792969 246.296875 C 176.910156 246.308594 177.027344 246.316406 177.144531 246.324219 C 177.179688 246.453125 177.203125 246.582031 177.238281 246.707031 C 177.566406 247.78125 178.105469 248.773438 178.828125 249.636719 C 178.867188 249.6875 178.902344 249.75 178.949219 249.800781 C 178.910156 249.785156 178.863281 249.78125 178.8125 249.773438 Z M 180.238281 246.511719 C 183.46875 246.683594 186.699219 246.78125 189.929688 246.785156 C 189.746094 247.089844 189.542969 247.386719 189.375 247.582031 C 188.425781 248.667969 187.203125 249.46875 185.800781 249.632812 C 183.566406 249.890625 181.347656 248.511719 180.238281 246.511719 Z M 124.421875 182.273438 C 124.34375 183.03125 124.332031 183.769531 124.339844 184.511719 C 124.386719 188.363281 125.578125 191.996094 127.507812 195.320312 C 128.703125 197.378906 130.171875 199.324219 131.847656 201.117188 C 134.320312 203.765625 137.214844 206.09375 140.242188 208.042969 C 142.980469 209.804688 145.820312 211.261719 148.550781 212.335938 C 149.339844 212.640625 150.207031 212.238281 150.796875 211.738281 C 155.570312 207.664062 160.875 204.214844 165.503906 199.972656 C 168.996094 196.773438 172.59375 192.582031 173.910156 187.929688 C 174.53125 185.746094 174.710938 183.289062 174.464844 180.851562 C 174.109375 177.316406 172.847656 173.828125 170.683594 171.265625 C 170.253906 170.753906 169.78125 170.296875 169.28125 169.867188 C 167.335938 168.207031 164.867188 167.175781 161.84375 167.238281 C 156.664062 167.339844 150.230469 169.679688 146.601562 173.621094 C 145.621094 172.113281 144.304688 170.929688 142.777344 170.109375 C 142.386719 169.902344 142 169.6875 141.589844 169.527344 C 139.207031 168.582031 136.488281 168.421875 133.941406 169.148438 C 133.054688 169.40625 132.234375 169.769531 131.464844 170.207031 C 130.742188 170.621094 130.066406 171.109375 129.453125 171.660156 C 128.960938 172.105469 128.503906 172.589844 128.078125 173.105469 C 125.984375 175.664062 124.753906 179.015625 124.421875 182.273438 Z M 133.578125 173.382812 C 136.003906 171.972656 139.074219 171.925781 141.511719 173.128906 C 141.8125 173.28125 142.109375 173.433594 142.386719 173.621094 C 143.285156 174.226562 144.058594 175.023438 144.617188 176.027344 C 144.882812 176.511719 145.28125 176.714844 145.6875 176.742188 C 145.71875 176.742188 145.742188 176.742188 145.769531 176.742188 C 145.816406 176.839844 145.867188 176.933594 145.925781 177.023438 C 146.042969 177.21875 146.179688 177.398438 146.335938 177.554688 C 146.488281 177.703125 146.65625 177.828125 146.835938 177.929688 C 147.621094 178.390625 148.605469 178.378906 149.398438 177.453125 C 152.011719 174.410156 156.609375 172.574219 160.507812 172.054688 C 161.40625 171.933594 162.25 171.988281 163.058594 172.152344 C 163.875 172.316406 164.628906 172.628906 165.328125 173.039062 C 165.394531 173.078125 165.464844 173.101562 165.527344 173.140625 C 165.535156 173.144531 165.546875 173.148438 165.550781 173.152344 C 167.203125 174.195312 168.492188 175.855469 169.226562 177.878906 C 170.628906 181.746094 170.125 185.339844 168.578125 188.582031 C 167.164062 191.539062 164.878906 194.203125 162.375 196.53125 C 162.1875 196.703125 162.003906 196.878906 161.820312 197.046875 C 157.679688 200.761719 153.066406 203.929688 148.773438 207.472656 C 146.65625 206.589844 144.476562 205.496094 142.351562 204.203125 C 137.421875 201.191406 132.859375 197.105469 130.359375 192.117188 C 130.105469 191.609375 129.867188 191.09375 129.65625 190.570312 C 128.972656 188.851562 128.519531 187.042969 128.390625 185.136719 C 128.117188 180.769531 129.589844 175.703125 133.578125 173.382812 Z M 133.578125 173.382812 "/></g></g></svg>