<svg xmlns="http://www.w3.org/2000/svg" xmlns:xlink="http://www.w3.org/1999/xlink" width="500" zoomAndPan="magnify" viewBox="0 0 375 374.999991" height="500" preserveAspectRatio="xMidYMid meet" version="1.2"><defs><clipPath id="47ba95a514"><path d="M 194 110.546875 L 274 110.546875 L 274 264.296875 L 194 264.296875 Z M 194 110.546875 "/></clipPath><clipPath id="d2cfd88c66"><path d="M 100 110.546875 L 178 110.546875 L 178 264.296875 L 100 264.296875 Z M 100 110.546875 "/></clipPath></defs><g id="28f34be15e"><path style=" stroke:none;fill-rule:nonzero;fill:#ffcad0;fill-opacity:1;" d="M 177.148438 187.597656 C 177.148438 188.15625 177.121094 188.710938 177.066406 189.265625 C 177.011719 189.820312 176.929688 190.371094 176.820312 190.917969 C 176.710938 191.464844 176.578125 192.007812 176.414062 192.539062 C 176.253906 193.074219 176.066406 193.597656 175.851562 194.113281 C 175.636719 194.628906 175.402344 195.132812 175.136719 195.625 C 174.875 196.117188 174.589844 196.59375 174.277344 197.058594 C 173.96875 197.519531 173.636719 197.96875 173.28125 198.398438 C 172.929688 198.832031 172.554688 199.242188 172.160156 199.636719 C 171.765625 200.03125 171.355469 200.40625 170.921875 200.761719 C 170.492188 201.113281 170.042969 201.445312 169.582031 201.753906 C 169.117188 202.066406 168.640625 202.351562 168.148438 202.613281 C 167.65625 202.878906 167.152344 203.117188 166.636719 203.328125 C 166.121094 203.542969 165.597656 203.730469 165.0625 203.890625 C 164.53125 204.054688 163.988281 204.1875 163.441406 204.296875 C 162.894531 204.40625 162.34375 204.488281 161.789062 204.542969 C 161.234375 204.597656 160.679688 204.625 160.121094 204.625 C 159.5625 204.625 159.007812 204.597656 158.453125 204.542969 C 157.894531 204.488281 157.34375 204.40625 156.796875 204.296875 C 156.25 204.1875 155.710938 204.054688 155.175781 203.890625 C 154.644531 203.730469 154.121094 203.542969 153.605469 203.328125 C 153.089844 203.117188 152.585938 202.878906 152.09375 202.613281 C 151.601562 202.351562 151.125 202.066406 150.660156 201.753906 C 150.195312 201.445312 149.75 201.113281 149.316406 200.761719 C 148.886719 200.40625 148.472656 200.03125 148.078125 199.636719 C 147.683594 199.242188 147.3125 198.832031 146.957031 198.398438 C 146.605469 197.96875 146.273438 197.519531 145.960938 197.058594 C 145.652344 196.59375 145.367188 196.117188 145.101562 195.625 C 144.839844 195.132812 144.601562 194.628906 144.386719 194.113281 C 144.175781 193.597656 143.988281 193.074219 143.824219 192.539062 C 143.664062 192.007812 143.527344 191.464844 143.417969 190.917969 C 143.3125 190.371094 143.230469 189.820312 143.175781 189.265625 C 143.121094 188.710938 143.09375 188.15625 143.09375 187.597656 C 143.09375 187.039062 143.121094 186.484375 143.175781 185.929688 C 143.230469 185.375 143.3125 184.824219 143.417969 184.273438 C 143.527344 183.726562 143.664062 183.1875 143.824219 182.65625 C 143.988281 182.121094 144.175781 181.597656 144.386719 181.082031 C 144.601562 180.566406 144.839844 180.0625 145.101562 179.570312 C 145.367188 179.078125 145.652344 178.601562 145.960938 178.136719 C 146.273438 177.671875 146.605469 177.226562 146.957031 176.796875 C 147.3125 176.363281 147.683594 175.949219 148.078125 175.558594 C 148.472656 175.164062 148.886719 174.789062 149.316406 174.433594 C 149.75 174.082031 150.195312 173.75 150.660156 173.4375 C 151.125 173.128906 151.601562 172.84375 152.09375 172.582031 C 152.585938 172.316406 153.089844 172.078125 153.605469 171.867188 C 154.121094 171.652344 154.644531 171.464844 155.175781 171.300781 C 155.710938 171.140625 156.25 171.003906 156.796875 170.898438 C 157.34375 170.789062 157.894531 170.707031 158.453125 170.652344 C 159.007812 170.597656 159.5625 170.570312 160.121094 170.570312 C 160.679688 170.570312 161.234375 170.597656 161.789062 170.652344 C 162.34375 170.707031 162.894531 170.789062 163.441406 170.898438 C 163.988281 171.003906 164.53125 171.140625 165.0625 171.300781 C 165.597656 171.464844 166.121094 171.652344 166.636719 171.867188 C 167.152344 172.078125 167.65625 172.316406 168.148438 172.582031 C 168.640625 172.84375 169.117188 173.128906 169.582031 173.4375 C 170.042969 173.75 170.492188 174.082031 170.921875 174.433594 C 171.355469 174.789062 171.765625 175.164062 172.160156 175.558594 C 172.554688 175.949219 172.929688 176.363281 173.28125 176.796875 C 173.636719 177.226562 173.96875 177.671875 174.277344 178.136719 C 174.589844 178.601562 174.875 179.078125 175.136719 179.570312 C 175.402344 180.0625 175.636719 180.566406 175.851562 181.082031 C 176.066406 181.597656 176.253906 182.121094 176.414062 182.65625 C 176.578125 183.1875 176.710938 183.726562 176.820312 184.273438 C 176.929688 184.824219 177.011719 185.375 177.066406 185.929688 C 177.121094 186.484375 177.148438 187.039062 177.148438 187.597656 Z M 177.148438 187.597656 "/><path style=" stroke:none;fill-rule:nonzero;fill:#ffcad0;fill-opacity:1;" d="M 228.230469 187.597656 C 228.230469 188.15625 228.203125 188.710938 228.148438 189.265625 C 228.09375 189.820312 228.011719 190.371094 227.90625 190.917969 C 227.796875 191.464844 227.660156 192.007812 227.5 192.539062 C 227.335938 193.074219 227.148438 193.597656 226.9375 194.113281 C 226.722656 194.628906 226.484375 195.132812 226.222656 195.625 C 225.957031 196.117188 225.671875 196.59375 225.363281 197.058594 C 225.050781 197.519531 224.71875 197.96875 224.367188 198.398438 C 224.011719 198.832031 223.640625 199.242188 223.246094 199.636719 C 222.851562 200.03125 222.4375 200.40625 222.007812 200.761719 C 221.574219 201.113281 221.128906 201.445312 220.664062 201.753906 C 220.199219 202.066406 219.722656 202.351562 219.230469 202.613281 C 218.738281 202.878906 218.234375 203.117188 217.71875 203.328125 C 217.203125 203.542969 216.679688 203.730469 216.148438 203.890625 C 215.613281 204.054688 215.074219 204.1875 214.527344 204.296875 C 213.980469 204.40625 213.429688 204.488281 212.871094 204.542969 C 212.316406 204.597656 211.761719 204.625 211.203125 204.625 C 210.644531 204.625 210.089844 204.597656 209.535156 204.542969 C 208.980469 204.488281 208.429688 204.40625 207.882812 204.296875 C 207.335938 204.1875 206.792969 204.054688 206.261719 203.890625 C 205.726562 203.730469 205.203125 203.542969 204.6875 203.328125 C 204.171875 203.117188 203.667969 202.878906 203.175781 202.613281 C 202.683594 202.351562 202.207031 202.066406 201.742188 201.753906 C 201.28125 201.445312 200.832031 201.113281 200.402344 200.761719 C 199.96875 200.40625 199.558594 200.03125 199.164062 199.636719 C 198.769531 199.242188 198.394531 198.832031 198.042969 198.398438 C 197.6875 197.96875 197.355469 197.519531 197.046875 197.058594 C 196.734375 196.59375 196.449219 196.117188 196.1875 195.625 C 195.921875 195.132812 195.6875 194.628906 195.472656 194.113281 C 195.257812 193.597656 195.070312 193.074219 194.910156 192.539062 C 194.746094 192.007812 194.613281 191.464844 194.503906 190.917969 C 194.394531 190.371094 194.3125 189.820312 194.257812 189.265625 C 194.203125 188.710938 194.175781 188.15625 194.175781 187.597656 C 194.175781 187.039062 194.203125 186.484375 194.257812 185.929688 C 194.3125 185.375 194.394531 184.824219 194.503906 184.273438 C 194.613281 183.726562 194.746094 183.1875 194.910156 182.65625 C 195.070312 182.121094 195.257812 181.597656 195.472656 181.082031 C 195.6875 180.566406 195.921875 180.0625 196.1875 179.570312 C 196.449219 179.078125 196.734375 178.601562 197.046875 178.136719 C 197.355469 177.671875 197.6875 177.226562 198.042969 176.796875 C 198.394531 176.363281 198.769531 175.949219 199.164062 175.558594 C 199.558594 175.164062 199.96875 174.789062 200.402344 174.433594 C 200.832031 174.082031 201.28125 173.75 201.742188 173.4375 C 202.207031 173.128906 202.683594 172.84375 203.175781 172.582031 C 203.667969 172.316406 204.171875 172.078125 204.6875 171.867188 C 205.203125 171.652344 205.726562 171.464844 206.261719 171.300781 C 206.792969 171.140625 207.335938 171.003906 207.882812 170.898438 C 208.429688 170.789062 208.980469 170.707031 209.535156 170.652344 C 210.089844 170.597656 210.644531 170.570312 211.203125 170.570312 C 211.761719 170.570312 212.316406 170.597656 212.871094 170.652344 C 213.429688 170.707031 213.980469 170.789062 214.527344 170.898438 C 215.074219 171.003906 215.613281 171.140625 216.148438 171.300781 C 216.679688 171.464844 217.203125 171.652344 217.71875 171.867188 C 218.234375 172.078125 218.738281 172.316406 219.230469 172.582031 C 219.722656 172.84375 220.199219 173.128906 220.664062 173.4375 C 221.128906 173.75 221.574219 174.082031 222.007812 174.433594 C 222.4375 174.789062 222.851562 175.164062 223.246094 175.558594 C 223.640625 175.949219 224.011719 176.363281 224.367188 176.796875 C 224.71875 177.226562 225.050781 177.671875 225.363281 178.136719 C 225.671875 178.601562 225.957031 179.078125 226.222656 179.570312 C 226.484375 180.0625 226.722656 180.566406 226.9375 181.082031 C 227.148438 181.597656 227.335938 182.121094 227.5 182.65625 C 227.660156 183.1875 227.796875 183.726562 227.90625 184.273438 C 228.011719 184.824219 228.09375 185.375 228.148438 185.929688 C 228.203125 186.484375 228.230469 187.039062 228.230469 187.597656 Z M 228.230469 187.597656 "/><path style=" stroke:none;fill-rule:nonzero;fill:#ffcad0;fill-opacity:1;" d="M 223.976562 157.796875 C 223.179688 157.800781 222.398438 157.691406 221.632812 157.472656 C 193.386719 149.382812 177.925781 149.382812 149.691406 157.472656 C 149.152344 157.625 148.605469 157.722656 148.046875 157.769531 C 147.492188 157.816406 146.933594 157.808594 146.378906 157.742188 C 145.824219 157.679688 145.28125 157.5625 144.75 157.390625 C 144.214844 157.222656 143.707031 157 143.214844 156.730469 C 142.726562 156.457031 142.269531 156.140625 141.84375 155.78125 C 141.417969 155.417969 141.03125 155.019531 140.683594 154.582031 C 140.335938 154.144531 140.03125 153.675781 139.777344 153.179688 C 139.523438 152.679688 139.316406 152.164062 139.164062 151.625 C 139.007812 151.089844 138.910156 150.542969 138.863281 149.984375 C 138.816406 149.425781 138.828125 148.871094 138.890625 148.316406 C 138.953125 147.757812 139.070312 147.214844 139.242188 146.683594 C 139.414062 146.152344 139.632812 145.640625 139.90625 145.152344 C 140.175781 144.664062 140.492188 144.207031 140.855469 143.777344 C 141.214844 143.351562 141.617188 142.964844 142.054688 142.617188 C 142.492188 142.269531 142.957031 141.96875 143.457031 141.710938 C 143.953125 141.457031 144.46875 141.253906 145.007812 141.097656 C 176.160156 132.191406 195.15625 132.191406 226.316406 141.097656 C 226.804688 141.238281 227.277344 141.421875 227.734375 141.644531 C 228.191406 141.871094 228.625 142.132812 229.035156 142.4375 C 229.445312 142.738281 229.824219 143.074219 230.175781 143.445312 C 230.523438 143.816406 230.835938 144.214844 231.113281 144.644531 C 231.390625 145.070312 231.628906 145.519531 231.828125 145.988281 C 232.023438 146.457031 232.175781 146.941406 232.289062 147.4375 C 232.398438 147.933594 232.464844 148.4375 232.484375 148.945312 C 232.503906 149.457031 232.480469 149.960938 232.40625 150.464844 C 232.335938 150.972656 232.222656 151.464844 232.0625 151.949219 C 231.902344 152.433594 231.703125 152.898438 231.460938 153.34375 C 231.214844 153.792969 230.9375 154.214844 230.617188 154.613281 C 230.296875 155.011719 229.945312 155.375 229.5625 155.710938 C 229.179688 156.042969 228.765625 156.339844 228.328125 156.601562 C 227.890625 156.863281 227.433594 157.082031 226.957031 157.257812 C 226.480469 157.4375 225.992188 157.574219 225.492188 157.664062 C 224.988281 157.753906 224.484375 157.796875 223.976562 157.796875 Z M 223.976562 157.796875 "/><path style=" stroke:none;fill-rule:nonzero;fill:#ffcad0;fill-opacity:1;" d="M 185.664062 240.84375 C 170.375 240.71875 155.40625 238.472656 140.753906 234.097656 C 140.21875 233.941406 139.699219 233.738281 139.203125 233.480469 C 138.707031 233.226562 138.238281 232.925781 137.800781 232.578125 C 137.363281 232.230469 136.964844 231.84375 136.601562 231.414062 C 136.242188 230.988281 135.925781 230.53125 135.652344 230.042969 C 135.382812 229.554688 135.160156 229.042969 134.988281 228.511719 C 134.820312 227.980469 134.703125 227.433594 134.636719 226.878906 C 134.574219 226.324219 134.566406 225.769531 134.609375 225.210938 C 134.65625 224.652344 134.757812 224.105469 134.910156 223.570312 C 135.0625 223.03125 135.269531 222.515625 135.523438 222.015625 C 135.78125 221.519531 136.082031 221.050781 136.429688 220.613281 C 136.777344 220.175781 137.164062 219.777344 137.589844 219.414062 C 138.015625 219.054688 138.476562 218.738281 138.964844 218.464844 C 139.453125 218.195312 139.964844 217.972656 140.496094 217.804688 C 141.027344 217.632812 141.570312 217.515625 142.128906 217.449219 C 142.683594 217.386719 143.238281 217.378906 143.796875 217.425781 C 144.351562 217.46875 144.902344 217.570312 145.4375 217.722656 C 151.953125 219.726562 158.585938 221.234375 165.328125 222.246094 C 172.070312 223.261719 178.847656 223.765625 185.667969 223.765625 C 192.484375 223.765625 199.265625 223.261719 206.007812 222.246094 C 212.75 221.234375 219.378906 219.726562 225.894531 217.722656 C 226.433594 217.570312 226.980469 217.472656 227.535156 217.425781 C 228.09375 217.378906 228.648438 217.386719 229.207031 217.453125 C 229.761719 217.515625 230.304688 217.632812 230.835938 217.804688 C 231.367188 217.976562 231.878906 218.195312 232.367188 218.46875 C 232.855469 218.738281 233.3125 219.054688 233.738281 219.417969 C 234.167969 219.777344 234.554688 220.179688 234.902344 220.617188 C 235.25 221.054688 235.550781 221.519531 235.804688 222.019531 C 236.0625 222.515625 236.265625 223.03125 236.417969 223.570312 C 236.574219 224.105469 236.671875 224.652344 236.71875 225.210938 C 236.765625 225.769531 236.757812 226.324219 236.691406 226.878906 C 236.628906 227.433594 236.511719 227.980469 236.339844 228.511719 C 236.171875 229.042969 235.949219 229.554688 235.679688 230.042969 C 235.40625 230.53125 235.089844 230.988281 234.730469 231.414062 C 234.367188 231.84375 233.96875 232.230469 233.53125 232.578125 C 233.09375 232.925781 232.625 233.226562 232.128906 233.480469 C 231.632812 233.738281 231.113281 233.941406 230.578125 234.097656 C 215.925781 238.472656 200.953125 240.722656 185.664062 240.84375 Z M 185.664062 240.84375 "/><g clip-rule="nonzero" clip-path="url(#47ba95a514)"><path style=" stroke:none;fill-rule:nonzero;fill:#ffcad0;fill-opacity:1;" d="M 232.488281 264.222656 C 221.523438 264.222656 206.945312 240.855469 206.945312 230.167969 C 206.945312 229.609375 207 229.054688 207.109375 228.507812 C 207.21875 227.957031 207.382812 227.425781 207.59375 226.910156 C 207.808594 226.390625 208.070312 225.902344 208.382812 225.4375 C 208.691406 224.972656 209.046875 224.542969 209.441406 224.148438 C 209.835938 223.75 210.265625 223.398438 210.730469 223.089844 C 211.195312 222.777344 211.6875 222.515625 212.203125 222.300781 C 212.71875 222.085938 213.25 221.925781 213.800781 221.816406 C 214.347656 221.707031 214.902344 221.652344 215.460938 221.652344 C 216.019531 221.652344 216.574219 221.707031 217.121094 221.816406 C 217.671875 221.925781 218.203125 222.085938 218.71875 222.300781 C 219.234375 222.515625 219.726562 222.777344 220.191406 223.089844 C 220.65625 223.398438 221.085938 223.75 221.480469 224.148438 C 221.875 224.542969 222.230469 224.972656 222.539062 225.4375 C 222.851562 225.902344 223.113281 226.390625 223.328125 226.910156 C 223.539062 227.425781 223.703125 227.957031 223.8125 228.507812 C 223.921875 229.054688 223.976562 229.609375 223.976562 230.167969 C 223.976562 233.71875 230.40625 243.726562 234.148438 247.042969 C 241.414062 245.730469 249.664062 236.203125 254.507812 226.695312 C 259.257812 214.199219 257.429688 181.386719 242.421875 137.769531 C 238.484375 135.398438 234.347656 133.453125 230.007812 131.9375 C 225.667969 130.421875 221.21875 129.367188 216.660156 128.769531 L 210.59375 143.933594 C 210.386719 144.453125 210.132812 144.945312 209.828125 145.414062 C 209.519531 145.882812 209.171875 146.316406 208.78125 146.71875 C 208.390625 147.117188 207.964844 147.476562 207.503906 147.792969 C 207.042969 148.109375 206.558594 148.375 206.042969 148.597656 C 205.53125 148.816406 205 148.984375 204.453125 149.101562 C 203.90625 149.214844 203.351562 149.277344 202.792969 149.285156 C 202.234375 149.292969 201.679688 149.242188 201.128906 149.140625 C 200.582031 149.039062 200.046875 148.882812 199.527344 148.675781 C 199.007812 148.46875 198.515625 148.210938 198.046875 147.90625 C 197.578125 147.601562 197.144531 147.253906 196.742188 146.863281 C 196.34375 146.472656 195.984375 146.046875 195.667969 145.585938 C 195.351562 145.125 195.082031 144.636719 194.863281 144.125 C 194.644531 143.609375 194.476562 143.078125 194.359375 142.53125 C 194.242188 141.984375 194.183594 141.433594 194.175781 140.875 C 194.167969 140.316406 194.21875 139.761719 194.320312 139.210938 C 194.421875 138.660156 194.578125 138.125 194.785156 137.609375 L 203.296875 116.324219 C 203.644531 115.460938 204.117188 114.675781 204.71875 113.96875 C 205.320312 113.261719 206.015625 112.667969 206.8125 112.191406 C 207.605469 111.710938 208.457031 111.371094 209.363281 111.171875 C 210.269531 110.972656 211.183594 110.921875 212.105469 111.019531 C 219.652344 111.511719 227.011719 112.964844 234.175781 115.378906 C 241.34375 117.796875 248.078125 121.09375 254.382812 125.269531 C 255.882812 126.3125 256.9375 127.695312 257.546875 129.421875 C 272.980469 173.160156 277.945312 213.949219 270.191406 233.332031 C 270.105469 233.546875 270.003906 233.753906 269.902344 233.976562 C 262.585938 248.601562 248.914062 264.222656 232.488281 264.222656 Z M 235.117188 247.78125 Z M 235.117188 247.78125 "/></g><g clip-rule="nonzero" clip-path="url(#d2cfd88c66)"><path style=" stroke:none;fill-rule:nonzero;fill:#ffcad0;fill-opacity:1;" d="M 140.265625 264.222656 C 124.363281 264.222656 111.203125 248.523438 104.199219 233.828125 C 104.101562 233.625 104.011719 233.402344 103.933594 233.199219 C 96.578125 213.894531 101.304688 173.207031 115.976562 129.546875 C 116.550781 127.835938 117.5625 126.449219 119.019531 125.386719 C 124.929688 121.199219 131.296875 117.882812 138.117188 115.445312 C 144.941406 113.003906 151.964844 111.53125 159.191406 111.023438 C 160.117188 110.921875 161.035156 110.96875 161.941406 111.167969 C 162.851562 111.367188 163.703125 111.707031 164.5 112.183594 C 165.300781 112.664062 166 113.257812 166.601562 113.964844 C 167.207031 114.671875 167.679688 115.460938 168.027344 116.324219 L 176.539062 137.609375 C 176.746094 138.125 176.902344 138.660156 177.003906 139.210938 C 177.105469 139.761719 177.15625 140.316406 177.148438 140.875 C 177.140625 141.433594 177.078125 141.984375 176.964844 142.53125 C 176.847656 143.078125 176.679688 143.609375 176.460938 144.125 C 176.242188 144.636719 175.972656 145.125 175.65625 145.585938 C 175.339844 146.046875 174.980469 146.472656 174.582031 146.863281 C 174.179688 147.253906 173.746094 147.601562 173.277344 147.90625 C 172.808594 148.210938 172.316406 148.46875 171.796875 148.675781 C 171.277344 148.882812 170.742188 149.039062 170.195312 149.140625 C 169.644531 149.242188 169.089844 149.292969 168.53125 149.285156 C 167.972656 149.277344 167.417969 149.214844 166.871094 149.101562 C 166.324219 148.984375 165.792969 148.816406 165.28125 148.597656 C 164.765625 148.375 164.28125 148.109375 163.820312 147.792969 C 163.359375 147.476562 162.933594 147.117188 162.542969 146.71875 C 162.152344 146.316406 161.804688 145.882812 161.496094 145.414062 C 161.191406 144.945312 160.9375 144.453125 160.730469 143.933594 L 154.679688 128.808594 C 150.5 129.414062 146.433594 130.460938 142.480469 131.945312 C 138.527344 133.433594 134.78125 135.324219 131.238281 137.625 C 116.90625 181.351562 115.179688 214.285156 119.742188 226.832031 C 124.238281 236.113281 131.765625 245.410156 138.398438 246.964844 C 140.542969 244.566406 142.375 241.945312 143.886719 239.105469 C 145.402344 236.265625 146.554688 233.285156 147.347656 230.167969 C 147.347656 229.609375 147.402344 229.054688 147.511719 228.507812 C 147.621094 227.957031 147.785156 227.425781 147.996094 226.910156 C 148.210938 226.390625 148.472656 225.902344 148.785156 225.4375 C 149.09375 224.972656 149.449219 224.542969 149.84375 224.148438 C 150.238281 223.75 150.667969 223.398438 151.132812 223.089844 C 151.597656 222.777344 152.089844 222.515625 152.605469 222.300781 C 153.121094 222.085938 153.652344 221.925781 154.203125 221.816406 C 154.75 221.707031 155.304688 221.652344 155.863281 221.652344 C 156.421875 221.652344 156.976562 221.707031 157.523438 221.816406 C 158.074219 221.925781 158.605469 222.085938 159.121094 222.300781 C 159.636719 222.515625 160.128906 222.777344 160.59375 223.089844 C 161.058594 223.398438 161.488281 223.75 161.882812 224.148438 C 162.277344 224.542969 162.632812 224.972656 162.941406 225.4375 C 163.253906 225.902344 163.515625 226.390625 163.730469 226.910156 C 163.941406 227.425781 164.105469 227.957031 164.214844 228.507812 C 164.324219 229.054688 164.378906 229.609375 164.378906 230.167969 C 164.003906 233.859375 163.171875 237.445312 161.882812 240.921875 C 160.589844 244.402344 158.886719 247.664062 156.761719 250.707031 C 148.144531 264.222656 142.417969 264.222656 140.265625 264.222656 Z M 140.265625 264.222656 "/></g></g></svg>