<svg xmlns="http://www.w3.org/2000/svg" xmlns:xlink="http://www.w3.org/1999/xlink" width="500" zoomAndPan="magnify" viewBox="0 0 375 374.999991" height="500" preserveAspectRatio="xMidYMid meet" version="1.2"><defs><clipPath id="433e52a220"><path d="M 90.179688 90.179688 L 285 90.179688 L 285 285 L 90.179688 285 Z M 90.179688 90.179688 "/></clipPath><clipPath id="58935088d0"><path d="M 90.179688 90.179688 L 285.179688 90.179688 L 285.179688 285.179688 L 90.179688 285.179688 Z M 90.179688 90.179688 "/></clipPath><clipPath id="83cb4313bf"><path d="M 150 112 L 246 112 L 246 285.179688 L 150 285.179688 Z M 150 112 "/></clipPath></defs><g id="47371da2b8"><g clip-rule="nonzero" clip-path="url(#433e52a220)"><path style=" stroke:none;fill-rule:nonzero;fill:#ffcad0;fill-opacity:1;" d="M 284.574219 187.476562 C 284.574219 189.0625 284.535156 190.652344 284.457031 192.238281 C 284.378906 193.824219 284.261719 195.410156 284.105469 196.988281 C 283.953125 198.570312 283.757812 200.148438 283.523438 201.71875 C 283.289062 203.289062 283.019531 204.855469 282.710938 206.414062 C 282.398438 207.972656 282.050781 209.523438 281.664062 211.0625 C 281.277344 212.605469 280.855469 214.132812 280.394531 215.65625 C 279.933594 217.175781 279.433594 218.683594 278.898438 220.179688 C 278.363281 221.675781 277.792969 223.15625 277.183594 224.625 C 276.578125 226.09375 275.933594 227.542969 275.253906 228.980469 C 274.574219 230.417969 273.859375 231.835938 273.113281 233.238281 C 272.363281 234.636719 271.578125 236.019531 270.761719 237.382812 C 269.945312 238.746094 269.097656 240.085938 268.214844 241.410156 C 267.332031 242.730469 266.417969 244.027344 265.46875 245.304688 C 264.523438 246.578125 263.546875 247.832031 262.539062 249.058594 C 261.53125 250.289062 260.492188 251.492188 259.425781 252.667969 C 258.359375 253.84375 257.265625 254.996094 256.140625 256.121094 C 255.019531 257.242188 253.867188 258.335938 252.691406 259.40625 C 251.511719 260.472656 250.308594 261.507812 249.082031 262.515625 C 247.855469 263.523438 246.601562 264.503906 245.324219 265.449219 C 244.050781 266.394531 242.75 267.308594 241.429688 268.191406 C 240.109375 269.074219 238.765625 269.925781 237.40625 270.742188 C 236.042969 271.558594 234.660156 272.339844 233.257812 273.089844 C 231.859375 273.839844 230.4375 274.554688 229.003906 275.230469 C 227.566406 275.910156 226.113281 276.554688 224.648438 277.164062 C 223.179688 277.769531 221.695312 278.34375 220.199219 278.878906 C 218.707031 279.414062 217.195312 279.910156 215.675781 280.371094 C 214.15625 280.832031 212.625 281.257812 211.085938 281.644531 C 209.542969 282.03125 207.992188 282.378906 206.433594 282.6875 C 204.878906 282.996094 203.3125 283.269531 201.742188 283.5 C 200.167969 283.734375 198.59375 283.929688 197.011719 284.085938 C 195.429688 284.242188 193.847656 284.359375 192.261719 284.4375 C 190.671875 284.515625 189.085938 284.550781 187.496094 284.550781 C 185.90625 284.550781 184.320312 284.515625 182.734375 284.4375 C 181.144531 284.359375 179.5625 284.242188 177.980469 284.085938 C 176.398438 283.929688 174.824219 283.734375 173.253906 283.5 C 171.679688 283.269531 170.117188 282.996094 168.558594 282.6875 C 167 282.378906 165.449219 282.03125 163.910156 281.644531 C 162.367188 281.257812 160.835938 280.832031 159.316406 280.371094 C 157.796875 279.910156 156.289062 279.414062 154.792969 278.878906 C 153.296875 278.34375 151.8125 277.769531 150.347656 277.164062 C 148.878906 276.554688 147.425781 275.910156 145.992188 275.230469 C 144.554688 274.554688 143.136719 273.839844 141.734375 273.089844 C 140.332031 272.339844 138.949219 271.558594 137.589844 270.742188 C 136.226562 269.925781 134.882812 269.074219 133.5625 268.191406 C 132.242188 267.308594 130.941406 266.394531 129.667969 265.449219 C 128.390625 264.503906 127.140625 263.523438 125.910156 262.515625 C 124.683594 261.507812 123.480469 260.472656 122.304688 259.40625 C 121.125 258.335938 119.976562 257.242188 118.851562 256.121094 C 117.726562 254.996094 116.632812 253.84375 115.566406 252.667969 C 114.5 251.492188 113.460938 250.289062 112.453125 249.058594 C 111.445312 247.832031 110.46875 246.578125 109.523438 245.304688 C 108.578125 244.027344 107.660156 242.730469 106.777344 241.410156 C 105.894531 240.085938 105.046875 238.746094 104.230469 237.382812 C 103.414062 236.019531 102.628906 234.636719 101.882812 233.238281 C 101.132812 231.835938 100.417969 230.417969 99.738281 228.980469 C 99.058594 227.542969 98.417969 226.09375 97.808594 224.625 C 97.199219 223.15625 96.628906 221.675781 96.09375 220.179688 C 95.558594 218.683594 95.058594 217.175781 94.597656 215.65625 C 94.136719 214.132812 93.714844 212.605469 93.328125 211.0625 C 92.941406 209.523438 92.59375 207.972656 92.285156 206.414062 C 91.972656 204.855469 91.703125 203.289062 91.46875 201.71875 C 91.234375 200.148438 91.042969 198.570312 90.886719 196.988281 C 90.730469 195.410156 90.613281 193.824219 90.535156 192.238281 C 90.457031 190.652344 90.417969 189.0625 90.417969 187.476562 C 90.417969 185.886719 90.457031 184.296875 90.535156 182.710938 C 90.613281 181.125 90.730469 179.539062 90.886719 177.960938 C 91.042969 176.378906 91.234375 174.800781 91.46875 173.230469 C 91.703125 171.660156 91.972656 170.09375 92.285156 168.535156 C 92.59375 166.976562 92.941406 165.425781 93.328125 163.886719 C 93.714844 162.34375 94.136719 160.816406 94.597656 159.292969 C 95.058594 157.773438 95.558594 156.265625 96.09375 154.769531 C 96.628906 153.273438 97.199219 151.792969 97.808594 150.324219 C 98.417969 148.855469 99.058594 147.40625 99.738281 145.96875 C 100.417969 144.53125 101.132812 143.113281 101.882812 141.710938 C 102.628906 140.3125 103.414062 138.929688 104.230469 137.566406 C 105.046875 136.203125 105.894531 134.863281 106.777344 133.539062 C 107.660156 132.21875 108.578125 130.921875 109.523438 129.644531 C 110.46875 128.371094 111.445312 127.117188 112.453125 125.890625 C 113.460938 124.660156 114.5 123.457031 115.566406 122.28125 C 116.632812 121.105469 117.726562 119.953125 118.851562 118.828125 C 119.976562 117.707031 121.125 116.613281 122.304688 115.542969 C 123.480469 114.476562 124.683594 113.441406 125.910156 112.433594 C 127.140625 111.425781 128.390625 110.445312 129.667969 109.5 C 130.941406 108.554688 132.242188 107.640625 133.5625 106.757812 C 134.882812 105.875 136.226562 105.023438 137.589844 104.207031 C 138.949219 103.390625 140.332031 102.609375 141.734375 101.859375 C 143.136719 101.109375 144.554688 100.394531 145.992188 99.71875 C 147.425781 99.039062 148.878906 98.394531 150.347656 97.785156 C 151.8125 97.179688 153.296875 96.605469 154.792969 96.070312 C 156.289062 95.535156 157.796875 95.039062 159.316406 94.578125 C 160.835938 94.117188 162.367188 93.691406 163.910156 93.304688 C 165.449219 92.917969 167 92.570312 168.558594 92.261719 C 170.117188 91.953125 171.679688 91.679688 173.253906 91.449219 C 174.824219 91.214844 176.398438 91.019531 177.980469 90.863281 C 179.5625 90.707031 181.144531 90.589844 182.734375 90.511719 C 184.320312 90.4375 185.90625 90.398438 187.496094 90.398438 C 189.085938 90.398438 190.671875 90.4375 192.261719 90.511719 C 193.847656 90.589844 195.429688 90.707031 197.011719 90.863281 C 198.59375 91.019531 200.167969 91.214844 201.742188 91.449219 C 203.3125 91.679688 204.878906 91.953125 206.433594 92.261719 C 207.992188 92.570312 209.542969 92.917969 211.085938 93.304688 C 212.625 93.691406 214.15625 94.117188 215.675781 94.578125 C 217.195312 95.039062 218.707031 95.535156 220.199219 96.070312 C 221.695312 96.605469 223.179688 97.179688 224.648438 97.785156 C 226.113281 98.394531 227.566406 99.039062 229.003906 99.71875 C 230.4375 100.394531 231.859375 101.109375 233.257812 101.859375 C 234.660156 102.609375 236.042969 103.390625 237.40625 104.207031 C 238.765625 105.023438 240.109375 105.875 241.429688 106.757812 C 242.75 107.640625 244.050781 108.554688 245.324219 109.5 C 246.601562 110.445312 247.855469 111.425781 249.082031 112.433594 C 250.308594 113.441406 251.511719 114.476562 252.691406 115.542969 C 253.867188 116.613281 255.019531 117.707031 256.140625 118.828125 C 257.265625 119.953125 258.359375 121.105469 259.425781 122.28125 C 260.492188 123.457031 261.53125 124.660156 262.539062 125.890625 C 263.546875 127.117188 264.523438 128.371094 265.46875 129.644531 C 266.417969 130.921875 267.332031 132.21875 268.214844 133.539062 C 269.097656 134.863281 269.945312 136.203125 270.761719 137.566406 C 271.578125 138.929688 272.363281 140.3125 273.113281 141.710938 C 273.859375 143.113281 274.574219 144.53125 275.253906 145.96875 C 275.933594 147.40625 276.578125 148.855469 277.183594 150.324219 C 277.792969 151.792969 278.363281 153.273438 278.898438 154.769531 C 279.433594 156.265625 279.933594 157.773438 280.394531 159.292969 C 280.855469 160.816406 281.277344 162.34375 281.664062 163.886719 C 282.050781 165.425781 282.398438 166.976562 282.710938 168.535156 C 283.019531 170.09375 283.289062 171.660156 283.523438 173.230469 C 283.757812 174.800781 283.953125 176.378906 284.105469 177.960938 C 284.261719 179.539062 284.378906 181.125 284.457031 182.710938 C 284.535156 184.296875 284.574219 185.886719 284.574219 187.476562 Z M 284.574219 187.476562 "/></g><g clip-rule="nonzero" clip-path="url(#58935088d0)"><path style="fill:none;stroke-width:1;stroke-linecap:butt;stroke-linejoin:miter;stroke:#4267b2;stroke-opacity:1;stroke-miterlimit:10;" d="M 462.699235 234.60442 C 462.699235 238.23444 462.609826 241.873401 462.431007 245.503421 C 462.252188 249.133441 461.98396 252.763461 461.626323 256.375599 C 461.277626 259.996678 460.83058 263.608816 460.294123 267.203072 C 459.757667 270.797328 459.140743 274.382643 458.434409 277.950077 C 457.719134 281.51751 456.923391 285.067062 456.038238 288.58979 C 455.153085 292.12146 454.187464 295.617366 453.132434 299.104331 C 452.077403 302.582355 450.932964 306.033556 449.708056 309.457934 C 448.483147 312.882313 447.177771 316.270927 445.782985 319.632719 C 444.39714 322.994511 442.921885 326.311598 441.366162 329.601862 C 439.81044 332.892127 438.174248 336.137687 436.46653 339.347482 C 434.74987 342.548337 432.952742 345.713429 431.084086 348.833815 C 429.215431 351.954202 427.275248 355.020943 425.254596 358.05192 C 423.233945 361.073956 421.141766 364.042347 418.969119 366.966033 C 416.805412 369.880778 414.570178 372.750818 412.263417 375.558272 C 409.956655 378.374667 407.578366 381.128475 405.137491 383.819697 C 402.696615 386.510918 400.193153 389.148494 397.618164 391.723484 C 395.052115 394.289532 392.414539 396.792994 389.723318 399.242811 C 387.023155 401.683686 384.269347 404.053034 381.461893 406.359796 C 378.654439 408.666557 375.784399 410.910732 372.860713 413.074438 C 369.945968 415.238145 366.968636 417.330324 363.9466 419.350975 C 360.924564 421.371627 357.848882 423.320751 354.737436 425.189406 C 351.61705 427.058062 348.451958 428.846249 345.242163 430.562909 C 342.041308 432.279568 338.786807 433.91576 335.505484 435.462541 C 332.215219 437.018264 328.889191 438.493519 325.53634 439.888305 C 322.174548 441.27415 318.776993 442.588467 315.352614 443.813375 C 311.937177 445.038284 308.477035 446.173782 304.999011 447.228813 C 301.520987 448.283843 298.01614 449.258405 294.493411 450.143558 C 290.961742 451.028711 287.41219 451.824454 283.844757 452.530788 C 280.286264 453.237122 276.700949 453.862987 273.106693 454.390502 C 269.503496 454.926959 265.900299 455.374005 262.27922 455.731643 C 258.658141 456.08928 255.037062 456.357508 251.407042 456.536327 C 247.768081 456.715146 244.138061 456.795614 240.499101 456.795614 C 236.86014 456.795614 233.23012 456.715146 229.6001 456.536327 C 225.961139 456.357508 222.34006 456.08928 218.718981 455.731643 C 215.097902 455.374005 211.494705 454.926959 207.900449 454.390502 C 204.297252 453.862987 200.720877 453.237122 197.153444 452.530788 C 193.586011 451.824454 190.036459 451.028711 186.513731 450.143558 C 182.982061 449.258405 179.477214 448.283843 175.99919 447.228813 C 172.521166 446.173782 169.069965 445.038284 165.645587 443.813375 C 162.221208 442.588467 158.823653 441.27415 155.470802 439.888305 C 152.10901 438.493519 148.782982 437.018264 145.501658 435.462541 C 142.211394 433.91576 138.965834 432.279568 135.756038 430.562909 C 132.546243 428.846249 129.381151 427.058062 126.269706 425.189406 C 123.149319 423.320751 120.073637 421.371627 117.051601 419.350975 C 114.029565 417.330324 111.052233 415.238145 108.137488 413.074438 C 105.213802 410.910732 102.352703 408.666557 99.536308 406.359796 C 96.728854 404.053034 93.975046 401.683686 91.283824 399.242811 C 88.583662 396.792994 85.955027 394.289532 83.380037 391.723484 C 80.805048 389.148494 78.301586 386.510918 75.86071 383.819697 C 73.419835 381.128475 71.041546 378.374667 68.734784 375.558272 C 66.428023 372.750818 64.192789 369.880778 62.029083 366.966033 C 59.865376 364.042347 57.764256 361.073956 55.743605 358.05192 C 53.722953 355.020943 51.78277 351.954202 49.914115 348.833815 C 48.045459 345.713429 46.248331 342.548337 44.540612 339.347482 C 42.823953 336.137687 41.187761 332.892127 39.632039 329.601862 C 38.076316 326.311598 36.610002 322.994511 35.215216 319.632719 C 33.82043 316.270927 32.515054 312.882313 31.290145 309.457934 C 30.065237 306.033556 28.920798 302.582355 27.865767 299.104331 C 26.810737 295.617366 25.845116 292.12146 24.959963 288.58979 C 24.07481 285.067062 23.279067 281.51751 22.572733 277.950077 C 21.857458 274.382643 21.240534 270.797328 20.704078 267.203072 C 20.167621 263.608816 19.729516 259.996678 19.371878 256.375599 C 19.014241 252.763461 18.746013 249.133441 18.567194 245.503421 C 18.388375 241.873401 18.298966 238.23444 18.298966 234.60442 C 18.298966 230.96546 18.388375 227.326499 18.567194 223.696479 C 18.746013 220.066459 19.014241 216.436439 19.371878 212.824301 C 19.729516 209.203222 20.167621 205.591084 20.704078 201.996828 C 21.240534 198.402572 21.857458 194.817256 22.572733 191.249823 C 23.279067 187.68239 24.07481 184.132838 24.959963 180.61011 C 25.845116 177.07844 26.810737 173.582534 27.865767 170.095569 C 28.920798 166.617545 30.065237 163.166344 31.290145 159.741966 C 32.515054 156.317587 33.82043 152.928973 35.215216 149.567181 C 36.610002 146.205389 38.076316 142.888302 39.632039 139.598037 C 41.187761 136.307773 42.823953 133.062213 44.540612 129.852417 C 46.248331 126.651562 48.045459 123.486471 49.914115 120.366085 C 51.78277 117.245698 53.722953 114.178957 55.743605 111.14798 C 57.764256 108.125944 59.865376 105.157553 62.029083 102.233867 C 64.192789 99.319122 66.428023 96.449082 68.734784 93.641628 C 71.041546 90.825233 73.419835 88.071425 75.86071 85.380203 C 78.301586 82.688982 80.805048 80.051405 83.380037 77.476416 C 85.955027 74.910367 88.583662 72.406905 91.283824 69.957089 C 93.975046 67.516214 96.728854 65.146866 99.536308 62.840104 C 102.352703 60.533343 105.213802 58.289168 108.137488 56.125461 C 111.052233 53.961755 114.029565 51.869576 117.051601 49.848925 C 120.073637 47.828273 123.149319 45.879149 126.269706 44.010494 C 129.381151 42.141838 132.546243 40.353651 135.756038 38.636991 C 138.965834 36.920332 142.211394 35.28414 145.501658 33.737358 C 148.782982 32.181636 152.10901 30.706381 155.470802 29.311595 C 158.823653 27.92575 162.221208 26.611433 165.645587 25.386524 C 169.069965 24.161616 172.521166 23.026117 175.99919 21.971087 C 179.477214 20.916057 182.982061 19.941495 186.513731 19.056342 C 190.036459 18.171189 193.586011 17.375446 197.153444 16.669112 C 200.720877 15.962778 204.297252 15.336913 207.900449 14.809397 C 211.494705 14.272941 215.097902 13.825895 218.718981 13.468257 C 222.34006 13.11062 225.961139 12.842392 229.6001 12.663573 C 233.23012 12.493695 236.86014 12.404286 240.499101 12.404286 C 244.138061 12.404286 247.768081 12.493695 251.407042 12.663573 C 255.037062 12.842392 258.658141 13.11062 262.27922 13.468257 C 265.900299 13.825895 269.503496 14.272941 273.106693 14.809397 C 276.700949 15.336913 280.286264 15.962778 283.844757 16.669112 C 287.41219 17.375446 290.961742 18.171189 294.493411 19.056342 C 298.01614 19.941495 301.520987 20.916057 304.999011 21.971087 C 308.477035 23.026117 311.937177 24.161616 315.352614 25.386524 C 318.776993 26.611433 322.174548 27.92575 325.53634 29.311595 C 328.889191 30.706381 332.215219 32.181636 335.505484 33.737358 C 338.786807 35.28414 342.041308 36.920332 345.242163 38.636991 C 348.451958 40.353651 351.61705 42.141838 354.737436 44.010494 C 357.848882 45.879149 360.924564 47.828273 363.9466 49.848925 C 366.968636 51.869576 369.945968 53.961755 372.860713 56.125461 C 375.784399 58.289168 378.654439 60.533343 381.461893 62.840104 C 384.269347 65.146866 387.023155 67.516214 389.723318 69.957089 C 392.414539 72.406905 395.052115 74.910367 397.618164 77.476416 C 400.193153 80.051405 402.696615 82.688982 405.137491 85.380203 C 407.578366 88.071425 409.956655 90.825233 412.263417 93.641628 C 414.570178 96.449082 416.805412 99.319122 418.969119 102.233867 C 421.141766 105.157553 423.233945 108.125944 425.254596 111.14798 C 427.275248 114.178957 429.215431 117.245698 431.084086 120.366085 C 432.952742 123.486471 434.74987 126.651562 436.46653 129.852417 C 438.174248 133.062213 439.81044 136.307773 441.366162 139.598037 C 442.921885 142.888302 444.39714 146.205389 445.782985 149.567181 C 447.177771 152.928973 448.483147 156.317587 449.708056 159.741966 C 450.932964 163.166344 452.077403 166.617545 453.132434 170.095569 C 454.187464 173.582534 455.153085 177.07844 456.038238 180.61011 C 456.923391 184.132838 457.719134 187.68239 458.434409 191.249823 C 459.140743 194.817256 459.757667 198.402572 460.294123 201.996828 C 460.83058 205.591084 461.277626 209.203222 461.626323 212.824301 C 461.98396 216.436439 462.252188 220.066459 462.431007 223.696479 C 462.609826 227.326499 462.699235 230.96546 462.699235 234.60442 Z M 462.699235 234.60442 " transform="matrix(0.436895,0,0,0.436895,82.423242,84.979067)"/></g><path style=" stroke:none;fill-rule:nonzero;fill:#2d371e;fill-opacity:1;" d="M 210.300781 119.058594 C 202.570312 120.453125 199.90625 121.765625 195.449219 124.300781 C 190.6875 127.007812 187.367188 129.847656 185.09375 132.164062 C 177.667969 139.851562 176.007812 147.019531 174.609375 152.566406 C 172.511719 160.738281 172.730469 168.425781 172.730469 168.425781 L 172.730469 174.410156 L 157.132812 174.410156 L 157.132812 201.542969 L 172.730469 201.542969 L 172.730469 283.460938 C 177.535156 284.203125 182.472656 284.597656 187.496094 284.597656 C 194.921875 284.597656 202.175781 283.765625 209.121094 282.195312 L 209.121094 201.542969 L 232.847656 201.542969 L 232.847656 174.410156 L 209.121094 174.410156 L 209.121094 168.644531 C 209.121094 168.644531 209.121094 167.597656 209.121094 167.464844 C 209.121094 167.332031 209.121094 167.160156 209.121094 167.027344 C 209.121094 165.847656 209.167969 164.101562 209.429688 162.570312 C 210.082031 158.597656 211.4375 155.492188 213.710938 152.742188 C 216.332031 149.597656 219.390625 148.242188 222.796875 147.71875 C 231.230469 146.40625 238.265625 149.332031 238.265625 149.332031 L 239.574219 120.804688 C 239.574219 120.804688 234.289062 119.101562 225.550781 118.488281 C 219.390625 118.050781 213.929688 118.402344 210.300781 119.058594 Z M 210.300781 119.058594 "/><g clip-rule="nonzero" clip-path="url(#83cb4313bf)"><path style="fill:none;stroke-width:1;stroke-linecap:butt;stroke-linejoin:miter;stroke:#ffffff;stroke-opacity:1;stroke-miterlimit:10;" d="M 292.696283 78.003931 C 275.002171 81.195845 268.904453 84.2 258.702846 90.002667 C 247.803845 96.198735 240.20405 102.698796 235.000425 108.000771 C 218.003706 125.596532 214.203809 142.003149 211.002954 154.699278 C 206.201671 173.403715 206.702363 190.999477 206.702363 190.999477 L 206.702363 204.69699 L 171.001207 204.69699 L 171.001207 266.80073 L 206.702363 266.80073 L 206.702363 454.301093 C 217.699714 455.999871 229.001057 456.902905 240.499101 456.902905 C 257.495819 456.902905 274.099137 454.998486 289.996121 451.40423 L 289.996121 266.80073 L 344.303364 266.80073 L 344.303364 204.69699 L 289.996121 204.69699 L 289.996121 191.500169 C 289.996121 191.500169 289.996121 189.103999 289.996121 188.800007 C 289.996121 188.496015 289.996121 188.102614 289.996121 187.798622 C 289.996121 185.098459 290.103412 181.101861 290.702455 177.597014 C 292.195591 168.504083 295.298096 161.396039 300.50172 155.10162 C 306.501088 147.904167 313.501841 144.801662 321.298337 143.603577 C 340.601817 140.599422 356.704442 147.296183 356.704442 147.296183 L 359.699656 82.000529 C 359.699656 82.000529 347.60257 78.102281 327.601696 76.698555 C 313.501841 75.69717 301.002413 76.501854 292.696283 78.003931 Z M 292.696283 78.003931 " transform="matrix(0.436895,0,0,0.436895,82.423242,84.979067)"/></g></g></svg>