<svg xmlns="http://www.w3.org/2000/svg" xmlns:xlink="http://www.w3.org/1999/xlink" width="500" zoomAndPan="magnify" viewBox="0 0 375 374.999991" height="500" preserveAspectRatio="xMidYMid meet" version="1.2"><defs><clipPath id="a1adeb643f"><path d="M 90.179688 90.179688 L 285 90.179688 L 285 285 L 90.179688 285 Z M 90.179688 90.179688 "/></clipPath><clipPath id="21fa7f6192"><path d="M 90.179688 90.179688 L 285.179688 90.179688 L 285.179688 285.179688 L 90.179688 285.179688 Z M 90.179688 90.179688 "/></clipPath><clipPath id="4befd723b8"><path d="M 150 112 L 246 112 L 246 285.179688 L 150 285.179688 Z M 150 112 "/></clipPath></defs><g id="41305f0bac"><g clip-rule="nonzero" clip-path="url(#a1adeb643f)"><path style=" stroke:none;fill-rule:nonzero;fill:#2d371e;fill-opacity:1;" d="M 284.574219 187.476562 C 284.574219 189.0625 284.535156 190.652344 284.457031 192.238281 C 284.378906 193.824219 284.261719 195.410156 284.105469 196.988281 C 283.953125 198.570312 283.757812 200.148438 283.523438 201.71875 C 283.289062 203.289062 283.019531 204.855469 282.710938 206.414062 C 282.398438 207.972656 282.050781 209.523438 281.664062 211.0625 C 281.277344 212.605469 280.855469 214.132812 280.394531 215.65625 C 279.933594 217.175781 279.433594 218.683594 278.898438 220.179688 C 278.363281 221.675781 277.792969 223.15625 277.183594 224.625 C 276.578125 226.09375 275.933594 227.542969 275.253906 228.980469 C 274.574219 230.417969 273.859375 231.835938 273.113281 233.238281 C 272.363281 234.636719 271.578125 236.019531 270.761719 237.382812 C 269.945312 238.746094 269.097656 240.085938 268.214844 241.410156 C 267.332031 242.730469 266.417969 244.027344 265.46875 245.304688 C 264.523438 246.582031 263.546875 247.832031 262.539062 249.058594 C 261.53125 250.289062 260.492188 251.492188 259.425781 252.667969 C 258.359375 253.84375 257.265625 254.996094 256.140625 256.121094 C 255.019531 257.242188 253.867188 258.335938 252.691406 259.40625 C 251.511719 260.472656 250.308594 261.507812 249.082031 262.515625 C 247.855469 263.523438 246.601562 264.503906 245.324219 265.449219 C 244.050781 266.394531 242.75 267.308594 241.429688 268.191406 C 240.109375 269.074219 238.765625 269.925781 237.40625 270.742188 C 236.042969 271.558594 234.660156 272.339844 233.257812 273.089844 C 231.859375 273.839844 230.4375 274.554688 229.003906 275.230469 C 227.566406 275.910156 226.113281 276.554688 224.648438 277.164062 C 223.179688 277.769531 221.695312 278.34375 220.199219 278.878906 C 218.707031 279.414062 217.195312 279.910156 215.675781 280.371094 C 214.15625 280.832031 212.625 281.257812 211.085938 281.644531 C 209.542969 282.03125 207.992188 282.378906 206.433594 282.6875 C 204.878906 282.996094 203.3125 283.269531 201.742188 283.503906 C 200.167969 283.734375 198.59375 283.929688 197.011719 284.085938 C 195.429688 284.242188 193.847656 284.359375 192.261719 284.4375 C 190.671875 284.515625 189.085938 284.554688 187.496094 284.554688 C 185.90625 284.554688 184.320312 284.515625 182.734375 284.4375 C 181.144531 284.359375 179.5625 284.242188 177.980469 284.085938 C 176.398438 283.929688 174.824219 283.734375 173.253906 283.503906 C 171.679688 283.269531 170.117188 282.996094 168.558594 282.6875 C 167 282.378906 165.449219 282.03125 163.910156 281.644531 C 162.367188 281.257812 160.835938 280.832031 159.316406 280.371094 C 157.796875 279.910156 156.289062 279.414062 154.792969 278.878906 C 153.296875 278.34375 151.8125 277.769531 150.347656 277.164062 C 148.878906 276.554688 147.425781 275.910156 145.992188 275.230469 C 144.554688 274.554688 143.136719 273.839844 141.734375 273.089844 C 140.332031 272.339844 138.949219 271.558594 137.589844 270.742188 C 136.226562 269.925781 134.882812 269.074219 133.5625 268.191406 C 132.242188 267.308594 130.941406 266.394531 129.667969 265.449219 C 128.390625 264.503906 127.140625 263.523438 125.910156 262.515625 C 124.683594 261.507812 123.480469 260.472656 122.304688 259.40625 C 121.125 258.335938 119.976562 257.242188 118.851562 256.121094 C 117.726562 254.996094 116.632812 253.84375 115.566406 252.667969 C 114.5 251.492188 113.460938 250.289062 112.453125 249.058594 C 111.445312 247.832031 110.46875 246.582031 109.523438 245.304688 C 108.578125 244.027344 107.660156 242.730469 106.777344 241.410156 C 105.894531 240.085938 105.046875 238.746094 104.230469 237.382812 C 103.414062 236.019531 102.628906 234.636719 101.882812 233.238281 C 101.132812 231.835938 100.417969 230.417969 99.738281 228.980469 C 99.058594 227.542969 98.417969 226.09375 97.808594 224.625 C 97.199219 223.15625 96.628906 221.675781 96.09375 220.179688 C 95.558594 218.683594 95.058594 217.175781 94.597656 215.65625 C 94.136719 214.132812 93.714844 212.605469 93.328125 211.0625 C 92.941406 209.523438 92.59375 207.972656 92.285156 206.414062 C 91.972656 204.855469 91.703125 203.289062 91.46875 201.71875 C 91.234375 200.148438 91.042969 198.570312 90.886719 196.988281 C 90.730469 195.410156 90.613281 193.824219 90.535156 192.238281 C 90.457031 190.652344 90.417969 189.0625 90.417969 187.476562 C 90.417969 185.886719 90.457031 184.296875 90.535156 182.710938 C 90.613281 181.125 90.730469 179.539062 90.886719 177.960938 C 91.042969 176.378906 91.234375 174.800781 91.46875 173.230469 C 91.703125 171.660156 91.972656 170.09375 92.285156 168.535156 C 92.59375 166.976562 92.941406 165.429688 93.328125 163.886719 C 93.714844 162.34375 94.136719 160.816406 94.597656 159.292969 C 95.058594 157.773438 95.558594 156.265625 96.09375 154.769531 C 96.628906 153.273438 97.199219 151.792969 97.808594 150.324219 C 98.417969 148.855469 99.058594 147.40625 99.738281 145.96875 C 100.417969 144.53125 101.132812 143.113281 101.882812 141.710938 C 102.628906 140.3125 103.414062 138.929688 104.230469 137.566406 C 105.046875 136.203125 105.894531 134.863281 106.777344 133.539062 C 107.660156 132.21875 108.578125 130.921875 109.523438 129.644531 C 110.46875 128.371094 111.445312 127.117188 112.453125 125.890625 C 113.460938 124.660156 114.5 123.457031 115.566406 122.28125 C 116.632812 121.105469 117.726562 119.953125 118.851562 118.832031 C 119.976562 117.707031 121.125 116.613281 122.304688 115.542969 C 123.480469 114.476562 124.683594 113.441406 125.910156 112.433594 C 127.140625 111.425781 128.390625 110.449219 129.667969 109.5 C 130.941406 108.554688 132.242188 107.640625 133.5625 106.757812 C 134.882812 105.875 136.226562 105.023438 137.589844 104.207031 C 138.949219 103.390625 140.332031 102.609375 141.734375 101.859375 C 143.136719 101.109375 144.554688 100.394531 145.992188 99.71875 C 147.425781 99.039062 148.878906 98.394531 150.347656 97.785156 C 151.8125 97.179688 153.296875 96.605469 154.792969 96.070312 C 156.289062 95.535156 157.796875 95.039062 159.316406 94.578125 C 160.835938 94.117188 162.367188 93.691406 163.910156 93.304688 C 165.449219 92.917969 167 92.570312 168.558594 92.261719 C 170.117188 91.953125 171.679688 91.679688 173.253906 91.449219 C 174.824219 91.214844 176.398438 91.019531 177.980469 90.863281 C 179.5625 90.707031 181.144531 90.589844 182.734375 90.511719 C 184.320312 90.4375 185.90625 90.398438 187.496094 90.398438 C 189.085938 90.398438 190.671875 90.4375 192.261719 90.511719 C 193.847656 90.589844 195.429688 90.707031 197.011719 90.863281 C 198.59375 91.019531 200.167969 91.214844 201.742188 91.449219 C 203.3125 91.679688 204.878906 91.953125 206.433594 92.261719 C 207.992188 92.570312 209.542969 92.917969 211.085938 93.304688 C 212.625 93.691406 214.15625 94.117188 215.675781 94.578125 C 217.195312 95.039062 218.707031 95.535156 220.199219 96.070312 C 221.695312 96.605469 223.179688 97.179688 224.648438 97.785156 C 226.113281 98.394531 227.566406 99.039062 229.003906 99.71875 C 230.4375 100.394531 231.859375 101.109375 233.257812 101.859375 C 234.660156 102.609375 236.042969 103.390625 237.40625 104.207031 C 238.765625 105.023438 240.109375 105.875 241.429688 106.757812 C 242.75 107.640625 244.050781 108.554688 245.324219 109.5 C 246.601562 110.449219 247.855469 111.425781 249.082031 112.433594 C 250.308594 113.441406 251.511719 114.476562 252.691406 115.542969 C 253.867188 116.613281 255.019531 117.707031 256.140625 118.832031 C 257.265625 119.953125 258.359375 121.105469 259.425781 122.28125 C 260.492188 123.457031 261.53125 124.660156 262.539062 125.890625 C 263.546875 127.117188 264.523438 128.371094 265.46875 129.644531 C 266.417969 130.921875 267.332031 132.21875 268.214844 133.539062 C 269.097656 134.863281 269.945312 136.203125 270.761719 137.566406 C 271.578125 138.929688 272.363281 140.3125 273.113281 141.710938 C 273.859375 143.113281 274.574219 144.53125 275.253906 145.96875 C 275.933594 147.40625 276.578125 148.855469 277.183594 150.324219 C 277.792969 151.792969 278.363281 153.273438 278.898438 154.769531 C 279.433594 156.265625 279.933594 157.773438 280.394531 159.292969 C 280.855469 160.816406 281.277344 162.34375 281.664062 163.886719 C 282.050781 165.429688 282.398438 166.976562 282.710938 168.535156 C 283.019531 170.09375 283.289062 171.660156 283.523438 173.230469 C 283.757812 174.800781 283.953125 176.378906 284.105469 177.960938 C 284.261719 179.539062 284.378906 181.125 284.457031 182.710938 C 284.535156 184.296875 284.574219 185.886719 284.574219 187.476562 Z M 284.574219 187.476562 "/></g><g clip-rule="nonzero" clip-path="url(#21fa7f6192)"><path style="fill:none;stroke-width:1;stroke-linecap:butt;stroke-linejoin:miter;stroke:#4267b2;stroke-opacity:1;stroke-miterlimit:10;" d="M 462.699235 234.604289 C 462.699235 238.234308 462.609826 241.873269 462.431007 245.503289 C 462.252188 249.133309 461.98396 252.763329 461.626323 256.375467 C 461.277626 259.996546 460.83058 263.608684 460.294123 267.20294 C 459.757667 270.797196 459.140743 274.382512 458.434409 277.949945 C 457.719134 281.517378 456.923391 285.06693 456.038238 288.589658 C 455.153085 292.121328 454.187464 295.617234 453.132434 299.104199 C 452.077403 302.582223 450.932964 306.033424 449.708056 309.457802 C 448.483147 312.882181 447.177771 316.270795 445.782985 319.632587 C 444.39714 322.994379 442.921885 326.311466 441.366162 329.601731 C 439.81044 332.891995 438.174248 336.137555 436.46653 339.347351 C 434.74987 342.548206 432.952742 345.713297 431.084086 348.833683 C 429.215431 351.95407 427.275248 355.020811 425.254596 358.051788 C 423.233945 361.073824 421.141766 364.042215 418.969119 366.965901 C 416.805412 369.889587 414.570178 372.750686 412.263417 375.55814 C 409.956655 378.374535 407.578366 381.128343 405.137491 383.819565 C 402.696615 386.510787 400.193153 389.148363 397.618164 391.723352 C 395.052115 394.289401 392.414539 396.792863 389.723318 399.242679 C 387.023155 401.683554 384.269347 404.052902 381.461893 406.359664 C 378.654439 408.666425 375.784399 410.9106 372.860713 413.074307 C 369.945968 415.238013 366.968636 417.330192 363.9466 419.350843 C 360.924564 421.371495 357.848882 423.320619 354.737436 425.189274 C 351.61705 427.05793 348.451958 428.846117 345.242163 430.562777 C 342.041308 432.279437 338.786807 433.915628 335.505484 435.46241 C 332.215219 437.018132 328.889191 438.493387 325.53634 439.888173 C 322.174548 441.274018 318.776993 442.588335 315.352614 443.813244 C 311.937177 445.038152 308.477035 446.173651 304.999011 447.228681 C 301.520987 448.283711 298.01614 449.258273 294.493411 450.143426 C 290.961742 451.028579 287.41219 451.824322 283.844757 452.530656 C 280.286264 453.23699 276.700949 453.862855 273.106693 454.399311 C 269.503496 454.926827 265.900299 455.373873 262.27922 455.731511 C 258.658141 456.089148 255.037062 456.357376 251.407042 456.536195 C 247.768081 456.715014 244.138061 456.804423 240.499101 456.804423 C 236.86014 456.804423 233.23012 456.715014 229.6001 456.536195 C 225.961139 456.357376 222.34006 456.089148 218.718981 455.731511 C 215.097902 455.373873 211.494705 454.926827 207.900449 454.399311 C 204.297252 453.862855 200.720877 453.23699 197.153444 452.530656 C 193.586011 451.824322 190.036459 451.028579 186.513731 450.143426 C 182.982061 449.258273 179.477214 448.283711 175.99919 447.228681 C 172.521166 446.173651 169.069965 445.038152 165.645587 443.813244 C 162.221208 442.588335 158.823653 441.274018 155.470802 439.888173 C 152.10901 438.493387 148.782982 437.018132 145.501658 435.46241 C 142.211394 433.915628 138.965834 432.279437 135.756038 430.562777 C 132.546243 428.846117 129.381151 427.05793 126.269706 425.189274 C 123.149319 423.320619 120.073637 421.371495 117.051601 419.350843 C 114.029565 417.330192 111.052233 415.238013 108.137488 413.074307 C 105.213802 410.9106 102.352703 408.666425 99.536308 406.359664 C 96.728854 404.052902 93.975046 401.683554 91.283824 399.242679 C 88.583662 396.792863 85.955027 394.289401 83.380037 391.723352 C 80.805048 389.148363 78.301586 386.510787 75.86071 383.819565 C 73.419835 381.128343 71.041546 378.374535 68.734784 375.55814 C 66.428023 372.750686 64.192789 369.889587 62.029083 366.965901 C 59.865376 364.042215 57.764256 361.073824 55.743605 358.051788 C 53.722953 355.020811 51.78277 351.95407 49.914115 348.833683 C 48.045459 345.713297 46.248331 342.548206 44.540612 339.347351 C 42.823953 336.137555 41.187761 332.891995 39.632039 329.601731 C 38.076316 326.311466 36.610002 322.994379 35.215216 319.632587 C 33.82043 316.270795 32.515054 312.882181 31.290145 309.457802 C 30.065237 306.033424 28.920798 302.582223 27.865767 299.104199 C 26.810737 295.617234 25.845116 292.121328 24.959963 288.589658 C 24.07481 285.06693 23.279067 281.517378 22.572733 277.949945 C 21.857458 274.382512 21.240534 270.797196 20.704078 267.20294 C 20.167621 263.608684 19.729516 259.996546 19.371878 256.375467 C 19.014241 252.763329 18.746013 249.133309 18.567194 245.503289 C 18.388375 241.873269 18.298966 238.234308 18.298966 234.604289 C 18.298966 230.965328 18.388375 227.326367 18.567194 223.696347 C 18.746013 220.066327 19.014241 216.436307 19.371878 212.824169 C 19.729516 209.20309 20.167621 205.590952 20.704078 201.996696 C 21.240534 198.40244 21.857458 194.817125 22.572733 191.249691 C 23.279067 187.682258 24.07481 184.141647 24.959963 180.609978 C 25.845116 177.078308 26.810737 173.582402 27.865767 170.095437 C 28.920798 166.617413 30.065237 163.166212 31.290145 159.741834 C 32.515054 156.317455 33.82043 152.928841 35.215216 149.567049 C 36.610002 146.205257 38.076316 142.88817 39.632039 139.597906 C 41.187761 136.307641 42.823953 133.062082 44.540612 129.852286 C 46.248331 126.651431 48.045459 123.486339 49.914115 120.365953 C 51.78277 117.245566 53.722953 114.178825 55.743605 111.147848 C 57.764256 108.125812 59.865376 105.157421 62.029083 102.233735 C 64.192789 99.31899 66.428023 96.44895 68.734784 93.641496 C 71.041546 90.825101 73.419835 88.071293 75.86071 85.380071 C 78.301586 82.68885 80.805048 80.051274 83.380037 77.485225 C 85.955027 74.910236 88.583662 72.406774 91.283824 69.956957 C 93.975046 67.516082 96.728854 65.146734 99.536308 62.839972 C 102.352703 60.533211 105.213802 58.297977 108.137488 56.12533 C 111.052233 53.961623 114.029565 51.869444 117.051601 49.848793 C 120.073637 47.828141 123.149319 45.879017 126.269706 44.010362 C 129.381151 42.141706 132.546243 40.353519 135.756038 38.636859 C 138.965834 36.9202 142.211394 35.284008 145.501658 33.737227 C 148.782982 32.181504 152.10901 30.706249 155.470802 29.311463 C 158.823653 27.925618 162.221208 26.611301 165.645587 25.386393 C 169.069965 24.161484 172.521166 23.025986 175.99919 21.970955 C 179.477214 20.915925 182.982061 19.941363 186.513731 19.05621 C 190.036459 18.171057 193.586011 17.375314 197.153444 16.66898 C 200.720877 15.962646 204.297252 15.336781 207.900449 14.809266 C 211.494705 14.27281 215.097902 13.825763 218.718981 13.468125 C 222.34006 13.110488 225.961139 12.84226 229.6001 12.663441 C 233.23012 12.493563 236.86014 12.404154 240.499101 12.404154 C 244.138061 12.404154 247.768081 12.493563 251.407042 12.663441 C 255.037062 12.84226 258.658141 13.110488 262.27922 13.468125 C 265.900299 13.825763 269.503496 14.27281 273.106693 14.809266 C 276.700949 15.336781 280.286264 15.962646 283.844757 16.66898 C 287.41219 17.375314 290.961742 18.171057 294.493411 19.05621 C 298.01614 19.941363 301.520987 20.915925 304.999011 21.970955 C 308.477035 23.025986 311.937177 24.161484 315.352614 25.386393 C 318.776993 26.611301 322.174548 27.925618 325.53634 29.311463 C 328.889191 30.706249 332.215219 32.181504 335.505484 33.737227 C 338.786807 35.284008 342.041308 36.9202 345.242163 38.636859 C 348.451958 40.353519 351.61705 42.141706 354.737436 44.010362 C 357.848882 45.879017 360.924564 47.828141 363.9466 49.848793 C 366.968636 51.869444 369.945968 53.961623 372.860713 56.12533 C 375.784399 58.297977 378.654439 60.533211 381.461893 62.839972 C 384.269347 65.146734 387.023155 67.516082 389.723318 69.956957 C 392.414539 72.406774 395.052115 74.910236 397.618164 77.485225 C 400.193153 80.051274 402.696615 82.68885 405.137491 85.380071 C 407.578366 88.071293 409.956655 90.825101 412.263417 93.641496 C 414.570178 96.44895 416.805412 99.31899 418.969119 102.233735 C 421.141766 105.157421 423.233945 108.125812 425.254596 111.147848 C 427.275248 114.178825 429.215431 117.245566 431.084086 120.365953 C 432.952742 123.486339 434.74987 126.651431 436.46653 129.852286 C 438.174248 133.062082 439.81044 136.307641 441.366162 139.597906 C 442.921885 142.88817 444.39714 146.205257 445.782985 149.567049 C 447.177771 152.928841 448.483147 156.317455 449.708056 159.741834 C 450.932964 163.166212 452.077403 166.617413 453.132434 170.095437 C 454.187464 173.582402 455.153085 177.078308 456.038238 180.609978 C 456.923391 184.141647 457.719134 187.682258 458.434409 191.249691 C 459.140743 194.817125 459.757667 198.40244 460.294123 201.996696 C 460.83058 205.590952 461.277626 209.20309 461.626323 212.824169 C 461.98396 216.436307 462.252188 220.066327 462.431007 223.696347 C 462.609826 227.326367 462.699235 230.965328 462.699235 234.604289 Z M 462.699235 234.604289 " transform="matrix(0.436895,0,0,0.436895,82.423242,84.979125)"/></g><path style=" stroke:none;fill-rule:nonzero;fill:#ffffff;fill-opacity:1;" d="M 210.300781 119.058594 C 202.570312 120.453125 199.90625 121.765625 195.449219 124.300781 C 190.6875 127.007812 187.367188 129.847656 185.09375 132.164062 C 177.667969 139.851562 176.007812 147.019531 174.609375 152.566406 C 172.511719 160.738281 172.730469 168.425781 172.730469 168.425781 L 172.730469 174.410156 L 157.132812 174.410156 L 157.132812 201.542969 L 172.730469 201.542969 L 172.730469 283.460938 C 177.535156 284.203125 182.472656 284.597656 187.496094 284.597656 C 194.921875 284.597656 202.175781 283.765625 209.121094 282.195312 L 209.121094 201.542969 L 232.847656 201.542969 L 232.847656 174.410156 L 209.121094 174.410156 L 209.121094 168.644531 C 209.121094 168.644531 209.121094 167.597656 209.121094 167.464844 C 209.121094 167.332031 209.121094 167.160156 209.121094 167.027344 C 209.121094 165.847656 209.167969 164.101562 209.429688 162.570312 C 210.082031 158.597656 211.4375 155.492188 213.710938 152.742188 C 216.332031 149.597656 219.390625 148.242188 222.796875 147.71875 C 231.230469 146.40625 238.265625 149.332031 238.265625 149.332031 L 239.574219 120.804688 C 239.574219 120.804688 234.289062 119.101562 225.550781 118.488281 C 219.390625 118.050781 213.929688 118.402344 210.300781 119.058594 Z M 210.300781 119.058594 "/><g clip-rule="nonzero" clip-path="url(#4befd723b8)"><path style="fill:none;stroke-width:1;stroke-linecap:butt;stroke-linejoin:miter;stroke:#ffffff;stroke-opacity:1;stroke-miterlimit:10;" d="M 292.696283 78.003799 C 275.002171 81.195713 268.904453 84.199868 258.702846 90.002535 C 247.803845 96.198604 240.20405 102.698664 235.000425 108.000639 C 218.003706 125.5964 214.203809 142.003017 211.002954 154.699146 C 206.201671 173.403584 206.702363 190.999345 206.702363 190.999345 L 206.702363 204.696859 L 171.001207 204.696859 L 171.001207 266.800598 L 206.702363 266.800598 L 206.702363 454.300961 C 217.699714 455.999739 229.001057 456.902773 240.499101 456.902773 C 257.495819 456.902773 274.099137 454.998354 289.996121 451.404098 L 289.996121 266.800598 L 344.303364 266.800598 L 344.303364 204.696859 L 289.996121 204.696859 L 289.996121 191.500037 C 289.996121 191.500037 289.996121 189.103867 289.996121 188.799875 C 289.996121 188.495883 289.996121 188.102482 289.996121 187.79849 C 289.996121 185.098327 290.103412 181.101729 290.702455 177.596882 C 292.195591 168.503951 295.298096 161.395907 300.50172 155.101488 C 306.501088 147.904035 313.501841 144.80153 321.298337 143.603445 C 340.601817 140.59929 356.704442 147.296051 356.704442 147.296051 L 359.699656 82.000398 C 359.699656 82.000398 347.60257 78.10215 327.601696 76.698423 C 313.501841 75.697038 301.002413 76.501722 292.696283 78.003799 Z M 292.696283 78.003799 " transform="matrix(0.436895,0,0,0.436895,82.423242,84.979125)"/></g></g></svg>