<svg xmlns="http://www.w3.org/2000/svg" xmlns:xlink="http://www.w3.org/1999/xlink" width="500" zoomAndPan="magnify" viewBox="0 0 375 374.999991" height="500" preserveAspectRatio="xMidYMid meet" version="1.2"><defs><clipPath id="0f636b3d51"><path d="M 67 113 L 311 113 L 311 280.761719 L 67 280.761719 Z M 67 113 "/></clipPath><clipPath id="e5399f2eaf"><path d="M 174 94.011719 L 244 94.011719 L 244 126 L 174 126 Z M 174 94.011719 "/></clipPath><clipPath id="ced386aaac"><path d="M 119 94.011719 L 188 94.011719 L 188 126 L 119 126 Z M 119 94.011719 "/></clipPath><clipPath id="97badec8e0"><path d="M 63.875 94.011719 L 133 94.011719 L 133 126 L 63.875 126 Z M 63.875 94.011719 "/></clipPath></defs><g id="c45c8a65ec"><g clip-rule="nonzero" clip-path="url(#0f636b3d51)"><path style=" stroke:none;fill-rule:nonzero;fill:#fff9b5;fill-opacity:1;" d="M 303.699219 280.761719 L 74.535156 280.761719 C 70.648438 280.761719 67.464844 277.578125 67.464844 273.691406 L 67.464844 120.519531 C 67.464844 116.632812 70.648438 113.449219 74.535156 113.449219 L 303.699219 113.449219 C 307.589844 113.449219 310.769531 116.632812 310.769531 120.519531 L 310.769531 273.691406 C 310.769531 277.578125 307.589844 280.761719 303.699219 280.761719 Z M 303.699219 280.761719 "/></g><g clip-rule="nonzero" clip-path="url(#e5399f2eaf)"><path style=" stroke:none;fill-rule:nonzero;fill:#2d371e;fill-opacity:1;" d="M 235.953125 125.234375 L 181.753906 125.234375 C 177.867188 125.234375 174.683594 122.050781 174.683594 118.164062 L 174.683594 104.730469 C 174.683594 98.839844 179.515625 94.011719 185.40625 94.011719 L 218.867188 94.011719 C 232.125 94.011719 243.023438 104.847656 243.023438 118.164062 C 243.023438 122.050781 239.839844 125.234375 235.953125 125.234375 Z M 235.953125 125.234375 "/></g><g clip-rule="nonzero" clip-path="url(#ced386aaac)"><path style=" stroke:none;fill-rule:nonzero;fill:#ffcad0;fill-opacity:1;" d="M 180.574219 125.234375 L 126.378906 125.234375 C 122.488281 125.234375 119.308594 122.050781 119.308594 118.164062 L 119.308594 104.730469 C 119.308594 98.839844 124.136719 94.011719 130.03125 94.011719 L 163.492188 94.011719 C 176.746094 94.011719 187.644531 104.847656 187.644531 118.164062 C 187.644531 122.050781 184.464844 125.234375 180.574219 125.234375 Z M 180.574219 125.234375 "/></g><path style=" stroke:none;fill-rule:nonzero;fill:#fff9b5;fill-opacity:1;" d="M 300.460938 276.929688 L 71.292969 276.929688 C 67.40625 276.929688 64.226562 273.75 64.226562 269.859375 L 64.226562 116.691406 C 64.226562 112.800781 67.40625 109.621094 71.292969 109.621094 L 300.460938 109.621094 C 304.347656 109.621094 307.53125 112.800781 307.53125 116.691406 L 307.53125 269.859375 C 307.53125 273.75 304.347656 276.929688 300.460938 276.929688 Z M 300.460938 276.929688 "/><g clip-rule="nonzero" clip-path="url(#97badec8e0)"><path style=" stroke:none;fill-rule:nonzero;fill:#fff9b5;fill-opacity:1;" d="M 125.199219 125.234375 L 71 125.234375 C 67.113281 125.234375 63.929688 122.050781 63.929688 118.164062 L 63.929688 104.730469 C 63.929688 98.839844 68.761719 94.011719 74.652344 94.011719 L 108.113281 94.011719 C 121.371094 94.011719 132.269531 104.847656 132.269531 118.164062 C 132.269531 122.050781 129.085938 125.234375 125.199219 125.234375 Z M 125.199219 125.234375 "/></g></g></svg>