<svg xmlns="http://www.w3.org/2000/svg" xmlns:xlink="http://www.w3.org/1999/xlink" width="1024" zoomAndPan="magnify" viewBox="0 0 768 767.999994" height="1024" preserveAspectRatio="xMidYMid meet" version="1.2"><defs><clipPath id="8418b65c34"><path d="M 217.535156 198.492188 L 580.023438 198.492188 L 580.023438 567.085938 L 217.535156 567.085938 Z M 217.535156 198.492188 "/></clipPath><clipPath id="aba82d2ce8"><path d="M 217.535156 198.492188 L 580.023438 198.492188 L 580.023438 567.085938 L 217.535156 567.085938 Z M 217.535156 198.492188 "/></clipPath></defs><g id="ed77fc9831"><g clip-rule="nonzero" clip-path="url(#8418b65c34)"><path style=" stroke:none;fill-rule:evenodd;fill:#221b1a;fill-opacity:1;" d="M 373.1875 198.507812 C 410.03125 208.464844 440.308594 214.1875 459.839844 240.925781 C 464.535156 236.226562 469.25 231.5 473.996094 226.785156 C 476.921875 225.035156 479.863281 223.265625 482.808594 221.496094 C 486.941406 222.089844 491.058594 222.667969 495.210938 223.265625 C 506.140625 228.457031 508.488281 238.296875 512.871094 249.773438 C 526.050781 242.179688 533.824219 231.398438 551.765625 228.570312 C 557.074219 232.691406 562.347656 236.808594 567.671875 240.925781 C 567.09375 245.058594 566.480469 249.175781 565.886719 253.328125 C 558.824219 260.964844 551.765625 268.621094 544.703125 276.28125 C 555.867188 279.222656 567.09375 282.183594 578.289062 285.125 C 580.488281 308.773438 566.746094 316.5625 553.515625 329.328125 C 553.515625 329.90625 553.515625 330.5 553.515625 331.113281 C 566.566406 337.332031 572.039062 351.667969 580.042969 362.914062 C 577.675781 367.609375 575.328125 372.320312 572.980469 377.050781 C 559.421875 377.050781 545.828125 377.050781 532.285156 377.050781 C 509.066406 473.804688 463.296875 517.476562 378.515625 552.054688 C 342.695312 566.671875 281.296875 576.890625 247.710938 552.054688 C 216.542969 529.019531 211.945312 463.683594 222.957031 414.175781 C 240.304688 336.222656 270.546875 249.308594 364.390625 248.003906 C 357.644531 228.804688 359.679688 207.851562 373.1875 198.507812 "/></g><path style=" stroke:none;fill-rule:evenodd;fill:#fff9b5;fill-opacity:1;" d="M 376.746094 216.167969 C 376.414062 230.953125 378.859375 240.875 383.804688 249.773438 C 405.269531 237.832031 431.230469 247.242188 451.007812 256.847656 C 433.746094 233.765625 409.039062 224.421875 376.746094 216.167969 "/><path style=" stroke:none;fill-rule:evenodd;fill:#fff9b5;fill-opacity:1;" d="M 486.332031 239.171875 C 478.558594 249.472656 469.695312 253.691406 458.054688 260.371094 C 459.242188 260.371094 460.417969 260.371094 461.609375 260.371094 C 496.832031 287.109375 524.84375 304.125 532.285156 359.390625 C 541.742188 360.546875 551.152344 361.722656 560.59375 362.914062 C 558.824219 360.546875 557.074219 358.183594 555.304688 355.851562 C 546.457031 346.394531 537.609375 336.96875 528.796875 327.574219 C 529.953125 324.035156 531.109375 320.480469 532.285156 316.957031 C 547.066406 313.4375 554.476562 307.996094 560.59375 295.726562 C 559.421875 295.726562 558.246094 295.726562 557.074219 295.726562 C 541.214844 288.21875 513.019531 291.757812 498.75 283.339844 C 497.839844 268.441406 497.507812 247.042969 486.332031 239.171875 "/><path style=" stroke:none;fill-rule:evenodd;fill:#ffffff;fill-opacity:1;" d="M 548.226562 242.710938 C 538.699219 253.476562 520.59375 258.933594 514.640625 272.757812 C 530.546875 269.714844 545.28125 259.046875 553.515625 248.003906 C 552.328125 246.234375 551.152344 244.464844 549.980469 242.710938 C 549.367188 242.710938 548.804688 242.710938 548.226562 242.710938 "/><path style=" stroke:none;fill-rule:evenodd;fill:#ed7793;fill-opacity:1;" d="M 357.296875 263.910156 C 337.105469 277.453125 311.871094 278.742188 297.1875 297.496094 C 260.742188 344.175781 187.320312 521.742188 293.667969 546.746094 C 389.988281 569.386719 500.566406 452.109375 516.394531 380.589844 C 514.027344 369.394531 511.679688 358.183594 509.332031 347.003906 C 488.183594 286.679688 437.050781 266.207031 357.296875 263.910156 "/><path style=" stroke:none;fill-rule:evenodd;fill:#221b1a;fill-opacity:1;" d="M 429.761719 324.035156 C 433.664062 326.683594 434.175781 327.226562 436.835938 331.113281 C 435.085938 333.429688 433.296875 335.792969 431.546875 338.15625 C 427.992188 337.578125 424.46875 336.96875 420.945312 336.40625 C 420.945312 334.023438 420.945312 331.675781 420.945312 329.328125 C 423.90625 327.574219 426.847656 325.789062 429.761719 324.035156 "/><path style=" stroke:none;fill-rule:evenodd;fill:#221b1a;fill-opacity:1;" d="M 371.4375 327.574219 C 373.1875 327.574219 374.976562 327.574219 376.746094 327.574219 C 377.917969 328.730469 379.109375 329.90625 380.285156 331.113281 C 374.59375 341.183594 367.945312 345.433594 357.296875 350.527344 C 354.355469 349.914062 351.410156 349.351562 348.449219 348.773438 C 348.449219 346.394531 348.449219 344.046875 348.449219 341.695312 C 356.105469 336.96875 363.78125 332.269531 371.4375 327.574219 "/><path style=" stroke:none;fill-rule:evenodd;fill:#221b1a;fill-opacity:1;" d="M 309.574219 369.992188 C 313.113281 370.570312 316.636719 371.164062 320.175781 371.742188 C 320.175781 372.320312 320.175781 372.917969 320.175781 373.527344 C 319.613281 376.457031 319 379.398438 318.40625 382.34375 C 315.460938 385.285156 312.535156 388.246094 309.574219 391.191406 C 307.226562 391.191406 304.878906 391.191406 302.511719 391.191406 C 301.324219 389.421875 300.132812 387.667969 298.957031 385.898438 C 299.554688 384.128906 300.132812 382.34375 300.742188 380.589844 C 303.6875 377.050781 306.613281 373.527344 309.574219 369.992188 "/><path style=" stroke:none;fill-rule:evenodd;fill:#221b1a;fill-opacity:1;" d="M 436.835938 369.992188 C 439.234375 371.164062 441.582031 372.320312 443.929688 373.527344 C 443.320312 377.050781 442.742188 380.589844 442.160156 384.128906 C 438.625 387.074219 435.085938 390.03125 431.546875 392.960938 C 429.179688 391.769531 426.847656 390.609375 424.46875 389.421875 C 428.601562 382.9375 432.738281 376.457031 436.835938 369.992188 "/><path style=" stroke:none;fill-rule:evenodd;fill:#221b1a;fill-opacity:1;" d="M 387.34375 384.128906 C 389.128906 384.128906 390.898438 384.128906 392.652344 384.128906 C 392.089844 388.246094 391.476562 392.363281 390.898438 396.480469 C 386.78125 407.015625 381.226562 409.84375 371.4375 405.34375 C 371.4375 404.765625 371.4375 404.171875 371.4375 403.558594 C 371.4375 401.804688 371.4375 400.019531 371.4375 398.265625 C 376.746094 393.554688 382.070312 388.824219 387.34375 384.128906 "/><path style=" stroke:none;fill-rule:evenodd;fill:#221b1a;fill-opacity:1;" d="M 325.480469 417.699219 C 328.425781 418.308594 331.367188 418.90625 334.328125 419.484375 C 333.75 423.585938 333.136719 427.71875 332.558594 431.851562 C 330.789062 434.796875 329.003906 437.738281 327.234375 440.699219 C 324.902344 440.699219 322.539062 440.699219 320.175781 440.699219 C 318.40625 438.316406 316.636719 435.96875 314.882812 433.621094 C 316.074219 430.082031 317.214844 426.542969 318.40625 423.003906 C 320.769531 421.21875 323.132812 419.484375 325.480469 417.699219 "/><path style=" stroke:none;fill-rule:evenodd;fill:#221b1a;fill-opacity:1;" d="M 420.945312 437.144531 C 423.292969 437.144531 425.675781 437.144531 427.992188 437.144531 C 427.992188 439.492188 427.992188 441.875 427.992188 444.238281 C 423.34375 454.011719 419.902344 458.707031 410.347656 463.667969 C 408.558594 463.089844 406.808594 462.476562 405.023438 461.914062 C 405.023438 458.957031 405.023438 455.996094 405.023438 453.035156 C 410.347656 447.761719 415.621094 442.453125 420.945312 437.144531 "/><path style=" stroke:none;fill-rule:evenodd;fill:#221b1a;fill-opacity:1;" d="M 275.988281 442.453125 C 288.011719 446.125 281.976562 455.203125 277.773438 461.914062 C 273.625 462.476562 269.507812 463.089844 265.355469 463.667969 C 264.792969 461.914062 264.214844 460.128906 263.621094 458.359375 C 267.738281 453.035156 271.839844 447.761719 275.988281 442.453125 "/><path style=" stroke:none;fill-rule:evenodd;fill:#221b1a;fill-opacity:1;" d="M 359.066406 447.761719 C 360.851562 447.761719 362.605469 447.761719 364.390625 447.761719 C 365.566406 448.949219 366.738281 450.125 367.914062 451.28125 C 364.226562 461.386719 362.441406 465.667969 353.757812 470.730469 C 350.832031 469.539062 347.871094 468.382812 344.914062 467.191406 C 344.914062 466.613281 344.914062 466.015625 344.914062 465.421875 C 345.507812 464.246094 346.101562 463.089844 346.699219 461.914062 C 350.832031 457.1875 354.933594 452.472656 359.066406 447.761719 "/><path style=" stroke:none;fill-rule:evenodd;fill:#221b1a;fill-opacity:1;" d="M 302.511719 483.097656 C 304.878906 484.273438 307.226562 485.496094 309.574219 486.652344 C 309.574219 488.421875 309.574219 490.191406 309.574219 491.960938 C 306.050781 496.078125 302.511719 500.214844 298.957031 504.316406 C 296.59375 503.753906 294.261719 503.15625 291.898438 502.5625 C 291.316406 499.617188 290.722656 496.675781 290.144531 493.730469 C 291.898438 491.367188 293.667969 489.035156 295.417969 486.652344 C 297.800781 485.496094 300.132812 484.273438 302.511719 483.097656 "/><path style=" stroke:none;fill-rule:evenodd;fill:#221b1a;fill-opacity:1;" d="M 337.867188 509.621094 C 346.863281 509.277344 352.832031 509.605469 357.296875 513.160156 C 354.355469 517.875 351.410156 522.585938 348.449219 527.316406 C 340.480469 526.9375 338.925781 526.042969 334.328125 523.792969 C 334.328125 520.835938 334.328125 517.875 334.328125 514.929688 C 335.503906 513.160156 336.675781 511.375 337.867188 509.621094 "/><g clip-rule="nonzero" clip-path="url(#aba82d2ce8)"><path style=" stroke:none;fill-rule:evenodd;fill:#3c351b;fill-opacity:1;" d="M 532.285156 359.390625 C 524.84375 304.125 496.832031 287.109375 461.609375 260.371094 C 460.417969 260.371094 459.242188 260.371094 458.054688 260.371094 C 469.695312 253.691406 478.558594 249.472656 486.332031 239.171875 C 497.507812 247.042969 497.839844 268.441406 498.75 283.339844 C 513.019531 291.757812 541.214844 288.21875 557.074219 295.726562 C 558.246094 295.726562 559.421875 295.726562 560.59375 295.726562 C 554.476562 307.996094 547.066406 313.4375 532.285156 316.957031 C 531.109375 320.480469 529.953125 324.035156 528.796875 327.574219 C 537.609375 336.96875 546.457031 346.394531 555.304688 355.851562 C 557.074219 358.183594 558.824219 360.546875 560.59375 362.914062 C 551.152344 361.722656 541.742188 360.546875 532.285156 359.390625 Z M 293.667969 546.746094 C 187.320312 521.742188 260.742188 344.175781 297.1875 297.496094 C 311.871094 278.742188 337.105469 277.453125 357.296875 263.910156 C 437.050781 266.207031 488.183594 286.679688 509.332031 347.003906 C 511.679688 358.183594 514.027344 369.394531 516.394531 380.589844 C 500.566406 452.109375 389.988281 569.386719 293.667969 546.746094 Z M 451.007812 256.847656 C 431.230469 247.242188 405.269531 237.832031 383.804688 249.773438 C 378.859375 240.875 376.414062 230.953125 376.746094 216.167969 C 409.039062 224.421875 433.746094 233.765625 451.007812 256.847656 Z M 548.226562 242.710938 C 548.804688 242.710938 549.367188 242.710938 549.980469 242.710938 C 551.152344 244.464844 552.328125 246.234375 553.515625 248.003906 C 545.28125 259.046875 530.546875 269.714844 514.640625 272.757812 C 520.59375 258.933594 538.699219 253.476562 548.226562 242.710938 Z M 553.515625 331.113281 C 553.515625 330.5 553.515625 329.90625 553.515625 329.328125 C 566.746094 316.5625 580.488281 308.773438 578.289062 285.125 C 567.09375 282.183594 555.867188 279.222656 544.703125 276.28125 C 551.765625 268.621094 558.824219 260.964844 565.886719 253.328125 C 566.480469 249.175781 567.09375 245.058594 567.671875 240.925781 C 562.347656 236.808594 557.074219 232.691406 551.765625 228.570312 C 533.824219 231.398438 526.050781 242.179688 512.871094 249.773438 C 508.488281 238.296875 506.140625 228.457031 495.210938 223.265625 C 491.058594 222.667969 486.941406 222.089844 482.808594 221.496094 C 479.863281 223.265625 476.921875 225.035156 473.996094 226.785156 C 469.25 231.5 464.535156 236.226562 459.839844 240.925781 C 440.308594 214.1875 410.03125 208.464844 373.1875 198.507812 C 359.679688 207.851562 357.644531 228.804688 364.390625 248.003906 C 270.546875 249.308594 240.304688 336.222656 222.957031 414.175781 C 211.945312 463.683594 216.542969 529.019531 247.710938 552.054688 C 281.296875 576.890625 342.695312 566.671875 378.515625 552.054688 C 463.296875 517.476562 509.066406 473.804688 532.285156 377.050781 C 545.828125 377.050781 559.421875 377.050781 572.980469 377.050781 C 575.328125 372.320312 577.675781 367.609375 580.042969 362.914062 C 572.039062 351.667969 566.566406 337.332031 553.515625 331.113281 "/></g><path style=" stroke:none;fill-rule:evenodd;fill:#3c351b;fill-opacity:1;" d="M 429.761719 324.035156 C 433.664062 326.683594 434.175781 327.226562 436.835938 331.113281 C 435.085938 333.429688 433.296875 335.792969 431.546875 338.15625 C 427.992188 337.578125 424.46875 336.96875 420.945312 336.40625 C 420.945312 334.023438 420.945312 331.675781 420.945312 329.328125 C 423.90625 327.574219 426.847656 325.789062 429.761719 324.035156 "/><path style=" stroke:none;fill-rule:evenodd;fill:#3c351b;fill-opacity:1;" d="M 371.4375 327.574219 C 373.1875 327.574219 374.976562 327.574219 376.746094 327.574219 C 377.917969 328.730469 379.109375 329.90625 380.285156 331.113281 C 374.59375 341.183594 367.945312 345.433594 357.296875 350.527344 C 354.355469 349.914062 351.410156 349.351562 348.449219 348.773438 C 348.449219 346.394531 348.449219 344.046875 348.449219 341.695312 C 356.105469 336.96875 363.78125 332.269531 371.4375 327.574219 "/><path style=" stroke:none;fill-rule:evenodd;fill:#3c351b;fill-opacity:1;" d="M 309.574219 369.992188 C 313.113281 370.570312 316.636719 371.164062 320.175781 371.742188 C 320.175781 372.320312 320.175781 372.917969 320.175781 373.527344 C 319.613281 376.457031 319 379.398438 318.40625 382.34375 C 315.460938 385.285156 312.535156 388.246094 309.574219 391.191406 C 307.226562 391.191406 304.878906 391.191406 302.511719 391.191406 C 301.324219 389.421875 300.132812 387.667969 298.957031 385.898438 C 299.554688 384.128906 300.132812 382.34375 300.742188 380.589844 C 303.6875 377.050781 306.613281 373.527344 309.574219 369.992188 "/><path style=" stroke:none;fill-rule:evenodd;fill:#3c351b;fill-opacity:1;" d="M 436.835938 369.992188 C 439.234375 371.164062 441.582031 372.320312 443.929688 373.527344 C 443.320312 377.050781 442.742188 380.589844 442.160156 384.128906 C 438.625 387.074219 435.085938 390.03125 431.546875 392.960938 C 429.179688 391.769531 426.847656 390.609375 424.46875 389.421875 C 428.601562 382.9375 432.738281 376.457031 436.835938 369.992188 "/><path style=" stroke:none;fill-rule:evenodd;fill:#3c351b;fill-opacity:1;" d="M 387.34375 384.128906 C 389.128906 384.128906 390.898438 384.128906 392.652344 384.128906 C 392.089844 388.246094 391.476562 392.363281 390.898438 396.480469 C 386.78125 407.015625 381.226562 409.84375 371.4375 405.34375 C 371.4375 404.765625 371.4375 404.171875 371.4375 403.558594 C 371.4375 401.804688 371.4375 400.019531 371.4375 398.265625 C 376.746094 393.554688 382.070312 388.824219 387.34375 384.128906 "/><path style=" stroke:none;fill-rule:evenodd;fill:#3c351b;fill-opacity:1;" d="M 325.480469 417.699219 C 328.425781 418.308594 331.367188 418.90625 334.328125 419.484375 C 333.75 423.585938 333.136719 427.71875 332.558594 431.851562 C 330.789062 434.796875 329.003906 437.738281 327.234375 440.699219 C 324.902344 440.699219 322.539062 440.699219 320.175781 440.699219 C 318.40625 438.316406 316.636719 435.96875 314.882812 433.621094 C 316.074219 430.082031 317.214844 426.542969 318.40625 423.003906 C 320.769531 421.21875 323.132812 419.484375 325.480469 417.699219 "/><path style=" stroke:none;fill-rule:evenodd;fill:#3c351b;fill-opacity:1;" d="M 420.945312 437.144531 C 423.292969 437.144531 425.675781 437.144531 427.992188 437.144531 C 427.992188 439.492188 427.992188 441.875 427.992188 444.238281 C 423.34375 454.011719 419.902344 458.707031 410.347656 463.667969 C 408.558594 463.089844 406.808594 462.476562 405.023438 461.914062 C 405.023438 458.957031 405.023438 455.996094 405.023438 453.035156 C 410.347656 447.761719 415.621094 442.453125 420.945312 437.144531 "/><path style=" stroke:none;fill-rule:evenodd;fill:#3c351b;fill-opacity:1;" d="M 275.988281 442.453125 C 288.011719 446.125 281.976562 455.203125 277.773438 461.914062 C 273.625 462.476562 269.507812 463.089844 265.355469 463.667969 C 264.792969 461.914062 264.214844 460.128906 263.621094 458.359375 C 267.738281 453.035156 271.839844 447.761719 275.988281 442.453125 "/><path style=" stroke:none;fill-rule:evenodd;fill:#3c351b;fill-opacity:1;" d="M 359.066406 447.761719 C 360.851562 447.761719 362.605469 447.761719 364.390625 447.761719 C 365.566406 448.949219 366.738281 450.125 367.914062 451.28125 C 364.226562 461.386719 362.441406 465.667969 353.757812 470.730469 C 350.832031 469.539062 347.871094 468.382812 344.914062 467.191406 C 344.914062 466.613281 344.914062 466.015625 344.914062 465.421875 C 345.507812 464.246094 346.101562 463.089844 346.699219 461.914062 C 350.832031 457.1875 354.933594 452.472656 359.066406 447.761719 "/><path style=" stroke:none;fill-rule:evenodd;fill:#3c351b;fill-opacity:1;" d="M 302.511719 483.097656 C 304.878906 484.273438 307.226562 485.496094 309.574219 486.652344 C 309.574219 488.421875 309.574219 490.191406 309.574219 491.960938 C 306.050781 496.078125 302.511719 500.214844 298.957031 504.316406 C 296.59375 503.753906 294.261719 503.15625 291.898438 502.5625 C 291.316406 499.617188 290.722656 496.675781 290.144531 493.730469 C 291.898438 491.367188 293.667969 489.035156 295.417969 486.652344 C 297.800781 485.496094 300.132812 484.273438 302.511719 483.097656 "/><path style=" stroke:none;fill-rule:evenodd;fill:#3c351b;fill-opacity:1;" d="M 337.867188 509.621094 C 346.863281 509.277344 352.832031 509.605469 357.296875 513.160156 C 354.355469 517.875 351.410156 522.585938 348.449219 527.316406 C 340.480469 526.9375 338.925781 526.042969 334.328125 523.792969 C 334.328125 520.835938 334.328125 517.875 334.328125 514.929688 C 335.503906 513.160156 336.675781 511.375 337.867188 509.621094 "/></g></svg>