<svg xmlns="http://www.w3.org/2000/svg" xmlns:xlink="http://www.w3.org/1999/xlink" width="500" zoomAndPan="magnify" viewBox="0 0 375 374.999991" height="500" preserveAspectRatio="xMidYMid meet" version="1.2"><defs><clipPath id="12446d8501"><path d="M 97.289062 97.289062 L 278 97.289062 L 278 278 L 97.289062 278 Z M 97.289062 97.289062 "/></clipPath></defs><g id="7758500f31"><path style=" stroke:none;fill-rule:nonzero;fill:#2d371e;fill-opacity:1;" d="M 187.5 139.605469 C 161.089844 139.605469 139.601562 161.085938 139.601562 187.496094 C 139.601562 213.90625 161.089844 235.390625 187.5 235.390625 C 213.910156 235.390625 235.398438 213.90625 235.398438 187.496094 C 235.398438 161.085938 213.910156 139.605469 187.5 139.605469 Z M 187.5 218.492188 C 170.414062 218.492188 156.511719 204.585938 156.511719 187.496094 C 156.511719 170.40625 170.414062 156.507812 187.5 156.507812 C 204.585938 156.507812 218.488281 170.40625 218.488281 187.496094 C 218.488281 204.585938 204.585938 218.492188 187.5 218.492188 Z M 187.5 218.492188 "/><path style=" stroke:none;fill-rule:nonzero;fill:#2d371e;fill-opacity:1;" d="M 237.195312 128.117188 C 231.851562 128.117188 227.515625 132.453125 227.515625 137.796875 C 227.515625 143.148438 231.851562 147.480469 237.195312 147.480469 C 242.542969 147.480469 246.875 143.148438 246.875 137.796875 C 246.875 132.453125 242.542969 128.117188 237.195312 128.117188 Z M 237.195312 128.117188 "/><g clip-rule="nonzero" clip-path="url(#12446d8501)"><path style=" stroke:none;fill-rule:nonzero;fill:#2d371e;fill-opacity:1;" d="M 234.75 97.292969 L 140.25 97.292969 C 116.5625 97.292969 97.289062 116.558594 97.289062 140.242188 L 97.289062 234.746094 C 97.289062 258.433594 116.5625 277.707031 140.25 277.707031 L 234.75 277.707031 C 258.4375 277.707031 277.710938 258.433594 277.710938 234.746094 L 277.710938 140.242188 C 277.710938 116.558594 258.4375 97.292969 234.75 97.292969 Z M 260.800781 234.746094 C 260.800781 249.109375 249.113281 260.804688 234.75 260.804688 L 140.25 260.804688 C 125.882812 260.804688 114.195312 249.109375 114.195312 234.746094 L 114.195312 140.242188 C 114.195312 125.878906 125.882812 114.195312 140.25 114.195312 L 234.75 114.195312 C 249.113281 114.195312 260.800781 125.878906 260.800781 140.242188 Z M 260.800781 234.746094 "/></g></g></svg>