<svg xmlns="http://www.w3.org/2000/svg" xmlns:xlink="http://www.w3.org/1999/xlink" width="500" zoomAndPan="magnify" viewBox="0 0 375 374.999991" height="500" preserveAspectRatio="xMidYMid meet" version="1.2"><defs><clipPath id="4ab5b7635b"><path d="M 94.359375 94.125 L 280.359375 94.125 L 280.359375 280.875 L 94.359375 280.875 Z M 94.359375 94.125 "/></clipPath></defs><g id="e62fb5a276"><g clip-rule="nonzero" clip-path="url(#4ab5b7635b)"><path style=" stroke:none;fill-rule:nonzero;fill:#2d371e;fill-opacity:1;" d="M 280.359375 187.328125 C 280.359375 188.851562 280.320312 190.371094 280.246094 191.890625 C 280.171875 193.414062 280.058594 194.929688 279.910156 196.445312 C 279.761719 197.960938 279.574219 199.472656 279.351562 200.980469 C 279.128906 202.484375 278.867188 203.984375 278.570312 205.480469 C 278.273438 206.972656 277.941406 208.457031 277.570312 209.933594 C 277.199219 211.410156 276.796875 212.878906 276.351562 214.335938 C 275.910156 215.792969 275.433594 217.238281 274.921875 218.671875 C 274.410156 220.105469 273.859375 221.527344 273.277344 222.933594 C 272.695312 224.339844 272.078125 225.730469 271.429688 227.109375 C 270.777344 228.484375 270.09375 229.84375 269.375 231.1875 C 268.660156 232.53125 267.910156 233.855469 267.125 235.160156 C 266.34375 236.46875 265.53125 237.753906 264.683594 239.019531 C 263.839844 240.285156 262.964844 241.53125 262.054688 242.753906 C 261.148438 243.976562 260.214844 245.175781 259.25 246.355469 C 258.28125 247.53125 257.289062 248.683594 256.265625 249.8125 C 255.246094 250.941406 254.195312 252.042969 253.121094 253.121094 C 252.042969 254.195312 250.941406 255.246094 249.8125 256.269531 C 248.6875 257.292969 247.535156 258.285156 246.355469 259.253906 C 245.179688 260.21875 243.980469 261.152344 242.757812 262.058594 C 241.535156 262.96875 240.292969 263.84375 239.027344 264.691406 C 237.761719 265.535156 236.476562 266.351562 235.171875 267.132812 C 233.863281 267.914062 232.539062 268.667969 231.199219 269.386719 C 229.855469 270.101562 228.496094 270.785156 227.121094 271.4375 C 225.746094 272.089844 224.355469 272.707031 222.949219 273.289062 C 221.542969 273.871094 220.121094 274.421875 218.6875 274.933594 C 217.257812 275.445312 215.8125 275.921875 214.355469 276.367188 C 212.898438 276.808594 211.433594 277.214844 209.957031 277.582031 C 208.480469 277.953125 206.996094 278.285156 205.503906 278.582031 C 204.007812 278.878906 202.511719 279.140625 201.003906 279.363281 C 199.5 279.585938 197.988281 279.773438 196.476562 279.921875 C 194.960938 280.074219 193.441406 280.183594 191.921875 280.261719 C 190.402344 280.335938 188.882812 280.371094 187.359375 280.371094 C 185.835938 280.371094 184.316406 280.335938 182.796875 280.261719 C 181.277344 280.1875 179.757812 280.074219 178.246094 279.925781 C 176.730469 279.773438 175.21875 279.589844 173.714844 279.363281 C 172.207031 279.140625 170.710938 278.882812 169.214844 278.582031 C 167.722656 278.285156 166.238281 277.953125 164.761719 277.582031 C 163.285156 277.214844 161.820312 276.808594 160.363281 276.367188 C 158.90625 275.921875 157.460938 275.445312 156.03125 274.933594 C 154.597656 274.421875 153.175781 273.871094 151.769531 273.289062 C 150.363281 272.707031 148.972656 272.089844 147.597656 271.4375 C 146.222656 270.785156 144.863281 270.101562 143.519531 269.386719 C 142.179688 268.667969 140.855469 267.917969 139.546875 267.132812 C 138.242188 266.351562 136.957031 265.535156 135.691406 264.691406 C 134.425781 263.84375 133.183594 262.96875 131.960938 262.058594 C 130.738281 261.152344 129.539062 260.21875 128.363281 259.253906 C 127.183594 258.285156 126.035156 257.292969 124.90625 256.269531 C 123.777344 255.246094 122.675781 254.195312 121.597656 253.121094 C 120.523438 252.042969 119.472656 250.941406 118.453125 249.8125 C 117.429688 248.683594 116.4375 247.53125 115.46875 246.355469 C 114.503906 245.175781 113.570312 243.976562 112.664062 242.753906 C 111.753906 241.53125 110.878906 240.285156 110.035156 239.019531 C 109.1875 237.753906 108.375 236.46875 107.59375 235.160156 C 106.808594 233.855469 106.058594 232.53125 105.34375 231.1875 C 104.625 229.84375 103.941406 228.484375 103.289062 227.109375 C 102.640625 225.730469 102.023438 224.339844 101.441406 222.933594 C 100.859375 221.527344 100.308594 220.105469 99.796875 218.671875 C 99.285156 217.238281 98.808594 215.792969 98.367188 214.335938 C 97.925781 212.878906 97.519531 211.410156 97.148438 209.933594 C 96.777344 208.457031 96.445312 206.972656 96.148438 205.480469 C 95.851562 203.984375 95.589844 202.484375 95.367188 200.980469 C 95.144531 199.472656 94.957031 197.960938 94.808594 196.445312 C 94.660156 194.929688 94.546875 193.414062 94.472656 191.890625 C 94.398438 190.371094 94.359375 188.851562 94.359375 187.328125 C 94.359375 185.804688 94.398438 184.28125 94.472656 182.761719 C 94.546875 181.242188 94.660156 179.722656 94.808594 178.207031 C 94.957031 176.691406 95.144531 175.179688 95.367188 173.675781 C 95.589844 172.167969 95.851562 170.667969 96.148438 169.175781 C 96.445312 167.679688 96.777344 166.195312 97.148438 164.71875 C 97.519531 163.242188 97.925781 161.773438 98.367188 160.316406 C 98.808594 158.859375 99.285156 157.414062 99.796875 155.980469 C 100.308594 154.546875 100.859375 153.125 101.441406 151.71875 C 102.023438 150.3125 102.640625 148.921875 103.289062 147.542969 C 103.941406 146.167969 104.625 144.808594 105.34375 143.464844 C 106.058594 142.121094 106.808594 140.796875 107.59375 139.492188 C 108.375 138.1875 109.1875 136.898438 110.035156 135.632812 C 110.878906 134.367188 111.753906 133.125 112.664062 131.898438 C 113.570312 130.675781 114.503906 129.476562 115.46875 128.300781 C 116.4375 127.121094 117.429688 125.96875 118.453125 124.839844 C 119.472656 123.714844 120.523438 122.609375 121.597656 121.535156 C 122.675781 120.457031 123.777344 119.40625 124.90625 118.386719 C 126.035156 117.363281 127.183594 116.367188 128.363281 115.402344 C 129.539062 114.4375 130.738281 113.5 131.960938 112.59375 C 133.183594 111.683594 134.425781 110.808594 135.691406 109.960938 C 136.957031 109.117188 138.242188 108.300781 139.546875 107.519531 C 140.855469 106.738281 142.179688 105.984375 143.519531 105.269531 C 144.863281 104.550781 146.222656 103.867188 147.597656 103.214844 C 148.972656 102.566406 150.363281 101.949219 151.769531 101.363281 C 153.175781 100.78125 154.597656 100.234375 156.027344 99.722656 C 157.460938 99.207031 158.90625 98.730469 160.363281 98.289062 C 161.820312 97.847656 163.285156 97.441406 164.761719 97.070312 C 166.238281 96.699219 167.722656 96.367188 169.214844 96.070312 C 170.710938 95.773438 172.207031 95.511719 173.714844 95.289062 C 175.21875 95.066406 176.730469 94.878906 178.246094 94.730469 C 179.757812 94.582031 181.277344 94.46875 182.796875 94.394531 C 184.316406 94.320312 185.835938 94.28125 187.359375 94.28125 C 188.882812 94.28125 190.402344 94.320312 191.921875 94.394531 C 193.441406 94.46875 194.960938 94.582031 196.476562 94.730469 C 197.988281 94.878906 199.5 95.066406 201.003906 95.289062 C 202.511719 95.511719 204.007812 95.773438 205.503906 96.070312 C 206.996094 96.367188 208.480469 96.699219 209.957031 97.070312 C 211.433594 97.441406 212.898438 97.847656 214.355469 98.289062 C 215.8125 98.730469 217.257812 99.207031 218.6875 99.722656 C 220.121094 100.234375 221.542969 100.78125 222.949219 101.363281 C 224.355469 101.949219 225.746094 102.566406 227.121094 103.214844 C 228.496094 103.867188 229.855469 104.550781 231.199219 105.269531 C 232.539062 105.984375 233.863281 106.738281 235.171875 107.519531 C 236.476562 108.300781 237.761719 109.117188 239.027344 109.960938 C 240.292969 110.808594 241.535156 111.683594 242.757812 112.59375 C 243.980469 113.5 245.179688 114.4375 246.355469 115.402344 C 247.535156 116.367188 248.683594 117.363281 249.8125 118.386719 C 250.941406 119.40625 252.042969 120.457031 253.117188 121.535156 C 254.195312 122.609375 255.242188 123.714844 256.265625 124.839844 C 257.289062 125.96875 258.28125 127.121094 259.246094 128.300781 C 260.214844 129.476562 261.148438 130.675781 262.054688 131.898438 C 262.960938 133.125 263.839844 134.367188 264.683594 135.632812 C 265.53125 136.898438 266.34375 138.1875 267.125 139.492188 C 267.910156 140.796875 268.660156 142.121094 269.375 143.464844 C 270.09375 144.808594 270.777344 146.167969 271.429688 147.542969 C 272.078125 148.921875 272.695312 150.3125 273.277344 151.71875 C 273.859375 153.125 274.410156 154.546875 274.921875 155.980469 C 275.433594 157.414062 275.910156 158.859375 276.351562 160.316406 C 276.796875 161.773438 277.199219 163.242188 277.570312 164.71875 C 277.941406 166.195312 278.273438 167.679688 278.570312 169.175781 C 278.867188 170.667969 279.128906 172.167969 279.351562 173.671875 C 279.574219 175.179688 279.761719 176.691406 279.910156 178.207031 C 280.058594 179.722656 280.171875 181.238281 280.246094 182.761719 C 280.320312 184.28125 280.359375 185.804688 280.359375 187.328125 Z M 280.359375 187.328125 "/></g><path style="fill-rule:evenodd;fill:#ffffff;fill-opacity:1;stroke-width:2.14;stroke-linecap:round;stroke-linejoin:round;stroke:#ffffff;stroke-opacity:1;stroke-miterlimit:1.5;" d="M 30640.403338 9422.348355 L 30685.702342 9422.031381 L 30795.699115 9582.116977 L 30749.998612 9581.722521 Z M 30640.403338 9422.348355 " transform="matrix(0.554562,0,0,0.554562,-16847.721449,-5083.250306)"/><path style="fill-rule:evenodd;fill:#ffffff;fill-opacity:1;stroke-width:2.14;stroke-linecap:round;stroke-linejoin:round;stroke:#ffffff;stroke-opacity:1;stroke-miterlimit:1.5;" d="M 30776.800464 9422.031381 L 30790.902253 9422.031381 L 30653.99797 9582.116977 L 30640.403338 9582.116977 Z M 30776.800464 9422.031381 " transform="matrix(0.554562,0,0,0.554562,-16847.721449,-5083.250306)"/><path style=" stroke:none;fill-rule:evenodd;fill:#2d371e;fill-opacity:1;" d="M 154.640625 148.742188 L 166.285156 148.808594 L 220.132812 225.914062 L 208.488281 225.898438 Z M 154.640625 148.742188 "/><path style=" stroke:none;fill-rule:evenodd;fill:#2d371e;fill-opacity:1;" d="M 154.640625 148.742188 L 166.285156 148.808594 L 220.132812 225.914062 L 208.488281 225.898438 Z M 155.527344 149.210938 C 155.527344 149.210938 208.710938 225.429688 208.710938 225.429688 C 208.710938 225.429688 219.246094 225.445312 219.246094 225.445312 L 166.007812 149.273438 Z M 155.527344 149.210938 "/></g></svg>